<svg height="512pt" viewBox="-86 0 512 512" width="512pt" xmlns="http://www.w3.org/2000/svg"><g fill="#93a3af"><path d="m321.5 161h-13v-79h13c5.523438 0 10 4.476562 10 10v59c0 5.523438-4.476562 10-10 10zm0 0"/><path d="m17.5 252h13v-39h-13c-5.523438 0-10 4.476562-10 10v19c0 5.523438 4.476562 10 10 10zm0 0"/><path d="m17.5 181h13v-99h-13c-5.523438 0-10 4.476562-10 10v79c0 5.523438 4.476562 10 10 10zm0 0"/><path d="m17.5 314h13v-39h-13c-5.523438 0-10 4.476562-10 10v19c0 5.523438 4.476562 10 10 10zm0 0"/></g><path d="m27.917969 484.5v-457c0-11.046875 8.953125-20 20-20h243.164062c11.046875 0 20 8.953125 20 20v457c0 11.046875-8.953125 20-20 20h-243.164062c-11.046875 0-20-8.953125-20-20zm0 0" fill="#7b8c98"/><path d="m311.078125 27.5v457c0 11.050781-8.949219 20-20 20h-19.578125c11.050781 0 20-8.949219 20-20v-457c0-11.050781-8.949219-20-20-20h19.578125c11.050781 0 20 8.949219 20 20zm0 0" fill="#627687"/><path d="m27.917969 58h283.164062v396h-283.164062zm0 0" fill="#7fb7ea"/><path d="m291.5 58h19.582031v396h-19.582031zm0 0" fill="#5f9eeb"/><path d="m254.851562 314h-170.703124c-7.8125 0-14.148438-6.335938-14.148438-14.148438v-22.703124c0-7.8125 6.335938-14.148438 14.148438-14.148438h170.703124c7.8125 0 14.148438 6.335938 14.148438 14.148438v22.703124c0 7.8125-6.335938 14.148438-14.148438 14.148438zm0 0" fill="#d3d8df"/><path d="m254.851562 392h-170.703124c-7.8125 0-14.148438-6.335938-14.148438-14.148438v-22.703124c0-7.8125 6.335938-14.148438 14.148438-14.148438h170.703124c7.8125 0 14.148438 6.335938 14.148438 14.148438v22.703124c0 7.8125-6.335938 14.148438-14.148438 14.148438zm0 0" fill="#d3d8df"/><path d="m213 174.25c0 5.269531-.941406 10.320312-2.660156 15-6.109375 16.628906-22.089844 28.5-40.839844 28.5s-34.730469-11.871094-40.839844-28.5c-1.71875-4.679688-2.660156-9.730469-2.660156-15 0-24.03125 19.480469-43.5 43.5-43.5s43.5 19.46875 43.5 43.5zm0 0" fill="#74e2cd"/><path d="m210.339844 189.25c-6.109375 16.628906-22.089844 28.5-40.839844 28.5s-34.730469-11.871094-40.839844-28.5c6.109375-16.640625 22.089844-28.5 40.839844-28.5s34.730469 11.859375 40.839844 28.5zm0 0" fill="#eb5777"/><path d="m193.5 142.5c0 13.253906-10.746094 24-24 24s-24-10.746094-24-24 10.746094-24 24-24 24 10.746094 24 24zm0 0" fill="#f8c298"/><path d="m321.5 74.5h-2.917969v-47c0-15.164062-12.335937-27.5-27.5-27.5h-243.164062c-15.164063 0-27.5 12.335938-27.5 27.5v47h-2.917969c-9.648438 0-17.5 7.851562-17.5 17.5v79c0 9.648438 7.851562 17.5 17.5 17.5h2.917969v17h-2.917969c-9.648438 0-17.5 7.851562-17.5 17.5v19c0 9.648438 7.851562 17.5 17.5 17.5h2.917969v8h-2.917969c-9.648438 0-17.5 7.851562-17.5 17.5v19c0 9.648438 7.851562 17.5 17.5 17.5h2.917969v60.871094c0 4.144531 3.359375 7.5 7.5 7.5s7.5-3.355469 7.5-7.5v-316.871094h268.164062v145.882812c0 4.140626 3.355469 7.5 7.5 7.5 4.140625 0 7.5-3.359374 7.5-7.5v-42.882812h2.917969c9.648438 0 17.5-7.851562 17.5-17.5v-59c0-9.648438-7.851562-17.5-17.5-17.5zm-304 99c-1.378906 0-2.5-1.121094-2.5-2.5v-79c0-1.378906 1.121094-2.5 2.5-2.5h2.917969v84zm0 71c-1.378906 0-2.5-1.121094-2.5-2.5v-19c0-1.378906 1.121094-2.5 2.5-2.5h2.917969v24zm0 62c-1.378906 0-2.5-1.121094-2.5-2.5v-19c0-1.378906 1.121094-2.5 2.5-2.5h2.917969v24zm17.917969-256v-23c0-6.894531 5.605469-12.5 12.5-12.5h243.164062c6.890625 0 12.5 5.605469 12.5 12.5v23zm288.582031 100.5c0 1.378906-1.121094 2.5-2.5 2.5h-2.917969v-64h2.917969c1.378906 0 2.5 1.121094 2.5 2.5zm0 0"/><path d="m311.082031 236.542969c-4.140625 0-7.5 3.355469-7.5 7.5v202.457031h-268.164062v-31.46875c0-4.140625-3.359375-7.5-7.5-7.5s-7.5 3.359375-7.5 7.5v69.46875c0 15.164062 12.335937 27.5 27.5 27.5h155.390625c4.144531 0 7.5-3.359375 7.5-7.5s-3.355469-7.5-7.5-7.5h-155.390625c-6.894531 0-12.5-5.605469-12.5-12.5v-23h268.164062v23c0 6.894531-5.609375 12.5-12.5 12.5h-55.109375c-4.144531 0-7.5 3.359375-7.5 7.5s3.355469 7.5 7.5 7.5h55.109375c15.164063 0 27.5-12.335938 27.5-27.5v-240.457031c0-4.144531-3.359375-7.5-7.5-7.5zm0 0"/><path d="m189.082031 26.832031h-39.164062c-4.140625 0-7.5 3.359375-7.5 7.5 0 4.144531 3.359375 7.5 7.5 7.5h39.164062c4.140625 0 7.5-3.355469 7.5-7.5 0-4.140625-3.359375-7.5-7.5-7.5zm0 0"/><path d="m62.5 277.148438v22.703124c0 11.9375 9.710938 21.648438 21.648438 21.648438h170.703124c11.9375 0 21.648438-9.710938 21.648438-21.648438v-22.703124c0-11.9375-9.710938-21.648438-21.648438-21.648438h-170.703124c-11.9375 0-21.648438 9.710938-21.648438 21.648438zm199 0v22.703124c0 3.664063-2.980469 6.648438-6.648438 6.648438h-170.703124c-3.667969 0-6.648438-2.984375-6.648438-6.648438v-22.703124c0-3.667969 2.980469-6.648438 6.648438-6.648438h170.703124c3.667969 0 6.648438 2.980469 6.648438 6.648438zm0 0"/><path d="m62.5 377.851562c0 11.9375 9.710938 21.648438 21.648438 21.648438h170.703124c11.9375 0 21.648438-9.710938 21.648438-21.648438v-22.703124c0-11.9375-9.710938-21.648438-21.648438-21.648438h-170.703124c-11.9375 0-21.648438 9.710938-21.648438 21.648438zm15-22.703124c0-3.667969 2.980469-6.648438 6.648438-6.648438h170.703124c3.664063 0 6.648438 2.980469 6.648438 6.648438v22.703124c0 3.664063-2.984375 6.648438-6.648438 6.648438h-170.703124c-3.667969 0-6.648438-2.984375-6.648438-6.648438zm0 0"/><path d="m104.324219 296h.109375.066406c4.109375 0 7.460938-3.3125 7.5-7.433594.035156-4.140625-3.292969-7.53125-7.433594-7.566406h-.109375c-4.15625-.050781-7.527343 3.289062-7.566406 7.433594-.035156 4.140625 3.292969 7.527344 7.433594 7.566406zm0 0"/><path d="m132.433594 296h.109375.066406c4.109375 0 7.460937-3.3125 7.5-7.433594.035156-4.140625-3.292969-7.53125-7.433594-7.566406h-.109375c-4.125-.050781-7.53125 3.289062-7.566406 7.433594-.035156 4.140625 3.289062 7.527344 7.433594 7.566406zm0 0"/><path d="m160.542969 296h.109375.066406c4.113281 0 7.460938-3.3125 7.5-7.433594.035156-4.140625-3.292969-7.53125-7.433594-7.566406h-.109375c-.023437 0-.046875 0-.070312 0-4.109375 0-7.460938 3.3125-7.496094 7.433594-.035156 4.140625 3.292969 7.527344 7.433594 7.566406zm0 0"/><path d="m188.652344 296h.109375.066406c4.109375 0 7.460937-3.3125 7.5-7.433594.035156-4.140625-3.292969-7.53125-7.433594-7.566406h-.109375c-4.148437-.050781-7.527344 3.289062-7.566406 7.433594-.035156 4.140625 3.292969 7.527344 7.433594 7.566406zm0 0"/><path d="m216.761719 296h.109375.066406c4.113281 0 7.460938-3.3125 7.5-7.433594.035156-4.140625-3.292969-7.53125-7.433594-7.566406h-.109375c-4.117187-.050781-7.527343 3.289062-7.566406 7.433594-.035156 4.140625 3.292969 7.527344 7.433594 7.566406zm0 0"/><path d="m104.324219 374h.109375.066406c4.109375 0 7.460938-3.3125 7.5-7.433594.035156-4.140625-3.292969-7.53125-7.433594-7.566406h-.109375c-.023437 0-.042969 0-.066406 0-4.109375 0-7.460937 3.3125-7.5 7.433594-.035156 4.140625 3.292969 7.527344 7.433594 7.566406zm0 0"/><path d="m132.433594 374h.109375.066406c4.109375 0 7.460937-3.3125 7.5-7.433594.035156-4.140625-3.292969-7.53125-7.433594-7.566406h-.109375c-.023437 0-.042968 0-.066406 0-4.109375 0-7.460938 3.3125-7.5 7.433594-.035156 4.140625 3.289062 7.527344 7.433594 7.566406zm0 0"/><path d="m160.542969 374h.109375.066406c4.113281 0 7.460938-3.3125 7.5-7.433594.035156-4.140625-3.292969-7.53125-7.433594-7.566406h-.109375c-.023437 0-.046875 0-.070312 0-4.109375 0-7.460938 3.3125-7.496094 7.433594-.035156 4.140625 3.292969 7.527344 7.433594 7.566406zm0 0"/><path d="m169.5 225.246094c21.832031 0 40.496094-13.792969 47.757812-33.117188.074219-.179687.144532-.363281.207032-.546875 1.960937-5.414062 3.035156-11.25 3.035156-17.332031 0-16.367188-7.792969-31.582031-20.945312-41.183594-4.019532-12.777344-15.972657-22.066406-30.054688-22.066406-14.085938 0-26.039062 9.292969-30.058594 22.070312-13.136718 9.601563-20.941406 24.84375-20.941406 41.175782 0 6.085937 1.074219 11.921875 3.039062 17.335937.058594.183594.128907.363281.203126.539063 7.257812 19.332031 25.921874 33.125 47.757812 33.125zm-25.941406-64.90625c-3.421875 2.015625-6.578125 4.410156-9.414063 7.136718.957031-5.015624 2.96875-9.746093 5.875-13.890624.90625 2.402343 2.101563 4.667968 3.539063 6.753906zm25.941406 49.90625c-14.5 0-27.019531-8.621094-32.71875-21.003906 3.8125-8.328126 10.613281-14.863282 19.121094-18.332032 4.121094 1.980469 8.730468 3.089844 13.597656 3.089844 4.863281 0 9.472656-1.109375 13.589844-3.085938 8.414062 3.445313 15.316406 10.066407 19.125 18.332032-5.699219 12.378906-18.214844 21-32.714844 21zm29.480469-56.664063c2.925781 4.167969 4.945312 8.925781 5.898437 13.976563-2.855468-2.75-6.03125-5.171875-9.449218-7.203125 1.445312-2.089844 2.640624-4.363281 3.550781-6.773438zm-29.480469-27.582031c9.097656 0 16.5 7.402344 16.5 16.5s-7.402344 16.5-16.5 16.5-16.5-7.402344-16.5-16.5 7.402344-16.5 16.5-16.5zm0 0"/></svg>