<?xml version="1.0" encoding="iso-8859-1"?>
<!-- Generator: Adobe Illustrator 19.0.0, SVG Export Plug-In . SVG Version: 6.00 Build 0)  -->
<svg xmlns="http://www.w3.org/2000/svg" xmlns:xlink="http://www.w3.org/1999/xlink" version="1.1" id="Capa_1" x="0px" y="0px" viewBox="0 0 512 512" style="enable-background:new 0 0 512 512;" xml:space="preserve" width="512" height="512">
<g>
	<g>
		<g>
			<g>
				<g>
					<path style="fill:#FCD0AE;" d="M429.886,252.06L429.886,252.06c-29.75,0-53.867-24.117-53.867-53.867v-35.059       c0-27.58,22.358-49.939,49.939-49.939h7.857c27.58,0,49.939,22.358,49.939,49.939v35.059       C483.753,227.942,459.636,252.06,429.886,252.06z"/>
					<path style="fill:#EBEEF2;" d="M451.279,278.423h-42.787c-29.393,0-53.22,23.828-53.22,53.22v51.46       c0,2.293,1.859,4.151,4.151,4.151h140.926c2.293,0,4.151-1.859,4.151-4.151v-51.46       C504.5,302.251,480.672,278.423,451.279,278.423z"/>
					<path style="fill:#FCAB29;" d="M433.815,113.195h-7.857c-27.58,0-49.939,22.358-49.939,49.939v9.551       c24.861,7.363,63.519-4.975,74.363-20.568c3.907,12.039,20.351,19.725,33.372,23.231v-12.214       C483.753,135.553,461.395,113.195,433.815,113.195z"/>
				</g>
				<g>
					<polygon style="fill:#ED5575;" points="436.708,278.423 423.063,278.423 409.39,336.179 429.886,357.747 450.381,336.179             "/>
				</g>
			</g>
			<g>
				<g>
					<path style="fill:#FCD0AE;" d="M82.114,252.06L82.114,252.06c-29.75,0-53.867-24.117-53.867-53.867v-35.059       c0-27.58,22.358-49.939,49.939-49.939h7.857c27.58,0,49.939,22.358,49.939,49.939v35.059       C135.982,227.942,111.864,252.06,82.114,252.06z"/>
					<path style="fill:#EBEEF2;" d="M103.508,278.423H60.72c-29.393,0-53.22,23.828-53.22,53.22v51.46       c0,2.293,1.859,4.151,4.151,4.151h140.926c2.293,0,4.151-1.859,4.151-4.151v-51.46       C156.728,302.251,132.901,278.423,103.508,278.423z"/>
				</g>
				<g>
					<polygon style="fill:#ED5575;" points="88.937,278.423 75.292,278.423 61.619,336.179 82.114,357.747 102.61,336.179      "/>
				</g>
			</g>
		</g>
		<g>
			<path style="fill:#656D88;" d="M285.972,284.157h-59.944c-41.179,0-74.561,33.382-74.561,74.561v67.911c0,5.523,4.477,10,10,10     h189.067c5.523,0,10-4.477,10-10v-67.91C360.533,317.539,327.151,284.157,285.972,284.157z"/>
			<path style="fill:#444966;" d="M285.972,284.157h-15.119c36.55,0,66.18,33.382,66.18,74.562v67.911c0,5.522-3.974,10-8.876,10     h22.376c5.523,0,10-4.478,10-10v-67.911C360.533,317.539,327.151,284.157,285.972,284.157z"/>
			<path style="fill:#EBEEF2;" d="M256,402.893l61.274-111.846c-9.52-4.412-20.119-6.89-31.302-6.89h-59.944     c-11.183,0-21.781,2.479-31.302,6.89L256,402.893z"/>
			<path style="fill:#ED5575;" d="M266.891,311.604c10.917-4.335,18.639-14.986,18.639-27.447H226.47     c0,12.461,7.722,23.112,18.639,27.447l-9.756,53.602L256,402.893l20.647-37.687L266.891,311.604z"/>
			<path style="fill:#FCD0AE;" d="M255.778,255.028L255.778,255.028c-38.68,0-70.037-31.356-70.037-70.036v-45.084     c0-35.643,28.894-64.537,64.537-64.537h10.999c35.643,0,64.537,28.894,64.537,64.537v45.084     C325.814,223.672,294.458,255.028,255.778,255.028z"/>
			<path style="fill:#E59F6A;" d="M261.277,75.371h-10.999c-0.402,0-0.798,0.023-1.198,0.03     c28.766,0.639,51.894,24.142,51.894,53.062v68.949c0,29.804-22.631,54.321-51.646,57.308c2.125,0.194,4.274,0.308,6.45,0.308h0     c38.68,0,70.036-31.356,70.036-70.036v-45.084C325.814,104.265,296.92,75.371,261.277,75.371z"/>
			<path style="fill:#444966;" d="M261.277,75.371h-10.999c-35.313,0-63.984,28.366-64.512,63.554     c11.944,13.28,29.789,24.482,43.234,27.968c-3.5-7-10.775-23.743-7-39.5c11.707,15.744,65.784,41.702,103.814,51.118v-38.603     C325.814,104.265,296.92,75.371,261.277,75.371z"/>
			<path style="fill:#2E344C;" d="M261.277,75.371h-10.999c-0.402,0-0.798,0.023-1.198,0.03     c28.766,0.639,51.894,24.142,51.894,53.062v42.425c8.618,3.08,17.065,5.697,24.841,7.623v-38.603     C325.814,104.265,296.92,75.371,261.277,75.371z"/>
		</g>
		<path style="fill:#FCAB29;" d="M28.247,163.133h84.327c23.984,0,43.426-19.443,43.426-43.426v-17.481H71.609    c-23.948,0-43.362,19.414-43.362,43.362V163.133z"/>
	</g>
	<g>
		<path d="M451.279,270.924h-14.571h-13.645h-14.571c-17.984,0-34.938,7.904-46.515,21.687c-2.664,3.172-2.252,7.903,0.919,10.567    c3.174,2.665,7.903,2.252,10.567-0.919c8.719-10.381,21.486-16.335,35.028-16.335h5.089l-11.488,48.527    c-0.584,2.465,0.116,5.058,1.861,6.894l20.495,21.568c1.416,1.49,3.381,2.334,5.437,2.334s4.021-0.844,5.437-2.334l20.495-21.568    c1.745-1.836,2.445-4.429,1.861-6.894l-11.488-48.527h5.089c25.211,0,45.721,20.51,45.721,45.721v48.11H390.529    c-4.143,0-7.5,3.357-7.5,7.5s3.357,7.5,7.5,7.5h109.819c6.425,0,11.651-5.227,11.651-11.651v-51.459    C512,298.163,484.761,270.924,451.279,270.924z M442.147,333.956l-12.262,12.903l-12.262-12.903l11.371-48.032h1.781    L442.147,333.956z"/>
		<path d="M429.886,259.56c33.838,0,61.367-27.529,61.367-61.367v-22.845v-12.214c0-2.969-0.227-5.887-0.663-8.736    c-4.22-27.541-28.073-48.704-56.775-48.704h-7.857c-28.703,0-52.555,21.163-56.775,48.704c-0.437,2.849-0.663,5.766-0.663,8.736    v9.551v25.508C368.519,232.03,396.048,259.56,429.886,259.56z M425.957,120.695h7.857c23.4,0,42.438,19.038,42.438,42.438v1.799    c-9.933-4.074-16.949-9.618-18.738-15.132c-0.88-2.709-3.218-4.687-6.036-5.104c-2.817-0.416-5.629,0.799-7.255,3.137    c-8.281,11.908-38.67,22.46-60.705,18.87v-3.57C383.519,139.733,402.557,120.695,425.957,120.695z M383.519,181.808    c22.016,2.63,49.888-4.906,65.417-17.449c7.364,8.607,19.021,13.766,27.317,16.549v17.285c0,25.567-20.8,46.367-46.367,46.367    s-46.367-20.8-46.367-46.367V181.808z"/>
		<path d="M149.132,303.224c3.174-2.661,3.59-7.392,0.93-10.566c-11.578-13.812-28.546-21.733-46.554-21.733H88.937H75.292H60.721    C27.239,270.924,0,298.162,0,331.644v51.46c0,6.425,5.227,11.651,11.651,11.651h109.815c4.143,0,7.5-3.357,7.5-7.5    s-3.357-7.5-7.5-7.5H15v-48.111c0-25.21,20.51-45.72,45.721-45.72h5.089l-11.488,48.527c-0.584,2.465,0.116,5.058,1.861,6.894    l20.495,21.568c1.416,1.49,3.381,2.334,5.437,2.334s4.021-0.844,5.437-2.334l20.495-21.568c1.745-1.836,2.445-4.429,1.861-6.894    l-11.488-48.527h5.089c13.56,0,26.337,5.967,35.058,16.37C141.227,305.468,145.955,305.882,149.132,303.224z M94.376,333.956    l-12.262,12.903l-12.262-12.903l11.371-48.032h1.781L94.376,333.956z"/>
		<path d="M20.75,198.19c0,33.839,27.526,61.369,61.36,61.369c33.84,0,61.37-27.53,61.37-61.369V163.13    c0-0.968-0.033-1.943-0.083-2.92c12.206-9.312,20.102-24,20.102-40.502v-17.481c0-4.143-3.357-7.5-7.5-7.5H71.609    c-3.383,0-6.766,0.335-10.056,0.995c-4.061,0.815-6.692,4.769-5.877,8.83c0.816,4.061,4.771,6.691,8.83,5.877    c2.319-0.466,4.709-0.702,7.103-0.702H148.5v9.981c0,19.811-16.116,35.927-35.927,35.927H35.747v-10.046    c0-8.336,2.922-16.454,8.228-22.857c2.643-3.19,2.199-7.918-0.99-10.561c-3.192-2.643-7.918-2.199-10.561,0.99    c-7.53,9.089-11.677,20.605-11.677,32.428v17.546c0,0.02,0.003,0.039,0.003,0.058V198.19z M128.48,168.076v30.115    c0,25.568-20.802,46.369-46.37,46.369c-25.563,0-46.36-20.801-46.36-46.369v-27.557h76.823    C118.128,170.634,123.472,169.728,128.48,168.076z"/>
		<path d="M320.777,284.427c-0.116-0.062-0.229-0.129-0.349-0.185c-0.809-0.375-1.624-0.732-2.441-1.079    c-0.097-0.042-0.195-0.081-0.292-0.122c-4.935-2.076-10.013-3.649-15.203-4.714c-0.001,0-0.002,0-0.003,0    c-1.333-0.273-2.672-0.514-4.019-0.72c-0.013-0.002-0.026-0.004-0.038-0.006c-1.343-0.205-2.693-0.378-4.049-0.516    c-0.029-0.003-0.058-0.005-0.088-0.008c-1.354-0.136-2.713-0.242-4.079-0.311c-0.03-0.001-0.06-0.002-0.09-0.003    c-1.379-0.068-2.763-0.106-4.153-0.106h-0.442h-59.059h-0.443c-1.39,0-2.774,0.038-4.152,0.106    c-0.03,0.001-0.06,0.002-0.091,0.003c-1.367,0.069-2.728,0.175-4.083,0.312c-0.027,0.003-0.055,0.005-0.082,0.008    c-1.359,0.138-2.712,0.312-4.058,0.517c-0.009,0.001-0.018,0.002-0.026,0.004c-6.596,1.009-13.025,2.825-19.23,5.435    c-0.097,0.041-0.196,0.081-0.293,0.122c-0.817,0.348-1.631,0.704-2.44,1.079c-0.12,0.056-0.232,0.123-0.348,0.184    c-27.893,13.12-47.257,41.481-47.257,74.292v67.911c0,9.649,7.851,17.5,17.5,17.5h189.066c9.649,0,17.5-7.851,17.5-17.5v-67.91    C368.033,325.908,348.67,297.547,320.777,284.427z M280.236,343.044l-4.962-27.26c8.732-5.29,14.812-13.895,16.924-23.827    c0.075,0.007,0.151,0.01,0.225,0.017c0.224,0.021,0.447,0.042,0.67,0.065c2.152,0.229,4.276,0.553,6.363,0.981    c0.017,0.003,0.034,0.007,0.051,0.011c1.001,0.206,1.992,0.438,2.976,0.688c0.167,0.042,0.334,0.087,0.501,0.13    c0.866,0.228,1.725,0.473,2.577,0.734c0.166,0.051,0.333,0.099,0.499,0.151c0.181,0.057,0.358,0.124,0.539,0.183L280.236,343.044z     M205.398,294.918c0.18-0.059,0.355-0.125,0.536-0.182c0.17-0.054,0.34-0.103,0.51-0.155c0.848-0.259,1.702-0.503,2.563-0.729    c0.171-0.045,0.342-0.09,0.513-0.134c0.979-0.249,1.964-0.479,2.96-0.685c0.022-0.004,0.044-0.01,0.066-0.015    c2.085-0.427,4.207-0.751,6.357-0.979c0.225-0.024,0.45-0.044,0.675-0.066c0.074-0.007,0.149-0.01,0.224-0.017    c2.112,9.933,8.192,18.538,16.924,23.828l-4.962,27.26L205.398,294.918z M259.512,312.946l9.28,50.986L256,387.282l-12.792-23.35    l9.28-50.986c0.64-3.516-1.29-6.994-4.611-8.313c-6.015-2.389-10.514-7.151-12.607-12.976h41.46    c-2.093,5.825-6.592,10.587-12.607,12.976C260.802,305.952,258.872,309.431,259.512,312.946z M353.033,426.629    c0,1.379-1.121,2.5-2.5,2.5H161.467c-1.379,0-2.5-1.121-2.5-2.5v-67.911c0-24.44,13.147-45.86,32.735-57.581l57.721,105.359    c1.315,2.402,3.838,3.896,6.577,3.896s5.262-1.494,6.577-3.896l57.72-105.359c19.589,11.722,32.736,33.142,32.736,57.582V426.629z    "/>
		<path d="M255.777,262.528c18.109,0,35.731-6.376,49.62-17.954c3.182-2.652,3.61-7.382,0.958-10.563s-7.383-3.61-10.563-0.958    c-11.197,9.335-25.408,14.476-40.015,14.476c-34.482,0-62.536-28.054-62.536-62.536v-28.887    c10.801,8.558,23.17,15.272,33.877,18.047c2.849,0.739,5.862-0.256,7.712-2.541c1.85-2.286,2.193-5.442,0.878-8.073    c-2.301-4.603-5.396-11.878-6.678-19.773c10.267,7.365,23.158,14.122,31.716,18.3c18.903,9.228,39.957,17.33,57.568,22.22v0.708    c0,9.203-1.95,18.063-5.797,26.332c-1.746,3.756-0.118,8.217,3.638,9.964c3.755,1.744,8.216,0.117,9.964-3.638    c4.774-10.267,7.195-21.254,7.195-32.658v-6.481v-38.603c0-39.722-32.315-72.037-72.037-72.037h-10.999    c-1.221,0-2.438,0.032-3.649,0.093c-0.254,0.013-0.504,0.04-0.757,0.055c-0.966,0.058-1.93,0.124-2.888,0.22    c-0.185,0.019-0.366,0.047-0.55,0.067c-1.033,0.111-2.063,0.238-3.087,0.393c-0.058,0.009-0.115,0.021-0.173,0.03    c-14.849,2.288-28.576,9.143-39.464,19.884c-8.564,8.448-14.75,18.685-18.219,29.876c-0.023,0.074-0.042,0.149-0.065,0.224    c-0.306,0.999-0.596,2.003-0.859,3.017c-0.145,0.555-0.267,1.119-0.399,1.679c-0.126,0.539-0.261,1.074-0.374,1.616    c-0.181,0.858-0.335,1.726-0.485,2.595c-0.044,0.255-0.096,0.507-0.136,0.763c-0.166,1.027-0.303,2.062-0.425,3.103    c-0.012,0.107-0.029,0.214-0.041,0.321c-0.124,1.1-0.218,2.208-0.292,3.322c-0.004,0.059-0.01,0.117-0.013,0.176    c-0.07,1.104-0.111,2.216-0.131,3.333c-0.001,0.059-0.006,0.117-0.007,0.175c0,0.014,0.001,0.028,0.001,0.042    c-0.005,0.352-0.027,0.7-0.027,1.054v45.084C178.241,227.746,213.023,262.528,255.777,262.528z M261.277,82.871    c31.45,0,57.037,25.587,57.037,57.037v28.782c-36.064-10.69-80.854-33.074-90.296-45.773c-1.432-1.926-3.676-3.024-6.018-3.024    c-0.5,0-1.005,0.05-1.507,0.152c-2.853,0.585-5.109,2.769-5.788,5.601c-1.268,5.293-2.333,14.767,1.041,27.547    c-7.955-4.485-16.027-10.587-22.361-17.1c1.796-26.827,22.431-48.734,48.595-52.611c0.048-0.007,0.096-0.012,0.144-0.019    c0.843-0.123,1.691-0.228,2.544-0.313c0.326-0.032,0.656-0.049,0.983-0.075c0.593-0.048,1.186-0.102,1.784-0.132    c0.942-0.046,1.889-0.072,2.842-0.072H261.277z"/>
	</g>
</g>















</svg>
