<?xml version="1.0" encoding="UTF-8"?>
<!DOCTYPE svg PUBLIC "-//W3C//DTD SVG 1.1//EN" "http://www.w3.org/Graphics/SVG/1.1/DTD/svg11.dtd">
<!-- Creator: CorelDRAW 2018 -->
<svg xmlns="http://www.w3.org/2000/svg" xml:space="preserve" width="210mm" height="297mm" version="1.1" style="shape-rendering:geometricPrecision; text-rendering:geometricPrecision; image-rendering:optimizeQuality; fill-rule:evenodd; clip-rule:evenodd"
viewBox="0 0 21000 29700"
 xmlns:xlink="http://www.w3.org/1999/xlink">
 <defs>
  <style type="text/css">
   <![CDATA[
    .fil2 {fill:#5A4146}
    .fil1 {fill:#694B4B}
    .fil3 {fill:#785550}
    .fil6 {fill:#A0D2F0}
    .fil4 {fill:#B4E1FA}
    .fil5 {fill:#D29B6E}
    .fil0 {fill:#E6AF78}
    .fil7 {fill:#F0C087}
   ]]>
  </style>
 </defs>
 <g id="Layer_x0020_1">
  <metadata id="CorelCorpID_0Corel-Layer"/>
  <path class="fil0" d="M15426.67 14660.88l252.95 1011.63c29.97,119.84 137.67,203.95 261.25,203.95l0 0c135.8,0 250.31,-101.1 267.19,-235.84l129.31 -1034.67c34.6,-276.71 -181.18,-521.08 -460.02,-521.08l-0.94 -0.02c-301.5,-0.06 -522.89,283.42 -449.74,576.03z"/>
  <path class="fil1" d="M10523.02 3932.3c-7680.42,0 -6828.79,9339.9 -6793.7,16108.14 1.32,255.59 135.2,486.1 354.16,618.04 851.07,513.04 3188.39,1712.56 6439.54,1712.56 3251.16,0 5588.48,-1199.52 6439.55,-1712.56 218.9,-132.01 352.83,-362.45 354.15,-618.04 35.1,-6768.28 886.72,-16108.14 -6793.7,-16108.14z"/>
  <g>
   <path class="fil2" d="M10028.12 3951.5c-7143.01,400.46 -6333.13,9471.25 -6298.8,16088.9 1.32,255.59 135.2,486.1 354.16,618.04 851.07,513.04 3188.39,1712.56 6439.54,1712.56l1940.93 -13586.46 -2435.83 -4833.04zm0 0l0 0 0 0z"/>
  </g>
  <path class="fil1" d="M10523.02 3932.3c-4367.05,0 -4670.33,5276.88 -4670.33,5276.88 2517.12,-424.55 4063.78,636.86 6611.26,-424.55l-1940.93 13586.46c3251.16,0 5588.48,-1199.51 6439.55,-1712.56 218.9,-132 352.83,-362.45 354.15,-618.04 35.1,-6768.33 886.72,-16108.19 -6793.7,-16108.19z"/>
  <path class="fil3" d="M17316.72 20040.5c30.15,-5815.9 657.93,-13525.03 -4037.6,-15580.96 -81.9,425.49 -230.18,1613.24 155.27,2384.18 970.49,1940.92 1940.92,1940.92 2911.36,3396.63 970.44,5337.55 -1854.3,11002.75 -2792.44,11773.92l0 0c1662.23,-395.34 2853.82,-1020.92 3409.22,-1355.71 218.94,-132.02 352.87,-362.47 354.19,-618.06z"/>
  <path class="fil0" d="M17876.14 21512.6l-4329.78 -1804.08c-361.64,-150.65 -597.2,-504.03 -597.2,-895.85l0 -1172.62 -4852.28 0 0 1172.62c0,391.76 -235.57,745.15 -597.2,895.85l-4329.78 1804.08c-542.43,225.99 -895.8,756.04 -895.8,1343.72l0 1940.93c0,535.93 434.5,970.49 970.43,970.49l14556.92 0c535.93,0 970.43,-434.5 970.43,-970.49l0 -1940.93c0.06,-587.73 -353.33,-1117.73 -895.74,-1343.72z"/>
  <path class="fil4" d="M17876.14 21512.6l-4186.34 -1744.3 -3166.78 1366.72 -3166.78 -1366.72 -4186.33 1744.3c-542.43,225.99 -895.8,756.04 -895.8,1343.72l0 1940.93c0,535.93 434.5,970.49 970.44,970.49l14556.9 0c535.93,0 970.43,-434.5 970.43,-970.49l0 -1940.93c0.06,-587.73 -353.33,-1117.73 -895.74,-1343.72z"/>
  <path class="fil5" d="M12949.16 17640.05l-4852.28 0 0 1172.62c0,391.76 -235.57,745.15 -597.2,895.85l-676.24 281.82c5174.87,1319.41 6125.72,-2350.29 6125.72,-2350.29z"/>
  <g>
   <path class="fil6" d="M4639.2 23389.67l-1947.63 -1549.2c-260.93,266.87 -417.35,627.72 -417.35,1015.81l0 1940.93c0,535.93 434.5,970.44 970.44,970.44l1940.92 -0.02 0 -1241.26c-0.12,-442.21 -201.09,-860.43 -546.38,-1136.7z"/>
   <path class="fil6" d="M18771.94 24797.2l0 -1940.93c0,-385.11 -153.84,-743.5 -411.13,-1009.75l-1953.96 1543.15c-345.31,276.27 -546.33,694.49 -546.33,1136.7l0 1241.26 1940.93 0c535.97,0.06 970.49,-434.46 970.49,-970.43z"/>
   <path class="fil6" d="M10523.02 24797.2l0 0c-267.96,0 -485.21,-217.25 -485.21,-485.22l0 -3175.86 970.43 0 0 3175.91c0,267.97 -217.25,485.17 -485.22,485.17z"/>
   <path class="fil6" d="M10523.02 21135.02l-2777.21 -2082.93c-178.25,-133.71 -432.3,-90.21 -555.89,95.2l-548.74 823.15 1702.67 2383.68c129.41,181.23 384.51,216.59 558.36,77.49l1620.81 -1296.59z"/>
   <path class="fil6" d="M10523.02 21135.02l2777.22 -2082.93c178.25,-133.71 432.3,-90.21 555.88,95.2l548.74 823.15 -1702.66 2383.68c-129.42,181.23 -384.51,216.59 -558.37,77.49l-1620.81 -1296.59z"/>
  </g>
  <path class="fil7" d="M12949.16 8299.37c-2426.15,2426.15 -7187.45,485.22 -7187.45,4367.06l301.34 2859.44c58.08,639.61 428.95,1209.08 990.35,1520.93l2762.74 1534.86c439.68,244.26 974.23,244.26 1413.91,0l2762.75 -1534.86c561.4,-311.96 932.2,-881.38 990.35,-1520.93l347.82 -3396.02c24.75,-241.35 30.02,-484.17 21.83,-726.44 -181.66,-1235.16 -1918.43,-2133.6 -2403.64,-3104.04z"/>
  <path class="fil0" d="M5761.71 12666.43l301.34 2859.44c58.08,639.61 428.95,1209.08 990.35,1520.93l2762.74 1534.86c305.09,169.46 654.95,213.4 987.98,147.68l0 0c0,0 -1392.95,-422.07 -2221.93,-2666.27 -253.94,-687.51 -606.55,-4326.65 -303.27,-4771.43 599.45,-879.19 3942.52,-970.49 4930.32,-2601.43 -48.84,-60.56 -93.88,-121.17 -135.02,-181.94 -3.36,-4.9 -7.33,-9.84 -10.63,-14.74 -42.89,-64.46 -81.84,-129.13 -114.34,-194.15 -2426.23,2426.14 -7187.54,485.21 -7187.54,4367.05z"/>
  <path class="fil6" d="M14404.86 24797.2l-1940.91 0c-267.97,0 -485.22,217.25 -485.22,485.22l0 485.21 2911.35 0 0 -485.21c0,-267.97 -217.25,-485.22 -485.22,-485.22z"/>
  <g>
  </g>
  <g>
  </g>
  <g>
  </g>
  <g>
  </g>
  <g>
  </g>
  <g>
  </g>
  <g>
  </g>
  <g>
  </g>
  <g>
  </g>
  <g>
  </g>
  <g>
  </g>
  <g>
  </g>
  <g>
  </g>
  <g>
  </g>
  <g>
  </g>
 </g>
</svg>
