<?xml version="1.0" encoding="UTF-8"?>
<!DOCTYPE svg PUBLIC "-//W3C//DTD SVG 1.1//EN" "http://www.w3.org/Graphics/SVG/1.1/DTD/svg11.dtd">
<!-- Creator: CorelDRAW 2019 (64 Bit) -->
<svg xmlns="http://www.w3.org/2000/svg" xml:space="preserve" width="127.441mm" height="87.277mm" version="1.1" style="shape-rendering:geometricPrecision; text-rendering:geometricPrecision; image-rendering:optimizeQuality; fill-rule:evenodd; clip-rule:evenodd"
viewBox="0 0 11462.68 7850.11"
 xmlns:xlink="http://www.w3.org/1999/xlink">
 <defs>
  <style type="text/css">
   <![CDATA[
    .fil0 {fill:#E6E6E6}
   ]]>
  </style>
 </defs>
 <g id="Camada_x0020_1">
  <metadata id="CorelCorpID_0Corel-Layer"/>
  <path class="fil0" d="M7249.29 1658.29l5.93 5.93 1366.17 -1366.17c397.39,-397.39 1047.64,-397.39 1445.03,0l1098.22 1098.22c397.39,397.39 397.39,1047.64 0,1445.04l-3612.56 3612.56 -1098.22 1098.22c-397.39,397.39 -1047.64,397.39 -1445.04,0l-1098.22 -1098.22 -3612.56 -3612.56c-397.39,-397.39 -397.39,-1047.64 0,-1445.04l1098.22 -1098.22c397.39,-397.39 1047.64,-397.39 1445.03,0l1366.17 1366.17 5.93 -5.93 795.44 795.43c397.39,397.39 1047.64,397.39 1445.04,0l795.44 -795.43z"/>
 </g>
</svg>
