<?xml version="1.0" encoding="UTF-8"?>
<!DOCTYPE svg PUBLIC "-//W3C//DTD SVG 1.1//EN" "http://www.w3.org/Graphics/SVG/1.1/DTD/svg11.dtd">
<!-- Creator: CorelDRAW 2020 (64 Bit) -->
<svg xmlns="http://www.w3.org/2000/svg" xml:space="preserve" width="28.0133mm" height="29.2842mm" version="1.1" style="shape-rendering:geometricPrecision; text-rendering:geometricPrecision; image-rendering:optimizeQuality; fill-rule:evenodd; clip-rule:evenodd"
viewBox="0 0 464.51 485.59"
 xmlns:xlink="http://www.w3.org/1999/xlink"
 xmlns:xodm="http://www.corel.com/coreldraw/odm/2003">
 <defs>
  <style type="text/css">
   <![CDATA[
    .str0 {stroke:black;stroke-width:3.32;stroke-miterlimit:22.9256}
    .fil3 {fill:#009933}
    .fil1 {fill:#4D4D4D}
    .fil0 {fill:white}
    .fil2 {fill:#4D4D4D;fill-rule:nonzero}
   ]]>
  </style>
 </defs>
 <g id="Camada_x0020_1">
  <metadata id="CorelCorpID_0Corel-Layer"/>
  <g id="_2449459980608">
   <ellipse class="fil0 str0" cx="209.71" cy="209.71" rx="183.71" ry="191.95"/>
   <g>
    <g>
     <path class="fil1" d="M209.71 0c115.82,0 209.71,93.89 209.71,209.71 0,115.82 -93.89,209.71 -209.71,209.71 -115.82,0 -209.71,-93.89 -209.71,-209.71 0,-115.82 93.89,-209.71 209.71,-209.71zm0 42.22c92.51,0 167.5,74.99 167.5,167.5 0,92.51 -74.99,167.5 -167.5,167.5 -92.51,0 -167.5,-74.99 -167.5,-167.5 0,-92.51 74.99,-167.5 167.5,-167.5z"/>
     <path class="fil1" d="M173.08 98.39c25.44,0 46.07,20.62 46.07,46.07 0,25.44 -20.62,46.07 -46.07,46.07 -25.44,0 -46.07,-20.62 -46.07,-46.07 0,-25.44 20.62,-46.07 46.07,-46.07zm40.83 143.98l9.93 -9.93 18.34 18.34 0 -51.73 -15.62 15.62c-1.13,1.13 -2.49,1.88 -3.94,2.27 -1.05,1.06 -2.39,1.86 -3.93,2.28l-37.44 10.03c-4.66,1.25 -9.5,-1.54 -10.75,-6.2l0 0c-1.25,-4.66 1.54,-9.5 6.2,-10.75l37.44 -10.03 27.4 -27.4c0.25,-0.25 0.52,-0.49 0.79,-0.7 1.22,-8.94 8.94,-15.88 18.2,-15.88l0 0c10.1,0 18.37,8.26 18.37,18.37l0 81.13c0,8.01 -5.2,14.87 -12.39,17.36l25.87 25.87 -9.93 9.93 -41.6 -41.6c0.72,2.26 0.82,4.74 0.17,7.19l0 0c-1.83,6.84 -8.93,10.94 -15.78,9.11l-42.52 -11.39 -11.39 42.52c-1.83,6.84 -8.93,10.94 -15.78,9.11l-0 0c-6.84,-1.83 -10.94,-8.93 -9.11,-15.78l14.73 -54.96 0 -0 0.09 -0.32 0 -0 0.1 -0.31 0 -0 0.1 -0.31 0 -0 0.11 -0.31 0 -0 0.12 -0.3 0 -0 0.13 -0.3 0 -0 0.13 -0.29 0 -0 0.14 -0.29 0 -0 0.15 -0.28 0 -0 0.15 -0.28 0 -0 0.16 -0.27 0 -0 0.17 -0.27 0 -0 0.17 -0.26 0 -0 0.18 -0.26 0 -0 0.18 -0.25 0 -0 0.19 -0.25 0 -0c0.13,-0.16 0.26,-0.33 0.4,-0.48l0 -0 0.21 -0.23 0 -0 0.21 -0.23 0 -0 0.22 -0.22 0 -0 0.22 -0.22 0 -0 0.23 -0.21 0 -0c0.15,-0.14 0.31,-0.27 0.47,-0.4l0 -0c0.32,-0.26 0.65,-0.51 0.99,-0.74l0 -0 0.26 -0.17 0 -0 0.26 -0.16 0 -0 0.27 -0.16 0 -0 0.54 -0.3 0 -0c0.28,-0.14 0.56,-0.27 0.84,-0.39l0 -0c0.19,-0.08 0.38,-0.16 0.58,-0.23l0 -0c2.42,-0.91 5.13,-1.1 7.81,-0.38l0 0 0.28 0.08 54.68 14.65 0.51 0.15 -18.53 -18.53zm-50.45 8.19c0.13,-0.16 0.26,-0.33 0.4,-0.48l-0.4 0.48zm1.48 -1.6c0.15,-0.14 0.31,-0.27 0.47,-0.4l-0.47 0.4zm3.63 -2.33c0.19,-0.08 0.38,-0.16 0.58,-0.23l-0.58 0.23zm90.93 -153.5c14.42,0 26.1,11.69 26.1,26.1 0,14.42 -11.69,26.1 -26.1,26.1 -14.42,0 -26.1,-11.69 -26.1,-26.1 0,-14.42 11.69,-26.1 26.1,-26.1z"/>
    </g>
    <circle class="fil0" cx="372.72" cy="393.79" r="80.1"/>
    <path class="fil2" d="M372.72 302c25.34,0 48.29,10.28 64.91,26.89 16.61,16.61 26.89,39.56 26.89,64.91 0,25.34 -10.28,48.29 -26.89,64.91 -16.61,16.61 -39.56,26.89 -64.91,26.89 -25.35,0 -48.29,-10.28 -64.91,-26.89 -16.61,-16.61 -26.89,-39.56 -26.89,-64.91 0,-25.35 10.28,-48.29 26.89,-64.91 16.61,-16.61 39.56,-26.89 64.91,-26.89zm48.36 43.43c-12.38,-12.38 -29.48,-20.03 -48.36,-20.03 -18.89,0 -35.99,7.66 -48.36,20.03 -12.38,12.38 -20.03,29.47 -20.03,48.36 0,18.89 7.66,35.99 20.03,48.36 12.38,12.38 29.47,20.03 48.36,20.03 18.89,0 35.99,-7.66 48.36,-20.03 12.37,-12.37 20.03,-29.48 20.03,-48.36 0,-18.89 -7.66,-35.99 -20.03,-48.36z"/>
   </g>
   <path class="fil3" d="M416.35 356.99l14.58 14.58c1.88,1.88 1.88,4.95 0,6.83l-65.15 65.15c-1.88,1.88 -4.95,1.88 -6.83,0l-14.58 -14.58 -29.16 -29.16c-1.88,-1.88 -1.88,-4.95 0,-6.82l14.58 -14.58c1.88,-1.88 4.95,-1.88 6.82,0l25.75 25.75 47.16 -47.16c1.88,-1.88 4.95,-1.88 6.83,0z"/>
  </g>
 </g>
</svg>
