<?xml version="1.0" encoding="UTF-8"?>
<!DOCTYPE svg PUBLIC "-//W3C//DTD SVG 1.1//EN" "http://www.w3.org/Graphics/SVG/1.1/DTD/svg11.dtd">
<!-- Creator: CorelDRAW 2020 (64 Bit) -->
<svg xmlns="http://www.w3.org/2000/svg" xml:space="preserve" width="28.0133mm" height="29.2842mm" version="1.1" style="shape-rendering:geometricPrecision; text-rendering:geometricPrecision; image-rendering:optimizeQuality; fill-rule:evenodd; clip-rule:evenodd"
viewBox="0 0 807.48 844.11"
 xmlns:xlink="http://www.w3.org/1999/xlink"
 xmlns:xodm="http://www.corel.com/coreldraw/odm/2003">
 <defs>
  <style type="text/css">
   <![CDATA[
    .str0 {stroke:black;stroke-width:5.76;stroke-miterlimit:22.9256}
    .fil3 {fill:#009933}
    .fil1 {fill:#4D4D4D}
    .fil0 {fill:white}
    .fil2 {fill:#4D4D4D;fill-rule:nonzero}
   ]]>
  </style>
 </defs>
 <g id="Camada_x0020_1">
  <metadata id="CorelCorpID_0Corel-Layer"/>
  <g id="_2449460712016">
   <ellipse class="fil0 str0" cx="354.26" cy="364.55" rx="319.35" ry="333.67"/>
   <g>
    <g>
     <path class="fil1" d="M364.55 0c201.34,0 364.55,163.22 364.55,364.55 0,201.34 -163.22,364.55 -364.55,364.55 -201.34,0 -364.55,-163.22 -364.55,-364.55 0,-201.34 163.22,-364.55 364.55,-364.55zm0 73.39c160.81,0 291.17,130.36 291.17,291.17 0,160.81 -130.36,291.17 -291.17,291.17 -160.81,0 -291.17,-130.36 -291.17,-291.17 0,-160.81 130.36,-291.17 291.17,-291.17z"/>
     <path class="fil1" d="M160.54 330.61l19.83 0 0 24.02 262.89 0 105.48 -96.96 0 -25.45 19.83 0 0 264.65 -19.83 0 0 -25.45 -105.48 -96.96 -31.7 0c19.8,8 31.84,18.56 31.84,30.12 0,25.03 -56.3,45.3 -125.75,45.3 -69.45,0 -125.75,-20.28 -125.75,-45.3 0,-11.57 12.04,-22.12 31.84,-30.12l-43.37 0 0 24.02 -19.83 0 0 -67.88zm209.94 43.85l-105.66 0c-34.19,5.83 -57.37,17.13 -57.37,30.12 0,18.96 49.34,34.32 110.2,34.32 60.86,0 110.2,-15.36 110.2,-34.32 0,-12.99 -23.18,-24.3 -57.37,-30.12z"/>
    </g>
    <circle class="fil0" cx="647.91" cy="684.54" r="139.23"/>
    <path class="fil2" d="M647.91 524.97c44.06,0 83.95,17.86 112.83,46.74 28.88,28.88 46.74,68.77 46.74,112.83 0,44.06 -17.87,83.95 -46.74,112.83 -28.88,28.88 -68.77,46.74 -112.83,46.74 -44.06,0 -83.95,-17.86 -112.83,-46.74 -28.88,-28.88 -46.74,-68.77 -46.74,-112.83 0,-44.06 17.86,-83.95 46.74,-112.83 28.88,-28.88 68.77,-46.74 112.83,-46.74zm84.07 75.5c-21.51,-21.51 -51.24,-34.82 -84.07,-34.82 -32.84,0 -62.56,13.31 -84.07,34.82 -21.51,21.51 -34.82,51.24 -34.82,84.07 0,32.83 13.31,62.56 34.82,84.07 21.51,21.51 51.24,34.82 84.07,34.82 32.83,0 62.56,-13.31 84.07,-34.82 21.51,-21.51 34.82,-51.24 34.82,-84.07 0,-32.84 -13.31,-62.56 -34.82,-84.07z"/>
   </g>
   <path class="fil3" d="M723.14 609.31l25.35 25.35c3.26,3.26 3.26,8.6 0,11.86l-113.25 113.25c-3.26,3.26 -8.6,3.26 -11.86,0l-25.35 -25.35 -50.69 -50.69c-3.26,-3.26 -3.26,-8.6 0,-11.86l25.35 -25.35c3.26,-3.26 8.6,-3.26 11.86,0l44.76 44.76 81.97 -81.97c3.26,-3.26 8.6,-3.26 11.86,0z"/>
  </g>
 </g>
</svg>
