<?xml version="1.0" encoding="UTF-8"?>
<!DOCTYPE svg PUBLIC "-//W3C//DTD SVG 1.1//EN" "http://www.w3.org/Graphics/SVG/1.1/DTD/svg11.dtd">
<!-- Creator: CorelDRAW 2020 (64 Bit) -->
<svg xmlns="http://www.w3.org/2000/svg" xml:space="preserve" width="28.0133mm" height="29.2842mm" version="1.1" style="shape-rendering:geometricPrecision; text-rendering:geometricPrecision; image-rendering:optimizeQuality; fill-rule:evenodd; clip-rule:evenodd"
viewBox="0 0 2805.75 2933.04"
 xmlns:xlink="http://www.w3.org/1999/xlink"
 xmlns:xodm="http://www.corel.com/coreldraw/odm/2003">
 <defs>
  <style type="text/css">
   <![CDATA[
    .str0 {stroke:black;stroke-width:20.03;stroke-miterlimit:22.9256}
    .fil3 {fill:#009933}
    .fil1 {fill:#4D4D4D}
    .fil0 {fill:white}
    .fil2 {fill:#4D4D4D;fill-rule:nonzero}
   ]]>
  </style>
 </defs>
 <g id="Camada_x0020_1">
  <metadata id="CorelCorpID_0Corel-Layer"/>
  <g id="_2449508882512">
   <ellipse class="fil0 str0" cx="1322.34" cy="1266.7" rx="1109.65" ry="1159.42"/>
   <g>
    <g>
     <path class="fil1" d="M1266.7 0c699.58,0 1266.7,567.12 1266.7,1266.7 0,699.58 -567.12,1266.7 -1266.7,1266.7 -699.58,0 -1266.7,-567.12 -1266.7,-1266.7 0,-699.58 567.12,-1266.7 1266.7,-1266.7zm0 254.99c558.75,0 1011.71,452.96 1011.71,1011.71 0,558.75 -452.96,1011.71 -1011.71,1011.71 -558.75,0 -1011.71,-452.96 -1011.71,-1011.71 0,-558.75 452.96,-1011.71 1011.71,-1011.71z"/>
     <g>
      <path class="fil1" d="M1488.65 1232.46c117.23,-117.24 117.23,-307.31 0,-424.55l53.5 -53.5c146.78,146.78 146.78,384.77 0,531.55l-53.5 -53.49zm-856.11 -407.06l243.8 0 0 389.55 -243.8 0 0 -389.55zm996.51 547.46c194.78,-194.78 194.78,-510.58 0,-705.35l88.89 -88.9c243.87,243.87 243.87,639.27 0,883.14l-88.89 -88.89zm-641.41 -547.46l381.6 -315.35 0 1020.25 -381.6 -315.35 0 -389.55z"/>
      <g>
       <polygon class="fil1" points="968.57,1623.2 1079.88,1623.2 1079.88,1767.61 1224.31,1767.61 1224.31,1878.92 1079.88,1878.92 1079.88,2023.36 968.57,2023.36 968.57,1878.92 824.15,1878.92 824.15,1767.61 968.57,1767.61 "/>
       <rect class="fil1" transform="matrix(2.64845E-14 1 -1 2.64845E-14 1709.27 1767.61)" width="111.31" height="400.16"/>
      </g>
     </g>
    </g>
    <circle class="fil0" cx="2251.28" cy="2378.57" r="483.79"/>
    <path class="fil2" d="M2251.28 1824.11c153.09,0 291.71,62.07 392.05,162.42 100.35,100.34 162.42,238.96 162.42,392.05 0,153.08 -62.07,291.71 -162.42,392.05 -100.34,100.35 -238.96,162.42 -392.05,162.42 -153.08,0 -291.71,-62.07 -392.05,-162.42 -100.34,-100.34 -162.42,-238.97 -162.42,-392.05 0,-153.09 62.08,-291.71 162.42,-392.05 100.34,-100.35 238.97,-162.42 392.05,-162.42zm292.13 262.33c-74.75,-74.75 -178.03,-120.99 -292.13,-120.99 -114.09,0 -217.38,46.24 -292.13,120.99 -74.74,74.74 -120.99,178.03 -120.99,292.13 0,114.09 46.25,217.39 120.99,292.13 74.75,74.75 178.04,120.99 292.13,120.99 114.1,0 217.38,-46.24 292.13,-120.99 74.75,-74.75 120.99,-178.04 120.99,-292.13 0,-114.1 -46.24,-217.38 -120.99,-292.13z"/>
   </g>
   <path class="fil3" d="M2512.69 2117.17l88.07 88.07c11.34,11.34 11.34,29.89 0,41.22l-393.51 393.51c-11.34,11.34 -29.89,11.34 -41.22,0l-88.07 -88.07 -176.15 -176.15c-11.34,-11.34 -11.34,-29.88 0,-41.21l88.08 -88.08c11.34,-11.34 29.88,-11.34 41.21,0l155.53 155.53 284.83 -284.83c11.34,-11.34 29.89,-11.34 41.22,0z"/>
  </g>
 </g>
</svg>
