<?xml version="1.0" encoding="UTF-8"?>
<!DOCTYPE svg PUBLIC "-//W3C//DTD SVG 1.1//EN" "http://www.w3.org/Graphics/SVG/1.1/DTD/svg11.dtd">
<!-- Creator: CorelDRAW 2020 (64 Bit) -->
<svg xmlns="http://www.w3.org/2000/svg" xml:space="preserve" width="28.0133mm" height="29.2842mm" version="1.1" style="shape-rendering:geometricPrecision; text-rendering:geometricPrecision; image-rendering:optimizeQuality; fill-rule:evenodd; clip-rule:evenodd"
viewBox="0 0 1800.94 1882.64"
 xmlns:xlink="http://www.w3.org/1999/xlink"
 xmlns:xodm="http://www.corel.com/coreldraw/odm/2003">
 <defs>
  <style type="text/css">
   <![CDATA[
    .str0 {stroke:black;stroke-width:12.86;stroke-miterlimit:22.9256}
    .fil4 {fill:#009933}
    .fil1 {fill:#4D4D4D}
    .fil0 {fill:white}
    .fil2 {fill:#4D4D4D;fill-rule:nonzero}
    .fil3 {fill:#4D4D4D;fill-rule:nonzero}
   ]]>
  </style>
 </defs>
 <g id="Camada_x0020_1">
  <metadata id="CorelCorpID_0Corel-Layer"/>
  <g id="_2449514991600">
   <ellipse class="fil0 str0" cx="832.62" cy="813.07" rx="712.25" ry="744.2"/>
   <g>
    <g>
     <path class="fil1" d="M813.07 0c449.04,0 813.07,364.02 813.07,813.07 0,449.04 -364.02,813.07 -813.07,813.07 -449.04,0 -813.07,-364.02 -813.07,-813.07 0,-449.04 364.02,-813.07 813.07,-813.07zm0 163.67c358.65,0 649.39,290.75 649.39,649.39 0,358.65 -290.75,649.39 -649.39,649.39 -358.65,0 -649.39,-290.75 -649.39,-649.39 0,-358.65 290.75,-649.39 649.39,-649.39z"/>
     <path class="fil2" d="M813.07 421.21c92.53,0 176.31,37.51 236.94,98.15 60.64,60.63 98.15,144.42 98.15,236.94 0,92.53 -37.51,176.31 -98.15,236.94 -60.63,60.64 -144.41,98.15 -236.94,98.15 -92.52,0 -176.31,-37.51 -236.94,-98.15 -60.64,-60.63 -98.15,-144.41 -98.15,-236.94 0,-92.52 37.51,-176.31 98.15,-236.94 60.63,-60.64 144.42,-98.15 236.94,-98.15zm47.57 465.37l0 167.05c64.1,-10.18 121.45,-40.57 165.32,-84.44 43.87,-43.86 74.27,-101.22 84.44,-165.32l-167.43 0c-6.98,19.06 -18.04,36.15 -32.11,50.22 -14.32,14.33 -31.78,25.53 -51.26,32.49l1.04 0zm-95.13 167.05l0 -167.05 1.03 0c-19.47,-6.96 -36.93,-18.16 -51.26,-32.49 -14.07,-14.07 -25.13,-31.17 -32.11,-50.22l-167.43 0c10.18,64.1 40.57,121.45 84.44,165.32 43.87,43.87 101.24,74.27 165.32,84.44zm177.47 -344.89l167.42 0c-10.18,-64.09 -40.57,-121.45 -84.44,-165.32 -54.47,-54.48 -129.75,-88.18 -212.89,-88.18 -83.13,0 -158.41,33.71 -212.89,88.18 -43.87,43.87 -74.27,101.24 -84.44,165.32l167.42 0c6.98,-19.06 18.04,-36.16 32.12,-50.23 25.02,-25.03 59.6,-40.51 97.79,-40.51 38.19,0 72.77,15.48 97.79,40.51 14.08,14.07 25.14,31.17 32.12,50.23zm-42.04 -40.3c-22.48,-22.48 -53.55,-36.39 -87.86,-36.39 -34.31,0 -65.38,13.91 -87.86,36.39 -22.48,22.48 -36.39,53.55 -36.39,87.86 0,34.31 13.91,65.38 36.39,87.86 22.48,22.48 53.55,36.39 87.86,36.39 34.31,0 65.38,-13.91 87.86,-36.39 22.48,-22.48 36.39,-53.55 36.39,-87.86 0,-34.31 -13.91,-65.38 -36.39,-87.86zm55.92 -311.02c81.8,0 155.86,43.34 209.47,113.41 52.05,68.04 84.82,161.29 86.67,264.54l-8.93 0c-1.85,-100.03 -33.63,-190.37 -84.06,-256.29 -51.98,-67.95 -123.82,-109.99 -203.15,-109.99 -3.96,0 -7.89,0.11 -11.82,0.31l0 -11.67c3.92,-0.2 7.86,-0.31 11.82,-0.31zm-287.56 0c-81.8,0 -155.86,43.34 -209.47,113.41 -52.05,68.04 -84.82,161.29 -86.67,264.54l8.93 0c1.85,-100.03 33.63,-190.37 84.06,-256.29 51.98,-67.95 123.82,-109.99 203.15,-109.99 3.96,0 7.89,0.11 11.82,0.31l0 -11.67c-3.92,-0.2 -7.86,-0.31 -11.82,-0.31zm-164.78 906.36c26.57,12.36 58.43,0.73 70.79,-25.84l-0.01 -0.01c12.37,-26.57 -5.98,-49.24 -25.84,-70.79 -31.79,-34.48 -48.25,-61.58 -51.25,-68.8 -8.1,-19.54 -12.82,-39.74 -18.92,-55.56 -1.36,-3.93 -3.87,-7.82 -7.59,-11.34l-52.17 -49.46c-12.99,-12.31 -35.85,-15.8 -50.81,-7.76l0 0c-14.97,8.05 -14.83,23.09 -3.61,37.01 28.88,35.85 78.25,70.24 59.68,109.85 -75.65,63.35 -116.21,-187.17 -123.81,-228.93 -2.15,-11.77 -11.65,-20.8 -23.57,-19.75l0 0c-11.91,1.06 -20.79,11.66 -19.73,23.57 26.87,303.92 22.91,263.64 246.84,367.8zm617.14 0c-26.58,12.36 -58.43,0.73 -70.79,-25.84l0 -0.01c-12.36,-26.58 5.99,-49.25 25.84,-70.79 31.79,-34.47 48.24,-61.57 51.25,-68.8 8.11,-19.53 12.82,-39.73 18.92,-55.55 1.35,-3.93 3.86,-7.82 7.59,-11.33l52.18 -49.47c12.98,-12.32 35.85,-15.8 50.81,-7.75l0 0c14.97,8.05 14.83,23.08 3.61,37 -28.89,35.86 -78.25,70.24 -59.68,109.86 75.65,63.34 116.21,-187.17 123.81,-228.93 2.15,-11.77 11.65,-20.8 23.57,-19.74l0 0c11.91,1.05 20.79,11.65 19.73,23.57 -26.87,303.92 -22.9,263.64 -246.84,367.8z"/>
    </g>
    <circle class="fil0" cx="1445.04" cy="1526.75" r="310.53"/>
    <path class="fil3" d="M1445.04 1170.85c98.27,0 187.24,39.84 251.65,104.25 64.41,64.4 104.25,153.38 104.25,251.65 0,98.26 -39.84,187.24 -104.25,251.65 -64.4,64.41 -153.38,104.25 -251.65,104.25 -98.26,0 -187.24,-39.84 -251.65,-104.25 -64.4,-64.4 -104.25,-153.39 -104.25,-251.65 0,-98.27 39.85,-187.24 104.25,-251.65 64.4,-64.41 153.39,-104.25 251.65,-104.25zm187.51 168.39c-47.98,-47.98 -114.27,-77.66 -187.51,-77.66 -73.23,0 -139.53,29.68 -187.51,77.66 -47.97,47.97 -77.66,114.27 -77.66,187.51 0,73.23 29.69,139.54 77.66,187.51 47.98,47.98 114.28,77.66 187.51,77.66 73.24,0 139.53,-29.68 187.51,-77.66 47.98,-47.98 77.66,-114.28 77.66,-187.51 0,-73.24 -29.68,-139.53 -77.66,-187.51z"/>
   </g>
   <path class="fil4" d="M1612.84 1358.96l56.53 56.53c7.28,7.28 7.28,19.18 0,26.46l-252.58 252.58c-7.28,7.28 -19.18,7.28 -26.46,0l-56.53 -56.53 -113.06 -113.06c-7.28,-7.28 -7.28,-19.18 0,-26.45l56.54 -56.54c7.28,-7.28 19.18,-7.28 26.45,0l99.83 99.83 182.82 -182.82c7.28,-7.28 19.18,-7.28 26.46,0z"/>
  </g>
 </g>
</svg>
