<?xml version="1.0" encoding="UTF-8"?>
<!DOCTYPE svg PUBLIC "-//W3C//DTD SVG 1.1//EN" "http://www.w3.org/Graphics/SVG/1.1/DTD/svg11.dtd">
<!-- Creator: CorelDRAW 2020 (64 Bit) -->
<svg xmlns="http://www.w3.org/2000/svg" xml:space="preserve" width="28.0133mm" height="29.2842mm" version="1.1" style="shape-rendering:geometricPrecision; text-rendering:geometricPrecision; image-rendering:optimizeQuality; fill-rule:evenodd; clip-rule:evenodd"
viewBox="0 0 681.06 711.96"
 xmlns:xlink="http://www.w3.org/1999/xlink"
 xmlns:xodm="http://www.corel.com/coreldraw/odm/2003">
 <defs>
  <style type="text/css">
   <![CDATA[
    .str0 {stroke:black;stroke-width:4.86;stroke-miterlimit:22.9256}
    .fil4 {fill:#009933}
    .fil1 {fill:#4D4D4D}
    .fil0 {fill:white}
    .fil2 {fill:#4D4D4D;fill-rule:nonzero}
    .fil3 {fill:#4D4D4D;fill-rule:nonzero}
   ]]>
  </style>
 </defs>
 <g id="Camada_x0020_1">
  <metadata id="CorelCorpID_0Corel-Layer"/>
  <g id="_2449522104576">
   <ellipse class="fil0 str0" cx="307.48" cy="307.48" rx="269.35" ry="281.44"/>
   <g>
    <g>
     <path class="fil1" d="M307.48 0c169.82,0 307.48,137.66 307.48,307.48 0,169.82 -137.66,307.48 -307.48,307.48 -169.82,0 -307.48,-137.66 -307.48,-307.48 0,-169.82 137.66,-307.48 307.48,-307.48zm0 61.9c135.63,0 245.58,109.95 245.58,245.58 0,135.63 -109.95,245.58 -245.58,245.58 -135.63,0 -245.58,-109.95 -245.58,-245.58 0,-135.63 109.95,-245.58 245.58,-245.58z"/>
     <g>
      <g>
       <path class="fil2" d="M392.79 145.19c15.79,23.48 63.37,99.19 79.68,181.26 9.61,48.39 8.39,99.05 -16.35,142.89l-1.86 3.29 -34.6 0 0 -43.82 -42.13 -32.49 0 -30.8 -46.96 0 0 -67.54 33.13 0 0 -26.2 32.34 -13.06c-3.95,-14.88 -18.05,-59.7 -54.39,-106.04l-8.14 -10.38 57.35 0 1.93 2.86zm67.07 183.72c-15.24,-76.72 -58.79,-147.99 -75.81,-173.72l-24.49 0c39.83,55.19 50.28,105.96 50.31,106.12l1.09 5.24 -34.39 13.89 0 30.41 -33.13 0 0 41.81 46.96 0 0 37.39 42.13 32.48 0 37.23 14.23 0c21.22,-39.98 21.95,-86.32 13.1,-130.86z"/>
       <path class="fil2" d="M222.16 145.19c-15.79,23.48 -63.37,99.19 -79.68,181.26 -9.61,48.39 -8.39,99.05 16.35,142.89l1.86 3.29 34.6 0 0 -43.82 42.13 -32.49 0 -30.8 46.96 0 0 -67.54 -33.13 0 0 -26.2 -32.34 -13.06c3.95,-14.88 18.05,-59.7 54.39,-106.04l8.14 -10.38 -57.35 0 -1.93 2.86zm-67.07 183.72c15.24,-76.72 58.79,-147.99 75.81,-173.72l24.49 0c-39.83,55.19 -50.28,105.96 -50.31,106.12l-1.09 5.24 34.39 13.89 0 30.41 33.13 0 0 41.81 -46.96 0 0 37.39 -42.13 32.48 0 37.23 -14.23 0c-21.22,-39.98 -21.95,-86.32 -13.1,-130.86z"/>
      </g>
      <g>
       <polygon class="fil1" points="409.59,282.48 420.47,282.48 420.47,296.6 434.59,296.6 434.59,307.48 420.47,307.48 420.47,321.6 409.59,321.6 409.59,307.48 395.47,307.48 395.47,296.6 409.59,296.6 "/>
       <rect class="fil1" transform="matrix(1.06655E-14 0.402707 -0.402707 1.06655E-14 219.486 298.731)" width="27.02" height="97.13"/>
      </g>
     </g>
    </g>
    <circle class="fil0" cx="546.47" cy="577.37" r="117.44"/>
    <path class="fil3" d="M546.47 442.78c37.16,0 70.81,15.07 95.17,39.42 24.36,24.36 39.42,58 39.42,95.17 0,37.16 -15.07,70.81 -39.42,95.17 -24.36,24.36 -58,39.42 -95.17,39.42 -37.16,0 -70.81,-15.07 -95.17,-39.42 -24.36,-24.36 -39.42,-58.01 -39.42,-95.17 0,-37.16 15.07,-70.81 39.42,-95.17 24.36,-24.36 58.01,-39.42 95.17,-39.42zm70.91 63.68c-18.14,-18.14 -43.21,-29.37 -70.91,-29.37 -27.69,0 -52.77,11.22 -70.91,29.37 -18.14,18.14 -29.37,43.21 -29.37,70.91 0,27.69 11.23,52.77 29.37,70.91 18.14,18.14 43.22,29.37 70.91,29.37 27.7,0 52.77,-11.22 70.91,-29.37 18.14,-18.14 29.37,-43.22 29.37,-70.91 0,-27.7 -11.22,-52.77 -29.37,-70.91z"/>
   </g>
   <path class="fil4" d="M609.93 513.92l21.38 21.38c2.75,2.75 2.75,7.25 0,10.01l-95.52 95.52c-2.75,2.75 -7.25,2.75 -10.01,0l-21.38 -21.38 -42.76 -42.76c-2.75,-2.75 -2.75,-7.25 0,-10l21.38 -21.38c2.75,-2.75 7.25,-2.75 10,0l37.75 37.75 69.14 -69.14c2.75,-2.75 7.25,-2.75 10.01,0z"/>
  </g>
 </g>
</svg>
