<?xml version="1.0" encoding="UTF-8"?>
<!DOCTYPE svg PUBLIC "-//W3C//DTD SVG 1.1//EN" "http://www.w3.org/Graphics/SVG/1.1/DTD/svg11.dtd">
<!-- Creator: CorelDRAW 2018 -->
<svg xmlns="http://www.w3.org/2000/svg" xml:space="preserve" width="229.379mm" height="46.7776mm" version="1.1" style="shape-rendering:geometricPrecision; text-rendering:geometricPrecision; image-rendering:optimizeQuality; fill-rule:evenodd; clip-rule:evenodd"
viewBox="0 0 28110.56 5732.62"
 xmlns:xlink="http://www.w3.org/1999/xlink">
 <defs>
  <style type="text/css">
   <![CDATA[
    .fil3 {fill:#333333}
    .fil7 {fill:white}
    .fil4 {fill:#1A1A1A;fill-rule:nonzero}
    .fil6 {fill:white;fill-rule:nonzero}
    .fil1 {fill:url(#id1)}
    .fil5 {fill:url(#id2)}
    .fil2 {fill:url(#id3)}
    .fil0 {fill:url(#id4)}
   ]]>
  </style>
    <clipPath id="id0">
     <path d="M18479.47 222.45l5501.86 0 0 5231.87 -5501.86 0 0 -5231.87z"/>
    </clipPath>
  <linearGradient id="id1" gradientUnits="userSpaceOnUse" x1="13712.46" y1="4299.47" x2="-0" y2="4299.47">
   <stop offset="0" style="stop-opacity:1; stop-color:#FEFEFE"/>
   <stop offset="1" style="stop-opacity:1; stop-color:#EBEBEB"/>
  </linearGradient>
  <radialGradient id="id2" gradientUnits="userSpaceOnUse" gradientTransform="matrix(1.1272 -3.93553E-06 3.11428E-06 1.42445 -1215 -1843)" cx="9554" cy="4341.05" r="7300.13" fx="9554" fy="4341.05">
   <stop offset="0" style="stop-opacity:1; stop-color:#007FFD"/>
   <stop offset="1" style="stop-opacity:1; stop-color:#003B75"/>
  </radialGradient>
  <radialGradient id="id3" gradientUnits="userSpaceOnUse" gradientTransform="matrix(1.12721 -4.03721E-06 3.11432E-06 1.46126 -813 -1341)" xlink:href="#id2" cx="6388.22" cy="2906.67" r="2514.6" fx="6388.22" fy="2906.67">
  </radialGradient>
  <radialGradient id="id4" gradientUnits="userSpaceOnUse" gradientTransform="matrix(0.68523 0.502675 -0.392036 0.878614 5166 -4136)" xlink:href="#id2" cx="9557.6" cy="5503.32" r="15740.38" fx="9557.6" fy="5503.32">
  </radialGradient>
 </defs>
 <g id="Layer_x0020_1">
  <metadata id="CorelCorpID_0Corel-Layer"/>
  <rect class="fil0" x="0" y="-0" width="28110.56" height="5732.63"/>
  <polygon class="fil1" points="13387.71,5732.62 15418.19,2866.31 13387.71,0 -0,0 -0,2866.31 -0,5732.62 "/>
  <g id="_640238544">
   <path class="fil2" d="M7771.01 2805.44c-56.25,-0.45 -170.88,3.9 -199.37,256.06 -28.48,252.16 36.7,262.71 131.68,263.39 94.99,0.66 181.99,-29.28 208.51,-239.6 26.52,-210.35 20.59,-275.73 -140.82,-279.84zm18.28 -188.4c0,0 -283.5,-27.43 -404.21,170.1 -120.72,197.54 -111.57,526.76 -27.44,616.38 84.13,89.62 190.22,111.57 345.68,111.57 155.47,0 287.16,-43.9 362.15,-129.85 75,-85.97 142.66,-298.14 113.41,-545.04 -29.27,-246.93 -389.59,-223.15 -389.59,-223.15zm-1094.21 21.95l164.61 0 25.61 -237.77 250.58 0 -25.61 237.77 233.2 0 -22.87 175.59 -242.34 -0.92 -55.33 391.41c0,0 -23.77,99.68 54.88,99.68 78.64,0 139.92,0 139.92,0l8.22 172.85c0,0 -88.7,37.49 -230.46,37.49 -141.74,0 -236.85,-67.67 -236.85,-201.19 0,-133.52 69.5,-499.32 69.5,-499.32l-158.2 0 25.15 -175.59zm-861.47 -2.73l263.37 0 -87.78 585.28c0,0 -16.47,85.97 62.18,85.97 78.64,0 250.58,-139.01 250.58,-139.01l74.98 -528.59 252.42 0 -115.22 845 -197.54 0 -5.49 -144.47c0,0 -162.78,175.58 -367.63,175.58 -204.86,0 -224.98,-144.49 -224.98,-186.56 0,-42.07 95.11,-693.2 95.11,-693.2zm-760.18 335.05l298.13 0 -53.96 -459.09c-0.56,-6.86 -9.71,-21.95 -28.35,-21.95 -18.63,0 -22.86,18.3 -22.86,18.3l-192.97 462.74zm-482.85 516.7l493.83 -1121.18c0,0 18.28,-69.51 80.48,-69.51 62.18,0 283.5,0 283.5,0 0,0 56.7,3.65 69.5,94.19 12.81,90.54 186.57,1094.67 186.57,1094.67l-266.13 0 -43.9 -307.27 -403.29 0 -128.96 310.92 -271.6 -1.83z"/>
   <path class="fil3" d="M10510.86 2640.82l-113.4 843.18 239.6 0 67.67 -524.92c0,0 179.24,-129.87 354.82,-115.23l60.37 -235.93c0,0 -254.23,5.48 -411.54,199.35l-7.32 -170.1 -190.21 3.65zm-574.3 164.62c-56.25,-0.45 -170.88,3.9 -199.37,256.06 -28.48,252.16 36.7,262.71 131.69,263.39 94.98,0.66 181.99,-29.28 208.5,-239.6 26.53,-210.35 20.59,-275.73 -140.82,-279.84zm18.28 -188.4c0,0 -283.5,-27.43 -404.21,170.1 -120.71,197.54 -111.57,526.76 -27.44,616.38 84.13,89.62 190.22,111.57 345.69,111.57 155.46,0 287.15,-43.9 362.14,-129.85 74.99,-85.97 142.67,-298.14 113.41,-545.04 -29.27,-246.93 -389.59,-223.15 -389.59,-223.15zm-1330.62 70.42l290.81 791.98c0,0 15.55,84.13 110.66,84.13 95.1,0 167.34,0 167.34,0 0,0 71.34,12.79 86.89,-119.81 15.55,-132.61 151.82,-1049.87 151.82,-1049.87 0,0 34.76,-179.23 -104.25,-199.35 -139.01,-20.12 -162.78,192.05 -162.78,192.05l-115.23 826.71 -296.29 -779.16c0,0 -14.64,-82.3 -109.76,-82.3 -95.1,0 -139,0 -139,0 0,0 -93.29,-5.48 -106.08,107.91 -12.82,113.41 -250.58,2010.11 -250.58,2010.11 0,0 -31.09,192.04 115.22,210.32 146.33,18.3 149.98,-212.16 149.98,-212.16l211.25 -1780.56z"/>
   <path class="fil3" d="M6730.27 1188.59l321.66 0c-88.85,42.81 -178.36,91.96 -257.21,146.31l-64.45 0c-40.23,0 -73.15,-32.92 -73.15,-73.16l0 0c0,-40.25 32.92,-73.15 73.15,-73.15zm-1430.29 629.17l1240.58 0c14.78,54.89 41.95,104.02 73.42,146.33l-1314 0c-40.23,0 -73.16,-32.93 -73.16,-73.16l0 0c0,-40.25 32.93,-73.16 73.16,-73.16zm706 -209.73l544.93 0c-18.87,51.64 -24.69,100.59 -21.24,146.33l-523.7 0c-40.23,0 -73.16,-32.92 -73.16,-73.16l0 0c0,-40.23 32.93,-73.16 73.16,-73.16zm340.2 -209.72l364.78 0c-54.74,45.96 -100.03,94.93 -130.33,146.33l-234.45 0c-40.25,0 -73.16,-32.93 -73.16,-73.16l0 0c0,-40.25 32.92,-73.16 73.16,-73.16zm488.34 86.57c0,0 159.41,-54.54 362.05,-173.37 -31.19,58.49 -65.93,152.11 -12.7,213.61 82.29,95.12 347.5,278.02 720.63,62.19 0,0 -515.53,179.24 -684.07,-109.74 0,0 -43.32,-75.12 31.77,-199.68 11.27,-7.01 22.64,-14.23 34.08,-21.63 243.26,-157.29 901.72,-184.73 1315.07,34.76 0,0 -342.01,-235.95 -815.73,-239.6 -473.72,-3.66 -951.1,433.47 -951.1,433.47zm2139.95 -47.55c0,0 292.65,146.31 307.28,320.08 14.63,173.75 -343.85,323.73 -801.11,281.67 0,0 495.67,71.34 711.49,-58.53 215.82,-129.87 192.05,-268.88 62.18,-389.59 -129.85,-120.7 -279.84,-153.63 -279.84,-153.63zm173.76 148.15c0,0 -433.52,171.12 -700.5,-128.71l-2.88 0.01c213.67,-1.18 399.76,-24.94 399.76,-24.94 -812.08,21.95 -930.97,-113.41 -945.61,-162.78 -14.62,-49.38 95.12,-98.76 95.12,-98.76 -192.05,32.92 -166.45,106.08 -166.45,106.08 54.12,146.6 344.23,180.44 600.83,180.44l-6.4 0.01c0,0 265.21,410.32 726.12,128.65zm-2055.82 347.52c0,0 237.77,-237.78 930.98,27.43 0,0 -673.08,-395.07 -930.98,-27.43zm-187.48 -292.65c68.19,0 123.47,55.27 123.47,123.46 0,68.19 -55.28,123.46 -123.47,123.46 -68.17,0 -123.46,-55.27 -123.46,-123.46 0,-68.19 55.28,-123.46 123.46,-123.46zm14.63 -36.58c96.47,0 174.67,78.2 174.67,174.67 0,96.47 -78.2,174.67 -174.67,174.67 -96.46,0 -174.67,-78.2 -174.67,-174.67 0,-96.47 78.21,-174.67 174.67,-174.67zm1299.94 77.04c78.9,0 142.86,63.96 142.86,142.87 0,78.9 -63.96,142.86 -142.86,142.86 -78.9,0 -142.87,-63.96 -142.87,-142.86 0,-78.91 63.97,-142.87 142.87,-142.87zm16.92 -42.34c111.64,0 202.13,90.5 202.13,202.13 0,111.64 -90.49,202.13 -202.13,202.13 -111.63,0 -202.13,-90.49 -202.13,-202.13 0,-111.63 90.5,-202.13 202.13,-202.13z"/>
   <path class="fil4" d="M4742.92 4313.49l29.19 -232.98 141.25 0 -3.43 27.33 -113.46 0 -9.09 72.56 98.25 0 -3.42 27.34 -98.26 0 -13.25 105.75 -27.78 0zm177.75 0l29.19 -232.98 151.19 0 -3.42 27.33 -123.41 0 -8.97 71.59 115.5 0 -3.42 27.33 -115.52 0 -9.95 79.39 128.38 0 -3.43 27.34 -156.15 0zm199.14 0l29.2 -232.98 27.77 0 -29.19 232.98 -27.78 0zm77.15 0l29.2 -232.98 92.81 0c18.66,0 32.57,2.12 41.75,6.3 9.18,4.17 16.01,11.54 20.48,22.12 4.47,10.58 5.88,22.29 4.28,35.09 -2.07,16.54 -8.65,30.48 -19.67,41.81 -11.02,11.34 -26.74,18.49 -47.21,21.58 6.88,3.91 11.94,7.81 15.27,11.61 7.06,8.25 13.41,18.6 19.02,31.02l28.26 63.46 -34.61 0 -21.61 -48.48c-6.29,-14.06 -11.62,-24.73 -15.91,-32.17 -4.33,-7.43 -8.36,-12.57 -12.13,-15.56 -3.73,-2.92 -7.71,-4.99 -11.85,-6.18 -3.03,-0.71 -8.1,-1.08 -15.26,-1.08l-32.07 0 -12.98 103.47 -27.78 0zm44.09 -130.16l59.47 0c12.66,0 22.7,-1.46 30.17,-4.39 7.48,-2.88 13.48,-7.54 17.94,-14 4.51,-6.4 7.23,-13.33 8.17,-20.87 1.37,-11.02 -1.04,-20.12 -7.32,-27.23 -6.27,-7.11 -17.13,-10.63 -32.59,-10.63l-66.19 0 -9.67 77.11zm143.56 130.16l109.52 -232.98 30.45 0 56.05 232.98 -31.54 0 -15.37 -70.61 -88.18 0 -31.56 70.61 -29.39 0zm72.23 -95.66l71.35 0 -13.74 -64.6c-4.12,-19.62 -7.06,-35.85 -8.91,-48.64 -4.78,15.18 -10.5,30.1 -17.17,44.85l-31.53 68.38zm210.89 95.66l29.2 -232.98 72.13 0c16.29,0 28.58,1.09 36.88,3.31 11.59,3.09 21.14,8.68 28.6,16.7 9.77,10.42 16.35,23.65 19.78,39.8 3.48,16.16 3.88,34.66 1.29,55.43 -2.22,17.67 -6.03,33.35 -11.45,47.01 -5.42,13.66 -11.62,25 -18.54,33.96 -6.96,8.95 -14.19,15.99 -21.74,21.09 -7.52,5.15 -16.35,9.06 -26.43,11.72 -10.12,2.66 -21.5,3.96 -34.17,3.96l-75.55 0zm31.21 -27.34l44.65 0c13.79,0 24.79,-1.41 32.99,-4.28 8.21,-2.88 14.95,-6.89 20.28,-12.1 7.45,-7.32 13.8,-17.19 19.01,-29.56 5.21,-12.37 8.93,-27.33 11.15,-44.95 3.05,-24.41 1.8,-43.17 -3.73,-56.29 -5.51,-13.13 -13.14,-21.91 -22.87,-26.36 -7.01,-3.2 -18.75,-4.78 -35.22,-4.78l-43.91 0 -22.35 178.31zm180.57 27.34l29.19 -232.98 151.19 0 -3.42 27.33 -123.41 0 -8.97 71.59 115.5 0 -3.42 27.33 -115.52 0 -9.95 79.39 128.37 0 -3.42 27.34 -156.15 0zm323.67 0l25.77 -205.65 -69.01 0 3.42 -27.33 165.81 0 -3.43 27.33 -69.01 0 -25.77 205.65 -27.78 0zm125.98 0l29.2 -232.98 151.19 0 -3.43 27.33 -123.41 0 -8.97 71.59 115.52 0 -3.43 27.33 -115.5 0 -9.95 79.39 128.37 0 -3.42 27.34 -156.17 0zm353.85 -81.73l26.8 7.81c-8.97,25.33 -21.81,44.58 -38.54,57.87 -16.73,13.28 -35.98,19.95 -57.77,19.95 -22.51,0 -40.2,-5.1 -53.05,-15.34 -12.86,-10.2 -21.73,-25 -26.65,-44.36 -4.93,-19.41 -6.03,-40.18 -3.24,-62.42 3.03,-24.24 9.83,-45.39 20.43,-63.46 10.59,-18.05 24.15,-31.78 40.69,-41.15 16.52,-9.39 34.02,-14.04 52.45,-14.04 20.96,0 37.81,5.91 50.55,17.78 12.78,11.88 20.65,28.53 23.55,50l-28.09 7.16c-2.71,-16.91 -8.22,-29.28 -16.47,-36.99 -8.24,-7.76 -19.35,-11.61 -33.35,-11.61 -16.03,0 -30.02,4.29 -41.86,12.86 -11.85,8.57 -20.89,20.12 -27.05,34.55 -6.2,14.47 -10.26,29.39 -12.18,44.74 -2.49,19.79 -2.07,37.08 1.25,51.84 3.31,14.8 9.98,25.81 19.96,33.14 10,7.32 21.35,10.96 34.07,10.96 15.5,0 29.18,-4.99 41.15,-14.91 11.97,-9.98 21.08,-24.73 27.34,-44.36zm51.51 81.73l29.2 -232.98 28.47 0 86.94 182.87 22.92 -182.87 26.61 0 -29.2 232.98 -28.46 0 -86.94 -182.87 -22.92 182.87 -26.62 0zm217.21 -113.4c4.84,-38.62 17.99,-68.87 39.4,-90.74 21.41,-21.85 46.85,-32.75 76.39,-32.75 19.35,0 36.1,5.15 50.37,15.39 14.22,10.26 24.25,24.57 30.1,42.95 5.83,18.33 7.32,39.15 4.41,62.42 -2.97,23.59 -9.9,44.74 -20.81,63.35 -10.92,18.65 -24.82,32.76 -41.72,42.3 -16.95,9.6 -34.5,14.36 -52.68,14.36 -19.73,0 -36.67,-5.31 -50.88,-15.88 -14.18,-10.58 -24.17,-25 -29.85,-43.33 -5.71,-18.27 -7.28,-37.64 -4.72,-58.08zm28.59 0.54c-3.5,28.04 0.49,50.11 12.02,66.21 11.53,16.1 27.54,24.19 48,24.19 20.86,0 38.98,-8.14 54.52,-24.41 15.49,-16.26 25.11,-39.36 28.87,-69.3 2.37,-18.92 1.57,-35.47 -2.43,-49.57 -3.97,-14.09 -11.04,-25.05 -21.13,-32.81 -10.13,-7.76 -22.08,-11.65 -35.87,-11.65 -19.6,0 -37.39,7.48 -53.41,22.45 -16.01,14.96 -26.2,39.91 -30.59,74.89zm191.98 112.86l29.19 -232.98 27.78 0 -25.77 205.64 102.94 0 -3.43 27.34 -130.71 0zm169.54 -113.4c4.84,-38.62 17.99,-68.87 39.4,-90.74 21.41,-21.85 46.85,-32.75 76.39,-32.75 19.35,0 36.1,5.15 50.37,15.39 14.22,10.26 24.27,24.57 30.1,42.95 5.83,18.33 7.32,39.15 4.41,62.42 -2.97,23.59 -9.9,44.74 -20.81,63.35 -10.92,18.65 -24.83,32.76 -41.72,42.3 -16.94,9.6 -34.5,14.36 -52.68,14.36 -19.73,0 -36.67,-5.31 -50.88,-15.88 -14.18,-10.58 -24.17,-25 -29.85,-43.33 -5.71,-18.27 -7.28,-37.64 -4.72,-58.08zm28.59 0.54c-3.52,28.04 0.5,50.11 12.02,66.21 11.53,16.1 27.54,24.19 48,24.19 20.86,0 38.98,-8.14 54.52,-24.41 15.49,-16.26 25.12,-39.36 28.87,-69.3 2.37,-18.92 1.57,-35.47 -2.41,-49.57 -3.98,-14.09 -11.04,-25.05 -21.14,-32.81 -10.13,-7.76 -22.08,-11.65 -35.87,-11.65 -19.6,0 -37.4,7.48 -53.41,22.45 -16.01,14.96 -26.2,39.91 -30.59,74.89zm302.57 21.42l3.43 -27.33 88.6 0 -10.82 86.32c-15.11,12.05 -30.28,21.15 -45.53,27.23 -15.23,6.07 -30.48,9.11 -45.69,9.11 -20.56,0 -38.62,-4.88 -54.2,-14.69 -15.54,-9.76 -26.48,-23.97 -32.7,-42.46 -6.25,-18.54 -7.94,-39.27 -5.09,-62.1 2.84,-22.66 9.73,-43.81 20.74,-63.49 10.98,-19.63 25.05,-34.23 42.22,-43.71 17.18,-9.55 36.21,-14.31 57.07,-14.31 15.11,0 28.46,2.71 40.01,8.19 11.54,5.48 20.2,13.06 25.89,22.77 5.75,9.77 9.41,22.51 11.05,38.19l-25.96 7.59c-1.68,-11.81 -4.41,-21.15 -8.19,-27.98 -3.82,-6.78 -9.78,-12.21 -17.94,-16.27 -8.11,-4.07 -17.46,-6.13 -28.04,-6.13 -12.62,0 -23.81,2.17 -33.6,6.46 -9.76,4.28 -17.87,9.93 -24.45,16.97 -6.53,7 -11.89,14.69 -16.05,23.05 -7.13,14.47 -11.76,30.1 -13.87,46.96 -2.61,20.82 -1.58,38.24 3.04,52.28 4.68,13.98 12.73,24.4 24.12,31.18 11.43,6.78 24.02,10.2 37.82,10.2 11.99,0 24.01,-2.6 36.05,-7.76 12.06,-5.21 21.37,-10.69 28.02,-16.59l5.47 -43.65 -61.41 0zm122.72 91.44l29.2 -232.98 27.77 0 -29.19 232.98 -27.78 0zm53.62 0l109.51 -232.98 30.47 0 56.04 232.98 -31.53 0 -15.37 -70.61 -88.18 0 -31.56 70.61 -29.39 0zm72.23 -95.66l71.35 0 -13.74 -64.6c-4.12,-19.62 -7.06,-35.85 -8.92,-48.64 -4.78,15.18 -10.49,30.1 -17.17,44.85l-31.52 68.38zm-2044.48 459.17l29.19 -232.98 72.13 0c16.29,0 28.58,1.09 36.88,3.31 11.61,3.09 21.14,8.68 28.62,16.7 9.76,10.42 16.34,23.64 19.77,39.8 3.48,16.16 3.9,34.66 1.29,55.43 -2.22,17.67 -6.03,33.35 -11.45,47.01 -5.42,13.66 -11.62,25 -18.54,33.95 -6.96,8.95 -14.18,16.01 -21.74,21.1 -7.52,5.15 -16.35,9.06 -26.42,11.7 -10.13,2.66 -21.51,3.97 -34.18,3.97l-75.54 0zm31.2 -27.34l44.65 0c13.8,0 24.79,-1.41 33,-4.28 8.2,-2.88 14.94,-6.89 20.27,-12.1 7.45,-7.33 13.81,-17.19 19.02,-29.56 5.2,-12.37 8.92,-27.33 11.14,-44.95 3.05,-24.41 1.8,-43.17 -3.73,-56.3 -5.51,-13.13 -13.14,-21.9 -22.87,-26.35 -7,-3.2 -18.75,-4.78 -35.22,-4.78l-43.91 0 -22.35 178.31zm185.71 -86.06c4.84,-38.62 17.99,-68.87 39.39,-90.74 21.41,-21.85 46.85,-32.76 76.39,-32.76 19.35,0 36.1,5.16 50.37,15.4 14.22,10.26 24.27,24.57 30.1,42.95 5.85,18.33 7.33,39.15 4.41,62.42 -2.95,23.59 -9.9,44.74 -20.81,63.35 -10.91,18.65 -24.82,32.76 -41.7,42.29 -16.95,9.61 -34.51,14.38 -52.68,14.38 -19.74,0 -36.67,-5.32 -50.9,-15.88 -14.17,-10.58 -24.15,-25 -29.85,-43.33 -5.7,-18.27 -7.27,-37.64 -4.71,-58.08zm28.59 0.54c-3.52,28.04 0.49,50.11 12.02,66.21 11.53,16.1 27.52,24.19 47.99,24.19 20.87,0 39,-8.14 54.54,-24.41 15.49,-16.26 25.11,-39.38 28.86,-69.3 2.38,-18.93 1.57,-35.47 -2.41,-49.57 -3.98,-14.09 -11.04,-25.05 -21.13,-32.81 -10.15,-7.76 -22.08,-11.65 -35.88,-11.65 -19.58,0 -37.39,7.48 -53.4,22.45 -16.02,14.96 -26.21,39.91 -30.59,74.89zm274.1 112.86l29.19 -232.98 28.47 0 86.94 182.87 22.92 -182.87 26.62 0 -29.2 232.98 -28.47 0 -86.94 -182.87 -22.92 182.87 -26.61 0zm217.21 -113.4c4.84,-38.62 17.99,-68.87 39.39,-90.74 21.41,-21.85 46.85,-32.76 76.39,-32.76 19.35,0 36.1,5.16 50.37,15.4 14.22,10.26 24.27,24.57 30.1,42.95 5.85,18.33 7.33,39.15 4.41,62.42 -2.95,23.59 -9.9,44.74 -20.81,63.35 -10.92,18.65 -24.82,32.76 -41.7,42.29 -16.95,9.61 -34.51,14.38 -52.68,14.38 -19.74,0 -36.67,-5.32 -50.9,-15.88 -14.17,-10.58 -24.15,-25 -29.85,-43.33 -5.7,-18.27 -7.27,-37.64 -4.71,-58.08zm28.59 0.54c-3.52,28.04 0.49,50.11 12.02,66.21 11.53,16.1 27.52,24.19 47.99,24.19 20.87,0 39,-8.14 54.54,-24.41 15.49,-16.26 25.11,-39.38 28.86,-69.3 2.38,-18.93 1.57,-35.47 -2.41,-49.57 -3.98,-14.09 -11.04,-25.05 -21.14,-32.81 -10.13,-7.76 -22.07,-11.65 -35.87,-11.65 -19.6,0 -37.39,7.48 -53.4,22.45 -16.02,14.96 -26.21,39.91 -30.59,74.89zm193.72 112.86l29.2 -232.98 92.8 0c18.66,0 32.59,2.12 41.77,6.29 9.18,4.18 15.99,11.56 20.48,22.13 4.47,10.58 5.88,22.29 4.28,35.09 -2.07,16.54 -8.65,30.48 -19.67,41.81 -11.03,11.34 -26.74,18.49 -47.21,21.58 6.88,3.91 11.94,7.81 15.26,11.61 7.06,8.24 13.42,18.6 19.03,31.02l28.25 63.46 -34.6 0 -21.61 -48.49c-6.29,-14.04 -11.62,-24.73 -15.91,-32.16 -4.34,-7.43 -8.37,-12.57 -12.13,-15.56 -3.73,-2.93 -7.71,-4.99 -11.85,-6.18 -3.03,-0.71 -8.1,-1.09 -15.27,-1.09l-32.07 0 -12.97 103.48 -27.78 0zm44.09 -130.16l59.46 0c12.67,0 22.71,-1.46 30.18,-4.39 7.48,-2.88 13.47,-7.54 17.94,-14 4.5,-6.4 7.23,-13.35 8.17,-20.88 1.37,-11.01 -1.04,-20.11 -7.32,-27.22 -6.27,-7.11 -17.14,-10.63 -32.59,-10.63l-66.19 0 -9.67 77.11zm166.51 130.16l29.2 -232.98 72.13 0c16.27,0 28.57,1.09 36.86,3.31 11.61,3.09 21.14,8.68 28.62,16.7 9.76,10.42 16.34,23.64 19.77,39.8 3.48,16.16 3.9,34.66 1.3,55.43 -2.22,17.67 -6.04,33.35 -11.46,47.01 -5.42,13.66 -11.61,25 -18.53,33.95 -6.97,8.95 -14.19,16.01 -21.75,21.1 -7.51,5.15 -16.34,9.06 -26.42,11.7 -10.12,2.66 -21.51,3.97 -34.18,3.97l-75.54 0zm31.2 -27.34l44.65 0c13.8,0 24.79,-1.41 33,-4.28 8.21,-2.88 14.95,-6.89 20.28,-12.1 7.44,-7.33 13.8,-17.19 19.01,-29.56 5.21,-12.37 8.93,-27.33 11.14,-44.95 3.06,-24.41 1.8,-43.17 -3.71,-56.3 -5.53,-13.13 -13.15,-21.9 -22.87,-26.35 -7.01,-3.2 -18.75,-4.78 -35.23,-4.78l-43.91 0 -22.35 178.31zm180.57 27.34l29.2 -232.98 151.19 0 -3.43 27.33 -123.41 0 -8.97 71.58 115.52 0 -3.43 27.34 -115.52 0 -9.95 79.39 128.38 0 -3.42 27.34 -156.17 0zm194.78 -74.84l26.35 -2.61c-0.25,11.72 1.42,21.31 5.01,28.86 3.6,7.48 9.85,13.55 18.77,18.21 8.92,4.62 19.35,6.95 31.25,6.95 10.58,0 20.1,-1.74 28.63,-5.26 8.54,-3.53 15.14,-8.36 19.85,-14.49 4.72,-6.13 7.55,-12.79 8.44,-19.95 0.92,-7.27 -0.2,-13.62 -3.31,-19.09 -3.11,-5.43 -8.84,-9.98 -17.14,-13.73 -5.31,-2.38 -17.26,-6.18 -35.86,-11.32 -18.6,-5.16 -31.46,-9.99 -38.58,-14.53 -9.26,-5.86 -15.76,-13.13 -19.55,-21.75 -3.85,-8.62 -5.07,-18.33 -3.73,-29.01 1.48,-11.83 5.88,-22.83 13.15,-33.03 7.28,-10.26 16.97,-18 29.19,-23.32 12.17,-5.32 25.33,-7.98 39.41,-7.98 15.49,0 28.85,2.77 39.99,8.36 11.15,5.53 19.24,13.71 24.27,24.57 5.04,10.78 6.9,23.04 5.67,36.7l-26.89 2.28c0.43,-14.69 -3,-25.81 -10.31,-33.3 -7.29,-7.54 -19.01,-11.27 -35.09,-11.27 -16.76,0 -29.44,3.42 -37.94,10.25 -8.51,6.84 -13.39,15.07 -14.6,24.73 -1.05,8.35 0.82,15.23 5.55,20.66 4.68,5.37 17.87,10.96 39.68,16.59 21.8,5.7 36.64,10.63 44.49,14.87 11.36,6.23 19.39,14.09 23.98,23.69 4.61,9.55 6.1,20.56 4.53,33.03 -1.56,12.43 -6.18,24.03 -13.93,34.98 -7.76,10.96 -17.94,19.47 -30.64,25.55 -12.71,6.07 -26.48,9.11 -41.45,9.11 -18.91,0 -34.36,-3.09 -46.36,-9.22 -12.06,-6.13 -20.89,-15.36 -26.61,-27.71 -5.77,-12.32 -7.82,-26.25 -6.26,-41.81zm247.96 74.84l25.77 -205.65 -69.01 0 3.42 -27.33 165.81 0 -3.42 27.33 -69.02 0 -25.77 205.65 -27.78 0zm125.99 0l29.19 -232.98 151.19 0 -3.42 27.33 -123.41 0 -8.97 71.58 115.5 0 -3.42 27.34 -115.52 0 -9.95 79.39 128.38 0 -3.43 27.34 -156.15 0zm-3782.7 0l-45.67 0 -11.43 -53.04 -83.97 0 -24.04 53.04 -44.84 0 110.49 -232.98 44.79 0 54.68 232.98zm-65.91 -92.42l-18.3 -86.23 -39.07 86.23 57.37 0zm117.67 -140.57l42.4 0 -15.82 126.25c-2.51,20.06 -3.6,33.03 -3.32,38.93 0.61,9.55 3.88,17.24 9.89,22.99 6.04,5.81 14.9,8.68 26.59,8.68 11.84,0 21.15,-2.71 27.88,-8.19 6.73,-5.48 11.18,-12.14 13.39,-20.12 2.22,-7.97 4.5,-21.14 6.81,-39.58l16.15 -128.96 42.4 0 -15.34 122.51c-3.52,27.98 -7.11,47.77 -10.85,59.33 -3.75,11.54 -9.15,21.31 -16.3,29.28 -7.1,7.98 -16.07,14.26 -26.9,18.98 -10.87,4.72 -24.52,7.11 -41.04,7.11 -19.94,0 -34.73,-2.55 -44.36,-7.71 -9.64,-5.15 -16.95,-11.81 -21.91,-20.06 -4.95,-8.25 -7.78,-16.81 -8.54,-25.87 -1.12,-13.33 0,-33.08 3.27,-59.17l15.59 -124.4zm229.06 232.98l24.28 -193.61 -62 0 4.93 -39.38 166.11 0 -4.94 39.38 -61.7 0 -24.27 193.61 -42.4 0zm131.94 -115.09c2.98,-23.75 8.69,-43.7 17.11,-59.87 6.21,-11.88 14.08,-22.56 23.51,-32 9.41,-9.44 19.31,-16.43 29.68,-21.04 13.84,-6.13 29.28,-9.22 46.34,-9.22 30.91,0 54.23,10.69 70.12,32 15.85,21.36 21.39,51.03 16.62,89.05 -4.72,37.68 -17.64,67.19 -38.66,88.44 -21.05,21.31 -47,31.95 -77.75,31.95 -31.15,0 -54.63,-10.58 -70.34,-31.78 -15.72,-21.15 -21.29,-50.33 -16.62,-87.54zm43.76 -1.57c-3.31,26.41 -0.31,46.42 8.95,60.09 9.26,13.62 22.34,20.44 39.2,20.44 16.92,0 31.61,-6.78 44.17,-20.28 12.52,-13.55 20.48,-33.84 23.86,-60.9 3.36,-26.74 0.59,-46.69 -8.33,-59.82 -8.88,-13.17 -22.05,-19.74 -39.55,-19.74 -17.45,0 -32.37,6.68 -44.71,19.96 -12.34,13.33 -20.22,33.41 -23.59,60.25zm177.47 116.66l29.2 -232.98 63.51 0 17.61 158.9 57.01 -158.9 63.64 0 -29.19 232.98 -39.19 0 22.84 -183.41 -64.27 183.41 -40.75 0 -18.1 -183.41 -23.14 183.41 -39.18 0zm249.83 -115.09c2.98,-23.75 8.69,-43.7 17.11,-59.87 6.21,-11.88 14.08,-22.56 23.51,-32 9.41,-9.44 19.31,-16.43 29.68,-21.04 13.84,-6.13 29.28,-9.22 46.34,-9.22 30.91,0 54.23,10.69 70.12,32 15.85,21.36 21.39,51.03 16.62,89.05 -4.72,37.68 -17.64,67.19 -38.68,88.44 -21.04,21.31 -46.99,31.95 -77.73,31.95 -31.15,0 -54.63,-10.58 -70.34,-31.78 -15.72,-21.15 -21.29,-50.33 -16.62,-87.54zm43.76 -1.57c-3.31,26.41 -0.31,46.42 8.95,60.09 9.26,13.62 22.34,20.44 39.2,20.44 16.91,0 31.61,-6.78 44.17,-20.28 12.52,-13.55 20.48,-33.84 23.86,-60.9 3.36,-26.74 0.59,-46.69 -8.33,-59.82 -8.88,-13.17 -22.05,-19.74 -39.55,-19.74 -17.45,0 -32.37,6.68 -44.71,19.96 -12.34,13.33 -20.22,33.41 -23.59,60.25zm225.13 116.66l24.27 -193.61 -61.99 0 4.93 -39.38 166.11 0 -4.94 39.38 -61.7 0 -24.27 193.61 -42.4 0zm130.09 0l29.2 -232.98 42.4 0 -29.2 232.98 -42.4 0zm136.28 0l-45.71 -232.98 45.81 0 31.56 172.45 72.65 -172.45 45.04 0 -103.68 232.98 -45.66 0zm308.41 0l-45.66 0 -11.43 -53.04 -83.98 0 -24.04 53.04 -44.84 0 110.5 -232.98 44.78 0 54.68 232.98zm-65.91 -92.42l-18.3 -86.23 -39.07 86.23 57.37 0z"/>
   <path class="fil5" d="M8976.6 4591.87l-10.91 78.19 -441.16 0c2.13,-19.71 8.03,-38.63 17.56,-56.94 15.5,-29.93 37.77,-59.56 66.79,-88.57 29.02,-29.01 69.38,-62.51 121.06,-100.52 80.42,-59.41 135.98,-106.41 166.42,-141.15 30.6,-34.76 48.05,-67.64 52.38,-98.65 4.52,-32.43 -3.3,-59.72 -23.46,-82.06 -20.17,-22.18 -49.02,-33.35 -86.4,-33.35 -39.56,0 -72.84,11.79 -99.87,35.36 -27,23.43 -43.48,56.01 -49.61,97.73l-82.6 -8.38c14.47,-62.66 42.86,-110.44 84.98,-143.32 42.28,-32.89 94.99,-49.33 158.43,-49.33 63.91,0 112.17,17.68 144.44,53.2 32.43,35.53 44.9,79.57 37.59,132.01 -3.71,26.68 -12.81,52.89 -27.4,78.64 -14.47,25.91 -36.41,53.05 -65.67,81.59 -29.4,28.38 -76.9,67.62 -142.47,117.27 -54.93,41.26 -90.47,69.18 -106.48,83.91 -16.01,14.74 -29.55,29.47 -40.77,44.36l327.15 0zm123.52 -250.67c10.97,-78.64 27.9,-142.24 50.75,-190.33 23.02,-48.24 52.23,-85.31 87.8,-111.21 35.4,-25.91 77.38,-38.78 125.77,-38.78 35.67,0 66.02,7.13 91.15,21.56 24.98,14.42 44.41,35.21 58,62.35 13.6,27 22.65,60.04 27.14,98.97 4.66,38.93 2.29,91.52 -6.91,157.44 -10.89,78.18 -27.79,141.47 -50.47,189.55 -22.71,48.25 -51.92,85.32 -87.51,111.37 -35.43,26.07 -77.57,39.09 -126.29,39.09 -64.06,0 -111.29,-22.81 -141.52,-68.57 -36.1,-55.83 -45.37,-146.28 -27.92,-271.45zm83.73 0.31c-15.29,109.67 -12.75,182.58 7.83,218.57 20.55,36.14 49.69,54.13 87.23,54.13 37.54,0 71.7,-18.15 102.34,-54.29 30.66,-36.3 53.52,-109.05 68.78,-218.41 15.29,-109.67 12.75,-182.58 -7.83,-218.56 -20.4,-36.14 -49.84,-54.13 -88.16,-54.13 -37.54,0 -69.85,15.97 -96.79,47.77 -33.71,40.49 -58.15,115.57 -73.4,224.92zm695.18 328.55l-81.91 0 72.73 -521.51c-22.34,18.93 -50.86,37.7 -85.43,56.47 -34.57,18.76 -65.39,32.88 -92.13,42.19l11.03 -79.12c48.75,-21.4 92.4,-47.46 130.97,-78.18 38.54,-30.56 67.02,-60.18 85.32,-89.03l52.73 0 -93.31 669.18zm244.13 -154.5l79.08 -6.52c1.53,36.92 10.53,63.6 26.99,80.2 16.45,16.59 39.33,24.98 68.8,24.98 25.12,0 47.95,-5.74 68.65,-17.38 20.69,-11.47 38.33,-26.83 52.98,-46.23 14.63,-19.23 28.35,-45.29 41.13,-78.02 12.79,-32.73 21.47,-66.08 26.21,-100.05 0.5,-3.57 1.12,-9.15 1.83,-16.45 -19.93,26.07 -45.22,47.32 -75.7,63.44 -30.5,16.29 -62.34,24.35 -95.23,24.35 -55.06,0 -98.8,-20.01 -131.39,-60.03 -32.44,-39.87 -44.17,-92.61 -35.04,-158.07 9.44,-67.64 36.86,-121.93 82.48,-163.19 45.44,-41.1 98.11,-61.73 158.14,-61.73 43.13,0 81.05,11.63 113.78,35.05 32.59,23.27 55.11,56.46 67.68,99.74 12.6,43.13 13.19,105.64 1.79,187.38 -11.88,85.16 -30.48,152.94 -55.97,203.36 -25.52,50.56 -58.47,88.89 -98.59,115.25 -40.14,26.37 -84.63,39.56 -133.64,39.56 -52.12,0 -92.61,-14.42 -121.61,-43.43 -28.85,-29.01 -43,-69.8 -42.37,-122.23zm375.12 -293.95c6.53,-46.84 -0.69,-84.07 -21.68,-111.53 -20.83,-27.45 -49,-41.25 -84.36,-41.25 -36.61,0 -70.31,14.73 -101.12,44.36 -30.97,29.62 -49.67,68.09 -56.25,115.25 -5.91,42.35 2.01,76.78 23.62,103.15 21.74,26.53 51.54,39.72 89.24,39.72 37.84,0 70.71,-13.19 98.76,-39.72 28.03,-26.37 45.26,-63.13 51.79,-109.98z"/>
  </g>
  <g id="_640212000">
   <g style="clip-path:url(#id0)">
    <image x="18479.47" y="222.45" width="5501.86" height="5231.87" xlink:href="autonor_Images\autonor_ImgID1.png"/>
   </g>
  </g>
  <g id="_640236840">
   <path class="fil6" d="M19480.17 2324.66l0 -253.88 413.76 0 0 864.13 -284.38 0 0 -610.25 -129.38 0zm486.99 0l0 -253.88 413.76 0 0 864.13 -284.38 0 0 -610.25 -129.38 0zm991.07 -86.67c44.76,0 83.4,9.15 115.95,27.46 32.55,18.31 57.37,43.33 74.45,75.06l0 -93.97 269.75 0 0 688.37 -269.75 0 0 -93.97c-17.08,31.73 -41.9,56.75 -74.45,75.06 -32.55,18.31 -71.19,27.46 -115.95,27.46 -53.71,0 -102.12,-14.04 -145.25,-42.11 -43.11,-28.08 -77.1,-68.76 -101.91,-122.06 -24.82,-53.3 -37.22,-116.15 -37.22,-188.57 0,-72.42 12.4,-135.27 37.22,-188.57 24.82,-53.3 58.8,-93.98 101.91,-122.06 43.13,-28.06 91.53,-42.11 145.25,-42.11zm90.32 236.79c-29.3,0 -53.3,10.16 -72.01,30.52 -18.71,20.33 -28.08,48.81 -28.08,85.43 0,36.62 9.36,65.1 28.08,85.43 18.71,20.36 42.71,30.52 72.01,30.52 29.29,0 53.29,-10.16 72.01,-30.52 18.71,-20.33 28.06,-48.81 28.06,-85.43 0,-36.62 -9.35,-65.1 -28.06,-85.43 -18.73,-20.36 -42.72,-30.52 -72.01,-30.52zm650.54 -150.12l0 -253.88 413.77 0 0 864.13 -284.39 0 0 -610.25 -129.38 0zm538.25 476l0 -225.8 363.72 -518.72 291.71 0 0 510.18 87.87 0 0 234.34 -87.87 0 0 134.25 -273.41 0 0 -134.25 -382.01 0zm404 -435.73l-131.83 201.39 131.83 0 0 -201.39z"/>
   <path class="fil6" d="M19556.98 3394.43c0,40.9 -9.12,77.76 -27.34,110.57 -18.22,32.81 -44.24,58.62 -78.06,77.46 -33.82,18.82 -73.21,28.25 -118.16,28.25l-179.22 0 0 -430.13 179.22 0c44.95,0 84.34,9.11 118.16,27.34 33.82,18.22 59.84,43.53 78.06,75.93 18.22,32.4 27.34,69.25 27.34,110.58zm-235.71 95.98c30.38,0 54.47,-8.3 72.29,-24.91 17.82,-16.59 26.73,-40.29 26.73,-71.07 0,-30.78 -8.91,-54.49 -26.73,-71.08 -17.82,-16.61 -41.91,-24.91 -72.29,-24.91l-32.21 0 0 191.98 32.21 0zm419.2 -202.92l0 53.47 133.64 0 0 101.46 -133.64 0 0 60.75 151.86 0 0 107.54 -286.74 0 0 -430.13 286.74 0 0 106.91 -151.86 0zm638.5 196.24c0,24.69 -6.38,46.97 -19.14,66.83 -12.76,19.84 -31.29,35.54 -55.59,47.08 -24.29,11.53 -53.26,17.32 -86.86,17.32 -51.45,0 -93.87,-12.05 -127.28,-36.15 -33.41,-24.09 -51.53,-59.44 -54.38,-106.02l143.37 0c2.02,24.72 12.97,37.07 32.81,37.07 6.89,0 12.46,-1.83 16.7,-5.48 4.26,-3.64 6.38,-8.91 6.38,-15.8 0,-10.12 -5.16,-18.13 -15.49,-24 -10.33,-5.87 -27.03,-12.65 -50.12,-20.34 -27.13,-8.92 -49.71,-18.03 -67.73,-27.34 -18.03,-9.33 -33.73,-23.09 -47.08,-41.31 -13.37,-18.24 -20.05,-41.92 -20.05,-71.08 0,-27.95 7.19,-51.74 21.57,-71.39 14.38,-19.64 34.02,-34.52 58.92,-44.66 24.91,-10.12 52.95,-15.18 84.14,-15.18 51.43,0 92.34,11.95 122.72,35.85 30.38,23.9 46.99,58.32 49.82,103.27l-145.2 0c-2.02,-22.68 -11.34,-34.02 -27.95,-34.02 -5.66,0 -10.32,1.72 -13.96,5.17 -3.65,3.43 -5.48,8.59 -5.48,15.49 0,9.31 5.17,16.9 15.5,22.78 10.32,5.87 26.42,12.65 48.3,20.34 27.54,9.72 50.32,19.35 68.33,28.86 18.03,9.51 33.82,23.49 47.39,41.91 13.57,18.43 20.36,42.02 20.36,70.79zm182.26 -196.24l0 53.47 133.65 0 0 101.46 -133.65 0 0 60.75 151.88 0 0 107.54 -286.74 0 0 -430.13 286.74 0 0 106.91 -151.88 0zm540.69 -106.91l0 106.91 -114.22 0 0 323.21 -134.87 0 0 -323.21 -113 0 0 -106.91 362.09 0zm171.33 106.91l0 53.47 133.64 0 0 101.46 -133.64 0 0 60.75 151.86 0 0 107.54 -286.74 0 0 -430.13 286.74 0 0 106.91 -151.86 0zm719.9 -106.91l0 430.13 -134.25 0 0 -214.46 -66.23 214.46 -115.42 0 -66.23 -214.46 0 214.46 -134.87 0 0 -430.13 165.23 0 94.78 258.19 92.34 -258.19 164.63 0zm348.72 209.59c25.92,6.08 46.08,18.54 60.45,37.37 14.38,18.84 21.57,40.6 21.57,65.31 0,37.67 -12.45,66.73 -37.37,87.18 -24.9,20.45 -60.65,30.69 -107.23,30.69l-225.38 0 0 -430.13 219.32 0c43.74,0 78.16,9.51 103.27,28.55 25.11,19.03 37.67,46.78 37.67,83.22 0,25.11 -6.59,46.28 -19.76,63.49 -13.15,17.21 -30.67,28.65 -52.55,34.31zm-153.09 -41.91l52.24 0c12.16,0 21.16,-2.43 27.05,-7.29 5.86,-4.85 8.8,-12.35 8.8,-22.48 0,-10.53 -2.94,-18.33 -8.8,-23.39 -5.88,-5.06 -14.89,-7.6 -27.05,-7.6l-52.24 0 0 60.76zm61.36 154.32c12.14,0 21.16,-2.33 27.03,-7 5.87,-4.66 8.81,-12.26 8.81,-22.78 0,-20.65 -11.95,-30.98 -35.85,-30.98l-61.36 0 0 60.76 61.36 0zm435.59 108.14l-81.41 -154.32 0 154.32 -134.87 0 0 -430.13 200.48 0c34.83,0 64.6,6.16 89.3,18.53 24.71,12.35 43.24,29.15 55.59,50.42 12.35,21.27 18.53,45.26 18.53,72 0,28.75 -8,54.27 -24,76.55 -16.01,22.27 -38.98,38.27 -68.96,47.99l93.57 164.65 -148.24 0zm-81.41 -244.23l53.46 0c12.97,0 22.68,-2.93 29.17,-8.81 6.48,-5.87 9.72,-15.09 9.72,-27.65 0,-11.32 -3.35,-20.25 -10.02,-26.72 -6.68,-6.48 -16.3,-9.72 -28.86,-9.72l-53.46 0 0 72.89zm481.76 -193.19c40.5,0 77.56,9.41 111.18,28.25 33.62,18.84 60.25,45.06 79.89,78.68 19.64,33.62 29.46,71.48 29.46,113.6 0,42.12 -9.82,79.99 -29.46,113.6 -19.64,33.62 -46.37,59.95 -80.2,78.97 -33.81,19.04 -70.77,28.57 -110.87,28.57 -40.5,0 -77.66,-9.52 -111.47,-28.57 -33.82,-19.02 -60.65,-45.36 -80.5,-78.97 -19.84,-33.62 -29.77,-71.48 -29.77,-113.6 0,-42.12 9.93,-79.99 29.77,-113.6 19.85,-33.62 46.68,-59.84 80.5,-78.68 33.81,-18.84 70.97,-28.25 111.47,-28.25zm0 124.54c-27.13,0 -47.99,8.62 -62.57,25.82 -14.58,17.22 -21.86,40.61 -21.86,70.17 0,29.15 7.28,52.34 21.86,69.56 14.58,17.21 35.44,25.82 62.57,25.82 26.74,0 47.39,-8.62 61.97,-25.82 14.58,-17.22 21.86,-40.4 21.86,-69.56 0,-29.56 -7.28,-52.95 -21.86,-70.17 -14.58,-17.21 -35.23,-25.82 -61.97,-25.82z"/>
   <path class="fil6" d="M19847.54 4329.79c0,84.62 -18.1,159.68 -54.3,225.19 -36.21,65.5 -88.3,116.56 -156.24,153.18 -67.94,36.62 -147.88,54.93 -239.82,54.93l-325.89 0 0 -862.92 325.89 0c92.75,0 172.91,17.9 240.43,53.7 67.54,35.8 119.41,86.25 155.63,151.35 36.2,65.09 54.3,139.95 54.3,224.57zm-468.67 246.55c81.36,0 144.63,-21.57 189.78,-64.68 45.16,-43.14 67.75,-103.75 67.75,-181.87 0,-78.11 -22.59,-138.73 -67.75,-181.87 -45.15,-43.11 -108.42,-64.68 -189.78,-64.68l-98.87 0 0 493.09 98.87 0zm795.77 -510.18l0 180.64 291.71 0 0 157.44 -291.71 0 0 191.63 328.33 0 0 167.21 -537.03 0 0 -862.92 537.03 0 0 165.99 -328.33 0zm660.31 530.93c258.74,-184.71 388.12,-331.57 388.12,-440.61 0,-66.73 -28.89,-100.09 -86.66,-100.09 -32.55,0 -56.35,11.4 -71.4,34.18 -15.05,22.78 -23.39,58.17 -25.02,106.19l-203.83 0c4.89,-104.98 36.62,-183.9 95.21,-236.79 58.58,-52.89 132.62,-79.33 222.12,-79.33 93.58,0 164.17,23.59 211.77,70.79 47.6,47.19 71.4,108.63 71.4,184.29 0,83.82 -32.15,165.8 -96.42,245.95 -64.28,80.15 -141.17,147.88 -230.68,203.21l340.52 0 0 168.43 -615.13 0 0 -156.23zm700.57 -274.62c0,135.08 27.26,242.07 81.78,321 54.52,78.93 141.58,118.4 261.19,118.4 118.8,0 205.66,-39.46 260.58,-118.4 54.93,-78.92 82.39,-185.92 82.39,-321 0,-134.25 -27.46,-240.64 -82.39,-319.16 -54.91,-78.52 -141.78,-117.78 -260.58,-117.78 -119.61,0 -206.67,39.27 -261.19,117.78 -54.52,78.52 -81.78,184.9 -81.78,319.16zm478.45 0c0,77.3 -9.15,136.9 -27.46,178.81 -18.31,41.91 -54.31,62.86 -108.02,62.86 -54.51,0 -91.13,-20.94 -109.84,-62.86 -18.71,-41.91 -28.08,-101.51 -28.08,-178.81 0,-76.48 9.36,-135.48 28.08,-176.96 18.71,-41.51 55.33,-62.26 109.84,-62.26 53.7,0 89.71,20.55 108.02,61.63 18.31,41.1 27.46,100.3 27.46,177.59zm269.73 -227.01l0 -195.28 349.07 0 0 862.92 -219.7 0 0 -667.63 -129.38 0zm687.15 402.77c11.4,70.8 47.19,106.18 107.42,106.18 47.18,0 80.34,-21.56 99.47,-64.68 19.12,-43.13 27.86,-110.26 26.23,-201.39 -13.82,33.37 -37.62,59.6 -71.39,78.73 -33.77,19.12 -73.04,28.68 -117.78,28.68 -81.37,0 -145.65,-24.61 -192.85,-73.84 -47.19,-49.23 -70.8,-119.82 -70.8,-211.77 0,-57.77 11.8,-109.02 35.4,-153.78 23.59,-44.76 58.38,-79.54 104.35,-104.35 45.97,-24.83 101.09,-37.23 165.38,-37.23 87.06,0 155,18.31 203.83,54.93 48.82,36.61 82.59,86.45 101.3,149.51 18.71,63.06 28.08,138.94 28.08,227.63 0,156.23 -23.8,274.42 -71.4,354.56 -47.61,80.15 -127.55,120.22 -239.83,120.22 -61.85,0 -114.94,-12.41 -159.28,-37.22 -44.35,-24.83 -78.52,-57.99 -102.53,-99.47 -24.01,-41.51 -37.64,-87.07 -40.9,-136.71l195.28 0zm217.26 -328.31c0,-37.44 -10.58,-67.75 -31.74,-90.93 -21.15,-23.2 -52.07,-34.79 -92.76,-34.79 -36.61,0 -65.29,10.17 -86.04,30.52 -20.75,20.34 -31.13,50.05 -31.13,89.11 0,39.06 10.58,68.95 31.74,89.69 21.15,20.75 50.04,31.13 86.66,31.13 34.99,0 64.28,-9.96 87.88,-29.9 23.59,-19.94 35.39,-48.21 35.39,-84.82z"/>
   <g id="LOGO_x0020_RAYX.cdr">
    <path class="fil7" d="M20419.04 1393.95c0,45.41 -65.86,45.41 -65.86,45.41l-64.56 0 0 -90.81c32.51,0.17 64.56,0 64.56,0 0,0 65.86,0.01 65.86,45.41zm-22.38 282.38l267.28 0.42c0,0 -110.96,-131.56 -160.26,-191.49l0 0c178.26,0 186.85,-253.02 9.25,-253.02l-453.96 0 0 444.09 229.65 0 0 -144.49 108.04 144.49z"/>
    <path class="fil7" d="M21347.26 1106.4l-726.35 31.63c70.16,-96.45 178.23,-162.02 296.67,-171.04 0,0 -240.47,-18.53 -390.5,218.5l0 0c58.9,-5 820.17,-79.08 820.17,-79.08z"/>
    <path class="fil7" d="M21020.96 1552.88c-5.26,12.62 -18.87,29.77 -54.12,32.19 -75.66,4.89 -70.15,-105 -26.75,-116.84 32.68,-9.04 64.93,-1.45 80.44,29.91l0.43 54.73zm0.67 -144.16c-63.69,-66.17 -231.82,-57.28 -253.24,33.93 -14.69,54.85 -13.09,139.24 18.52,188.04 23.43,32.89 68.2,45.94 106.84,45.64 45.41,-0.36 89.57,-4.84 127.88,-28.32l0.16 28.32 151.93 0 -0.11 -310.49 -151.98 0 0 42.88z"/>
    <path class="fil7" d="M21719.23 1365.84l-164.51 0 -48.46 154.33 -69.82 -154.33 -167.38 0 153.21 284.23 -110.53 0.88 0.69 86.74c0,0 110.71,7.22 137.93,8.73 46.81,1.35 95.69,-12.16 120.2,-54.99 54.4,-95.04 101.69,-224.84 148.67,-325.59z"/>
    <polygon class="fil7" points="22438.56,1232.25 22193.68,1232.25 22129.87,1350.97 22070.95,1232.25 21814.67,1232.25 21974.22,1455.96 21814.67,1676.33 22070.95,1676.33 22129.87,1558.62 22193.68,1676.33 22438.56,1676.33 22283.18,1455.96 "/>
    <path class="fil7" d="M21841.04 1037.86c344.15,100.15 589.42,109.78 886.45,53.13 50.07,-13.42 162.66,0.51 202.77,53.86l-113.69 242.38 68.29 33.48c0,0 83.57,-184.33 123.58,-283.28 -39.14,-69.63 -146.26,-119.74 -222.16,-137.71l60.23 -126.31 387.35 -47.27 -548.7 0c0,0 -143.59,195.93 -170.52,233.58 -116.83,22.49 -322.26,-6.89 -473.09,-40.45 -310.14,-81.68 -569.36,-157.02 -819.89,-177.32 -369.86,-35.4 -578.08,68.93 -781.58,222.07 -421.5,-17.81 -956.54,98.44 -1213.14,583l0 0c457.84,-595.45 1115.48,-511.37 1247.53,-520.06 308.93,-342.5 973.44,-210.75 1366.57,-89.11z"/>
   </g>
  </g>
 </g>
</svg>
