<?xml version="1.0" encoding="UTF-8"?>
<!DOCTYPE svg PUBLIC "-//W3C//DTD SVG 1.1//EN" "http://www.w3.org/Graphics/SVG/1.1/DTD/svg11.dtd">
<!-- Creator: CorelDRAW 2020 (64 Bit) -->
<svg xmlns="http://www.w3.org/2000/svg" xml:space="preserve" width="42.1643mm" height="29.4153mm" version="1.1" style="shape-rendering:geometricPrecision; text-rendering:geometricPrecision; image-rendering:optimizeQuality; fill-rule:evenodd; clip-rule:evenodd"
viewBox="0 0 1370.43 956.06"
 xmlns:xlink="http://www.w3.org/1999/xlink"
 xmlns:xodm="http://www.corel.com/coreldraw/odm/2003">
 <defs>
  <style type="text/css">
   <![CDATA[
    .fil1 {fill:#00132E}
    .fil2 {fill:#00142E}
    .fil3 {fill:#00142F}
    .fil4 {fill:#001430}
    .fil5 {fill:#001531}
    .fil6 {fill:#001532}
    .fil7 {fill:#001633}
    .fil8 {fill:#001634}
    .fil9 {fill:#001635}
    .fil10 {fill:#001735}
    .fil11 {fill:#001736}
    .fil12 {fill:#001737}
    .fil13 {fill:#001838}
    .fil14 {fill:#001839}
    .fil15 {fill:#00193A}
    .fil16 {fill:#00193B}
    .fil17 {fill:#001A3C}
    .fil18 {fill:#001A3D}
    .fil19 {fill:#001A3E}
    .fil20 {fill:#001B3E}
    .fil21 {fill:#001B3F}
    .fil22 {fill:#001B40}
    .fil23 {fill:#001C41}
    .fil24 {fill:#001C42}
    .fil25 {fill:#001D42}
    .fil26 {fill:#001D43}
    .fil27 {fill:#001D44}
    .fil28 {fill:#001E45}
    .fil29 {fill:#001E46}
    .fil30 {fill:#001E47}
    .fil106 {fill:#001F46}
    .fil105 {fill:#001F47}
    .fil31 {fill:#001F48}
    .fil32 {fill:#001F49}
    .fil104 {fill:#002048}
    .fil103 {fill:#002049}
    .fil33 {fill:#00204A}
    .fil34 {fill:#00204B}
    .fil102 {fill:#00214B}
    .fil35 {fill:#00214C}
    .fil36 {fill:#00214D}
    .fil101 {fill:#00224D}
    .fil37 {fill:#00224E}
    .fil38 {fill:#00224F}
    .fil39 {fill:#002350}
    .fil40 {fill:#002351}
    .fil41 {fill:#002352}
    .fil100 {fill:#002452}
    .fil42 {fill:#002453}
    .fil43 {fill:#002454}
    .fil99 {fill:#002554}
    .fil44 {fill:#002555}
    .fil45 {fill:#002556}
    .fil46 {fill:#002657}
    .fil47 {fill:#002658}
    .fil48 {fill:#002659}
    .fil98 {fill:#002758}
    .fil97 {fill:#002759}
    .fil49 {fill:#00275A}
    .fil50 {fill:#00285B}
    .fil51 {fill:#00285C}
    .fil52 {fill:#00285D}
    .fil96 {fill:#00295D}
    .fil53 {fill:#00295E}
    .fil54 {fill:#00295F}
    .fil55 {fill:#002A60}
    .fil56 {fill:#002A61}
    .fil57 {fill:#002B62}
    .fil58 {fill:#002B63}
    .fil59 {fill:#002B64}
    .fil95 {fill:#002C64}
    .fil60 {fill:#002C65}
    .fil61 {fill:#002C66}
    .fil62 {fill:#002D66}
    .fil63 {fill:#002D67}
    .fil64 {fill:#002D68}
    .fil65 {fill:#002E69}
    .fil66 {fill:#002E6A}
    .fil67 {fill:#002E6B}
    .fil68 {fill:#002F6B}
    .fil69 {fill:#002F6C}
    .fil70 {fill:#002F6D}
    .fil94 {fill:#00306D}
    .fil71 {fill:#00306E}
    .fil72 {fill:#00306F}
    .fil73 {fill:#00316F}
    .fil74 {fill:#003170}
    .fil75 {fill:#003171}
    .fil76 {fill:#003172}
    .fil77 {fill:#003272}
    .fil78 {fill:#003273}
    .fil79 {fill:#003274}
    .fil80 {fill:#003374}
    .fil81 {fill:#003375}
    .fil82 {fill:#003376}
    .fil83 {fill:#003476}
    .fil84 {fill:#003477}
    .fil85 {fill:#003478}
    .fil86 {fill:#003578}
    .fil87 {fill:#003579}
    .fil88 {fill:#00357A}
    .fil89 {fill:#00367B}
    .fil90 {fill:#00367C}
    .fil91 {fill:#00367D}
    .fil92 {fill:#00377D}
    .fil93 {fill:#00377E}
    .fil215 {fill:white}
    .fil214 {fill:#00132D;fill-rule:nonzero}
    .fil213 {fill:#00132E;fill-rule:nonzero}
    .fil212 {fill:#00142E;fill-rule:nonzero}
    .fil211 {fill:#00142F;fill-rule:nonzero}
    .fil210 {fill:#001430;fill-rule:nonzero}
    .fil209 {fill:#001531;fill-rule:nonzero}
    .fil208 {fill:#001532;fill-rule:nonzero}
    .fil207 {fill:#001633;fill-rule:nonzero}
    .fil206 {fill:#001634;fill-rule:nonzero}
    .fil205 {fill:#001635;fill-rule:nonzero}
    .fil204 {fill:#001735;fill-rule:nonzero}
    .fil203 {fill:#001736;fill-rule:nonzero}
    .fil202 {fill:#001737;fill-rule:nonzero}
    .fil201 {fill:#001838;fill-rule:nonzero}
    .fil200 {fill:#001839;fill-rule:nonzero}
    .fil199 {fill:#00193A;fill-rule:nonzero}
    .fil198 {fill:#00193B;fill-rule:nonzero}
    .fil197 {fill:#001A3C;fill-rule:nonzero}
    .fil196 {fill:#001A3D;fill-rule:nonzero}
    .fil195 {fill:#001A3E;fill-rule:nonzero}
    .fil194 {fill:#001B3E;fill-rule:nonzero}
    .fil193 {fill:#001B3F;fill-rule:nonzero}
    .fil192 {fill:#001B40;fill-rule:nonzero}
    .fil191 {fill:#001C41;fill-rule:nonzero}
    .fil190 {fill:#001C42;fill-rule:nonzero}
    .fil189 {fill:#001D42;fill-rule:nonzero}
    .fil188 {fill:#001D43;fill-rule:nonzero}
    .fil187 {fill:#001D44;fill-rule:nonzero}
    .fil108 {fill:#001E45;fill-rule:nonzero}
    .fil109 {fill:#001E46;fill-rule:nonzero}
    .fil186 {fill:#001E47;fill-rule:nonzero}
    .fil110 {fill:#001F46;fill-rule:nonzero}
    .fil111 {fill:#001F47;fill-rule:nonzero}
    .fil112 {fill:#001F48;fill-rule:nonzero}
    .fil185 {fill:#001F49;fill-rule:nonzero}
    .fil113 {fill:#002048;fill-rule:nonzero}
    .fil114 {fill:#002049;fill-rule:nonzero}
    .fil115 {fill:#00204A;fill-rule:nonzero}
    .fil184 {fill:#00204B;fill-rule:nonzero}
    .fil116 {fill:#00214B;fill-rule:nonzero}
    .fil117 {fill:#00214C;fill-rule:nonzero}
    .fil118 {fill:#00214D;fill-rule:nonzero}
    .fil119 {fill:#00224D;fill-rule:nonzero}
    .fil120 {fill:#00224E;fill-rule:nonzero}
    .fil121 {fill:#00224F;fill-rule:nonzero}
    .fil122 {fill:#002350;fill-rule:nonzero}
    .fil123 {fill:#002351;fill-rule:nonzero}
    .fil183 {fill:#002352;fill-rule:nonzero}
    .fil124 {fill:#002452;fill-rule:nonzero}
    .fil125 {fill:#002453;fill-rule:nonzero}
    .fil182 {fill:#002454;fill-rule:nonzero}
    .fil126 {fill:#002554;fill-rule:nonzero}
    .fil127 {fill:#002555;fill-rule:nonzero}
    .fil128 {fill:#002556;fill-rule:nonzero}
    .fil129 {fill:#002657;fill-rule:nonzero}
    .fil130 {fill:#002658;fill-rule:nonzero}
    .fil181 {fill:#002659;fill-rule:nonzero}
    .fil131 {fill:#002758;fill-rule:nonzero}
    .fil132 {fill:#002759;fill-rule:nonzero}
    .fil133 {fill:#00275A;fill-rule:nonzero}
    .fil134 {fill:#00285B;fill-rule:nonzero}
    .fil135 {fill:#00285C;fill-rule:nonzero}
    .fil180 {fill:#00285D;fill-rule:nonzero}
    .fil136 {fill:#00295D;fill-rule:nonzero}
    .fil137 {fill:#00295E;fill-rule:nonzero}
    .fil138 {fill:#00295F;fill-rule:nonzero}
    .fil139 {fill:#002A60;fill-rule:nonzero}
    .fil140 {fill:#002A61;fill-rule:nonzero}
    .fil141 {fill:#002B62;fill-rule:nonzero}
    .fil142 {fill:#002B63;fill-rule:nonzero}
    .fil143 {fill:#002B64;fill-rule:nonzero}
    .fil144 {fill:#002C64;fill-rule:nonzero}
    .fil145 {fill:#002C65;fill-rule:nonzero}
    .fil146 {fill:#002C66;fill-rule:nonzero}
    .fil147 {fill:#002D66;fill-rule:nonzero}
    .fil148 {fill:#002D67;fill-rule:nonzero}
    .fil149 {fill:#002D68;fill-rule:nonzero}
    .fil150 {fill:#002E69;fill-rule:nonzero}
    .fil151 {fill:#002E6A;fill-rule:nonzero}
    .fil179 {fill:#002E6B;fill-rule:nonzero}
    .fil152 {fill:#002F6B;fill-rule:nonzero}
    .fil153 {fill:#002F6C;fill-rule:nonzero}
    .fil154 {fill:#002F6D;fill-rule:nonzero}
    .fil155 {fill:#00306D;fill-rule:nonzero}
    .fil156 {fill:#00306E;fill-rule:nonzero}
    .fil157 {fill:#00306F;fill-rule:nonzero}
    .fil158 {fill:#00316F;fill-rule:nonzero}
    .fil159 {fill:#003170;fill-rule:nonzero}
    .fil160 {fill:#003171;fill-rule:nonzero}
    .fil178 {fill:#003172;fill-rule:nonzero}
    .fil161 {fill:#003272;fill-rule:nonzero}
    .fil162 {fill:#003273;fill-rule:nonzero}
    .fil163 {fill:#003274;fill-rule:nonzero}
    .fil164 {fill:#003374;fill-rule:nonzero}
    .fil165 {fill:#003375;fill-rule:nonzero}
    .fil166 {fill:#003376;fill-rule:nonzero}
    .fil167 {fill:#003476;fill-rule:nonzero}
    .fil168 {fill:#003477;fill-rule:nonzero}
    .fil169 {fill:#003478;fill-rule:nonzero}
    .fil170 {fill:#003578;fill-rule:nonzero}
    .fil171 {fill:#003579;fill-rule:nonzero}
    .fil172 {fill:#00357A;fill-rule:nonzero}
    .fil173 {fill:#00367B;fill-rule:nonzero}
    .fil174 {fill:#00367C;fill-rule:nonzero}
    .fil175 {fill:#00367D;fill-rule:nonzero}
    .fil176 {fill:#00377D;fill-rule:nonzero}
    .fil177 {fill:#00377E;fill-rule:nonzero}
    .fil0 {fill:url(#id2)}
    .fil107 {fill:url(#id3);fill-rule:nonzero}
   ]]>
  </style>
    <clipPath id="id0">
     <path d="M817.03 121.8l231.54 487.49c0,0 58.02,121.86 290.1,121.86l-231.51 0c-232.08,0 -290.1,-121.86 -290.1,-121.86l-173.78 -366.17 57.74 -121.26c0,0 58.02,-121.86 116.04,0z"/>
    </clipPath>
     <clipPath id="id1" style="clip-rule:nonzero">
      <path d="M540.21 779.61l-107.02 0 5.14 -24.52 149.83 0 -18.09 85.82 -149.82 0 11.56 -55.17 107.02 0 1.39 -6.13zm-7.82 36.78l1.29 -6.13 -64.21 0 -1.29 6.13 64.21 0zm66.47 -61.3l42.81 0 -12.95 61.3 64.21 0 12.95 -61.3 42.81 0 -18.09 85.82 -149.83 0 18.09 -85.82zm164.39 -18.37l42.81 0 -3.85 18.37 107.02 0 -5.14 24.52 -107.02 0 -7.82 36.78 107.02 0 -5.13 24.52 -149.83 0 21.94 -104.2zm156.68 18.37l149.82 0 -18.09 85.82 -149.82 0 18.09 -85.82zm37.67 24.52l-7.82 36.78 64.21 0 7.82 -36.78 -64.21 0z"/>
     </clipPath>
  <linearGradient id="id2" gradientUnits="userSpaceOnUse" x1="236.85" y1="853" x2="701.02" y2="0">
   <stop offset="0" style="stop-opacity:1; stop-color:#420000"/>
   <stop offset="0.470588" style="stop-opacity:1; stop-color:red"/>
   <stop offset="1" style="stop-opacity:1; stop-color:#FF4600"/>
  </linearGradient>
  <linearGradient id="id3" gradientUnits="userSpaceOnUse" xlink:href="#id2" x1="554.9" y1="908.99" x2="1371.43" y2="880.54">
  </linearGradient>
 </defs>
 <g id="Camada_x0020_1">
  <metadata id="CorelCorpID_0Corel-Layer"/>
  <path class="fil0" d="M566.12 615.99l-100.38 0 -54.83 115.15c0,0 -58.02,121.86 -174.06,121.86 -116.05,0 -58.02,-121.86 -58.02,-121.86l0 0 54.83 -115.15 -92.98 0c0,0 -36.41,0 -18.21,-38.24 18.2,-38.24 72.83,-152.95 72.83,-152.95 0,0 18.21,-38.24 54.62,-38.24l92.98 0 155.05 -325.64c29.01,-60.93 87.03,-60.93 87.03,-60.93 0,0 58.02,0 116.04,0 66.18,0 88.46,63.94 116.05,121.86 -58.02,-121.86 -116.05,0 -116.05,0l-126.04 264.7 100.38 0c0,0 36.41,0.01 18.21,38.24 -18.2,38.23 -72.83,152.95 -72.83,152.95 0,0 -18.2,38.24 -54.62,38.24zm-319.63 -272.39l-87.95 0c0,0 -21.99,0 -11,-23.09 11,-23.09 43.98,-92.36 43.98,-92.36 0,0 11,-23.09 32.98,-23.09 21.99,0 87.95,0 87.95,0 0,0 21.99,0 11,23.09 -11,23.09 -43.98,92.36 -43.98,92.36 0,0 -11,23.09 -32.99,23.09zm-148.07 -22.67l-59.17 0c0,0 -14.79,0 -7.39,-15.53 7.39,-15.54 29.58,-62.13 29.58,-62.13 0,0 7.4,-15.54 22.19,-15.54 14.79,0 59.17,0 59.17,0 0,0 14.79,0 7.4,15.54 -7.4,15.53 -29.59,62.13 -29.59,62.13 0,0 -7.39,15.53 -22.19,15.53zm3.6 174.38l-87.95 0c0,0 -21.99,0 -11,-23.09 11,-23.09 43.98,-92.36 43.98,-92.36 0,0 11,-23.09 32.98,-23.09 21.99,0 87.96,0 87.96,0 0,0 21.98,0 10.99,23.09 -10.99,23.09 -43.98,92.36 -43.98,92.36 0,0 -11,23.09 -32.99,23.09z"/>
  <g>
   <g style="clip-path:url(#id0)">
    <polygon class="fil1" points="962.08,-92.8 963.08,-90.61 572.37,87.97 571.37,85.78 "/>
    <polygon id="1" class="fil1" points="962.43,-92.03 964.38,-87.78 573.66,90.81 571.72,86.55 "/>
    <polygon id="2" class="fil2" points="963.73,-89.19 965.67,-84.93 574.96,93.64 573.01,89.39 "/>
    <polygon id="3" class="fil2" points="965.03,-86.35 966.97,-82.1 576.26,96.48 574.31,92.22 "/>
    <polygon id="4" class="fil3" points="966.32,-83.52 968.27,-79.26 577.56,99.32 575.61,95.07 "/>
    <polygon id="5" class="fil3" points="967.62,-80.68 969.57,-76.42 578.85,102.16 576.91,97.9 "/>
    <polygon id="6" class="fil3" points="968.92,-77.84 970.86,-73.58 580.15,105 578.21,100.74 "/>
    <polygon id="7" class="fil4" points="970.21,-75 972.16,-70.74 581.45,107.84 579.5,103.58 "/>
    <polygon id="8" class="fil4" points="971.51,-72.16 973.46,-67.91 582.75,110.67 580.8,106.42 "/>
    <polygon id="9" class="fil5" points="972.81,-69.32 974.75,-65.07 584.04,113.51 582.1,109.26 "/>
    <polygon id="10" class="fil5" points="974.11,-66.49 976.05,-62.23 585.34,116.35 583.39,112.09 "/>
    <polygon id="11" class="fil5" points="975.4,-63.65 977.35,-59.39 586.64,119.19 584.69,114.93 "/>
    <polygon id="12" class="fil6" points="976.7,-60.81 978.65,-56.55 587.93,122.03 585.99,117.77 "/>
    <polygon id="13" class="fil6" points="978,-57.97 979.94,-53.72 589.23,124.87 587.29,120.61 "/>
    <polygon id="14" class="fil7" points="979.29,-55.13 981.24,-50.88 590.53,127.7 588.58,123.45 "/>
    <polygon id="15" class="fil7" points="980.59,-52.3 982.54,-48.04 591.83,130.54 589.88,126.28 "/>
    <polygon id="16" class="fil8" points="981.89,-49.46 983.83,-45.2 593.12,133.38 591.18,129.12 "/>
    <polygon id="17" class="fil9" points="983.19,-46.62 985.13,-42.36 594.42,136.22 592.47,131.96 "/>
    <polygon id="18" class="fil10" points="984.48,-43.78 986.43,-39.52 595.72,139.06 593.77,134.8 "/>
    <polygon id="19" class="fil11" points="985.78,-40.94 987.73,-36.69 597.01,141.89 595.07,137.64 "/>
    <polygon id="20" class="fil11" points="987.08,-38.11 989.03,-33.85 598.31,144.73 596.37,140.48 "/>
    <polygon id="21" class="fil12" points="988.38,-35.26 990.32,-31.01 599.61,147.57 597.66,143.31 "/>
    <polygon id="22" class="fil13" points="989.67,-32.43 991.62,-28.17 600.91,150.41 598.96,146.15 "/>
    <polygon id="23" class="fil13" points="990.97,-29.59 992.92,-25.33 602.21,153.25 600.26,148.99 "/>
    <polygon id="24" class="fil14" points="992.27,-26.75 994.21,-22.49 603.5,156.08 601.56,151.83 "/>
    <polygon id="25" class="fil15" points="993.57,-23.91 995.51,-19.66 604.8,158.93 602.85,154.67 "/>
    <polygon id="26" class="fil15" points="994.86,-21.07 996.81,-16.82 606.1,161.76 604.15,157.51 "/>
    <polygon id="27" class="fil16" points="996.16,-18.24 998.11,-13.98 607.39,164.6 605.45,160.34 "/>
    <polygon id="28" class="fil17" points="997.46,-15.4 999.4,-11.14 608.69,167.44 606.75,163.18 "/>
    <polygon id="29" class="fil18" points="998.75,-12.56 1000.7,-8.3 609.99,170.28 608.04,166.02 "/>
    <polygon id="30" class="fil19" points="1000.05,-9.72 1002,-5.46 611.29,173.12 609.34,168.86 "/>
    <polygon id="31" class="fil20" points="1001.35,-6.88 1003.29,-2.63 612.58,175.95 610.64,171.7 "/>
    <polygon id="32" class="fil21" points="1002.65,-4.05 1004.59,0.21 613.88,178.79 611.93,174.54 "/>
    <polygon id="33" class="fil22" points="1003.94,-1.21 1005.89,3.05 615.18,181.63 613.23,177.37 "/>
    <polygon id="34" class="fil23" points="1005.24,1.63 1007.19,5.89 616.47,184.47 614.53,180.21 "/>
    <polygon id="35" class="fil24" points="1006.54,4.47 1008.48,8.73 617.77,187.31 615.83,183.05 "/>
    <polygon id="36" class="fil25" points="1007.83,7.31 1009.78,11.56 619.07,190.14 617.12,185.89 "/>
    <polygon id="37" class="fil26" points="1009.13,10.14 1011.08,14.4 620.37,192.98 618.42,188.73 "/>
    <polygon id="38" class="fil27" points="1010.43,12.98 1012.37,17.24 621.66,195.82 619.72,191.56 "/>
    <polygon id="39" class="fil28" points="1011.72,15.82 1013.67,20.08 622.96,198.66 621.01,194.4 "/>
    <polygon id="40" class="fil29" points="1013.02,18.66 1014.97,22.92 624.26,201.5 622.31,197.24 "/>
    <polygon id="41" class="fil30" points="1014.32,21.5 1016.27,25.75 625.55,204.34 623.61,200.08 "/>
    <polygon id="42" class="fil31" points="1015.62,24.34 1017.57,28.6 626.85,207.17 624.91,202.92 "/>
    <polygon id="43" class="fil32" points="1016.92,27.17 1018.86,31.43 628.15,210.01 626.2,205.75 "/>
    <polygon id="44" class="fil33" points="1018.21,30.01 1020.16,34.27 629.45,212.85 627.5,208.6 "/>
    <polygon id="45" class="fil33" points="1019.51,32.85 1021.46,37.11 630.75,215.69 628.8,211.43 "/>
    <polygon id="46" class="fil34" points="1020.81,35.69 1022.75,39.95 632.04,218.53 630.1,214.27 "/>
    <polygon id="47" class="fil35" points="1022.11,38.53 1024.05,42.79 633.34,221.37 631.39,217.11 "/>
    <polygon id="48" class="fil36" points="1023.4,41.37 1025.35,45.62 634.64,224.2 632.69,219.95 "/>
    <polygon id="49" class="fil37" points="1024.7,44.2 1026.65,48.46 635.93,227.04 633.99,222.79 "/>
    <polygon id="50" class="fil38" points="1026,47.04 1027.94,51.3 637.23,229.88 635.29,225.62 "/>
    <polygon id="51" class="fil39" points="1027.29,49.88 1029.24,54.14 638.53,232.72 636.58,228.46 "/>
    <polygon id="52" class="fil40" points="1028.59,52.72 1030.54,56.98 639.83,235.56 637.88,231.3 "/>
    <polygon id="53" class="fil41" points="1029.89,55.56 1031.83,59.81 641.12,238.4 639.18,234.14 "/>
    <polygon id="54" class="fil42" points="1031.18,58.4 1033.13,62.65 642.42,241.23 640.47,236.98 "/>
    <polygon id="55" class="fil43" points="1032.48,61.23 1034.43,65.49 643.72,244.07 641.77,239.81 "/>
    <polygon id="56" class="fil44" points="1033.78,64.07 1035.72,68.33 645.01,246.91 643.07,242.65 "/>
    <polygon id="57" class="fil45" points="1035.08,66.91 1037.02,71.17 646.31,249.75 644.37,245.49 "/>
    <polygon id="58" class="fil46" points="1036.37,69.75 1038.32,74.01 647.61,252.59 645.66,248.33 "/>
    <polygon id="59" class="fil47" points="1037.67,72.59 1039.62,76.84 648.91,255.42 646.96,251.17 "/>
    <polygon id="60" class="fil48" points="1038.97,75.42 1040.91,79.68 650.2,258.26 648.26,254.01 "/>
    <polygon id="61" class="fil49" points="1040.26,78.26 1042.21,82.52 651.5,261.1 649.55,256.84 "/>
    <polygon id="62" class="fil49" points="1041.56,81.1 1043.51,85.36 652.8,263.94 650.85,259.68 "/>
    <polygon id="63" class="fil50" points="1042.86,83.94 1044.81,88.2 654.09,266.78 652.15,262.52 "/>
    <polygon id="64" class="fil51" points="1044.16,86.78 1046.1,91.04 655.39,269.61 653.44,265.36 "/>
    <polygon id="65" class="fil52" points="1045.46,89.61 1047.4,93.87 656.69,272.46 654.74,268.2 "/>
    <polygon id="66" class="fil53" points="1046.75,92.46 1048.7,96.71 657.99,275.29 656.04,271.03 "/>
    <polygon id="67" class="fil54" points="1048.05,95.29 1050,99.55 659.29,278.13 657.34,273.87 "/>
    <polygon id="68" class="fil55" points="1049.35,98.13 1051.29,102.39 660.58,280.97 658.64,276.71 "/>
    <polygon id="69" class="fil56" points="1050.64,100.97 1052.59,105.23 661.88,283.81 659.93,279.55 "/>
    <polygon id="70" class="fil57" points="1051.94,103.81 1053.89,108.07 663.18,286.65 661.23,282.39 "/>
    <polygon id="71" class="fil58" points="1053.24,106.65 1055.18,110.9 664.47,289.48 662.53,285.23 "/>
    <polygon id="72" class="fil59" points="1054.54,109.48 1056.48,113.74 665.77,292.32 663.83,288.07 "/>
    <polygon id="73" class="fil60" points="1055.83,112.32 1057.78,116.58 667.07,295.16 665.12,290.9 "/>
    <polygon id="74" class="fil61" points="1057.13,115.16 1059.08,119.42 668.36,298 666.42,293.74 "/>
    <polygon id="75" class="fil62" points="1058.43,118 1060.37,122.26 669.66,300.84 667.72,296.58 "/>
    <polygon id="76" class="fil63" points="1059.72,120.84 1061.67,125.09 670.96,303.67 669.01,299.42 "/>
    <polygon id="77" class="fil64" points="1061.02,123.67 1062.97,127.93 672.26,306.51 670.31,302.26 "/>
    <polygon id="78" class="fil65" points="1062.32,126.51 1064.26,130.77 673.55,309.35 671.61,305.09 "/>
    <polygon id="79" class="fil66" points="1063.62,129.35 1065.56,133.61 674.85,312.19 672.9,307.93 "/>
    <polygon id="80" class="fil67" points="1064.91,132.19 1066.86,136.45 676.15,315.03 674.2,310.77 "/>
    <polygon id="81" class="fil68" points="1066.21,135.03 1068.16,139.28 677.44,317.87 675.5,313.61 "/>
    <polygon id="82" class="fil69" points="1067.51,137.87 1069.45,142.13 678.74,320.7 676.8,316.45 "/>
    <polygon id="83" class="fil70" points="1068.8,140.7 1070.75,144.96 680.04,323.54 678.09,319.28 "/>
    <polygon id="84" class="fil71" points="1070.1,143.54 1072.05,147.8 681.34,326.38 679.39,322.12 "/>
    <polygon id="85" class="fil72" points="1071.4,146.38 1073.35,150.64 682.63,329.22 680.69,324.96 "/>
    <polygon id="86" class="fil73" points="1072.7,149.22 1074.64,153.48 683.93,332.06 681.98,327.8 "/>
    <polygon id="87" class="fil74" points="1074,152.06 1075.94,156.32 685.23,334.89 683.28,330.64 "/>
    <polygon id="88" class="fil75" points="1075.29,154.9 1077.24,159.15 686.53,337.73 684.58,333.48 "/>
    <polygon id="89" class="fil76" points="1076.59,157.73 1078.54,161.99 687.82,340.57 685.88,336.32 "/>
    <polygon id="90" class="fil77" points="1077.89,160.57 1079.83,164.83 689.12,343.41 687.18,339.15 "/>
    <polygon id="91" class="fil78" points="1079.18,163.41 1081.13,167.67 690.42,346.25 688.47,341.99 "/>
    <polygon id="92" class="fil79" points="1080.48,166.25 1082.43,170.51 691.72,349.09 689.77,344.83 "/>
    <polygon id="93" class="fil80" points="1081.78,169.09 1083.72,173.34 693.01,351.93 691.07,347.67 "/>
    <polygon id="94" class="fil81" points="1083.08,171.93 1085.02,176.18 694.31,354.76 692.36,350.51 "/>
    <polygon id="95" class="fil82" points="1084.37,174.76 1086.32,179.02 695.61,357.6 693.66,353.34 "/>
    <polygon id="96" class="fil83" points="1085.67,177.6 1087.62,181.86 696.9,360.44 694.96,356.18 "/>
    <polygon id="97" class="fil84" points="1086.97,180.44 1088.91,184.7 698.2,363.28 696.26,359.02 "/>
    <polygon id="98" class="fil84" points="1088.26,183.28 1090.21,187.54 699.5,366.12 697.55,361.86 "/>
    <polygon id="99" class="fil85" points="1089.56,186.12 1091.51,190.37 700.8,368.95 698.85,364.7 "/>
    <polygon id="100" class="fil86" points="1090.86,188.95 1092.8,193.21 702.09,371.79 700.15,367.53 "/>
    <polygon id="101" class="fil87" points="1092.16,191.79 1094.1,196.05 703.39,374.63 701.44,370.37 "/>
    <polygon id="102" class="fil87" points="1093.45,194.63 1095.4,198.89 704.69,377.47 702.74,373.21 "/>
    <polygon id="103" class="fil88" points="1094.75,197.47 1096.7,201.73 705.98,380.31 704.04,376.05 "/>
    <polygon id="104" class="fil88" points="1096.05,200.31 1098,204.56 707.28,383.14 705.34,378.89 "/>
    <polygon id="105" class="fil89" points="1097.35,203.14 1099.29,207.4 708.58,385.98 706.63,381.73 "/>
    <polygon id="106" class="fil89" points="1098.64,205.99 1100.59,210.24 709.88,388.82 707.93,384.56 "/>
    <polygon id="107" class="fil89" points="1099.94,208.82 1101.89,213.08 711.17,391.66 709.23,387.4 "/>
    <polygon id="108" class="fil90" points="1101.24,211.66 1103.18,215.92 712.47,394.5 710.52,390.24 "/>
    <polygon id="109" class="fil90" points="1102.54,214.5 1104.48,218.76 713.77,397.34 711.82,393.08 "/>
    <polygon id="110" class="fil90" points="1103.83,217.34 1105.78,221.6 715.07,400.18 713.12,395.92 "/>
    <polygon id="111" class="fil91" points="1105.13,220.18 1107.08,224.43 716.36,403.01 714.42,398.76 "/>
    <polygon id="112" class="fil92" points="1106.43,223.01 1108.37,227.27 717.66,405.85 715.72,401.59 "/>
    <polygon id="113" class="fil92" points="1107.72,225.85 1109.67,230.11 718.96,408.69 717.01,404.43 "/>
    <polygon id="114" class="fil92" points="1109.02,228.69 1110.97,232.95 720.26,411.53 718.31,407.27 "/>
    <polygon id="115" class="fil93" points="1110.32,231.53 1112.26,235.79 721.55,414.37 719.61,410.11 "/>
    <polygon id="116" class="fil93" points="1111.62,234.37 1113.56,238.62 722.85,417.2 720.9,412.95 "/>
    <polygon id="117" class="fil93" points="1112.91,237.2 1114.86,241.46 724.15,420.04 722.2,415.79 "/>
    <polygon id="118" class="fil93" points="1114.21,240.04 1116.16,244.3 725.44,422.88 723.5,418.62 "/>
    <polygon id="119" class="fil93" points="1115.51,242.88 1117.45,247.14 726.74,425.72 724.8,421.46 "/>
    <polygon id="120" class="fil93" points="1116.8,245.72 1118.75,249.98 728.04,428.56 726.09,424.3 "/>
    <polygon id="121" class="fil93" points="1118.1,248.56 1120.05,252.81 729.34,431.4 727.39,427.14 "/>
    <polygon id="122" class="fil93" points="1119.4,251.4 1121.34,255.65 730.63,434.23 728.69,429.98 "/>
    <polygon id="123" class="fil93" points="1120.7,254.23 1122.64,258.49 731.93,437.07 729.98,432.81 "/>
    <polygon id="124" class="fil93" points="1121.99,257.07 1123.94,261.33 733.23,439.91 731.28,435.65 "/>
    <polygon id="125" class="fil93" points="1123.29,259.91 1125.24,264.17 734.52,442.75 732.58,438.49 "/>
    <polygon id="126" class="fil93" points="1124.59,262.75 1126.54,267.01 735.82,445.59 733.88,441.33 "/>
    <polygon id="127" class="fil93" points="1125.89,265.59 1127.83,269.85 737.12,448.42 735.17,444.17 "/>
    <polygon id="128" class="fil92" points="1127.18,268.42 1129.13,272.68 738.42,451.26 736.47,447 "/>
    <polygon id="129" class="fil92" points="1128.48,271.26 1130.43,275.52 739.71,454.1 737.77,449.85 "/>
    <polygon id="130" class="fil92" points="1129.78,274.1 1131.72,278.36 741.01,456.94 739.06,452.68 "/>
    <polygon id="131" class="fil92" points="1131.08,276.94 1133.02,281.2 742.31,459.78 740.36,455.52 "/>
    <polygon id="132" class="fil91" points="1132.37,279.78 1134.32,284.04 743.61,462.62 741.66,458.36 "/>
    <polygon id="133" class="fil90" points="1133.67,282.62 1135.62,286.87 744.9,465.46 742.96,461.2 "/>
    <polygon id="134" class="fil90" points="1134.97,285.46 1136.91,289.71 746.2,468.29 744.26,464.04 "/>
    <polygon id="135" class="fil90" points="1136.26,288.29 1138.21,292.55 747.5,471.13 745.55,466.87 "/>
    <polygon id="136" class="fil90" points="1137.56,291.13 1139.51,295.39 748.8,473.97 746.85,469.71 "/>
    <polygon id="137" class="fil89" points="1138.86,293.97 1140.8,298.23 750.09,476.81 748.15,472.55 "/>
    <polygon id="138" class="fil89" points="1140.15,296.81 1142.1,301.07 751.39,479.65 749.44,475.39 "/>
    <polygon id="139" class="fil89" points="1141.45,299.65 1143.4,303.9 752.69,482.48 750.74,478.23 "/>
    <polygon id="140" class="fil88" points="1142.75,302.48 1144.69,306.74 753.98,485.32 752.04,481.06 "/>
    <polygon id="141" class="fil88" points="1144.05,305.32 1145.99,309.58 755.28,488.16 753.34,483.9 "/>
    <polygon id="142" class="fil88" points="1145.34,308.16 1147.29,312.42 756.58,491 754.63,486.74 "/>
    <polygon id="143" class="fil87" points="1146.64,311 1148.59,315.26 757.88,493.84 755.93,489.58 "/>
    <polygon id="144" class="fil87" points="1147.94,313.84 1149.88,318.09 759.17,496.67 757.23,492.42 "/>
    <polygon id="145" class="fil86" points="1149.23,316.67 1151.18,320.93 760.47,499.51 758.52,495.26 "/>
    <polygon id="146" class="fil85" points="1150.53,319.51 1152.48,323.77 761.77,502.35 759.82,498.09 "/>
    <polygon id="147" class="fil85" points="1151.83,322.35 1153.78,326.61 763.06,505.19 761.12,500.93 "/>
    <polygon id="148" class="fil84" points="1153.13,325.19 1155.07,329.45 764.36,508.03 762.41,503.77 "/>
    <polygon id="149" class="fil84" points="1154.43,328.03 1156.37,332.29 765.66,510.87 763.71,506.61 "/>
    <polygon id="150" class="fil83" points="1155.72,330.87 1157.67,335.12 766.95,513.71 765.01,509.45 "/>
    <polygon id="151" class="fil82" points="1157.02,333.71 1158.97,337.96 768.25,516.54 766.31,512.28 "/>
    <polygon id="152" class="fil81" points="1158.32,336.54 1160.26,340.8 769.55,519.38 767.6,515.12 "/>
    <polygon id="153" class="fil81" points="1159.61,339.38 1161.56,343.64 770.85,522.22 768.9,517.96 "/>
    <polygon id="154" class="fil80" points="1160.91,342.22 1162.86,346.48 772.15,525.06 770.2,520.8 "/>
    <polygon id="155" class="fil79" points="1162.21,345.06 1164.15,349.32 773.44,527.9 771.5,523.64 "/>
    <polygon id="156" class="fil78" points="1163.51,347.9 1165.45,352.15 774.74,530.73 772.8,526.48 "/>
    <polygon id="157" class="fil78" points="1164.8,350.73 1166.75,354.99 776.04,533.57 774.09,529.32 "/>
    <polygon id="158" class="fil77" points="1166.1,353.57 1168.05,357.83 777.33,536.41 775.39,532.15 "/>
    <polygon id="159" class="fil77" points="1167.4,356.41 1169.34,360.67 778.63,539.25 776.69,534.99 "/>
    <polygon id="160" class="fil75" points="1168.69,359.25 1170.64,363.51 779.93,542.09 777.98,537.83 "/>
    <polygon id="161" class="fil74" points="1169.99,362.09 1171.94,366.34 781.23,544.93 779.28,540.67 "/>
    <polygon id="162" class="fil74" points="1171.29,364.93 1173.23,369.18 782.52,547.76 780.58,543.51 "/>
    <polygon id="163" class="fil73" points="1172.59,367.76 1174.53,372.02 783.82,550.6 781.87,546.34 "/>
    <polygon id="164" class="fil72" points="1173.88,370.6 1175.83,374.86 785.12,553.44 783.17,549.18 "/>
    <polygon id="165" class="fil71" points="1175.18,373.44 1177.13,377.7 786.41,556.28 784.47,552.02 "/>
    <polygon id="166" class="fil94" points="1176.48,376.28 1178.42,380.53 787.71,559.12 785.77,554.86 "/>
    <polygon id="167" class="fil70" points="1177.77,379.12 1179.72,383.38 789.01,561.95 787.06,557.7 "/>
    <polygon id="168" class="fil69" points="1179.07,381.95 1181.02,386.21 790.31,564.79 788.36,560.53 "/>
    <polygon id="169" class="fil69" points="1180.37,384.79 1182.32,389.05 791.6,567.63 789.66,563.37 "/>
    <polygon id="170" class="fil68" points="1181.67,387.63 1183.61,391.89 792.9,570.47 790.95,566.21 "/>
    <polygon id="171" class="fil66" points="1182.97,390.47 1184.91,394.73 794.2,573.31 792.25,569.05 "/>
    <polygon id="172" class="fil66" points="1184.26,393.31 1186.21,397.57 795.49,576.14 793.55,571.89 "/>
    <polygon id="173" class="fil65" points="1185.56,396.15 1187.51,400.4 796.79,578.99 794.85,574.73 "/>
    <polygon id="174" class="fil64" points="1186.86,398.99 1188.8,403.24 798.09,581.82 796.14,577.57 "/>
    <polygon id="175" class="fil64" points="1188.15,401.82 1190.1,406.08 799.39,584.66 797.44,580.4 "/>
    <polygon id="176" class="fil63" points="1189.45,404.66 1191.4,408.92 800.69,587.5 798.74,583.24 "/>
    <polygon id="177" class="fil62" points="1190.75,407.5 1192.69,411.76 801.98,590.34 800.04,586.08 "/>
    <polygon id="178" class="fil61" points="1192.05,410.34 1193.99,414.59 803.28,593.18 801.33,588.92 "/>
    <polygon id="179" class="fil60" points="1193.34,413.18 1195.29,417.43 804.58,596.01 802.63,591.76 "/>
    <polygon id="180" class="fil95" points="1194.64,416.01 1196.59,420.27 805.87,598.85 803.93,594.59 "/>
    <polygon id="181" class="fil59" points="1195.94,418.85 1197.88,423.11 807.17,601.69 805.23,597.43 "/>
    <polygon id="182" class="fil58" points="1197.23,421.69 1199.18,425.95 808.47,604.53 806.52,600.27 "/>
    <polygon id="183" class="fil57" points="1198.53,424.53 1200.48,428.79 809.77,607.37 807.82,603.11 "/>
    <polygon id="184" class="fil57" points="1199.83,427.37 1201.77,431.62 811.06,610.2 809.12,605.95 "/>
    <polygon id="185" class="fil56" points="1201.13,430.2 1203.07,434.46 812.36,613.04 810.41,608.79 "/>
    <polygon id="186" class="fil55" points="1202.42,433.04 1204.37,437.3 813.66,615.88 811.71,611.62 "/>
    <polygon id="187" class="fil55" points="1203.72,435.88 1205.67,440.14 814.95,618.72 813.01,614.46 "/>
    <polygon id="188" class="fil54" points="1205.02,438.72 1206.96,442.98 816.25,621.56 814.31,617.3 "/>
    <polygon id="189" class="fil53" points="1206.31,441.56 1208.26,445.81 817.55,624.4 815.6,620.14 "/>
    <polygon id="190" class="fil53" points="1207.61,444.4 1209.56,448.65 818.85,627.23 816.9,622.98 "/>
    <polygon id="191" class="fil96" points="1208.91,447.24 1210.86,451.49 820.14,630.07 818.2,625.81 "/>
    <polygon id="192" class="fil51" points="1210.21,450.07 1212.15,454.33 821.44,632.91 819.49,628.65 "/>
    <polygon id="193" class="fil51" points="1211.51,452.91 1213.45,457.17 822.74,635.75 820.79,631.49 "/>
    <polygon id="194" class="fil50" points="1212.8,455.75 1214.75,460.01 824.04,638.59 822.09,634.33 "/>
    <polygon id="195" class="fil49" points="1214.1,458.59 1216.05,462.85 825.33,641.43 823.39,637.17 "/>
    <polygon id="196" class="fil49" points="1215.4,461.43 1217.34,465.68 826.63,644.26 824.69,640 "/>
    <polygon id="197" class="fil97" points="1216.69,464.26 1218.64,468.52 827.93,647.1 825.98,642.85 "/>
    <polygon id="198" class="fil98" points="1217.99,467.1 1219.94,471.36 829.23,649.94 827.28,645.68 "/>
    <polygon id="199" class="fil47" points="1219.29,469.94 1221.23,474.2 830.52,652.78 828.58,648.52 "/>
    <polygon id="200" class="fil46" points="1220.59,472.78 1222.53,477.04 831.82,655.62 829.87,651.36 "/>
    <polygon id="201" class="fil46" points="1221.88,475.62 1223.83,479.87 833.12,658.46 831.17,654.2 "/>
    <polygon id="202" class="fil45" points="1223.18,478.46 1225.13,482.71 834.41,661.29 832.47,657.04 "/>
    <polygon id="203" class="fil44" points="1224.48,481.29 1226.42,485.55 835.71,664.13 833.77,659.87 "/>
    <polygon id="204" class="fil44" points="1225.77,484.13 1227.72,488.39 837.01,666.97 835.06,662.71 "/>
    <polygon id="205" class="fil99" points="1227.07,486.97 1229.02,491.23 838.31,669.81 836.36,665.55 "/>
    <polygon id="206" class="fil42" points="1228.37,489.81 1230.31,494.06 839.6,672.65 837.66,668.39 "/>
    <polygon id="207" class="fil42" points="1229.67,492.65 1231.61,496.9 840.9,675.48 838.95,671.23 "/>
    <polygon id="208" class="fil100" points="1230.96,495.48 1232.91,499.74 842.2,678.32 840.25,674.06 "/>
    <polygon id="209" class="fil100" points="1232.26,498.32 1234.2,502.58 843.49,681.16 841.55,676.9 "/>
    <polygon id="210" class="fil40" points="1233.56,501.16 1235.5,505.42 844.79,684 842.85,679.74 "/>
    <polygon id="211" class="fil40" points="1234.85,504 1236.8,508.26 846.09,686.84 844.14,682.58 "/>
    <polygon id="212" class="fil39" points="1236.15,506.84 1238.1,511.1 847.39,689.67 845.44,685.42 "/>
    <polygon id="213" class="fil39" points="1237.45,509.67 1239.4,513.93 848.68,692.52 846.74,688.26 "/>
    <polygon id="214" class="fil38" points="1238.75,512.52 1240.69,516.77 849.98,695.35 848.03,691.1 "/>
    <polygon id="215" class="fil37" points="1240.05,515.35 1241.99,519.61 851.28,698.19 849.33,693.93 "/>
    <polygon id="216" class="fil37" points="1241.34,518.19 1243.29,522.45 852.58,701.03 850.63,696.77 "/>
    <polygon id="217" class="fil101" points="1242.64,521.03 1244.59,525.29 853.87,703.87 851.93,699.61 "/>
    <polygon id="218" class="fil101" points="1243.94,523.87 1245.88,528.12 855.17,706.71 853.23,702.45 "/>
    <polygon id="219" class="fil36" points="1245.23,526.71 1247.18,530.96 856.47,709.54 854.52,705.29 "/>
    <polygon id="220" class="fil35" points="1246.53,529.54 1248.48,533.8 857.77,712.38 855.82,708.12 "/>
    <polygon id="221" class="fil35" points="1247.83,532.38 1249.77,536.64 859.06,715.22 857.12,710.96 "/>
    <polygon id="222" class="fil102" points="1249.12,535.22 1251.07,539.48 860.36,718.06 858.41,713.8 "/>
    <polygon id="223" class="fil102" points="1250.42,538.06 1252.37,542.32 861.66,720.9 859.71,716.64 "/>
    <polygon id="224" class="fil33" points="1251.72,540.9 1253.66,545.15 862.95,723.73 861.01,719.48 "/>
    <polygon id="225" class="fil33" points="1253.02,543.73 1254.96,547.99 864.25,726.57 862.31,722.32 "/>
    <polygon id="226" class="fil33" points="1254.31,546.57 1256.26,550.83 865.55,729.41 863.6,725.15 "/>
    <polygon id="227" class="fil103" points="1255.61,549.41 1257.56,553.67 866.85,732.25 864.9,727.99 "/>
    <polygon id="228" class="fil103" points="1256.91,552.25 1258.85,556.51 868.14,735.09 866.2,730.83 "/>
    <polygon id="229" class="fil104" points="1258.2,555.09 1260.15,559.34 869.44,737.92 867.49,733.67 "/>
    <polygon id="230" class="fil31" points="1259.5,557.93 1261.45,562.18 870.74,740.76 868.79,736.51 "/>
    <polygon id="231" class="fil31" points="1260.8,560.76 1262.74,565.02 872.03,743.6 870.09,739.34 "/>
    <polygon id="232" class="fil105" points="1262.1,563.6 1264.04,567.86 873.33,746.44 871.39,742.18 "/>
    <polygon id="233" class="fil105" points="1263.39,566.44 1265.34,570.7 874.63,749.28 872.68,745.02 "/>
    <polygon id="234" class="fil105" points="1264.69,569.28 1266.64,573.53 875.92,752.12 873.98,747.86 "/>
    <polygon id="235" class="fil105" points="1265.99,572.12 1267.94,576.38 877.22,754.96 875.28,750.7 "/>
    <polygon id="236" class="fil106" points="1267.29,574.96 1269.23,579.21 878.52,757.79 876.57,753.53 "/>
    <polygon id="237" class="fil106" points="1268.58,577.79 1270.53,582.05 879.82,760.63 877.87,756.38 "/>
    <polygon id="238" class="fil29" points="1269.88,580.63 1271.83,584.89 881.12,763.47 879.17,759.21 "/>
    <polygon id="239" class="fil29" points="1271.18,583.47 1273.12,587.73 882.41,766.31 880.47,762.05 "/>
    <polygon id="240" class="fil29" points="1272.48,586.31 1274.42,590.57 883.71,769.15 881.77,764.89 "/>
    <polygon id="241" class="fil28" points="1273.77,589.15 1275.72,593.4 885.01,771.98 883.06,767.73 "/>
    <polygon id="242" class="fil28" points="1275.07,591.99 1277.02,596.24 886.31,774.82 884.36,770.57 "/>
    <polygon id="243" class="fil28" points="1276.37,594.82 1278.31,599.08 887.6,777.66 885.66,773.4 "/>
    <polygon id="244" class="fil28" points="1277.66,597.66 1279.61,601.92 888.9,780.5 886.95,776.24 "/>
    <polygon id="245" class="fil28" points="1278.96,600.5 1280.91,604.76 890.2,783.34 888.25,779.08 "/>
    <polygon id="246" class="fil28" points="1280.26,603.34 1282.2,607.59 891.49,786.18 889.55,781.92 "/>
    <polygon id="247" class="fil28" points="1281.56,606.18 1283.5,610.43 892.79,789.01 890.84,784.76 "/>
    <polygon id="248" class="fil28" points="1282.85,609.01 1338.68,731.15 947.97,909.73 892.14,787.59 "/>
   </g>
  </g>
  <g>
   <path class="fil107" d="M672.54 913.15l7.82 -36.78 -64.21 0 -7.82 36.78 64.21 0zm37.67 24.52l-107.02 0 -3.85 18.39 -42.81 0 21.94 -104.21 149.83 0 -18.09 85.82zm130.68 -61.31l-107.02 0 5.13 -24.52 149.83 0 -18.09 85.82 -149.83 0 11.56 -55.18 107.02 0 1.39 -6.13zm-7.81 36.78l1.28 -6.13 -64.21 0 -1.28 6.13 64.21 0zm104.14 -36.78l-12.96 61.31 -42.81 0 18.09 -85.82 149.82 0 -7.82 36.78 -42.81 0 2.68 -12.26 -64.21 0zm126.71 -42.89l42.81 0 -3.85 18.37 107.02 0 -5.14 24.52 -107.02 0 -7.82 36.78 107.02 0 -5.14 24.52 -149.82 0 21.94 -104.2zm138.6 104.2l5.14 -24.52 107.02 0 1.29 -6.13 -107.02 0 11.67 -55.17 149.82 0 -5.14 24.52 -107.02 0 -1.39 6.13 107.02 0 -11.56 55.18 -149.82 0z"/>
   <g>
    <g style="clip-path:url(#id1)">
     <polygon class="fil108" points="385.5,795.57 389.25,792.7 657.59,1142.89 653.84,1145.76 "/>
     <polygon id="1" class="fil108" points="388.36,793.39 391.04,791.33 659.38,1141.52 656.7,1143.57 "/>
     <polygon id="2" class="fil108" points="390.15,792.01 392.83,789.96 661.17,1140.14 658.49,1142.2 "/>
     <polygon id="3" class="fil108" points="391.94,790.64 394.62,788.59 662.96,1138.77 660.28,1140.83 "/>
     <polygon id="4" class="fil108" points="393.72,789.27 396.41,787.22 664.75,1137.4 662.07,1139.46 "/>
     <polygon id="5" class="fil108" points="395.51,787.9 398.2,785.85 666.54,1136.03 663.86,1138.09 "/>
     <polygon id="6" class="fil108" points="397.3,786.53 399.99,784.47 668.33,1134.66 665.65,1136.71 "/>
     <polygon id="7" class="fil108" points="399.09,785.16 401.77,783.1 670.12,1133.29 667.43,1135.35 "/>
     <polygon id="8" class="fil109" points="400.88,783.79 403.57,781.73 671.91,1131.92 669.22,1133.97 "/>
     <polygon id="9" class="fil109" points="402.67,782.42 405.35,780.36 673.7,1130.55 671.01,1132.6 "/>
     <polygon id="10" class="fil109" points="404.46,781.04 407.14,778.99 675.48,1129.17 672.8,1131.23 "/>
     <polygon id="11" class="fil110" points="406.25,779.68 408.93,777.62 677.28,1127.8 674.59,1129.86 "/>
     <polygon id="12" class="fil110" points="408.04,778.3 410.72,776.25 679.06,1126.43 676.38,1128.49 "/>
     <polygon id="13" class="fil111" points="409.83,776.93 412.51,774.88 680.85,1125.06 678.17,1127.12 "/>
     <polygon id="14" class="fil111" points="411.62,775.56 414.3,773.5 682.64,1123.69 679.96,1125.75 "/>
     <polygon id="15" class="fil111" points="413.41,774.19 416.09,772.13 684.43,1122.32 681.75,1124.38 "/>
     <polygon id="16" class="fil111" points="415.19,772.82 417.88,770.76 686.22,1120.95 683.54,1123.01 "/>
     <polygon id="17" class="fil112" points="416.99,771.45 419.67,769.39 688.01,1119.58 685.33,1121.63 "/>
     <polygon id="18" class="fil112" points="418.77,770.08 421.46,768.02 689.8,1118.2 687.12,1120.26 "/>
     <polygon id="19" class="fil113" points="420.56,768.71 423.25,766.65 691.59,1116.84 688.9,1118.89 "/>
     <polygon id="20" class="fil114" points="422.35,767.34 425.04,765.28 693.38,1115.46 690.7,1117.52 "/>
     <polygon id="21" class="fil114" points="424.14,765.96 426.83,763.91 695.17,1114.09 692.48,1116.15 "/>
     <polygon id="22" class="fil115" points="425.93,764.59 428.61,762.53 696.96,1112.72 694.27,1114.78 "/>
     <polygon id="23" class="fil115" points="427.72,763.22 430.41,761.17 698.75,1111.35 696.06,1113.41 "/>
     <polygon id="24" class="fil115" points="429.51,761.85 432.19,759.79 700.54,1109.98 697.85,1112.04 "/>
     <polygon id="25" class="fil116" points="431.3,760.48 433.98,758.42 702.32,1108.61 699.64,1110.66 "/>
     <polygon id="26" class="fil116" points="433.09,759.11 435.77,757.05 704.12,1107.24 701.43,1109.29 "/>
     <polygon id="27" class="fil117" points="434.88,757.74 437.56,755.68 705.9,1105.87 703.22,1107.92 "/>
     <polygon id="28" class="fil117" points="436.67,756.37 439.35,754.31 707.69,1104.5 705.01,1106.55 "/>
     <polygon id="29" class="fil118" points="438.46,754.99 441.14,752.94 709.48,1103.12 706.8,1105.18 "/>
     <polygon id="30" class="fil119" points="440.24,753.62 442.93,751.57 711.27,1101.75 708.59,1103.81 "/>
     <polygon id="31" class="fil119" points="442.03,752.25 444.72,750.2 713.06,1100.38 710.38,1102.44 "/>
     <polygon id="32" class="fil120" points="443.82,750.88 446.51,748.83 714.85,1099.01 712.17,1101.07 "/>
     <polygon id="33" class="fil120" points="445.61,749.51 448.3,747.45 716.64,1097.64 713.95,1099.69 "/>
     <polygon id="34" class="fil121" points="447.4,748.14 450.09,746.08 718.43,1096.27 715.74,1098.33 "/>
     <polygon id="35" class="fil122" points="449.19,746.77 451.88,744.71 720.22,1094.9 717.53,1096.95 "/>
     <polygon id="36" class="fil122" points="450.98,745.4 453.66,743.34 722.01,1093.53 719.32,1095.58 "/>
     <polygon id="37" class="fil123" points="452.77,744.02 455.45,741.97 723.8,1092.15 721.11,1094.21 "/>
     <polygon id="38" class="fil123" points="454.56,742.66 457.24,740.6 725.59,1090.78 722.9,1092.84 "/>
     <polygon id="39" class="fil124" points="456.35,741.28 459.03,739.23 727.37,1089.41 724.69,1091.47 "/>
     <polygon id="40" class="fil124" points="458.14,739.91 460.82,737.86 729.16,1088.04 726.48,1090.1 "/>
     <polygon id="41" class="fil125" points="459.93,738.54 462.61,736.48 730.95,1086.67 728.27,1088.73 "/>
     <polygon id="42" class="fil125" points="461.71,737.17 464.4,735.11 732.74,1085.3 730.06,1087.36 "/>
     <polygon id="43" class="fil126" points="463.51,735.8 466.19,733.74 734.53,1083.93 731.85,1085.99 "/>
     <polygon id="44" class="fil127" points="465.3,734.43 467.98,732.37 736.32,1082.56 733.64,1084.61 "/>
     <polygon id="45" class="fil127" points="467.08,733.06 469.77,731 738.11,1081.19 735.43,1083.24 "/>
     <polygon id="46" class="fil128" points="468.88,731.69 471.56,729.63 739.9,1079.82 737.22,1081.87 "/>
     <polygon id="47" class="fil129" points="470.66,730.32 473.35,728.26 741.69,1078.45 739.01,1080.5 "/>
     <polygon id="48" class="fil129" points="472.45,728.94 475.13,726.89 743.48,1077.07 740.79,1079.13 "/>
     <polygon id="49" class="fil130" points="474.24,727.57 476.93,725.51 745.27,1075.7 742.58,1077.76 "/>
     <polygon id="50" class="fil131" points="476.03,726.2 478.71,724.15 747.06,1074.33 744.37,1076.39 "/>
     <polygon id="51" class="fil132" points="477.82,724.83 480.5,722.77 748.84,1072.96 746.16,1075.02 "/>
     <polygon id="52" class="fil133" points="479.61,723.46 482.29,721.4 750.64,1071.59 747.95,1073.64 "/>
     <polygon id="53" class="fil133" points="481.4,722.09 484.08,720.03 752.42,1070.22 749.74,1072.28 "/>
     <polygon id="54" class="fil134" points="483.19,720.72 485.87,718.66 754.21,1068.85 751.53,1070.9 "/>
     <polygon id="55" class="fil135" points="484.98,719.35 487.66,717.29 756,1067.48 753.32,1069.53 "/>
     <polygon id="56" class="fil135" points="486.77,717.97 489.45,715.92 757.79,1066.1 755.11,1068.16 "/>
     <polygon id="57" class="fil136" points="488.56,716.6 491.24,714.55 759.58,1064.73 756.9,1066.79 "/>
     <polygon id="58" class="fil137" points="490.35,715.23 493.03,713.18 761.37,1063.36 758.69,1065.42 "/>
     <polygon id="59" class="fil137" points="492.13,713.86 494.82,711.81 763.16,1061.99 760.48,1064.05 "/>
     <polygon id="60" class="fil138" points="493.92,712.49 496.61,710.43 764.95,1060.62 762.26,1062.68 "/>
     <polygon id="61" class="fil139" points="495.71,711.12 498.4,709.06 766.74,1059.25 764.06,1061.31 "/>
     <polygon id="62" class="fil139" points="497.5,709.75 500.18,707.69 768.53,1057.88 765.84,1059.94 "/>
     <polygon id="63" class="fil140" points="499.29,708.38 501.98,706.32 770.32,1056.51 767.63,1058.56 "/>
     <polygon id="64" class="fil141" points="501.08,707.01 503.77,704.95 772.11,1055.13 769.42,1057.19 "/>
     <polygon id="65" class="fil141" points="502.87,705.64 505.55,703.58 773.9,1053.77 771.21,1055.82 "/>
     <polygon id="66" class="fil142" points="504.66,704.26 507.34,702.21 775.68,1052.39 773,1054.45 "/>
     <polygon id="67" class="fil143" points="506.45,702.89 509.13,700.84 777.48,1051.02 774.79,1053.08 "/>
     <polygon id="68" class="fil144" points="508.24,701.52 510.92,699.46 779.26,1049.65 776.58,1051.71 "/>
     <polygon id="69" class="fil145" points="510.03,700.15 512.71,698.1 781.05,1048.28 778.37,1050.34 "/>
     <polygon id="70" class="fil146" points="511.82,698.78 514.5,696.72 782.84,1046.91 780.16,1048.97 "/>
     <polygon id="71" class="fil147" points="513.6,697.41 516.29,695.35 784.63,1045.54 781.95,1047.59 "/>
     <polygon id="72" class="fil148" points="515.4,696.04 518.08,693.98 786.42,1044.17 783.74,1046.22 "/>
     <polygon id="73" class="fil149" points="517.18,694.67 519.87,692.61 788.21,1042.8 785.53,1044.85 "/>
     <polygon id="74" class="fil149" points="518.97,693.3 521.66,691.24 790,1041.43 787.31,1043.48 "/>
     <polygon id="75" class="fil150" points="520.76,691.92 523.45,689.87 791.79,1040.05 789.11,1042.11 "/>
     <polygon id="76" class="fil151" points="522.55,690.55 525.24,688.5 793.58,1038.68 790.89,1040.74 "/>
     <polygon id="77" class="fil151" points="524.34,689.18 527.02,687.13 795.37,1037.31 792.68,1039.37 "/>
     <polygon id="78" class="fil152" points="526.13,687.81 528.82,685.75 797.16,1035.94 794.47,1038 "/>
     <polygon id="79" class="fil153" points="527.92,686.44 530.6,684.38 798.95,1034.57 796.26,1036.62 "/>
     <polygon id="80" class="fil153" points="529.71,685.07 532.39,683.01 800.73,1033.2 798.05,1035.26 "/>
     <polygon id="81" class="fil154" points="531.5,683.7 534.18,681.64 802.53,1031.83 799.84,1033.88 "/>
     <polygon id="82" class="fil155" points="533.29,682.33 535.97,680.27 804.31,1030.46 801.63,1032.51 "/>
     <polygon id="83" class="fil156" points="535.08,680.95 537.76,678.9 806.1,1029.08 803.42,1031.14 "/>
     <polygon id="84" class="fil157" points="536.87,679.59 539.55,677.53 807.89,1027.71 805.21,1029.77 "/>
     <polygon id="85" class="fil158" points="538.65,678.21 541.34,676.16 809.68,1026.34 807,1028.4 "/>
     <polygon id="86" class="fil159" points="540.44,676.84 543.13,674.79 811.47,1024.97 808.79,1027.03 "/>
     <polygon id="87" class="fil159" points="542.24,675.47 544.92,673.41 813.26,1023.6 810.58,1025.66 "/>
     <polygon id="88" class="fil160" points="544.02,674.1 546.71,672.04 815.05,1022.23 812.37,1024.29 "/>
     <polygon id="89" class="fil161" points="545.81,672.73 548.5,670.67 816.84,1020.86 814.15,1022.92 "/>
     <polygon id="90" class="fil161" points="547.6,671.36 550.29,669.3 818.63,1019.49 815.95,1021.54 "/>
     <polygon id="91" class="fil162" points="549.39,669.99 552.07,667.93 820.42,1018.11 817.73,1020.17 "/>
     <polygon id="92" class="fil162" points="551.18,668.62 553.86,666.56 822.21,1016.75 819.52,1018.8 "/>
     <polygon id="93" class="fil163" points="552.97,667.24 555.65,665.19 824,1015.37 821.31,1017.43 "/>
     <polygon id="94" class="fil164" points="554.76,665.87 557.44,663.82 825.78,1014 823.1,1016.06 "/>
     <polygon id="95" class="fil165" points="556.55,664.5 559.23,662.44 827.57,1012.63 824.89,1014.69 "/>
     <polygon id="96" class="fil165" points="558.34,663.13 561.02,661.08 829.36,1011.26 826.68,1013.32 "/>
     <polygon id="97" class="fil166" points="560.13,661.76 562.81,659.7 831.15,1009.89 828.47,1011.95 "/>
     <polygon id="98" class="fil167" points="561.92,660.39 564.6,658.33 832.94,1008.52 830.26,1010.57 "/>
     <polygon id="99" class="fil168" points="563.71,659.02 566.39,656.96 834.73,1007.15 832.05,1009.2 "/>
     <polygon id="100" class="fil168" points="565.49,657.65 568.18,655.59 836.52,1005.78 833.84,1007.83 "/>
     <polygon id="101" class="fil169" points="567.28,656.28 569.97,654.22 838.31,1004.41 835.63,1006.46 "/>
     <polygon id="102" class="fil169" points="569.07,654.9 571.76,652.85 840.1,1003.03 837.42,1005.09 "/>
     <polygon id="103" class="fil170" points="570.86,653.53 573.54,651.48 841.89,1001.66 839.2,1003.72 "/>
     <polygon id="104" class="fil171" points="572.65,652.16 575.34,650.11 843.68,1000.29 840.99,1002.35 "/>
     <polygon id="105" class="fil171" points="574.44,650.79 577.12,648.74 845.47,998.92 842.78,1000.98 "/>
     <polygon id="106" class="fil172" points="576.23,649.42 578.91,647.36 847.26,997.55 844.57,999.61 "/>
     <polygon id="107" class="fil172" points="578.02,648.05 580.7,645.99 849.05,996.18 846.36,998.24 "/>
     <polygon id="108" class="fil172" points="579.81,646.68 582.49,644.62 850.84,994.81 848.15,996.86 "/>
     <polygon id="109" class="fil173" points="581.6,645.31 584.28,643.25 852.62,993.44 849.94,995.49 "/>
     <polygon id="110" class="fil173" points="583.39,643.94 586.07,641.88 854.41,992.06 851.73,994.12 "/>
     <polygon id="111" class="fil173" points="585.18,642.57 587.86,640.51 856.2,990.7 853.52,992.75 "/>
     <polygon id="112" class="fil174" points="586.96,641.19 589.65,639.14 857.99,989.32 855.31,991.38 "/>
     <polygon id="113" class="fil174" points="588.76,639.82 591.44,637.77 859.78,987.95 857.1,990.01 "/>
     <polygon id="114" class="fil174" points="590.54,638.45 593.23,636.39 861.57,986.58 858.89,988.64 "/>
     <polygon id="115" class="fil174" points="592.33,637.08 595.02,635.02 863.36,985.21 860.67,987.27 "/>
     <polygon id="116" class="fil175" points="594.12,635.71 596.81,633.65 865.15,983.84 862.47,985.9 "/>
     <polygon id="117" class="fil176" points="595.91,634.34 598.6,632.28 866.94,982.47 864.25,984.52 "/>
     <polygon id="118" class="fil176" points="597.7,632.97 600.38,630.91 868.73,981.1 866.04,983.15 "/>
     <polygon id="119" class="fil176" points="599.49,631.6 602.18,629.54 870.52,979.73 867.83,981.78 "/>
     <polygon id="120" class="fil176" points="601.28,630.23 603.96,628.17 872.31,978.35 869.62,980.41 "/>
     <polygon id="121" class="fil177" points="603.07,628.85 605.75,626.8 874.09,976.98 871.41,979.04 "/>
     <polygon id="122" class="fil177" points="604.86,627.48 607.54,625.43 875.89,975.61 873.2,977.67 "/>
     <polygon id="123" class="fil177" points="606.65,626.11 609.33,624.06 877.67,974.24 874.99,976.3 "/>
     <polygon id="124" class="fil177" points="608.44,624.74 611.12,622.68 879.46,972.87 876.78,974.93 "/>
     <polygon id="125" class="fil177" points="610.23,623.37 612.91,621.31 881.25,971.5 878.57,973.55 "/>
     <polygon id="126" class="fil177" points="612.01,622 614.7,619.94 883.04,970.13 880.36,972.19 "/>
     <polygon id="127" class="fil177" points="613.81,620.63 616.49,618.57 884.83,968.76 882.15,970.81 "/>
     <polygon id="128" class="fil177" points="615.59,619.26 618.28,617.2 886.62,967.39 883.94,969.44 "/>
     <polygon id="129" class="fil177" points="617.38,617.88 620.07,615.83 888.41,966.01 885.73,968.07 "/>
     <polygon id="130" class="fil177" points="619.17,616.52 621.86,614.46 890.2,964.64 887.51,966.7 "/>
     <polygon id="131" class="fil177" points="620.96,615.14 623.65,613.09 891.99,963.27 889.31,965.33 "/>
     <polygon id="132" class="fil177" points="622.75,613.77 625.43,611.72 893.78,961.9 891.09,963.96 "/>
     <polygon id="133" class="fil177" points="624.54,612.4 627.23,610.34 895.57,960.53 892.88,962.59 "/>
     <polygon id="134" class="fil176" points="626.33,611.03 629.01,608.97 897.36,959.16 894.67,961.22 "/>
     <polygon id="135" class="fil176" points="628.12,609.66 630.8,607.6 899.14,957.79 896.46,959.84 "/>
     <polygon id="136" class="fil176" points="629.91,608.29 632.59,606.23 900.93,956.42 898.25,958.47 "/>
     <polygon id="137" class="fil175" points="631.7,606.92 634.38,604.86 902.72,955.04 900.04,957.1 "/>
     <polygon id="138" class="fil174" points="633.49,605.55 636.17,603.49 904.51,953.68 901.83,955.73 "/>
     <polygon id="139" class="fil174" points="635.28,604.17 637.96,602.12 906.3,952.3 903.62,954.36 "/>
     <polygon id="140" class="fil174" points="637.07,602.8 639.75,600.75 908.09,950.93 905.41,952.99 "/>
     <polygon id="141" class="fil173" points="638.85,601.43 641.54,599.37 909.88,949.56 907.2,951.62 "/>
     <polygon id="142" class="fil173" points="640.65,600.06 643.33,598.01 911.67,948.19 908.99,950.25 "/>
     <polygon id="143" class="fil173" points="642.43,598.69 645.12,596.63 913.46,946.82 910.78,948.88 "/>
     <polygon id="144" class="fil172" points="644.22,597.32 646.91,595.26 915.25,945.45 912.56,947.5 "/>
     <polygon id="145" class="fil172" points="646.01,595.95 648.7,593.89 917.04,944.08 914.36,946.13 "/>
     <polygon id="146" class="fil171" points="647.8,594.58 650.48,592.52 918.83,942.71 916.14,944.76 "/>
     <polygon id="147" class="fil171" points="649.59,593.21 652.27,591.15 920.61,941.34 917.93,943.39 "/>
     <polygon id="148" class="fil170" points="651.38,591.83 654.06,589.78 922.41,939.96 919.72,942.02 "/>
     <polygon id="149" class="fil169" points="653.17,590.46 655.85,588.41 924.2,938.59 921.51,940.65 "/>
     <polygon id="150" class="fil168" points="654.96,589.09 657.64,587.04 925.98,937.22 923.3,939.28 "/>
     <polygon id="151" class="fil168" points="656.75,587.72 659.43,585.66 927.78,935.85 925.09,937.91 "/>
     <polygon id="152" class="fil167" points="658.54,586.35 661.22,584.29 929.56,934.48 926.88,936.54 "/>
     <polygon id="153" class="fil166" points="660.33,584.98 663.01,582.92 931.35,933.11 928.67,935.17 "/>
     <polygon id="154" class="fil165" points="662.12,583.61 664.8,581.55 933.14,931.74 930.46,933.79 "/>
     <polygon id="155" class="fil164" points="663.9,582.24 666.59,580.18 934.93,930.37 932.25,932.42 "/>
     <polygon id="156" class="fil163" points="665.69,580.86 668.38,578.81 936.72,928.99 934.04,931.05 "/>
     <polygon id="157" class="fil162" points="667.48,579.5 670.17,577.44 938.51,927.62 935.83,929.68 "/>
     <polygon id="158" class="fil161" points="669.27,578.12 671.96,576.07 940.3,926.25 937.61,928.31 "/>
     <polygon id="159" class="fil178" points="671.06,576.75 673.75,574.7 942.09,924.88 939.4,926.94 "/>
     <polygon id="160" class="fil160" points="672.85,575.38 675.54,573.32 943.88,923.51 941.19,925.57 "/>
     <polygon id="161" class="fil159" points="674.64,574.01 677.32,571.95 945.67,922.14 942.98,924.2 "/>
     <polygon id="162" class="fil158" points="676.43,572.64 679.11,570.58 947.46,920.77 944.77,922.83 "/>
     <polygon id="163" class="fil157" points="678.22,571.27 680.9,569.21 949.25,919.4 946.56,921.45 "/>
     <polygon id="164" class="fil156" points="680.01,569.9 682.69,567.84 951.03,918.03 948.35,920.08 "/>
     <polygon id="165" class="fil154" points="681.8,568.53 684.48,566.47 952.82,916.66 950.14,918.71 "/>
     <polygon id="166" class="fil153" points="683.59,567.15 686.27,565.1 954.61,915.28 951.93,917.34 "/>
     <polygon id="167" class="fil152" points="685.37,565.78 688.06,563.73 956.4,913.91 953.72,915.97 "/>
     <polygon id="168" class="fil179" points="687.17,564.41 689.85,562.36 958.19,912.54 955.51,914.6 "/>
     <polygon id="169" class="fil151" points="688.95,563.04 691.64,560.99 959.98,911.17 957.3,913.23 "/>
     <polygon id="170" class="fil150" points="690.74,561.67 693.43,559.61 961.77,909.8 959.08,911.86 "/>
     <polygon id="171" class="fil149" points="692.53,560.3 695.22,558.24 963.56,908.43 960.88,910.48 "/>
     <polygon id="172" class="fil148" points="694.32,558.93 697.01,556.87 965.35,907.06 962.67,909.12 "/>
     <polygon id="173" class="fil147" points="696.11,557.56 698.79,555.5 967.14,905.69 964.45,907.74 "/>
     <polygon id="174" class="fil146" points="697.9,556.19 700.59,554.13 968.93,904.32 966.24,906.37 "/>
     <polygon id="175" class="fil145" points="699.69,554.81 702.37,552.76 970.72,902.94 968.03,905 "/>
     <polygon id="176" class="fil143" points="701.48,553.45 704.16,551.39 972.5,901.57 969.82,903.63 "/>
     <polygon id="177" class="fil142" points="703.27,552.07 705.95,550.02 974.3,900.2 971.61,902.26 "/>
     <polygon id="178" class="fil141" points="705.06,550.7 707.74,548.64 976.08,898.83 973.4,900.89 "/>
     <polygon id="179" class="fil140" points="706.85,549.33 709.53,547.27 977.87,897.46 975.19,899.52 "/>
     <polygon id="180" class="fil139" points="708.64,547.96 711.32,545.9 979.66,896.09 976.98,898.15 "/>
     <polygon id="181" class="fil138" points="710.43,546.59 713.11,544.53 981.45,894.72 978.77,896.77 "/>
     <polygon id="182" class="fil137" points="712.21,545.22 714.9,543.16 983.24,893.35 980.56,895.4 "/>
     <polygon id="183" class="fil180" points="714.01,543.85 716.69,541.79 985.03,891.97 982.35,894.03 "/>
     <polygon id="184" class="fil135" points="715.79,542.48 718.48,540.42 986.82,890.61 984.14,892.66 "/>
     <polygon id="185" class="fil134" points="717.58,541.1 720.27,539.05 988.61,889.23 985.92,891.29 "/>
     <polygon id="186" class="fil133" points="719.37,539.73 722.06,537.68 990.4,887.86 987.72,889.92 "/>
     <polygon id="187" class="fil133" points="721.16,538.36 723.84,536.3 992.19,886.49 989.5,888.55 "/>
     <polygon id="188" class="fil181" points="722.95,536.99 725.63,534.94 993.98,885.12 991.29,887.18 "/>
     <polygon id="189" class="fil130" points="724.74,535.62 727.42,533.56 995.77,883.75 993.08,885.81 "/>
     <polygon id="190" class="fil129" points="726.53,534.25 729.21,532.19 997.55,882.38 994.87,884.43 "/>
     <polygon id="191" class="fil128" points="728.32,532.88 731,530.82 999.34,881.01 996.66,883.06 "/>
     <polygon id="192" class="fil127" points="730.11,531.51 732.79,529.45 1001.14,879.64 998.45,881.69 "/>
     <polygon id="193" class="fil182" points="731.9,530.13 734.58,528.08 1002.92,878.26 1000.24,880.32 "/>
     <polygon id="194" class="fil125" points="733.69,528.76 736.37,526.71 1004.71,876.89 1002.03,878.95 "/>
     <polygon id="195" class="fil183" points="735.48,527.39 738.16,525.34 1006.5,875.52 1003.82,877.58 "/>
     <polygon id="196" class="fil123" points="737.26,526.02 739.95,523.97 1008.29,874.15 1005.61,876.21 "/>
     <polygon id="197" class="fil122" points="739.06,524.65 741.74,522.59 1010.08,872.78 1007.4,874.84 "/>
     <polygon id="198" class="fil121" points="740.84,523.28 743.53,521.22 1011.87,871.41 1009.19,873.46 "/>
     <polygon id="199" class="fil120" points="742.63,521.91 745.32,519.85 1013.66,870.04 1010.97,872.1 "/>
     <polygon id="200" class="fil118" points="744.42,520.54 747.11,518.48 1015.45,868.67 1012.76,870.72 "/>
     <polygon id="201" class="fil117" points="746.21,519.17 748.9,517.11 1017.24,867.3 1014.55,869.35 "/>
     <polygon id="202" class="fil184" points="748,517.79 750.68,515.74 1019.03,865.92 1016.34,867.98 "/>
     <polygon id="203" class="fil115" points="749.79,516.43 752.48,514.37 1020.82,864.55 1018.13,866.61 "/>
     <polygon id="204" class="fil115" points="751.58,515.05 754.26,513 1022.61,863.18 1019.92,865.24 "/>
     <polygon id="205" class="fil185" points="753.37,513.68 756.05,511.63 1024.39,861.81 1021.71,863.87 "/>
     <polygon id="206" class="fil112" points="755.16,512.31 757.84,510.25 1026.18,860.44 1023.5,862.5 "/>
     <polygon id="207" class="fil186" points="756.95,510.94 759.63,508.88 1027.97,859.07 1025.29,861.13 "/>
     <polygon id="208" class="fil109" points="758.74,509.57 761.42,507.51 1029.76,857.7 1027.08,859.75 "/>
     <polygon id="209" class="fil108" points="760.53,508.2 763.21,506.14 1031.55,856.33 1028.87,858.38 "/>
     <polygon id="210" class="fil187" points="762.31,506.83 765,504.77 1033.34,854.96 1030.66,857.01 "/>
     <polygon id="211" class="fil188" points="764.1,505.46 766.79,503.4 1035.13,853.59 1032.44,855.64 "/>
     <polygon id="212" class="fil189" points="765.89,504.08 768.58,502.03 1036.92,852.21 1034.24,854.27 "/>
     <polygon id="213" class="fil190" points="767.68,502.71 770.37,500.66 1038.71,850.84 1036.02,852.9 "/>
     <polygon id="214" class="fil191" points="769.47,501.34 772.16,499.28 1040.5,849.47 1037.81,851.53 "/>
     <polygon id="215" class="fil192" points="771.26,499.97 773.95,497.92 1042.29,848.1 1039.61,850.16 "/>
     <polygon id="216" class="fil193" points="773.05,498.6 775.73,496.54 1044.08,846.73 1041.39,848.79 "/>
     <polygon id="217" class="fil194" points="774.84,497.23 777.52,495.17 1045.86,845.36 1043.18,847.41 "/>
     <polygon id="218" class="fil195" points="776.63,495.86 779.31,493.8 1047.66,843.99 1044.97,846.05 "/>
     <polygon id="219" class="fil196" points="778.42,494.49 781.1,492.43 1049.44,842.62 1046.76,844.67 "/>
     <polygon id="220" class="fil197" points="780.21,493.12 782.89,491.06 1051.23,841.24 1048.55,843.3 "/>
     <polygon id="221" class="fil198" points="782,491.74 784.68,489.69 1053.02,839.87 1050.34,841.93 "/>
     <polygon id="222" class="fil199" points="783.79,490.37 786.47,488.32 1054.81,838.5 1052.13,840.56 "/>
     <polygon id="223" class="fil199" points="785.58,489 788.26,486.95 1056.6,837.13 1053.92,839.19 "/>
     <polygon id="224" class="fil200" points="787.37,487.63 790.05,485.57 1058.39,835.76 1055.71,837.82 "/>
     <polygon id="225" class="fil201" points="789.15,486.26 791.84,484.2 1060.18,834.39 1057.5,836.45 "/>
     <polygon id="226" class="fil201" points="790.94,484.89 793.63,482.83 1061.97,833.02 1059.29,835.08 "/>
     <polygon id="227" class="fil202" points="792.73,483.52 795.42,481.46 1063.76,831.65 1061.08,833.7 "/>
     <polygon id="228" class="fil203" points="794.52,482.15 797.2,480.09 1065.55,830.28 1062.86,832.33 "/>
     <polygon id="229" class="fil203" points="796.31,480.78 799,478.72 1067.34,828.9 1064.65,830.96 "/>
     <polygon id="230" class="fil204" points="798.1,479.41 800.78,477.35 1069.13,827.54 1066.44,829.59 "/>
     <polygon id="231" class="fil205" points="799.89,478.03 802.57,475.98 1070.91,826.16 1068.23,828.22 "/>
     <polygon id="232" class="fil206" points="801.68,476.66 804.36,474.61 1072.71,824.79 1070.02,826.85 "/>
     <polygon id="233" class="fil207" points="803.47,475.29 806.15,473.23 1074.49,823.42 1071.81,825.48 "/>
     <polygon id="234" class="fil207" points="805.26,473.92 807.94,471.87 1076.28,822.05 1073.6,824.11 "/>
     <polygon id="235" class="fil208" points="807.05,472.55 809.73,470.49 1078.07,820.68 1075.39,822.73 "/>
     <polygon id="236" class="fil208" points="808.84,471.18 811.52,469.12 1079.86,819.31 1077.18,821.36 "/>
     <polygon id="237" class="fil209" points="810.62,469.81 813.31,467.75 1081.65,817.94 1078.97,819.99 "/>
     <polygon id="238" class="fil209" points="812.42,468.44 815.1,466.38 1083.44,816.57 1080.76,818.62 "/>
     <polygon id="239" class="fil209" points="814.2,467.06 816.89,465.01 1085.23,815.19 1082.55,817.25 "/>
     <polygon id="240" class="fil210" points="815.99,465.69 818.68,463.64 1087.02,813.82 1084.33,815.88 "/>
     <polygon id="241" class="fil210" points="817.78,464.32 820.47,462.27 1088.81,812.45 1086.13,814.51 "/>
     <polygon id="242" class="fil211" points="819.57,462.95 822.26,460.9 1090.6,811.08 1087.91,813.14 "/>
     <polygon id="243" class="fil211" points="821.36,461.58 824.04,459.52 1092.39,809.71 1089.7,811.77 "/>
     <polygon id="244" class="fil211" points="823.15,460.21 825.84,458.15 1094.18,808.34 1091.49,810.39 "/>
     <polygon id="245" class="fil212" points="824.94,458.84 827.62,456.78 1095.97,806.97 1093.28,809.03 "/>
     <polygon id="246" class="fil212" points="826.73,457.47 829.41,455.41 1097.75,805.6 1095.07,807.65 "/>
     <polygon id="247" class="fil213" points="828.52,456.1 831.2,454.04 1099.55,804.22 1096.86,806.28 "/>
     <polygon id="248" class="fil213" points="830.31,454.72 832.99,452.67 1101.33,802.85 1098.65,804.91 "/>
     <polygon id="249" class="fil213" points="832.1,453.36 834.78,451.3 1103.12,801.48 1100.44,803.54 "/>
     <polygon id="250" class="fil214" points="833.89,451.98 836.57,449.93 1104.91,800.11 1102.23,802.17 "/>
     <polygon id="251" class="fil214" points="835.67,450.61 838.36,448.55 1106.7,798.74 1104.02,800.8 "/>
     <polygon id="252" class="fil214" points="837.46,449.24 836.16,450.24 1104.5,800.43 1105.81,799.43 "/>
    </g>
   </g>
  </g>
  <path class="fil215" d="M185.57 839.83c-28.8,-35 2.25,-100.26 2.25,-100.26l0 0 54.83 -115.15 8.32 0 -54.83 115.15 0 0c0,0 -36.89,77.52 7.09,108.89 -6.97,-2.21 -12.82,-5.13 -17.66,-8.64zm-47.51 -224.02c-2.44,-0.27 -6.25,-0.96 -9.94,-2.67 -2.72,-5.67 -2.74,-14.17 3.34,-26.95 18.2,-38.24 72.82,-152.95 72.82,-152.95 0,0 18.21,-38.24 54.62,-38.24l8.32 0c-36.41,0 -54.62,38.24 -54.62,38.24 0,0 -54.62,114.71 -72.83,152.95 -7.12,14.97 -5.88,24.09 -1.72,29.63zm24.18 -272.21l-3.69 0c0,0 -2.17,0 -4.81,-0.72 -0.7,-3.31 -0.11,-7.81 2.81,-13.94 11,-23.09 43.98,-92.35 43.98,-92.35 0,0 11,-23.09 32.98,-23.09l8.32 0c-21.99,0 -32.98,23.09 -32.98,23.09 0,0 -32.98,69.27 -43.98,92.35 -3.14,6.59 -3.58,11.29 -2.62,14.66zm-115.12 -22.67l-7.86 0 -0.46 -0.02c0.09,-1.9 0.7,-4.23 2.06,-7.08 7.4,-15.54 29.58,-62.13 29.58,-62.13 0,0 7.4,-15.54 22.19,-15.54l8.32 0c-14.79,0 -22.19,15.54 -22.19,15.54 0,0 -22.19,46.59 -29.58,62.13 -1.37,2.86 -1.98,5.19 -2.06,7.1zm-29.35 174.38l-3.69 0c0,0 -2.17,0 -4.81,-0.72 -0.7,-3.31 -0.11,-7.81 2.81,-13.94 11,-23.09 43.98,-92.36 43.98,-92.36 0,0 11,-23.09 32.99,-23.09l8.32 0c-21.99,0 -32.98,23.09 -32.98,23.09 0,0 -32.98,69.27 -43.98,92.36 -3.14,6.58 -3.58,11.29 -2.62,14.66zm334.12 -100.31l155.05 -325.64c29.01,-60.93 87.03,-60.93 87.03,-60.93l8.15 0c-3.43,0.06 -58.76,1.91 -86.86,60.93l-155.05 325.64 -8.32 0z"/>
 </g>
</svg>
