<?xml version="1.0" encoding="UTF-8"?>
<!DOCTYPE svg PUBLIC "-//W3C//DTD SVG 1.1//EN" "http://www.w3.org/Graphics/SVG/1.1/DTD/svg11.dtd">
<!-- Creator: CorelDRAW 2019 (64 Bit) -->
<svg xmlns="http://www.w3.org/2000/svg" xml:space="preserve" width="207.565mm" height="88.0224mm" version="1.1" style="shape-rendering:geometricPrecision; text-rendering:geometricPrecision; image-rendering:optimizeQuality; fill-rule:evenodd; clip-rule:evenodd"
viewBox="0 0 23704.8 10052.53"
 xmlns:xlink="http://www.w3.org/1999/xlink">
 <defs>
  <style type="text/css">
   <![CDATA[
    .fil33 {fill:black}
    .fil29 {fill:#006F96}
    .fil18 {fill:#0097CC}
    .fil5 {fill:#025599}
    .fil7 {fill:#0283BB}
    .fil43 {fill:#02878A}
    .fil21 {fill:#03052A}
    .fil38 {fill:#0568B5}
    .fil8 {fill:#0A2809}
    .fil72 {fill:#0A2B76}
    .fil36 {fill:#0A3691}
    .fil48 {fill:#13A5D7}
    .fil50 {fill:#1451A6}
    .fil42 {fill:#14A9B7}
    .fil39 {fill:#172B55}
    .fil44 {fill:#173C12}
    .fil19 {fill:#189467}
    .fil46 {fill:#27522D}
    .fil41 {fill:#2AADA8}
    .fil40 {fill:#2D3E9F}
    .fil47 {fill:#2F5DA1}
    .fil74 {fill:#375919}
    .fil35 {fill:#38B198}
    .fil23 {fill:#3AA044}
    .fil51 {fill:#49B68B}
    .fil12 {fill:#4E6A1A}
    .fil9 {fill:#50A94F}
    .fil11 {fill:#50A96C}
    .fil34 {fill:#53A932}
    .fil60 {fill:#595E9E}
    .fil70 {fill:#5C612A}
    .fil52 {fill:#5CB97C}
    .fil54 {fill:#5E3684}
    .fil55 {fill:#61A3CE}
    .fil57 {fill:#622766}
    .fil63 {fill:#646558}
    .fil14 {fill:#679323}
    .fil65 {fill:#6B8E60}
    .fil26 {fill:#710A6C}
    .fil6 {fill:#71BE6B}
    .fil66 {fill:#7277AE}
    .fil17 {fill:#72B333}
    .fil20 {fill:#750554}
    .fil22 {fill:#7CC150}
    .fil25 {fill:#8BC335}
    .fil10 {fill:#8F8C15}
    .fil24 {fill:#91070C}
    .fil31 {fill:#920A72}
    .fil69 {fill:#93CB8C}
    .fil49 {fill:#9FCA57}
    .fil58 {fill:#A2316F}
    .fil56 {fill:#A33885}
    .fil75 {fill:#A6679D}
    .fil13 {fill:#A90571}
    .fil62 {fill:#ADB78F}
    .fil61 {fill:#AECB74}
    .fil32 {fill:#B3052F}
    .fil53 {fill:#B4CF2B}
    .fil67 {fill:#B4D18D}
    .fil37 {fill:#B70153}
    .fil15 {fill:#C20408}
    .fil30 {fill:#C60270}
    .fil71 {fill:#C7D397}
    .fil68 {fill:#D093B0}
    .fil64 {fill:#D1B464}
    .fil59 {fill:#D46398}
    .fil28 {fill:#D6D00E}
    .fil2 {fill:#DB195D}
    .fil1 {fill:#E91808}
    .fil4 {fill:#EC4307}
    .fil0 {fill:#ED7B0B}
    .fil3 {fill:#F1640B}
    .fil73 {fill:#F1D1D2}
    .fil16 {fill:#F2C300}
    .fil45 {fill:#F6A930}
    .fil27 {fill:#F7A212}
    .fil76 {fill:white}
    .fil77 {fill:white;fill-rule:nonzero}
   ]]>
  </style>
 </defs>
 <g id="Camada_x0020_1">
  <metadata id="CorelCorpID_0Corel-Layer"/>
  <g id="_2649951272608">
   <path class="fil0" d="M20369.47 4999.29c20.08,231.49 -354.04,265.59 -275.21,-85.13 -90.72,8.63 -34.83,17.28 -101.25,-8.6 -187.91,53.31 -198.56,-8.98 -332.76,-43.67 -127.47,2.12 -245.07,-9.36 -369.06,-13.6 -84.29,-2.89 -309.72,15.69 -372.98,-1.8 7.69,108.19 -27.08,165.86 -43.51,239.84 109.62,76.04 399.19,-31.5 534.92,454.98l21.76 67.61c79.34,56.74 97.4,94.61 156.3,176.66 225.88,314.67 382.01,754.23 854.65,809.33 372.61,43.45 709.45,-192.34 802.38,-544.81 44.44,-168.59 22.45,-378.29 -76.19,-544.05 -161.5,-271.38 -506.3,-432.7 -799.04,-506.76z"/>
   <path class="fil1" d="M22546.11 2471.7l10.55 -23.5c-13.93,245.77 32.25,463.03 10.24,628.8 -0.42,3.2 -1.5,10.13 -1.85,13 -0.38,2.95 -1.22,10.98 -1.51,13.37 -0.29,2.47 -0.65,9.22 -1.08,13.82l-113.94 43.51c-33.13,10.52 -63.38,18.08 -99.73,35.68 -107.75,52.16 -84.18,157.28 -83.89,248.1 0.02,7.66 -2.9,41.05 -2.9,41.06l-13.96 250.71c157.78,6.53 199,65.21 433.33,25.97l-18.43 1208.51 137.23 -22.49c213.36,44.6 614.14,-352.03 684.99,-477.83 123.08,-218.51 263.22,-497.51 206.8,-839.86 -64.15,-389.28 -107.11,-543.46 -389.12,-836.16 -148.11,-153.71 -329.63,-239.67 -528.82,-302.32 -84.83,-26.69 -146.22,-63.5 -227.89,-20.36z"/>
   <path class="fil2" d="M20708.31 3045.58c-55.66,-26.77 -191.58,-176.73 -211.53,-216.11 -121.13,-60.48 -13.48,-39.85 -233.26,-113.7 5.84,-59.04 75.07,-193.34 -47.39,-223.95 -140.2,-35.05 -126.62,89.35 -110.96,184.81 -274.47,-80.39 -654.04,104.94 -814.72,403.19 -32.75,60.78 -115.77,206.98 -162.4,256.24 182.58,58.13 357.14,47.14 519.77,159.03 136.61,93.99 212.57,330.24 112.43,500.6 -90.66,154.23 -270.78,256.16 -482.64,172 -226.11,-89.83 -187.07,-246.91 -321.75,-424.77 -29.66,9.97 -13.27,-3.91 -42.45,19.04 -16.98,78.01 -74.56,162.91 -109.37,235.99 -43.91,92.16 -95.94,144.95 -123.57,231.37 -47.05,-30.37 -52.08,62.5 -72.29,-116.97 95.17,281.23 -159.12,381.7 -164.28,379.83l-19.52 -19.08c-131.97,18.58 -134.24,-8.3 -249.97,-12.86l-171.35 213.82c55.49,37.63 72.82,19.89 143.95,80.71l49.22 47.95 48.17 -19.41c-55.9,-158.72 103.47,-182.45 172.22,-93.35 137.46,-67.91 206.47,-107.02 321.96,-197.57 54.11,-42.4 78.77,-68.19 118.51,-120.01 65.98,-86.01 29.1,-62.84 166.14,-86.06 115.86,-31.27 289.3,-24.14 390.37,-2.1 108.28,40.5 553.22,48.55 723.64,44.72 441.09,-144.7 518.64,-279.8 680.01,-618.71 13.22,-98.18 31.91,-225.01 9.63,-348.67 -24.03,-133.39 -79.81,-210.46 -118.58,-315.97z"/>
   <path class="fil0" d="M21800.98 2593.96c-163.65,56.49 -322.74,250.58 -426.62,378.91 -49.95,61.7 -77.57,81.59 -127,151.22 -67.53,95.16 -375.45,545.22 -430.1,586.13 -161.37,338.91 -238.92,474.02 -680.01,618.71 -125.72,84.23 -352.17,158.38 -554.67,191.58l3.46 21.14c611.8,-100.29 1710.86,295.77 2277.31,386.4 -60.75,-87.38 -27.23,-26.68 -30.09,-151.63 -1.69,-73.79 -22.74,-53.42 -8.43,-124.24 -110.71,-43.09 -177.96,-52.28 -208.18,-204.23 -64.65,-325.16 9.96,-173.75 -126.12,-303.82 178.76,-63.55 211.86,-13.45 343.75,30.16 6.08,-78.52 15.01,-170.2 -6.69,-215.99 -18.97,-40.04 -67.93,-60.4 -38.57,-182.05 26.22,-108.67 48.85,-85.4 50.78,-186.93 2.24,-117.32 8.94,-623.69 -12.27,-703.38 -41.54,-156.11 -3.45,-166.65 -26.56,-291.96z"/>
   <path class="fil3" d="M21911.28 6808.65c-357.84,58.67 -546.44,299.96 -776.81,467.71 -229.52,167.14 -398.92,235.02 -690.26,250.64 -109.7,5.89 -160.91,-15.07 -260.39,-1.04 290.39,310.13 1383.76,684.83 1878.9,603.66 991.33,-162.51 631.34,-1449.31 -151.45,-1320.98z"/>
   <path class="fil4" d="M21800.98 2593.96c23.11,125.32 -14.97,135.86 26.56,291.96 21.21,79.69 14.5,586.06 12.27,703.38 -1.93,101.53 -24.55,78.26 -50.78,186.93 -29.36,121.65 19.6,142.01 38.57,182.05 21.7,45.8 12.77,137.48 6.69,215.99 -131.89,-43.61 -164.99,-93.72 -343.75,-30.16 136.07,130.07 61.46,-21.34 126.12,303.82 30.22,151.95 97.47,161.14 208.18,204.23 -14.31,70.82 6.74,50.46 8.43,124.24 2.87,124.95 -30.65,64.25 30.09,151.63 150.34,39.37 263.09,60.06 427.82,79.55 64.31,7.61 375.08,28.03 450.72,-8.07 71.26,-34 25.57,21.34 58.26,-51.29l-137.23 22.49 18.43 -1208.51c-234.32,39.24 -275.54,-19.44 -433.33,-25.97l13.96 -250.71c0,-0.01 2.92,-33.39 2.9,-41.06 -0.29,-90.82 -23.86,-195.94 83.89,-248.1 36.35,-17.6 66.6,-25.16 99.73,-35.68l113.94 -43.51c0.43,-4.6 0.8,-11.35 1.08,-13.82 0.29,-2.4 1.13,-10.43 1.51,-13.37 0.35,-2.87 1.43,-9.8 1.85,-13 22.01,-165.77 -24.18,-383.03 -10.24,-628.8l-10.55 23.5c-64.97,-59.29 -80.73,-43.71 -179.21,-36.5 -157.68,11.53 -461.19,36.49 -565.92,158.76z"/>
   <path class="fil5" d="M12750.01 7463.85l-196.5 32.21c-157.21,-959.52 -190.4,-713.97 91.36,-966.43l603.89 -580.07c-117.04,-66.9 -682.45,-225.5 -888.84,-202.52 -351.18,39.13 -610.83,325.69 -696.27,563.58 -186.93,520.47 146.68,1310.35 1086.36,1153.23z"/>
   <path class="fil6" d="M13896.34 2804.49c-672.33,110.22 -522.53,1084.15 159.41,972.36 45,64.4 20.69,126.85 105.34,112.97 70.3,-11.52 55.69,-48.1 46.09,-116.09 33.88,-5.55 68.1,-14.2 102.37,-12.46 166.75,8.46 -50.75,49.44 61.88,10.06l45.05 -20.81c307.23,-75.19 816.08,195.03 1011.53,452.57 -25.7,76.46 -33.23,47.3 -46.09,116.09 146.76,-24.06 75.13,-50.99 172.57,-6.59 -70.26,-280.37 -699.4,-1051.5 -978.56,-1233.95 -23.34,-15.25 -41.08,-25.12 -63.7,-41.15 -29.93,-21.18 -28.45,-23.87 -61.37,-44.36 -122.27,-76.06 -367.92,-219.24 -554.52,-188.64z"/>
   <path class="fil7" d="M13248.76 5949.56l-603.89 580.07c-281.76,252.46 -248.58,6.91 -91.36,966.43l196.5 -32.21c107.9,-67.31 159.24,-82.02 247.54,-157.78 417.86,-358.51 623.09,-839.87 1264.13,-1348.54 3.72,-2.96 8.74,-6.8 12.3,-9.81l43.75 -43.17c-124.47,31.2 -265.13,125.48 -557.17,126.61 -196.23,0.77 -343.18,-50.55 -511.8,-81.6z"/>
   <path class="fil8" d="M18513.13 3985.19c-246.65,-135.97 -478.98,89.64 -678.53,167.56l-22.38 28.83c-41.35,60.13 -31.29,36.02 -84.77,87.99 -42.43,41.24 -56.28,64.72 -77.81,111.98 53.01,-21.88 47.01,-22.12 98.98,-58.29l91.04 15.82c-35.86,206.9 -85.17,416.62 -230.24,591.62l-159.04 221.53c59.41,-24.52 91.83,-52.96 137.57,-87.67 -7.05,105.96 -13.11,100.41 -94.73,155.77 -68.32,46.34 -94,88.25 -145.7,122.42l-137.05 161.25c-38.29,27.48 -172.76,68.93 -225.67,84.35 557.53,16.71 674.4,-224.45 829.99,-61.72l10.51 41.68 0.67 43.31 158.79 19.76c108.45,26.2 142.47,39.66 212.85,88.07l446.31 337.78c40.99,25.26 65.66,30.25 115.25,61.61 31.95,-372.23 -107.84,-403.45 -310.65,-587.58 37.78,-75.51 86.04,-151.64 62.45,-273.21 -77.22,35.43 -171.77,100.05 -247.3,130.23 -133.72,53.44 -155.45,-5.93 -271.25,-28.79 63.75,-138.28 171.64,-98.79 243.05,-297.59 17.94,-49.98 26.32,-74.21 -13.37,-144.71 5.64,-73.01 -0.25,-63.39 -25.89,-114.48l-49.22 -47.95c-71.14,-60.81 -88.46,-43.08 -143.95,-80.71l171.35 -213.82c115.73,4.56 118,31.44 249.97,12.86l19.52 19.08c5.16,1.87 259.45,-98.6 164.28,-379.83 -34.35,-73.87 -52.1,-84.23 -95.04,-127.14z"/>
   <path class="fil9" d="M14933.67 5689.51c-35.4,84.59 -137.68,116.59 -224.38,179.28 -319.97,231.37 -790.57,685.85 -847.85,1069.45 -68.91,461.35 509.79,753.22 847.88,403.86 353.25,-365.02 -118.32,-824.18 329.4,-1441.83l147.24 -196.31c29.78,-52.1 0.31,36.05 23.41,-54.01 -54.19,51.22 -98.49,98.25 -213.19,68.89l-62.52 -29.34z"/>
   <path class="fil10" d="M17984.76 5631.38c37.5,228.8 16.46,76.47 -50.28,222.93 27.44,60.89 7.34,46.46 73.81,53.03 19.32,117.86 22.96,131.6 -24.01,171.32 -27.82,23.53 -8.99,17.55 -50.49,36.25 6.97,-104.81 17.8,-154.78 -44.63,-250.47 -92.24,-141.36 -22.81,-77.91 -63.19,-252.8l-0.67 -43.31c-35.29,-12.09 -35.24,20.87 -10.51,-41.68 -155.59,-162.73 -272.46,78.42 -829.99,61.72 52.91,-15.42 187.37,-56.87 225.67,-84.35l137.05 -161.25c-282.61,46.33 -805.3,430.09 -825.49,634.58 51.69,-36.11 172.45,-99.83 259.44,-103.61 120.07,-5.24 182.6,29.74 278.75,58.79 -99.71,-201.38 -120.65,-163.93 -281.06,-251.57 372.72,-96.58 915.39,-13.89 689.06,401.75 17.32,10.54 65.75,-4.56 -13.34,23.89l-38.81 28.07 193.71 -10.05c-44.83,54 -65.79,44.64 -97.75,97.75 -26.14,43.47 -33.27,104.22 -6.57,174.33 64.33,168.78 209.8,123.04 275.85,112.23 21.38,130.44 24.3,294.84 295.38,232.67 114.33,-26.21 234.88,-103.99 341.88,-185.21 15.92,13.74 25.97,49.21 31.47,59.58 121.51,-21.4 142.21,-9.52 148.26,-110.74 -35.25,-79.87 -18.76,-131 -118.26,-113.39 -127.65,22.6 -21.93,59.31 -159.89,93.86 -54,-92.19 7.93,14.04 -119.12,-40.15 -55.69,-23.75 -84.37,-47.29 -102.32,-118.9l-190.25 31.19c11.31,-60.46 55.46,-86.66 117.21,-139.6 48.55,-41.62 -24.7,1.53 48.79,-39.55 39.8,96.45 18.11,86.66 48.86,165.63 194.06,-48.62 109.08,59.25 353.94,25.94 147.59,-20.09 202.42,-128.14 287.38,-217.89l-5.48 -33.5c-49.6,-31.36 -74.27,-36.35 -115.25,-61.61l-446.31 -337.78c-70.38,-48.41 -104.41,-61.88 -212.85,-88.07z"/>
   <path class="fil11" d="M12985.31 3735.28c-40.74,-248.51 -7.59,-311.12 -54.75,-598.81 -90.51,-552.04 -957.34,-410.94 -873.62,99.79 24.43,148.97 16.07,194.23 115.97,305.9l197.68 192.11c208.1,177.21 441.17,306.54 698.03,404.27l186.63 51.72c-108.81,-116.2 -234.53,-238.92 -269.94,-454.99z"/>
   <path class="fil12" d="M15737.08 4478.02l-6.48 -112.29 -28.63 51.99c6.81,83.92 -9.89,59.11 3.27,152.35 -88.47,-25.91 -90.42,-27.32 -172.56,6.59l-6.93 -42.29c-212.44,34.83 -342.48,-6.33 -412.3,188.99 -82.26,230.08 159.35,323.95 199.53,366.86l-64.13 6.09c-241.74,41.55 -524.4,192.49 -445.76,446.52 20.61,98.08 61.3,124.93 130.59,146.7l62.52 29.34c114.7,29.36 159,-17.67 213.19,-68.89 60.61,-6.14 -14.87,17.99 40.52,-11.96 71.39,-38.6 50.47,-65.4 135.85,-103.89 -28.39,96.96 -11.88,152.78 -104.93,223.08 -44.23,33.4 -81.99,31.11 -97.07,84.15 -19.8,69.64 16.42,86.73 70.92,84.02 166.9,-8.29 97.87,-339.15 205.25,-468.51 -92.56,17.3 -63.51,25.1 -144.51,45.4 13.2,-133.61 39.86,-44.31 268.22,-217.63 16.54,66 55.79,165.95 80.4,225.6l42.29 -6.83c97.28,-2.35 94.21,20.87 145.07,-82 8.25,-16.67 -36.91,-6.4 17.94,-35.78 8.83,-4.73 6.24,-12.94 9.9,-19.09 -19.03,-116.05 -29.73,-137.64 32.22,-200.75l17.67 -24.61c-0.81,-0.34 -11.17,-59.61 -140.88,27.99 -49.56,33.47 -82.67,66.6 -120.05,101.62 3.8,-38.52 9,-26.47 16.02,-45.49 24.45,-66.24 7.18,-21.86 -1.47,-130.56l169.27 -64.91c3.27,-1.74 9.96,-4.9 14.05,-8.55 -82.64,6.59 -86.7,-7.48 -193.71,10.06l-6.93 -42.28c166.91,-13.29 46.94,35.71 387.43,-20.1 -4.35,-2.7 -6.62,-6.73 -13.73,-6.84 -38.5,-0.63 -137.94,-61.84 -182.66,-161.14 -54.58,-121.23 -50.42,-197.8 -119.35,-322.92z"/>
   <path class="fil13" d="M17966.71 1681.37c-449.12,73.63 -780.64,1026.96 -742.97,1293.95 61.67,-57.74 53.13,-82.58 110.6,-144.34 312.06,-335.34 716.11,-173.99 954.19,-377.61 368.87,-315.48 65.36,-835.47 -321.82,-772z"/>
   <path class="fil14" d="M16421.54 5364.37c-26.4,-10.12 -388.59,24.84 -433.18,5.84 135.9,-22.28 100.24,-8.1 192,-68.5 110.74,-72.9 62.65,-26.69 181.56,-36.16 -106.61,-113.84 -243.67,-202.46 -432.82,-124.4l-17.67 24.61c-3.49,52.44 -3.07,66.17 -5.61,129.74 -0.21,5.13 -2.5,55.8 -5.6,64.7 -17.92,51.33 25.11,64.74 -21.01,6.32 -3.67,6.16 -1.07,14.37 -9.9,19.09 -54.85,29.38 -9.7,19.11 -17.94,35.78 -50.87,102.86 -47.79,79.65 -145.07,82 -13.34,55.98 42.23,36.39 -35.36,49.1 -34.27,-45.16 -45.33,-49.07 -63.08,-119.89l-42.28 6.93c-22.88,343.98 19.08,93.5 -166.77,402.39 -78.74,130.89 -78.02,205.37 -101.34,318.84 -18.73,91.15 1.26,60.22 -54.5,91.4l10.39 63.41c116.01,11.47 63.68,101.01 211.84,146.82 221.57,68.5 404.41,-133.74 310.1,-378.85 -35.15,-91.36 -113.37,-127.98 -147.33,-263.5 183.7,61.73 337.35,212.27 504.59,26.77 116.91,-129.69 100.59,-343.05 380.41,-388.92 -5.18,-3.51 -11.72,-8.3 -15.25,-10.98l-74.37 -74.78c2.26,-1.05 -2.01,-5.09 -1.82,-7.73z"/>
   <path class="fil15" d="M19128.04 3336.04c-194.44,31.87 -295.83,-21.45 -489.75,58.59l-10.51 -63.41c-13.28,145.61 -49.93,46.31 26.56,171.03 15.37,-37.76 -0.78,-11.68 40.07,-30 51.69,50.72 82.55,39.66 148.4,104.91 47.36,46.9 84.74,88.76 113.04,165.74 134.68,177.86 95.63,334.94 321.75,424.77 211.86,84.16 391.98,-17.77 482.64,-172 100.13,-170.36 24.18,-406.61 -112.43,-500.6 -162.63,-111.89 -337.19,-100.9 -519.77,-159.03z"/>
   <path class="fil16" d="M18963 6163.24c-26.21,-13.52 -5.38,-11.04 -48.87,-16.42 -25.41,-3.14 -38.53,3.12 -62.33,6.81 -5.77,85.2 -42.15,139.99 -91.55,200.6 -52.24,64.1 -121,101.29 -161.94,150.99 -6.05,101.22 -26.75,89.34 -148.26,110.74 -29.29,3.2 -39.59,-4.88 -95.82,60.99 -274.8,321.93 38.7,770.08 437.09,613.68 329.24,-129.26 309.51,-770.52 171.67,-1127.38z"/>
   <path class="fil17" d="M15621.04 3261.97c220.48,-68.96 286.29,120.21 191.6,229.24 -38.3,44.12 -119.51,70.52 -184.63,44.36 -69.2,-27.81 -78.21,-83.35 -91.36,-175.14 -46.33,22.77 -73.98,26.8 -100.26,177.31 -51.05,292.42 148.04,566 135.79,750.25 80.21,26.95 91.89,39.06 129.79,129.72l28.63 -51.99 6.48 112.29c67.61,31.22 1.82,-39.78 71.71,52.56 20.16,26.61 21.81,34.75 33.69,82.11l63.41 -10.39c-21.34,-76.68 -150.41,-167.7 -39.83,-420.25 24.17,-55.17 24.61,-81.34 83.51,-107.87 17.5,93.64 62.54,143.46 148.45,123.25 98.91,-23.27 74.12,-89.6 55.99,-200.18 -75.03,-34.19 -20.5,-32.3 -112.63,-24.95 9.99,-101.21 90.95,-148.48 125.29,-245.7 34.91,-98.84 29.25,-209.23 -24.07,-310.28 -80.35,-152.27 -327.61,-243.04 -477.49,-181.53 -49.36,20.26 -17.53,1.32 -44.06,27.18z"/>
   <path class="fil18" d="M19409.62 5541.31c-92.64,-63.67 -78.06,-122.62 -183.82,-84.03 -21.45,-86.89 48.81,-39.95 -160.42,-165.08 -79.03,-47.27 -146.1,-93.86 -247.06,-102.89 -57.38,89.38 -190.97,255.98 -317.82,311.5 24.39,-110.57 64.4,-121.32 46.89,-267.93l-36.41 25.18c23.59,121.57 -24.67,197.7 -62.45,273.21 202.8,184.13 342.6,215.36 310.65,587.58l5.48 33.5c47.02,-5.94 60.16,-2.66 87.14,1.28 23.8,-3.69 36.92,-9.95 62.33,-6.81 43.49,5.38 22.66,2.9 48.87,16.42 170.31,-71.37 237.54,-62.41 341.06,-201.66 41.9,-56.39 70.1,-88.3 91.93,-157.77 20.28,-64.56 16,-135.26 35.38,-194.89l-21.76 -67.61z"/>
   <path class="fil19" d="M14330.19 8008.05c-27.8,-15.44 13.52,-8.23 -43.99,-10.21 -632.94,-21.78 -698.78,795 -176.75,896.82 142.49,27.8 275.27,8.07 393.18,-97.02l39.15 -42.85c-71.37,-105.78 -71.82,-417.76 -126.71,-600.15 -0.82,-2.73 -29.9,-84.2 -30.26,-84.89l-41.47 -51.3c3.73,-2.88 -8.7,-7.01 -13.14,-10.4z"/>
   <path class="fil20" d="M18918.21 4846.49c-11.79,-74.26 -23.48,-100.72 -69.23,-135.45 -31.23,-23.71 -92.41,-46.37 -135.4,-46.8 -156.29,-1.58 -207.06,71.19 -255.14,149.08 -14.21,-86.65 -2.07,-55.7 -41.82,-123.37 -68.75,-89.1 -228.12,-65.37 -172.22,93.35 2.7,67.19 13.42,74.3 34.19,124.63l-56.47 9.26c39.7,70.5 31.31,94.73 13.37,144.71 -71.41,198.81 -179.3,159.31 -243.05,297.59 115.79,22.86 137.52,82.23 271.25,28.79 75.52,-30.17 170.07,-94.8 247.3,-130.23 -17.85,-89.34 -36.35,-126.24 -74.38,-180.67 67.56,6.67 41.08,-8.52 75.9,50.25 7.24,12.24 29.5,80.66 34.89,105.24 17.51,146.62 -22.5,157.36 -46.89,267.93 126.85,-55.53 260.44,-222.13 317.82,-311.5 100.96,9.02 168.03,55.62 247.06,102.89 209.23,125.13 138.98,78.2 160.42,165.08 105.76,-38.59 91.18,20.36 183.82,84.03 -135.73,-486.48 -425.3,-378.94 -534.92,-454.98 16.43,-73.98 51.2,-131.65 43.51,-239.84z"/>
   <path class="fil13" d="M17812.21 4181.58l22.38 -28.83c-36.73,-210.74 97.14,-450.1 203.19,-536.92 87.27,-71.45 164.75,-110.15 289.04,-133.8 152.04,-28.94 200.3,10.78 327.52,20.23 -76.49,-124.72 -39.85,-25.42 -26.56,-171.03 -52.18,-71.96 -61.75,-104.65 -111.49,-156.46 -132.74,-138.32 -345.51,-199.18 -540.69,-107.07 -115.81,54.66 -200.21,142.56 -244.67,253.29 -37.01,92.17 -18.23,91.43 -30.07,185.64 -14.72,117.11 -10.77,32.97 -144.1,43.59 -51.76,113.59 -102.12,135.96 55.79,207.92 62.17,-25.66 75.85,-46.21 116.44,-84.21 51.95,316.92 47.74,65.23 83.22,507.65z"/>
   <path class="fil21" d="M16998.18 4644.8l-37.65 23.37c-8.79,34.03 -15.94,94.56 -23.19,135.47l-82.39 26.68c-279.8,83.99 -83.44,476.31 -433.41,534.05 -0.19,2.64 4.08,6.68 1.82,7.73l74.37 74.78c3.53,2.67 10.06,7.47 15.25,10.98 142.16,74.94 389.27,128.75 405.14,-109.83l42.27 -6.93c10.71,75.87 15.49,72.1 -28.51,128.72 -2.59,3.32 -7.78,8.39 -10.27,11.28l-21.52 21.84c112.69,-28.24 320.67,-163.92 353.42,-325.54 31.77,-156.86 97.35,-130.6 95.44,-247.3l24.63 -57.24 -66.86 -0.96c-30.85,-143.95 -74.07,-256.15 -207.67,-273.85 -66.66,14.34 -64.53,15.35 -100.88,46.76z"/>
   <path class="fil22" d="M14803.08 5542.81c-78.64,-254.02 204.03,-404.97 445.76,-446.52 -51.14,-47.75 -100.93,-86.64 -156.24,-140.65 -434.06,-423.9 -867.36,25.04 -665.47,409.18 7.31,13.91 44.38,78.96 48.14,82.71l81.85 44.09c83.14,44.68 120.19,69.04 245.96,51.19z"/>
   <path class="fil23" d="M14330.19 8008.05c4.44,3.39 16.88,7.53 13.14,10.4l41.47 51.3c0.37,0.69 29.44,82.16 30.26,84.89 54.89,182.4 55.34,494.38 126.71,600.15 204.06,-86.41 649.15,-753.23 665.49,-999.07 -85.46,64.86 -233.07,179.56 -356.6,210.09 -285.18,70.45 -356.65,15.37 -520.47,42.23z"/>
   <path class="fil24" d="M17834.6 4152.75c199.55,-77.92 431.89,-303.53 678.53,-167.56 37.48,-154.12 124.55,-281.91 125.38,-460.37l15.83 -22.57c-127.21,-9.44 -175.47,-49.16 -327.52,-20.23 -124.29,23.65 -201.76,62.36 -289.04,133.8 -106.05,86.82 -239.92,326.18 -203.19,536.92z"/>
   <path class="fil0" d="M20496.78 2829.47c19.95,39.38 155.87,189.34 211.53,216.11 62.07,-48.33 631.96,-368.79 303.66,-670.77 -176.48,-162.35 -566.22,-77.81 -515.19,454.66z"/>
   <path class="fil20" d="M17748.61 4323.26c9.26,89.73 12.29,138.27 -64.71,139.03 -14.14,0.14 -59.37,-62.93 -122.2,79.35 -62.92,142.48 -1.16,226.6 -163.31,293.52 6.8,-68.77 19.31,-55.94 32.46,-144.53 89.33,-601.5 -321.75,-490.52 -423.66,-378.92 -99.97,109.45 -36.9,182.43 -9.01,333.09 36.35,-31.41 34.22,-32.41 100.88,-46.76 133.6,17.7 176.82,129.9 207.67,273.85l66.86 0.96 -24.63 57.24 260.48 0.61c145.06,-175.01 194.38,-384.72 230.24,-591.62l-91.04 -15.82z"/>
   <path class="fil25" d="M14095.43 5078.2c43.95,-2.81 87.88,-10.15 129.32,-12.7 21.7,-1.34 40.61,-2.67 62.26,-1.07 57.2,4.24 29.88,0.82 57.14,10.95 37.16,-183.49 135.01,-124.48 125.67,-441.59 -12.43,-422.21 23.83,-236.57 130.67,-446.98 -245.58,40.26 -703.16,335.44 -640.66,602.98 28.44,121.68 118.43,194.95 230.02,202.37 -27.61,33.28 -6.59,9.73 -44.12,43.41 -20.28,18.22 -32.8,26.07 -50.31,42.64z"/>
   <path class="fil14" d="M15156.68 4269.28l63.42 -10.39 -10.39 -63.42c-81.5,20.42 -66.31,-2.27 -74.16,77.27 -182.34,-83.08 -179.93,-100.74 -443.56,-57.51 -179.71,29.45 -237.53,446.56 47.19,479.85 81.28,9.5 98.66,-10.51 173.25,-22.04 78.94,-12.22 201.72,131.21 162.48,-108.16 254.86,-105.17 105.4,-80.67 380.49,-62.38 -56.68,-74.69 -57.94,-70.83 -134.05,-124.94 -52.15,-37.07 -131.44,-75.67 -164.66,-108.28z"/>
   <path class="fil26" d="M17256.31 3968.48c-27.63,-14.02 -449.02,-499.15 -632.36,-118.56 -48.4,100.47 -14.41,230.38 -11.76,237.01 59.2,148.37 269.56,118.32 397.05,95.7 292.91,-51.94 218.13,-19 401.28,64.46 -18.98,-101.6 -50.89,-104.15 -61.2,-178.47 -8.5,-61.2 -13.5,-144.77 -25.78,-219.71l-84.56 13.86 17.32 105.7z"/>
   <path class="fil25" d="M15291.83 6417.78l81.31 280.29c47.84,106.95 270.55,400.03 438.14,372.57 348.65,-57.16 267.71,-423 93.62,-493.83 -194.62,-79.19 -288.27,85.31 -566.68,-119.79 -3.51,-2.58 -8.66,-6.73 -11.96,-9.31l-34.44 -29.93z"/>
   <path class="fil11" d="M15467.16 2720.63c-229.68,37.65 -287.24,260.84 -195.86,402.48 30.45,47.19 28.45,37.13 66.96,62.56 188.41,124.45 283.73,-20.15 473.33,-11.66 156.64,7.01 124.28,67.91 238.79,58.79 -47.49,-189.51 -394.55,-543.11 -583.22,-512.17z"/>
   <path class="fil27" d="M19469.27 6080.25l-21.14 3.46c48.86,298.03 329.79,1291.74 701.03,1230.88 113.54,-18.62 176.14,-117.31 155.59,-242.57 -23.22,-141.65 -146.32,-144.25 -246.54,-176.02 -103.21,-32.71 -193.39,-99.57 -267.2,-173.24 -104.35,-104.13 -288.48,-439.69 -321.74,-642.51z"/>
   <path class="fil6" d="M14095.43 5078.2c-264.52,235.95 -347.57,521.82 -61.6,624.81 170.46,61.38 377.46,-60.75 317.6,-389.62 -18.4,-101.11 -46,-164.43 -7.27,-238.01 -27.26,-10.13 0.07,-6.72 -57.14,-10.95 -21.65,-1.6 -40.57,-0.26 -62.26,1.07 -41.44,2.55 -85.38,9.89 -129.32,12.7z"/>
   <path class="fil8" d="M17060.21 5932.51c58.95,171.97 143.65,236.93 355.86,202.14l38.81 -28.07 13.34 -23.89c226.33,-415.64 -316.35,-498.33 -689.06,-401.75 160.41,87.64 181.34,50.19 281.06,251.57z"/>
   <path class="fil0" d="M20875.49 1682.06c-396.47,64.99 -267.95,543.18 79.7,486.19 294.84,-48.34 193.4,-530.96 -79.7,-486.19z"/>
   <path class="fil28" d="M17866.56 8882.65c57.99,353.71 539.23,243.86 489.65,-58.56 -22.78,-139.01 -157.03,-221.21 -275.42,-208.69 -126.54,13.41 -236.36,132.28 -214.24,267.25z"/>
   <path class="fil29" d="M12895.9 5573.28c83.8,-13.74 390.64,15.01 472.33,-164.26 -279.16,115.2 -223.49,-237.7 -479.72,-243.99 -167.94,-4.12 -348.67,246.28 -48.18,381.77l55.57 26.47z"/>
   <path class="fil18" d="M15491.42 1544.5c-275.19,45.11 -176.8,610.82 5.21,693.76 -22.86,-54.46 -27.67,-36.39 -35,-81.09 -24.79,-151.24 286.84,-236.48 251.24,-453.62 -17.13,-104.47 -116.96,-176.18 -221.44,-159.05z"/>
   <path class="fil30" d="M19660.25 4861.89c134.2,34.7 144.85,96.98 332.76,43.67 168.53,-176.11 24.39,-476.17 -441.78,-258.38 -89.83,41.96 -147.07,94.63 -156.12,186.23 16.48,-15.43 95.7,-185.3 265.14,28.47z"/>
   <path class="fil20" d="M16854.94 4830.32l82.39 -26.68c7.25,-40.91 14.4,-101.44 23.19,-135.47l-131.92 -104.43c70.9,-133.65 18.28,29.51 78,-175.09l109.57 -163.73c-240.64,19.16 -213.09,-5.12 -405.45,175 20.19,123.18 7.86,95.81 70.01,162.18 -39.8,30.2 -45.3,37.54 -98.76,59.6 70.59,171.07 86.96,230.33 284.85,148.66 -9.44,15.98 -7.8,40.49 -11.88,59.96z"/>
   <path class="fil27" d="M18638.51 3524.82c-0.83,178.46 -87.9,306.25 -125.38,460.37 42.94,42.92 60.69,53.28 95.04,127.14 20.21,179.47 25.24,86.6 72.29,116.97 27.63,-86.42 79.66,-139.2 123.57,-231.37 34.81,-73.08 92.39,-157.98 109.37,-235.99l-120.12 -141.73c-69.26,-72.91 -66.44,-65.04 -154.77,-95.39z"/>
   <path class="fil19" d="M13059.82 4851.8c-30.1,4.93 -177.31,41.68 -190.71,46.6 -50.44,18.5 -38.26,44.78 -130.18,114.55 -38.17,-204.24 -213.57,-173.01 -359,-71.39 20.12,122.79 37.76,206.49 123.12,245.95 120.17,55.55 164.26,-26.3 228.6,-86.54 18.99,31.25 -11.42,45.28 133.76,21.48 91.39,-200.54 148.2,-179.64 194.41,-270.64z"/>
   <path class="fil22" d="M14259.51 3960.51c-195.97,32.13 -22.27,-25.87 -194.11,45.62 -144.81,60.24 -327.71,54.34 -449.47,-32.39 -96.33,-68.64 -55.69,-72.25 -208.54,-47.19 -61.77,100.4 -51.49,49.12 -28.77,221.78 174.15,79.35 279.56,56.07 443.44,1.74 129.9,-43.07 306.5,-86.74 413.49,-169.48l23.96 -20.09z"/>
   <path class="fil31" d="M17594.53 3913.04c-33.46,-133.53 -137.32,-231.06 -154.31,-407.7 -19.71,-205.09 98.91,-195.08 61.44,-423.63 -49.28,-22.46 -95.79,-63.84 -169.02,-30.17 -52.05,23.94 -43.9,44.33 -85.49,89.74 -26.06,28.45 -9.01,11.88 -34.49,31.22 43.91,97.44 32.16,7.13 66.75,140.73 62.55,241.5 56.25,153.7 119.26,303.63 52.01,123.76 -12.71,7.35 -0.97,154.78 110.93,25.89 22.92,-89.15 144.69,83.48 25.19,35.71 21.6,32.54 52.15,57.9z"/>
   <path class="fil0" d="M19023.23 4286.3c19.4,118.41 66.01,221.41 144.57,266.79 137.86,79.65 213.61,-39.72 274.08,-96.35l-28.28 -172.54c-101.07,-22.04 -274.51,-29.17 -390.37,2.1z"/>
   <path class="fil27" d="M19593.67 8295.62l-17.9 154.99c0.34,75.33 -1.05,93.83 -17.85,155.03 -63.34,230.69 -98.44,210.01 -22.46,394.14 127.94,9.28 229.69,-4.68 186.46,-313.88 -17.07,-122.1 -99.92,-277.22 -128.25,-390.28z"/>
   <path class="fil18" d="M15833.79 1249.6c-110.52,18.11 -185.68,58.96 -162.51,200.29 37.42,228.32 369.77,137.11 338.2,-55.45 -10.45,-63.75 -113.91,-154.98 -175.69,-144.85z"/>
   <path class="fil32" d="M20094.27 4914.16c-78.84,350.72 295.29,316.62 275.21,85.13 -7.71,-189.2 -195.45,-207.55 -275.21,-85.13z"/>
   <path class="fil33" d="M15621.04 3261.97c-67.83,26.8 -70.48,42.6 -84.4,98.46 13.16,91.8 22.17,147.33 91.36,175.14 65.12,26.16 146.33,-0.24 184.63,-44.36 94.69,-109.03 28.88,-298.2 -191.6,-229.24z"/>
   <path class="fil22" d="M15536.13 3273.69c-135.26,10.77 -146.82,-45.16 -229.5,-72.44 -222,-73.22 -236.54,320.5 29,229.01 100.16,-34.51 166.51,-81.96 200.51,-156.57z"/>
   <path class="fil34" d="M14512.49 5503.62l-63.43 10.4c-17.96,-109.61 5.41,-85.14 -63.06,-119.9 16.96,103.47 27.51,103.89 -9.26,179.84 -76.89,158.82 -111.67,117.89 15.15,253.33l126.84 -20.8c81.9,-133.11 43.97,-119.1 -6.24,-302.87z"/>
   <path class="fil19" d="M13566.45 5029.23c-51.38,8.42 -80.86,43.58 -96.16,80.11 -47.1,112.34 -11.79,268.31 133.93,282.7 -25.87,-183.3 94,-88.66 60.64,-292.13 -12.64,-77.12 7.71,-18.24 -38.98,-49.58 -6.13,-4.1 -55.89,-21.69 -59.43,-21.1z"/>
   <path class="fil35" d="M15844.54 2506.81c31.39,-68.88 35.39,-48.98 18.02,-154.9 -130.33,-59.39 -97.78,-49.08 -285.2,-18.36 -33.04,72.53 -55.51,57.33 -63.76,140.69l46.65 -12.79c35.27,-5.89 -7.72,-9.07 38.19,-1.9 147.79,23.08 30.64,82.58 246.1,47.26z"/>
   <path class="fil25" d="M16971.47 7792.11c-33.38,-74.05 -75.98,-72.46 -143.02,-242.26 -53.63,-135.82 -67.27,-190.68 -201.09,-135.46 26.31,160.49 45.12,158.46 125.76,240.33 36.35,36.9 49.92,44.27 94.14,76.63 57.84,42.36 51.77,53.61 124.21,60.76z"/>
   <path class="fil26" d="M16583 2906.72c-23.34,-93.21 -126.26,-238.98 -185.23,-287.35 -41.91,-34.38 -63.22,-35.53 -127.34,-30.42 -65.94,114.31 -8.83,121.32 61.18,174.45l251.39 143.33z"/>
   <path class="fil27" d="M20049.37 9089.18c-57.09,9.36 -56.63,19.65 -102.24,38.46 -4.27,58.92 -14.61,43.32 -7.27,88.02 21.12,128.8 144.07,78.15 204.11,53.37 1.79,-26.88 37.49,-201.5 -94.6,-179.85z"/>
   <path class="fil0" d="M21493.02 1211.82c-57.1,9.35 -56.63,19.64 -102.24,38.46 -4.27,58.91 -14.61,43.31 -7.27,88.02 21.12,128.79 144.07,78.14 204.11,53.37 1.79,-26.88 37.49,-201.51 -94.6,-179.85z"/>
   <path class="fil27" d="M20220.55 8279.67c-124.16,20.36 -121.41,236.97 55.8,207.92 99.48,-16.31 67.93,-115.27 56.83,-182.97 -29.01,-9.74 -76.83,-30.82 -112.63,-24.95z"/>
   <path class="fil26" d="M17122.91 6464.9c-166.4,27.27 -131.75,238.66 34.65,211.38 116.29,-19.06 81.64,-230.45 -34.65,-211.38z"/>
   <path class="fil0" d="M20866.82 967.17c-161.26,26.43 -104.82,152.86 -49.9,225.25 310.53,-50.91 81.2,-230.38 49.9,-225.25z"/>
   <path class="fil27" d="M19926.34 2380.33c-120.83,19.81 -94.06,88.29 -77.97,186.44 111.93,37.61 92.43,43.04 190.24,-31.19 -11.09,-67.7 -12.78,-171.56 -112.27,-155.25z"/>
   <path class="fil4" d="M22444.59 925.58c-147.38,24.17 -112.73,235.55 34.65,211.38 116.31,-19.06 81.64,-230.44 -34.65,-211.38z"/>
   <path class="fil8" d="M15996.67 6215.4c-153.82,116.74 -13.65,197.6 10.05,193.71 90.2,-14.79 167.94,-133.9 -10.05,-193.71z"/>
   <path class="fil36" d="M11241.91 5149.81l70.34 31.89c27.58,99.06 -23.14,40.42 77.28,74.16 29.28,-27.43 58.83,-38.43 49.55,-94.95 -17.96,-109.59 -109.35,-27.51 -197.17,-11.1z"/>
   <path class="fil37" d="M20775.35 4911.05c-94.5,15.49 -135.73,94.21 24.27,147.96 72.45,-87.29 60.08,-30.71 49.54,-94.94 -7.98,-48.72 -25.1,-61.01 -73.81,-53.03z"/>
   <path class="fil38" d="M15884.4 763.75c-120.13,19.7 -64.9,162.59 3.12,151.45 120.11,-19.7 64.89,-162.59 -3.12,-151.45z"/>
   <path class="fil5" d="M11999.77 4873.63c-120.12,19.69 -64.89,162.58 3.12,151.43 120.12,-19.69 64.89,-162.58 -3.12,-151.43z"/>
   <path class="fil25" d="M12821.05 4587.05c25.43,-55.81 21.97,-26.21 28.41,-91.49 -46.39,-45.53 -36.23,-40.77 -116.09,-46.08 -41.11,90.23 -73.24,160.29 87.67,137.57z"/>
   <path class="fil39" d="M16331.43 6138.81c-75.28,12.35 -74.63,63.7 -63.76,140.7 109.08,7.91 58.46,35.15 144.49,-45.4 -14.72,-35.7 -40.31,-101.93 -80.73,-95.3z"/>
   <path class="fil25" d="M15941.23 8525.37c-100.71,16.51 -44.87,159.31 3.13,151.45 48.41,-7.94 23.4,-11.2 81.09,-35 -12.05,-73.5 -7.86,-128.96 -84.21,-116.44z"/>
   <path class="fil25" d="M15533.71 8158.06c-83.03,34.26 -82.41,33.39 -88.36,123.02 190.78,86.93 169.57,-63.33 88.36,-123.02z"/>
   <path class="fil22" d="M17118.4 2862.36c-121.47,19.91 -100.68,146.74 20.79,126.82 89.56,-14.69 68.77,-141.51 -20.79,-126.82z"/>
   <path class="fil40" d="M15611.32 157.33c-76.35,12.52 -54.67,63.74 -42.62,137.23 85.89,5.71 47.26,12.05 126.84,-20.79 -12.05,-73.5 -7.87,-128.96 -84.21,-116.44z"/>
   <path class="fil41" d="M15947.8 2077.47c-76.35,12.52 -54.67,63.73 -42.62,137.22 64.26,4.28 131.65,8.61 116.44,-84.2 -7.98,-48.71 -25.11,-61.01 -73.82,-53.01z"/>
   <path class="fil7" d="M16207.71 1014.65c12.05,73.5 7.86,128.95 84.2,116.43 48.71,-7.98 61,-25.1 53.01,-73.8 -15.21,-92.83 -77.68,-67.2 -137.22,-42.63z"/>
   <path class="fil42" d="M15782.52 1996.03c-92.83,15.21 -67.2,77.69 -42.63,137.23 73.5,-12.05 128.96,-7.86 116.44,-84.21 -7.98,-48.7 -25.11,-61 -73.81,-53.01z"/>
   <path class="fil5" d="M12166.11 4564.17c7.94,48.42 11.19,23.41 35,81.1 92.45,-17.28 133.68,-44.62 96.74,-106.92 -54.89,-92.61 -136.79,-4.93 -131.75,25.82z"/>
   <path class="fil27" d="M19284.23 9453.38c-77.36,12.69 -129.83,151.53 20.8,126.84 117.82,-19.32 22.93,-134.01 -20.8,-126.84z"/>
   <path class="fil25" d="M16281.18 3846.16c9.83,59.98 157.84,168.41 119.89,-63.08 -0.67,-0.05 -133.9,-22.41 -119.89,63.08z"/>
   <path class="fil26" d="M16345.28 2251.07c-63.82,10.46 -129.94,151.55 84.21,116.44 -14.05,-85.64 -9.07,-128.75 -84.21,-116.44z"/>
   <path class="fil31" d="M16820.03 2498.85c-63.82,10.46 -129.94,151.54 84.2,116.43 -14.04,-85.64 -9.04,-128.75 -84.2,-116.43z"/>
   <path class="fil25" d="M16541.43 9273.54c-89.56,14.69 -68.76,141.51 20.79,126.84 89.57,-14.69 68.77,-141.52 -20.79,-126.84z"/>
   <path class="fil25" d="M11719.78 5549.03c-89.56,14.68 -68.76,141.51 20.79,126.82 89.57,-14.68 68.77,-141.51 -20.79,-126.82z"/>
   <path class="fil43" d="M13200.16 5045.85c-89.56,14.69 -68.77,141.51 20.79,126.84 89.56,-14.69 68.77,-141.51 -20.79,-126.84z"/>
   <path class="fil27" d="M18774.47 2504.04c-37.56,78.78 -63.82,94.73 45.4,144.5 111.93,-104.83 34.65,-119.94 -45.4,-144.5z"/>
   <path class="fil41" d="M13302.73 4877.09c-66.1,10.84 -53.66,47.76 -70.69,98.41l122.11 13.11c27.83,-56.61 40.1,-126.53 -51.41,-111.52z"/>
   <path class="fil27" d="M20452.03 2011.96l-42.28 6.93c-32,87.83 -10.02,131.88 84.2,116.43 29.25,-80.26 -4.69,-129.46 -41.92,-123.36z"/>
   <path class="fil40" d="M16296.77 4603.33c11.45,143.85 -47.14,35.64 -35.69,179.49 84.27,-21.1 57.52,7.83 79.62,-73.34 8.57,-31.44 16.69,-74.51 19.48,-116.56l-63.42 10.4z"/>
   <polygon class="fil27" points="20111.38,1655.38 20128.72,1761.08 20234.41,1743.75 20217.08,1638.05 "/>
   <path class="fil44" d="M16410.14 4495.26c-32.4,90.56 -10.4,134.6 83.81,119.16 17.71,-60.53 15.58,-25.79 3.8,-109.16l-87.62 -10z"/>
   <path class="fil27" d="M19496.99 2277.06c-3.93,85.01 -13.54,26.38 17.32,105.7 106.59,-19.93 105.57,-18.08 91.83,-101.89 -54.86,-16.06 -30.96,-16.62 -109.16,-3.8z"/>
   <path class="fil3" d="M21868.3 1779.78l17.32 105.7 105.7 -17.32c-19.02,-101.77 -18.63,-105.48 -123.02,-88.37z"/>
   <path class="fil3" d="M21544.29 465.39l6.93 42.27c60.53,17.74 25.79,15.58 109.16,3.81l-17.32 -105.7c-46.42,8.69 -106.75,10.87 -98.76,59.61z"/>
   <path class="fil45" d="M18818.48 1845.63c-179.48,29.42 74.87,191.89 52.67,56.49 -5.66,-34.6 -23.05,-61.35 -52.67,-56.49z"/>
   <path class="fil0" d="M20850.9 9608.98l37.45 79.84c87.58,-21.31 78.06,-24.21 64.78,-118.3 -73.39,13.72 -57.06,6.02 -102.22,38.46z"/>
   <path class="fil27" d="M19636.31 9482.5c31.5,69.88 22.13,63.15 98.41,70.69 17.72,-60.53 15.58,-25.79 3.81,-109.16 -73.39,13.72 -57.06,6.02 -102.22,38.46z"/>
   <path class="fil27" d="M19397.54 2597.26c-53.17,-32.75 -96.38,41.4 -53.38,75.26 22.61,17.79 36.25,37.81 69.14,-7.34 36.95,-50.74 5.69,-54.7 -15.76,-67.92z"/>
   <path class="fil25" d="M16277.36 3955.32c-17.08,13.66 -40.03,20.69 -35.35,49.21 10.47,63.91 34.46,54.37 94.95,49.55 -10.5,-56.15 -9.12,-98.42 -59.6,-98.76z"/>
   <polygon class="fil4" points="22241.87,351.03 22255.73,435.59 22340.29,421.72 22326.42,337.18 "/>
   <polygon class="fil25" points="16538.65,3695.42 16552.5,3779.97 16637.06,3766.11 16623.2,3681.56 "/>
   <path class="fil46" d="M16332.13 5878.22c66.12,-29.81 158.97,-120.19 21.47,-133.76 -4.52,68.11 -16.95,65.64 -21.47,133.76z"/>
   <path class="fil27" d="M19929.46 1207.66c-96.02,76.76 13.7,103.85 17.32,105.7 78,-62.36 10.4,-105.51 -17.32,-105.7z"/>
   <path class="fil25" d="M16156.42 3085.17c19.22,76.72 19.57,76.97 98.42,70.69l-13.86 -84.55 -84.56 13.85z"/>
   <path class="fil25" d="M17011.66 3270.57l13.86 84.56c76.71,-19.22 76.96,-19.59 70.69,-98.42l-84.56 13.86z"/>
   <path class="fil0" d="M21353.01 2211.57l84.56 -13.86 -13.86 -84.56c-76.71,19.22 -76.97,19.59 -70.69,98.42z"/>
   <path class="fil27" d="M19944.7 2095.13c19.22,76.71 19.59,76.96 98.42,70.69l-13.86 -84.56 -84.56 13.86z"/>
   <path class="fil40" d="M17541.51 3986.85l13.85 84.56c96.83,-24.27 40.69,16.61 77.62,-56.14 -48.48,-47.58 0.39,-43.48 -91.48,-28.41z"/>
   <path class="fil26" d="M15844.54 2506.81c-20.67,74.51 -16.91,81.67 77.28,74.16l-13.86 -84.56 -63.42 10.39z"/>
   <path class="fil45" d="M20188.68 9674.12c-57.15,58.24 -36.34,-8.03 -28.41,91.49l84.55 -13.86c-12.28,-49.03 -10.37,-77.3 -56.13,-77.62z"/>
   <path class="fil36" d="M17287.5 6806.93c58.24,57.15 -8.02,36.34 91.49,28.41l-13.85 -84.56c-93.15,23.34 -42.91,-16.71 -77.64,56.14z"/>
   <path class="fil25" d="M16508.5 8410.68c-25.86,20.67 -21.47,15.38 -59.95,31.53l10.39 63.42 84.56 -13.86c-8.61,-34.09 -10.7,-65.75 -35,-81.09z"/>
   <path class="fil47" d="M16234.03 380.85c24.27,96.83 -16.61,40.68 56.14,77.61l40.27 -45.67c-53.4,-51.12 -4.53,-47.01 -96.41,-31.94z"/>
   <path class="fil45" d="M18883.29 9258.63c24.27,96.83 -16.61,40.69 56.14,77.62l40.27 -45.67c-53.41,-51.12 -4.55,-47.01 -96.41,-31.95z"/>
   <path class="fil25" d="M12554.58 5477.28c24.26,96.83 -16.62,40.69 56.13,77.62l40.27 -45.67c-53.4,-51.12 -4.55,-47.01 -96.4,-31.95z"/>
   <polygon class="fil48" points="12821.05,4587.05 12834.92,4671.61 12898.33,4661.2 12884.47,4576.66 "/>
   <path class="fil48" d="M16244.78 1638.07l-40.27 45.67c63.15,60.68 -3.11,39.87 96.41,31.94 -12.28,-49.03 -10.37,-77.32 -56.14,-77.61z"/>
   <path class="fil10" d="M14636.53 3877l-40.27 45.68c63.15,60.68 -3.11,39.87 96.41,31.94 -12.29,-49.02 -10.38,-77.3 -56.14,-77.62z"/>
   <path class="fil40" d="M16986.37 6161.69l45.67 40.27c60.69,-63.15 39.88,3.11 31.95,-96.41 -93.15,23.34 -42.9,-16.71 -77.62,56.14z"/>
   <path class="fil45" d="M19501.23 9956.13c-60.68,63.15 -39.87,-3.11 -31.94,96.4 96.82,-24.26 40.68,16.62 77.61,-56.13l-45.67 -40.27z"/>
   <path class="fil40" d="M11560.37 4576.66c46.02,-11.53 121.52,-33.42 59.15,-78.23 -25.28,-18.17 -31.22,-11.57 -47.42,8.79 -31.45,39.55 -15.85,-7.56 -11.73,69.44z"/>
   <path class="fil7" d="M19189.62 6625.33l-58.29 70.03 73.58 39.15c2.31,-3.94 16.71,-46.38 16.24,-49.22 -4.04,-24.67 -24.61,-55.95 -31.53,-59.96z"/>
   <path class="fil10" d="M14460.16 3992.74c-65.05,36.37 -19.85,-24.91 -53.03,73.82 41.68,12.79 29.11,11.97 88.02,7.27 -8.61,-34.1 -10.7,-65.76 -34.99,-81.1z"/>
   <path class="fil49" d="M16043.46 9811.02l84.55 -13.86 -10.39 -63.42c-81.5,20.42 -66.3,-2.26 -74.15,77.28z"/>
   <path class="fil30" d="M21200.54 5253.76l13.86 84.56c72.87,-32.85 56.22,-11.19 49.55,-94.95l-63.42 10.39z"/>
   <path class="fil50" d="M11963.05 5444.03c47.66,-26.64 29.96,31.86 45.53,-43.58 5.38,-26.03 10.48,-31.93 -23.7,-38.61 -74.5,-14.56 -39.69,55.86 -21.84,82.19z"/>
   <path class="fil35" d="M13493.33 4715.61c-26.64,-47.66 31.86,-29.94 -43.58,-45.53 -26.03,-5.38 -31.93,-10.48 -38.61,23.7 -14.56,74.5 55.86,39.69 82.19,21.84z"/>
   <path class="fil6" d="M13955.26 4487.94l-58.3 70.02c46.97,16.58 34.39,15.76 93.29,11.07 -8.61,-34.1 -10.7,-65.75 -34.99,-81.09z"/>
   <polygon class="fil51" points="16193.91,2228.14 16150.12,2278.73 16200.71,2322.53 16244.51,2271.93 "/>
   <polygon class="fil46" points="15491.16,6945.13 15447.35,6995.72 15497.95,7039.52 15541.75,6988.92 "/>
   <polygon class="fil49" points="15654.38,9132.44 15610.57,9183.03 15661.17,9226.83 15704.96,9176.23 "/>
   <polygon class="fil47" points="15437.09,789.33 15393.29,839.93 15443.88,883.72 15487.68,833.13 "/>
   <path class="fil52" d="M13756.69 4998.04c24.26,96.83 -16.62,40.68 56.13,77.61 12.8,-41.68 11.98,-29.1 7.29,-88.02l-63.42 10.4z"/>
   <path class="fil52" d="M15861.87 2612.5c24.27,96.83 -16.61,40.69 56.14,77.62 12.79,-41.68 11.97,-29.11 7.27,-88.02l-63.42 10.39z"/>
   <path class="fil48" d="M15903.11 1672.36c24.26,96.83 -16.61,40.69 56.14,77.62 12.79,-41.68 11.96,-29.11 7.27,-88.02l-63.42 10.39z"/>
   <path class="fil49" d="M16222.61 8652.9l84.56 -13.86c-40.19,-89.17 -74.94,-83.47 -84.56,13.86z"/>
   <polygon class="fil53" points="16382.71,4068.29 16393.11,4131.71 16456.52,4121.31 16446.12,4057.88 "/>
   <polygon class="fil27" points="20485.65,9234.72 20496.05,9298.14 20559.46,9287.74 20549.07,9224.33 "/>
   <polygon class="fil47" points="12421.15,5325.51 12357.75,5335.9 12368.14,5399.32 12431.56,5388.92 "/>
   <path class="fil54" d="M15978.3 1204.2l10.4 63.42 63.42 -10.4c-20.81,-46.15 -14.95,-61.01 -73.82,-53.01z"/>
   <path class="fil55" d="M15460.59 1223.95l10.39 63.42 63.42 -10.39c-20.81,-46.16 -14.95,-61.01 -73.81,-53.03z"/>
   <path class="fil56" d="M16491.17 1684.49l10.4 63.42 63.41 -10.39c-20.8,-46.15 -14.93,-61.01 -73.81,-53.03z"/>
   <path class="fil57" d="M16042.07 2387.6l63.41 -10.39 -10.39 -63.41c-58.94,26.56 -48.24,8.1 -53.01,73.8z"/>
   <path class="fil40" d="M11154.94 4751.65c27.44,60.89 7.34,46.46 73.81,53.03l-10.4 -63.42 -63.41 10.39z"/>
   <path class="fil58" d="M19325.11 5995.35l10.39 63.42c60.91,-27.45 46.46,-7.35 53.03,-73.81l-63.42 10.39z"/>
   <path class="fil25" d="M15871.57 4260.61c-11.33,31.11 -7.72,25.26 -10.74,66.89l63.41 -10.4c-14.95,-35.61 -11.93,-56.21 -52.67,-56.49z"/>
   <path class="fil52" d="M16098.2 2465.22c-11.33,31.11 -7.71,25.26 -10.74,66.89l63.42 -10.39c-14.95,-35.62 -11.95,-56.22 -52.68,-56.5z"/>
   <path class="fil49" d="M16576.08 8160.82c-11.33,31.11 -7.72,25.26 -10.75,66.89l63.43 -10.4c-14.95,-35.61 -11.95,-56.2 -52.68,-56.49z"/>
   <path class="fil41" d="M16096.12 1922.9c-11.33,31.11 -7.72,25.26 -10.74,66.88l63.41 -10.39c-14.95,-35.61 -11.93,-56.2 -52.67,-56.49z"/>
   <path class="fil52" d="M13634.01 4779.37l10.39 63.42c59.39,-24.92 30.9,-2.27 56.5,-52.67 -28.16,-10.26 -26.08,-17.43 -66.89,-10.75z"/>
   <path class="fil17" d="M11817.15 4686.51l10.4 63.41c59.37,-24.92 30.89,-2.27 56.47,-52.67 -28.15,-10.26 -26.07,-17.43 -66.88,-10.74z"/>
   <path class="fil59" d="M20297.14 4642.14l10.39 63.41c59.37,-24.92 30.89,-2.27 56.49,-52.67 -28.16,-10.26 -26.07,-17.43 -66.88,-10.74z"/>
   <path class="fil48" d="M12776 4312.25c31.11,11.33 25.27,7.72 66.89,10.75l-10.39 -63.43c-55.67,23.38 -34.33,-3.17 -56.5,52.68z"/>
   <path class="fil48" d="M16547.65 1631.82c31.11,11.34 25.26,7.72 66.89,10.75l-10.4 -63.42c-55.67,23.38 -34.33,-3.19 -56.49,52.67z"/>
   <path class="fil47" d="M15984.89 52.68c31.11,11.33 25.26,7.71 66.88,10.74l-10.39 -63.42c-55.67,23.38 -34.33,-3.17 -56.49,52.68z"/>
   <path class="fil40" d="M17059.83 3696.8c31.11,11.33 25.26,7.72 66.88,10.75l-10.39 -63.42c-55.67,23.37 -34.33,-3.19 -56.49,52.67z"/>
   <path class="fil56" d="M21528.71 5004.6c31.11,11.34 25.26,7.73 66.88,10.75l-10.39 -63.41c-55.66,23.37 -34.33,-3.19 -56.49,52.66z"/>
   <path class="fil41" d="M13119.76 4820.27c40.3,-39.07 27.33,-7.66 31.89,-70.35l-63.42 10.4c24.02,53.5 1.16,17.66 31.53,59.95z"/>
   <path class="fil54" d="M17228.94 6317.28c24.93,59.37 2.28,30.89 52.68,56.49 11.33,-31.11 7.71,-25.26 10.75,-66.88l-63.43 10.39z"/>
   <path class="fil49" d="M16049.36 8920.07c24.92,59.37 2.27,30.9 52.67,56.49 11.33,-31.11 7.72,-25.25 10.74,-66.88l-63.41 10.39z"/>
   <path class="fil52" d="M16703.94 2452.75c24.93,59.37 2.28,30.89 52.68,56.49 11.33,-31.11 7.71,-25.25 10.74,-66.88l-63.42 10.39z"/>
   <polygon class="fil56" points="16504.33,2029.64 16514.74,2093.06 16557.02,2086.12 16546.61,2022.71 "/>
   <polygon class="fil57" points="16756.28,6611.83 16766.67,6675.24 16808.95,6668.32 16798.55,6604.9 "/>
   <polygon class="fil54" points="15708.01,2203.61 15718.4,2267.01 15760.68,2260.08 15750.29,2196.67 "/>
   <path class="fil25" d="M12421.15 5325.51c59.15,-33.82 40.45,39.93 31.89,-70.34l-42.28 6.93 10.39 63.41z"/>
   <path class="fil54" d="M17664.53 6723.41c-59.13,33.82 -40.44,-39.93 -31.89,70.34l42.28 -6.92 -10.39 -63.42z"/>
   <path class="fil54" d="M15805.04 2795.48l6.93 42.27 63.42 -10.39c-30.04,-30.98 -11.15,-39.91 -70.35,-31.87z"/>
   <path class="fil54" d="M16131.13 2004c40.12,41.4 7.77,25.7 70.35,31.87l-6.93 -42.28 -63.42 10.4z"/>
   <path class="fil60" d="M17267.74 3641c-11.24,-8.07 -6.16,-49.82 -26,3.81 -8.55,23.1 4.74,52.58 30.71,22.06 33.61,-39.48 12.08,-13.82 -4.71,-25.88z"/>
   <path class="fil61" d="M15044.4 6762.23l-13.86 -84.56 -21.13 3.46c1.93,11.77 5.23,34.58 8.11,40.62 16.89,35.63 10.74,22.35 26.88,40.47z"/>
   <path class="fil62" d="M14259.51 3960.51l63.42 -10.39 -3.47 -21.14c-111.76,18.32 -31.49,5.31 -59.95,31.53z"/>
   <path class="fil49" d="M13059.82 4851.8c100.39,-16.46 40.17,-6.1 59.95,-31.53 -100.4,16.46 -40.17,6.1 -59.95,31.53z"/>
   <path class="fil25" d="M12895.9 5573.28c-49.4,22.17 -30.1,-4.69 -35.33,49.2 52.55,-23.57 24.86,3.97 35.33,-49.2z"/>
   <path class="fil46" d="M15122.03 6706.09c-18.15,25.27 42.95,71.48 15.43,22.65 -0.27,-0.48 14.24,-63.94 -15.43,-22.65z"/>
   <path class="fil38" d="M19174.72 6931.67c-18.15,25.27 42.96,71.48 15.43,22.65 -0.27,-0.48 14.24,-63.94 -15.43,-22.65z"/>
   <path class="fil63" d="M14946.34 3913.04c-18.16,25.27 42.95,71.48 15.42,22.65 -0.26,-0.48 14.24,-63.94 -15.42,-22.65z"/>
   <path class="fil25" d="M12247.89 5592.69c-58.02,-1.18 10.56,41.65 12.12,25.52 4.27,-44.24 21.01,-24.85 -12.12,-25.52z"/>
   <path class="fil64" d="M14343.37 4207.24c-24.85,4.08 -40.18,53.31 5.36,32.73 45.67,-20.64 9.4,53.68 4.67,-10.79 -1.98,-27.01 32.95,-28.97 -10.03,-21.94z"/>
   <path class="fil25" d="M16570.88 8791.16c-24.85,4.08 -40.18,53.3 5.37,32.73 45.66,-20.64 9.39,53.68 4.66,-10.79 -1.98,-27.01 32.94,-28.97 -10.03,-21.94z"/>
   <path class="fil60" d="M16623.55 6199.45c-24.85,4.08 -40.18,53.3 5.37,32.72 45.66,-20.63 9.39,53.69 4.66,-10.78 -1.98,-27.02 32.95,-28.99 -10.03,-21.94z"/>
   <path class="fil25" d="M15725.69 8799.49c-24.85,4.08 -40.17,53.3 5.37,32.72 45.66,-20.64 9.39,53.68 4.67,-10.78 -1.99,-27.02 32.94,-28.99 -10.04,-21.94z"/>
   <path class="fil10" d="M14907.18 4071.41c-24.85,4.08 -40.18,53.3 5.37,32.72 45.66,-20.63 9.39,53.69 4.66,-10.78 -1.98,-27.02 32.95,-28.99 -10.03,-21.94z"/>
   <path class="fil60" d="M16130.78 6106.58c-24.85,4.08 -40.18,53.3 5.37,32.73 45.66,-20.64 9.39,53.68 4.66,-10.79 -1.98,-27.02 32.94,-28.97 -10.03,-21.94z"/>
   <path class="fil63" d="M16290.53 4300.46c-24.85,4.07 -40.17,53.29 5.36,32.72 45.67,-20.63 9.4,53.69 4.67,-10.79 -1.98,-27.01 32.95,-28.97 -10.03,-21.93z"/>
   <path class="fil54" d="M16538.31 6473.91c-24.86,4.08 -40.18,53.3 5.37,32.72 45.65,-20.63 9.38,53.69 4.66,-10.79 -1.99,-27.01 32.94,-28.97 -10.03,-21.93z"/>
   <path class="fil54" d="M16479.39 6114.55c-24.85,4.08 -40.17,53.3 5.37,32.72 45.66,-20.63 9.39,53.69 4.66,-10.78 -1.98,-27.02 32.95,-28.99 -10.03,-21.94z"/>
   <path class="fil25" d="M12101.31 5095.76c-24.85,4.07 -40.18,53.29 5.37,32.72 45.66,-20.63 9.39,53.69 4.66,-10.79 -1.98,-27.01 32.94,-28.97 -10.03,-21.93z"/>
   <path class="fil65" d="M16026.13 4408.92c-24.85,4.08 -40.17,53.3 5.37,32.72 45.66,-20.63 9.39,53.69 4.66,-10.78 -1.98,-27.02 32.95,-28.97 -10.03,-21.94z"/>
   <path class="fil17" d="M12193.83 4733.29c-6.84,2.01 -0.91,24.09 0.1,25.86 2.83,4.95 -42.91,44.75 7.18,8.23 1.1,-0.8 32.63,-45.83 -7.29,-34.09z"/>
   <path class="fil40" d="M16838.05 6316.24c-6.84,2.01 -0.9,24.1 0.1,25.86 2.83,4.95 -42.9,44.75 7.18,8.23l3.2 -11.83c-2.33,-16.42 32.16,-34.8 -10.48,-22.26z"/>
   <path class="fil47" d="M18181.9 6833.95c-52.51,8.61 0.14,34.7 2.15,13.11 0.03,-0.26 57.83,-22.94 -2.15,-13.11z"/>
   <path class="fil65" d="M16198.36 4532.64c-52.52,8.61 0.14,34.68 2.15,13.11 0.02,-0.27 57.82,-22.94 -2.15,-13.11z"/>
   <path class="fil66" d="M17130.87 3468.09c-30.94,-22.21 -24.07,29.1 1,9.47 0.09,-0.07 0.33,-3.59 0.39,-3.7 0.08,-0.18 0.22,-4.61 -1.39,-5.77z"/>
   <polygon class="fil67" points="16971.47,7792.11 16974.94,7813.25 16996.71,7791.6 "/>
   <polygon class="fil56" points="17450.38,5152.23 17429.24,5155.69 17450.89,5177.47 "/>
   <polygon class="fil68" points="17594.53,3913.04 17598,3934.18 17619.77,3912.52 "/>
   <polygon class="fil69" points="15536.13,3273.69 15557.27,3270.23 15535.61,3248.45 "/>
   <polygon class="fil70" points="16332.13,5878.22 16310.99,5881.69 16332.64,5903.46 "/>
   <polygon class="fil71" points="15844.2,7933.5 15840.74,7912.37 15818.96,7934.02 "/>
   <path class="fil55" d="M18665.66 6342.22l-5.96 8.31c0.14,0.08 4.01,1.91 4.16,1.91 0.09,0 2.74,-0.7 2.81,-0.75l-1 -9.47z"/>
   <path class="fil72" d="M17625.03 3039.78l-9.3 2.07c5.01,19.36 -45.19,-22.94 3.32,6.24l5.97 -8.3z"/>
   <path class="fil73" d="M19950.95 7694.39l7.33 5.28c-0.47,-0.35 -5.57,-7.72 -7.33,-5.28z"/>
   <path class="fil73" d="M19018.44 8758.94l7.33 5.26c-0.48,-0.34 -5.57,-7.72 -7.33,-5.26z"/>
   <path class="fil73" d="M20564.66 7333.31l7.33 5.26c-0.48,-0.34 -5.58,-7.72 -7.33,-5.26z"/>
   <path class="fil74" d="M15231.53 6579.61l7.34 5.28c-0.48,-0.35 -5.57,-7.72 -7.34,-5.28z"/>
   <path class="fil70" d="M15760 6492.97l7.33 5.28c-0.48,-0.35 -5.57,-7.72 -7.33,-5.28z"/>
   <polygon class="fil75" points="16583,2906.72 16602.08,2950.25 "/>
   <polygon class="fil47" points="17664.53,6723.41 17708.07,6704.34 "/>
   <line class="fil25" x1="15844.2" y1="7933.5" x2="15844.2" y2= "7933.5" />
   <line class="fil22" x1="15044.4" y1="6762.23" x2="15044.4" y2= "6762.23" />
  </g>
  <g id="_2613640244880">
   <path class="fil76" d="M6175.3 6479.03c0,235.23 -341.17,235.23 -341.17,235.23l-334.44 0 0 -470.44c168.44,0.91 334.44,0 334.44,0 0,0 341.17,0.07 341.17,235.22zm-115.93 1462.8l1384.56 2.14c0,0 -574.79,-681.47 -830.17,-991.9l0 0c923.43,0 967.96,-1310.67 47.94,-1310.67l-2351.58 0 0 2300.43 1189.57 0 0 -748.51 559.68 748.51z"/>
   <path class="fil76" d="M10983.63 4989.42l-3762.61 163.91c363.47,-499.64 923.24,-839.33 1536.84,-886.09 0,0 -1245.71,-95.98 -2022.84,1131.84l0 0c305.07,-25.87 4248.62,-409.66 4248.62,-409.66z"/>
   <path class="fil76" d="M9293.35 7302.3c-27.24,65.34 -97.77,154.2 -280.38,166.72 -391.91,25.38 -363.35,-543.92 -138.54,-605.23 169.3,-46.84 336.3,-7.48 416.69,154.98l2.24 283.53zm3.44 -746.79c-329.91,-342.76 -1134.45,-285.29 -1311.78,175.79 -129.91,368.81 -67.81,721.31 95.94,974.07 121.33,170.39 353.26,238.04 553.42,236.45 235.17,-1.88 463.99,-25.12 662.42,-146.75l0.86 146.75 787.02 0 -0.59 -1608.45 -787.28 0 0 222.14z"/>
   <path class="fil76" d="M12910.46 6333.37l-852.17 0 -251.03 799.49 -361.68 -799.49 -867.07 0 793.72 1472.4 -572.57 4.55 3.56 449.35c0,0 573.48,37.42 714.51,45.18 242.48,6.98 495.67,-62.94 622.6,-284.81 281.81,-492.33 526.8,-1164.76 770.15,-1686.66z"/>
   <polygon class="fil76" points="16636.7,5641.39 15368.23,5641.39 15037.67,6256.4 14732.42,5641.39 13404.89,5641.39 14231.38,6800.27 13404.89,7941.82 14732.42,7941.82 15037.67,7332.07 15368.23,7941.82 16636.7,7941.82 15831.83,6800.27 "/>
   <path class="fil76" d="M13541.51 4634.39c1782.67,518.8 3053.25,568.71 4591.9,275.2 259.4,-69.5 842.63,2.68 1050.36,278.99l-588.89 1255.62 353.69 173.42c0,0 432.89,-954.86 640.21,-1467.44 -202.75,-360.7 -757.65,-620.28 -1150.85,-713.32l312.03 -654.34 2006.53 -244.85 -2842.36 0c0,0 -743.82,1014.99 -883.28,1210.02 -605.21,116.49 -1669.4,-35.7 -2450.69,-209.56 -1606.63,-423.12 -2949.41,-813.41 -4247.21,-918.54 -1915.89,-183.43 -2994.54,357.12 -4048.67,1150.38 -2183.45,-92.22 -4955.07,509.94 -6284.28,3020.03l0 0c2371.7,-3084.51 5778.42,-2648.96 6462.42,-2694.01 1600.29,-1774.21 5042.6,-1091.71 7079.09,-461.57z"/>
  </g>
  <path class="fil77" d="M20400.5 3649.41c59.79,0 118.12,15.31 175.18,46.09 56.89,30.62 101.36,74.62 133.11,131.67 31.75,57.22 47.7,116.84 47.7,178.72 0,61.41 -15.63,120.54 -47.05,177.11 -31.27,56.74 -75.1,100.73 -131.67,132 -56.57,31.42 -115.71,47.05 -177.27,47.05 -61.73,0 -120.87,-15.63 -177.44,-47.05 -56.57,-31.27 -100.56,-75.26 -131.99,-132 -31.42,-56.57 -47.21,-115.7 -47.21,-177.11 0,-61.88 15.95,-121.5 47.86,-178.72 32.07,-57.05 76.54,-101.05 133.44,-131.67 57.05,-30.78 115.38,-46.09 175.34,-46.09zm0 58.99c-50.12,0 -98.96,12.89 -146.33,38.52 -47.38,25.62 -84.45,62.37 -111.2,110.07 -26.75,47.7 -40.13,97.34 -40.13,148.9 0,51.41 13.21,100.57 39.49,147.62 26.27,47.06 63.01,83.8 110.23,110.07 47.21,26.27 96.53,39.48 147.94,39.48 51.24,0 100.56,-13.21 147.78,-39.48 47.21,-26.27 83.96,-63.01 110.07,-110.07 26.11,-47.05 39.16,-96.21 39.16,-147.62 0,-51.56 -13.38,-101.2 -39.97,-148.9 -26.59,-47.7 -63.66,-84.45 -111.2,-110.07 -47.54,-25.63 -96.21,-38.52 -145.84,-38.52zm-156.48 494.1l0 -382.9 131.83 0c45.12,0 77.67,3.54 97.82,10.63 20.31,7.09 36.26,19.33 48.34,37.07 11.93,17.56 17.9,36.26 17.9,56.07 0,27.89 -9.99,52.39 -30.14,73.01 -19.99,20.79 -46.57,32.39 -79.77,34.97 13.53,5.64 24.5,12.4 32.55,20.31 15.47,14.98 34.33,40.29 56.74,75.9l46.73 74.94 -75.1 0 -34.17 -60.28c-26.75,-47.53 -48.5,-77.35 -64.94,-89.27 -11.28,-8.7 -27.72,-13.05 -49.47,-12.89l-36.43 0 0 162.44 -61.88 0zm61.88 -215.63l75.1 0c35.94,0 60.44,-5.31 73.49,-15.95 13.05,-10.63 19.65,-24.82 19.65,-42.22 0,-11.28 -3.22,-21.44 -9.5,-30.3 -6.28,-9.02 -14.98,-15.63 -26.11,-19.99 -11.28,-4.35 -31.91,-6.6 -62.21,-6.6l-70.43 0 0 115.06z"/>
 </g>
</svg>
