<?xml version="1.0" encoding="UTF-8"?>
<!DOCTYPE svg PUBLIC "-//W3C//DTD SVG 1.1//EN" "http://www.w3.org/Graphics/SVG/1.1/DTD/svg11.dtd">
<!-- Creator: CorelDRAW 2020 (64 Bit) -->
<svg xmlns="http://www.w3.org/2000/svg" xml:space="preserve" width="90.6183mm" height="17.2583mm" version="1.1" style="shape-rendering:geometricPrecision; text-rendering:geometricPrecision; image-rendering:optimizeQuality; fill-rule:evenodd; clip-rule:evenodd"
viewBox="0 0 5458.66 1039.6"
 xmlns:xlink="http://www.w3.org/1999/xlink"
 xmlns:xodm="http://www.corel.com/coreldraw/odm/2003">
 <defs>
  <style type="text/css">
   <![CDATA[
    .fil0 {fill:#FEFEFE}
    .fil1 {fill:#4B4B4D}
    .fil2 {fill:#FEFEFE;fill-rule:nonzero}
    .fil3 {fill:#FFEE00;fill-rule:nonzero}
   ]]>
  </style>
 </defs>
 <g id="Camada_x0020_1">
  <metadata id="CorelCorpID_0Corel-Layer"/>
  <g id="_2210519860512">
   <g id="_662945648">
    <path class="fil0" d="M4181.84 102.65l15.51 0c7.42,0 12.48,-1.1 15.17,-3.29 2.7,-2.2 4.06,-5.13 4.06,-8.72 0,-2.33 -0.67,-4.42 -1.96,-6.25 -1.3,-1.86 -3.1,-3.23 -5.39,-4.13 -2.33,-0.9 -6.58,-1.36 -12.84,-1.36l-14.54 0 0 23.75zm-12.77 44.52l0 -79.05 27.22 0c9.31,0 16.04,0.73 20.19,2.2 4.19,1.46 7.49,3.99 9.98,7.65 2.46,3.63 3.69,7.49 3.69,11.58 0,5.76 -2.06,10.82 -6.22,15.07 -4.13,4.29 -9.61,6.69 -16.47,7.22 2.8,1.16 5.06,2.56 6.72,4.19 3.19,3.09 7.08,8.31 11.71,15.67l9.65 15.47 -15.51 0 -7.05 -12.45c-5.52,-9.81 -10.01,-15.97 -13.4,-18.43 -2.33,-1.8 -5.72,-2.69 -10.22,-2.66l-7.52 0 0 33.53 -12.77 0zm32.31 -102.01c-10.35,0 -20.43,2.66 -30.21,7.95 -9.78,5.29 -17.44,12.88 -22.96,22.73 -5.52,9.85 -8.28,20.1 -8.28,30.74 0,10.61 2.72,20.76 8.15,30.47 5.42,9.72 13.01,17.3 22.75,22.72 9.75,5.43 19.93,8.16 30.55,8.16 10.58,0 20.76,-2.73 30.51,-8.16 9.75,-5.42 17.33,-13.01 22.72,-22.72 5.39,-9.72 8.08,-19.86 8.08,-30.47 0,-10.64 -2.76,-20.89 -8.25,-30.74 -5.49,-9.85 -13.14,-17.44 -22.96,-22.73 -9.81,-5.29 -19.86,-7.95 -30.11,-7.95zm0 -12.17c12.34,0 24.38,3.16 36.16,9.52 11.75,6.32 20.93,15.4 27.48,27.18 6.55,11.81 9.85,24.12 9.85,36.9 0,12.67 -3.23,24.88 -9.71,36.56 -6.46,11.71 -15.51,20.79 -27.19,27.25 -11.67,6.48 -23.89,9.71 -36.59,9.71 -12.75,0 -24.96,-3.23 -36.63,-9.71 -11.68,-6.46 -20.76,-15.54 -27.25,-27.25 -6.48,-11.68 -9.75,-23.89 -9.75,-36.56 0,-12.78 3.3,-25.08 9.89,-36.9 6.62,-11.78 15.8,-20.86 27.55,-27.18 11.78,-6.36 23.82,-9.52 36.2,-9.52z"/>
    <path class="fil0" d="M1271.82 598.75c0,55.48 -52.81,55.48 -52.81,55.48l-86.33 0 0 -96.89c34.69,0.19 68.88,0 68.88,0 0,0 70.27,0 70.27,41.41zm-23.88 308.3l285.15 0.44c0,0 -122.02,-132.1 -170.97,-204.28l0 0c127.93,-32.46 158.66,-122.2 151,-175.38l0 0c-20.3,-94.56 -120.58,-94.56 -141.13,-94.56l-484.32 0 0 473.78 245 0 0 -154.16 115.27 154.16z"/>
    <path class="fil0" d="M2262.11 299l-774.92 33.76c74.86,-102.9 190.15,-172.86 316.51,-182.5 0,0 -256.55,-19.76 -416.61,233.11l0 0c62.83,-5.33 875.02,-84.37 875.02,-84.37z"/>
    <path class="fil0" d="M1913.99 775.35c-5.61,13.46 -20.14,31.76 -57.74,34.34 -80.72,5.22 -74.36,-114.85 -28.53,-124.65 32.51,-8.64 69.26,-1.54 85.82,31.92l0.46 58.39zm0.71 -153.81c-67.95,-70.59 -247.31,-61.12 -270.17,36.2 -15.68,58.52 -13.97,148.56 19.76,200.62 24.99,35.09 72.76,49.02 113.98,48.7 48.44,-0.39 95.56,-5.17 136.43,-30.23l0.17 30.23 162.09 0 -0.12 -331.27 -162.14 0 0 45.75z"/>
    <path class="fil0" d="M2658.95 575.79l-175.51 0 -51.7 164.65 -74.49 -164.65 -178.58 0 163.47 303.24 -117.92 0.94 0.73 92.54c0,0 118.11,7.7 147.16,9.31 49.94,1.43 102.09,-12.96 128.23,-58.66 58.04,-101.4 108.49,-239.89 158.61,-347.37z"/>
    <polygon class="fil0" points="3426.38,433.27 3165.13,433.27 3097.05,559.94 3034.18,433.27 2760.78,433.27 2931,671.95 2760.78,907.06 3020.41,907.06 3097.05,781.48 3172.72,907.06 3426.38,907.06 3260.61,671.95 "/>
    <path class="fil0" d="M2788.91 225.88c367.15,106.84 628.83,117.13 945.72,56.68 60.67,-6.01 190.98,-11.23 216.33,57.46l-121.28 258.6 72.85 35.72c0,0 89.15,-196.65 131.85,-302.23 -41.76,-74.29 -156.04,-127.75 -237.02,-146.91l64.27 -134.76 413.25 -50.43 -585.39 0c0,0 -153.19,209.04 -181.91,249.21 -124.65,23.99 -343.82,-7.36 -504.73,-43.16 -330.89,-87.14 -607.44,-167.53 -874.73,-189.18 -394.58,-37.78 -616.73,73.55 -833.84,236.92 -449.69,-18.99 -1020.51,105.02 -1294.27,621.99l0 0c488.46,-635.26 1190.08,-545.56 1330.96,-554.84 329.58,-365.4 1038.54,-224.84 1457.96,-95.06z"/>
   </g>
   <g>
    <path class="fil1" d="M5397.32 401.41l-561.43 -115.25 -636.63 -130.68 0 0 -0.01 0 -319.57 210.72c-35.25,23.24 -45.06,71.09 -21.82,106.33l210.71 319.57 0.01 0 0 0 636.62 130.69 561.44 115.25c41.35,8.49 82.13,-18.4 90.63,-59.76l99.81 -486.25c8.49,-41.35 -18.4,-82.13 -59.76,-90.62zm-1436.97 -8.86c-24.17,-4.96 -47.79,10.61 -52.75,34.78 -4.96,24.17 10.61,47.79 34.78,52.75 24.17,4.96 47.79,-10.61 52.75,-34.78 4.96,-24.17 -10.61,-47.79 -34.78,-52.75z"/>
    <g>
     <path class="fil2" d="M4361.74 380.41c13.92,6.43 23.84,15.79 29.78,28.08 5.93,12.29 7.46,25.4 4.6,39.34 -4.36,21.25 -14.75,36.2 -31.17,44.85 -16.42,8.66 -37.77,10.28 -64.04,4.89l-127.16 -26.1 49.81 -242.66 123.73 25.4c24.67,5.07 43,14.42 54.96,28.06 11.96,13.65 15.83,30.75 11.61,51.32 -2.91,14.17 -9.07,25.35 -18.49,33.53 -9.42,8.19 -20.63,12.61 -33.62,13.28zm-81.52 -41.38l29.48 6.05c6.85,1.41 12.22,1.08 16.09,-0.98 3.88,-2.06 6.4,-5.95 7.58,-11.66 1.22,-5.93 0.46,-10.67 -2.26,-14.22 -2.72,-3.53 -7.52,-6.01 -14.37,-7.41l-29.48 -6.05 -7.04 34.28zm16.75 94.16c6.85,1.41 12.2,1.14 16.05,-0.81 3.86,-1.95 6.39,-5.89 7.61,-11.83 2.39,-11.66 -3.16,-18.87 -16.64,-21.63l-34.62 -7.11 -7.03 34.28 34.62 7.1zm199.11 44.45l73.35 15.05 -11.82 57.58 -149.44 -30.67 49.81 -242.66 76.09 15.62 -37.99 185.08zm248.65 72.83l-80.89 -16.6 -19.52 34.21 -79.86 -16.39 138.58 -224.44 87.74 18.01 38.61 260.81 -80.2 -16.46 -4.47 -39.14zm-6.76 -61.04l-8.08 -72.02 -35.79 63.01 43.87 9.01zm271.97 -101.69c21.02,4.32 39,12.12 53.96,23.4 14.95,11.28 26.14,25.19 33.58,41.71 7.44,16.53 10.91,34.75 10.39,54.64l-80.2 -16.46c-2.01,-8.75 -5.93,-16.04 -11.76,-21.88 -5.83,-5.84 -13.08,-9.65 -21.76,-11.43 -12.79,-2.63 -23.89,0.1 -33.29,8.17 -9.4,8.07 -15.76,20.22 -19.09,36.44 -3.33,16.22 -2.26,29.9 3.19,41.02 5.45,11.12 14.58,17.99 27.38,20.62 8.68,1.78 16.85,1.14 24.5,-1.93 7.66,-3.07 14.13,-8.23 19.43,-15.48l80.2 16.46c-7.37,18.49 -17.73,33.87 -31.08,46.13 -13.35,12.26 -29.12,20.63 -47.3,25.11 -18.18,4.49 -37.79,4.57 -58.8,0.25 -24.45,-5.02 -44.63,-14.58 -60.55,-28.68 -15.91,-14.1 -26.81,-31.52 -32.67,-52.25 -5.86,-20.73 -6.33,-43.09 -1.41,-67.08 4.93,-23.99 14.17,-44.36 27.72,-61.11 13.56,-16.74 30.43,-28.46 50.62,-35.15 20.19,-6.69 42.5,-7.53 66.95,-2.51zm268.69 180.53l64.19 143.19 -91.51 -18.78 -49.01 -119.72 -21.6 105.22 -76.09 -15.62 49.82 -242.66 76.09 15.62 -21.04 102.48 92.33 -87.84 90.83 18.64 -114 99.46z"/>
     <path class="fil3" d="M4317.51 509.52l-5.54 26.97 -112.28 -23.05 -18.26 88.95 95.15 19.53 -5.31 25.88 -95.15 -19.53 -23.64 115.2 -33.17 -6.81 52.76 -257 145.45 29.85zm122.95 293.07l-45.52 -118.75 -36.09 -7.41 -21.55 104.99 -33.17 -6.81 52.76 -257 84.57 17.36c29.16,5.99 49.6,17.46 61.31,34.43 11.72,16.97 15.2,37 10.47,60.08 -4.29,20.9 -13.58,36.53 -27.87,46.9 -14.29,10.37 -32.81,14.85 -55.57,13.48l48.21 120.45 -37.55 -7.71zm-76.68 -150.22l48.49 9.95c37.67,7.73 59.89,-4.93 66.68,-37.98 6.78,-33.05 -8.66,-53.44 -46.33,-61.18l-48.49 -9.95 -20.35 99.16zm238.8 -84.33l-52.76 257 -33.17 -6.81 52.76 -257 33.17 6.81zm243.42 183.7c-5.34,26 -15.22,47.59 -29.63,64.77 -14.41,17.17 -32.85,28.97 -55.32,35.37 -22.46,6.4 -47.91,6.69 -76.35,0.86l-81.66 -16.76 52.76 -257 81.66 16.76c28.43,5.84 51.74,16.01 69.91,30.5 18.17,14.49 30.5,32.47 36.98,53.94 6.49,21.47 7.04,45.33 1.64,71.57zm-157.71 70.57c33.54,6.89 60.95,3.52 82.23,-10.09 21.29,-13.61 35.14,-36.09 41.58,-67.44 6.44,-31.35 2.63,-57.53 -11.42,-78.52 -14.05,-20.99 -37.97,-34.96 -71.76,-41.9l-45.93 -9.43 -40.63 197.95 45.93 9.43zm338.89 38.79l-113.01 -23.2 -33.71 55.01 -35.72 -7.34 146.93 -232.74 37.55 7.71 43 271.72 -35.72 -7.33 -9.31 -63.84zm-4.16 -27.82l-20.38 -139.43 -73.67 120.13 94.06 19.31zm318.13 -113.63l-116.98 142.38 -19.98 97.33 -33.54 -6.89 19.98 -97.33 -51.79 -177.03 38.64 7.93 37.55 137.26 88.21 -111.44 37.91 7.78z"/>
    </g>
   </g>
   <polygon class="fil0" points="3983.45,452.22 3902.52,634.33 3829.67,598.61 3915.32,416 "/>
  </g>
 </g>
</svg>
