<?xml version="1.0" encoding="UTF-8"?>
<!DOCTYPE svg PUBLIC "-//W3C//DTD SVG 1.1//EN" "http://www.w3.org/Graphics/SVG/1.1/DTD/svg11.dtd">
<!-- Creator: CorelDRAW 2018 -->
<svg xmlns="http://www.w3.org/2000/svg" xml:space="preserve" width="173.338mm" height="31.157mm" version="1.1" style="shape-rendering:geometricPrecision; text-rendering:geometricPrecision; image-rendering:optimizeQuality; fill-rule:evenodd; clip-rule:evenodd"
viewBox="0 0 17333.78 3115.7"
 xmlns:xlink="http://www.w3.org/1999/xlink">
 <defs>
  <style type="text/css">
   <![CDATA[
    .fil1 {fill:black}
    .fil0 {fill:url(#id0)}
   ]]>
  </style>
  <linearGradient id="id0" gradientUnits="userSpaceOnUse" x1="4929.15" y1="239.13" x2="-0" y2="2386.51">
   <stop offset="0" style="stop-opacity:1; stop-color:#FF6A00"/>
   <stop offset="0.490196" style="stop-opacity:1; stop-color:#FF4400"/>
   <stop offset="1" style="stop-opacity:1; stop-color:#A13402"/>
  </linearGradient>
 </defs>
 <g id="Layer_x0020_1">
  <metadata id="CorelCorpID_0Corel-Layer"/>
  <g id="_1155650880">
   <path class="fil0" d="M641.2 0l4060.36 0c0,0 261.17,57.49 232.68,362.6 -28.48,305.11 -489.14,1617.09 -489.14,1617.09 0,0 -208.95,432.22 -1258.47,432.22 -1049.51,0 -3186.63,-25.4 -3186.63,-25.4 0,0 294.52,-172.9 465.48,-594.98 170.96,-422.08 408.4,-1428.93 408.4,-1428.93 0,0 38,-172.9 -232.68,-362.6zm3124.82 550.74l-1723.89 0c0,0 -156.71,-66.1 -489.14,1281.48l1738.12 0c0,0 180.46,5.07 474.91,-1281.48z"/>
   <path class="fil1" d="M5050.01 1135.53l651.22 0c0,0 96.17,55.95 93.21,177.99l-647.67 0c0,0 -14.25,-145.59 -96.76,-177.99z"/>
   <path class="fil1" d="M6252.24 360.12c0,0 151.97,114.41 154.34,287.31l-489.14 1548.44 835.82 0 472.51 -1456.9 662.49 0 -455.91 1461.99 831.07 0 472.52 -1456.91 546.13 0c0,0 89.65,3.57 59.37,124.6 -30.28,121.02 -415.55,1334.85 -415.55,1334.85l835.82 0 439.28 -1375.54c0,0 45.12,-211.05 -149.59,-363.6 -194.7,-152.54 -446.4,-109.32 -446.4,-109.32l-3352.76 5.08z"/>
   <path class="fil1" d="M9994.43 2206.07l852.44 0 204.2 -617.87 1379.57 0 -204.2 620.41 866.69 0 325.3 -1037.39c0,0 118.71,-358.5 68.85,-505.97 -49.86,-147.48 -206.59,-287.32 -446.4,-315.28l-2718.78 0c0,0 170.96,88.98 154.34,322.91l-482.01 1533.19zm1158.75 -991.63l1384.31 0c0,0 206.59,-467.82 54.62,-467.82 -151.97,0 -1218.11,0 -1218.11,0 0,0 -116.34,-38.15 -220.82,467.82z"/>
   <path class="fil1" d="M17008.78 352.77l-1277.46 0 -669.61 462.75 -650.61 -462.75 -878.55 0 1120.75 757.7c0,0 -1040.02,745.77 -1595.64,2005.23 0,0 987.79,-1018.7 2160.78,-1547.56 0,0 759.21,355.96 2115.34,1245.87 0,0 -714.41,-996.73 -1649.95,-1561.17l1324.95 -900.07z"/>
  </g>
 </g>
</svg>
