<?xml version="1.0" encoding="UTF-8"?>
<!DOCTYPE svg PUBLIC "-//W3C//DTD SVG 1.1//EN" "http://www.w3.org/Graphics/SVG/1.1/DTD/svg11.dtd">
<!-- Creator: CorelDRAW 2020 (64 Bit) -->
<svg xmlns="http://www.w3.org/2000/svg" xml:space="preserve" width="186.761mm" height="42.4122mm" version="1.1" style="shape-rendering:geometricPrecision; text-rendering:geometricPrecision; image-rendering:optimizeQuality; fill-rule:evenodd; clip-rule:evenodd"
viewBox="0 0 18661.85 4237.98"
 xmlns:xlink="http://www.w3.org/1999/xlink"
 xmlns:xodm="http://www.corel.com/coreldraw/odm/2003">
 <defs>
  <style type="text/css">
   <![CDATA[
    .fil0 {fill:white}
   ]]>
  </style>
 </defs>
 <g id="Camada_x0020_1">
  <metadata id="CorelCorpID_0Corel-Layer"/>
  <g id="_2449391005456">
   <path class="fil0" d="M18621.35 2863.56c0,0 -771.52,102.48 -1489.1,-550.33 -717.57,-652.81 -7181.16,-561.17 -8735.02,-690.65 -1553.87,-129.48 -3647.22,-356.08 -3647.22,-669 0,-312.93 2762.35,-928.06 4564.37,-647.48 1802.03,280.59 3140.07,1219.37 3140.07,1219.37 0,0 -766.11,129.44 -1381.19,53.92 0,0 642.2,-45.56 733.76,-215.79 91.56,-170.23 -1654.89,-834.86 -2913.45,-971.16 -1258.56,-136.3 -3672.25,348.73 -3841.46,517.94 -169.2,169.2 3107.7,928.01 8125.29,690.61 5017.6,-237.4 5443.93,1262.56 5443.93,1262.56z"/>
   <path class="fil0" d="M6012.53 1557.9c0,0 -3776.66,-388.45 -4747.81,107.91 -971.16,496.37 -852.44,-269.77 -852.44,-269.77l755.33 21.57c0,0 938.74,-107.96 2168.87,-550.33 1230.13,-442.36 4337.75,-1154.56 6344.79,-744.53 2007.05,410.04 3355.86,1392.01 3355.86,1392.01l-345.31 10.76c0,0 -1262.48,-874.01 -3096.85,-1262.47 -1834.37,-388.46 -4197.49,107.87 -7186.46,1046.64 0,0 1294.85,-248.16 3604.02,248.21z"/>
   <path class="fil0" d="M12.93 2582.98c0,0 -102.49,-507.13 269.77,-1003.5 0,0 -21.61,334.5 334.5,431.6 0,0 -291.36,0 -604.28,571.9z"/>
   <path class="fil0" d="M23.73 2793.42l194.25 151.05c0,0 -215.79,679.81 771.53,1122.22 0,0 -1030.54,-91.72 -965.78,-1273.28z"/>
   <path class="fil0" d="M18009 3083.43c0,0 528.8,80.95 652.85,-5.39 0,0 -124.31,276.55 -221,329.08 -96.7,52.57 -151.01,350.69 -107.87,496.36 43.15,145.68 205.01,334.5 205.01,334.5 0,0 -369.7,-110.93 -412.84,-337.52 -43.15,-226.59 56.73,-568.88 56.73,-568.88l-172.88 -248.16z"/>
   <g>
    <path class="fil0" d="M12506.99 2999.87l17.82 -83.83 -4.08 0 -498.91 0 -4.58 0 -17.82 83.83 507.56 0zm42.93 -201.96l17.82 -83.82 -4.18 0 -498.91 0 -206.47 0 24.89 -118.14 911.34 0 -24.89 118.14 -30.98 145.75 -11.85 56.2 -0.1 0 -17.82 83.83 -24.9 118.14 -55.22 0 -150.74 0 -498.91 0 -4.69 0 -201.79 0 24.9 -118.14 0.21 0 17.82 -83.83 -0.11 0 24.9 -118.13 709.67 0z"/>
    <polygon class="fil0" points="13604.35,2595.96 13806.13,2595.96 13721,2999.87 13696.11,3118.01 13640.88,3118.01 13490.15,3118.01 12991.24,3118.01 12784.77,3118.01 12809.66,2999.87 12894.78,2595.96 13096.57,2595.96 13011.45,2999.87 13519.23,2999.87 "/>
    <polygon class="fil0" points="13821.9,2999.87 13882.64,2714.1 13907.53,2595.96 13937.91,2453.08 14139.69,2453.08 14109.32,2595.96 14818.88,2595.96 14793.98,2714.1 14738.76,2714.1 14588.02,2714.1 14089.1,2714.1 14084.42,2714.1 14023.67,2999.87 14733.24,2999.87 14708.34,3118.01 14653.12,3118.01 14502.38,3118.01 14003.47,3118.01 13797,3118.01 "/>
    <path class="fil0" d="M14919.25 2595.96l911.34 0 -110.03 522.05 -911.33 0 110.02 -522.05zm181.57 118.14l-60.74 285.77 498.92 0 60.73 -285.77 -498.91 0z"/>
   </g>
   <g>
    <path class="fil0" d="M14404.63 3732.71l17.82 -83.83 -4.08 0 -498.92 0 -4.58 0 -17.82 83.83 507.57 0zm42.93 -201.96l17.82 -83.82 -4.19 0 -498.91 0 -206.47 0 24.9 -118.14 911.34 0 -24.9 118.14 -30.98 145.74 -11.84 56.21 -0.11 0 -17.82 83.83 -24.89 118.14 -55.23 0 -150.73 0 -498.91 0 -4.7 0 -201.78 0 24.89 -118.14 0.22 0 17.82 -83.83 -0.11 0 24.89 -118.13 709.68 0z"/>
    <path class="fil0" d="M16816.89 3328.8l911.34 0 -24.89 118.14c-234.96,0 -469.92,0 -704.87,0l-4.7 0 -17.82 83.83 709.72 0 -24.9 118.13 -17.82 83.82 0.15 0 -24.9 118.14c-303.78,0 -607.57,0 -911.34,0l24.9 -118.14 709.42 0 17.82 -83.82 -4.18 0 -498.92 0 -206.47 0c22.45,-106.53 44.95,-213.26 67.46,-320.1z"/>
    <path class="fil0" d="M12767.96 3328.8l911.35 0 -110.04 522.05 -709.55 0 -30.38 142.88 -201.79 0 30.38 -142.88 110.02 -522.05zm181.58 118.14l-60.74 285.77 498.91 0 60.74 -285.77 -498.91 0z"/>
    <polygon class="fil0" points="14792.93,3328.8 15704.28,3328.8 15679.39,3446.94 15649.01,3589.82 15447.23,3589.82 15477.6,3446.94 15473.43,3446.94 14974.52,3446.94 14969.82,3446.94 14884.19,3850.85 14682.4,3850.85 "/>
    <polygon class="fil0" points="15719.53,3732.71 15780.27,3446.94 15805.17,3328.8 15835.55,3185.91 16037.32,3185.91 16006.95,3328.8 16716.52,3328.8 16691.62,3446.94 16636.4,3446.94 16485.65,3446.94 15986.74,3446.94 15982.06,3446.94 15921.31,3732.71 16630.87,3732.71 16605.98,3850.85 16550.75,3850.85 16400.02,3850.85 15901.11,3850.85 15694.64,3850.85 "/>
   </g>
   <g>
    <path class="fil0" d="M10179.93 3273.93l488.59 0c83.28,0 156.8,-23.8 220.52,-71.43 63.75,-47.62 100.99,-111.49 111.71,-191.63 4.46,-33.26 0.89,-65.38 -10.7,-96.37 -11.55,-30.99 -29.14,-58.58 -52.75,-82.79 -23.58,-24.18 -52.48,-43.44 -86.65,-57.83 -34.14,-14.35 -71.58,-21.53 -112.29,-21.53l-488.6 0 -68.92 514.78 -0.3 2.25 -0.61 4.55zm741.75 265.32c-46.65,16.61 -89.42,28.71 -128.39,36.26 -38.95,7.55 -85.87,12.48 -140.77,14.76 -54.89,2.25 -122.53,3 -202.96,2.25 -80.39,-0.75 -184.44,-1.12 -312.14,-1.12l-62.85 469.4 -391.41 0 212.54 -1587.36 880 0c94.37,0 180.78,14.73 259.16,44.22 78.42,29.49 145.25,69.56 200.47,120.18 55.19,50.65 96.25,110.38 123.14,179.15 26.89,68.78 35.15,141.73 24.82,218.84 -15.18,113.37 -65.3,214.67 -150.32,303.86 -85.07,89.18 -188.83,155.71 -311.28,199.56zm371.55 521.55l-494.13 0 -256.93 -299.33 347.86 -172.35 403.2 471.68z"/>
    <polygon class="fil0" points="9197.35,4060.8 9090.68,3779.6 8202.35,3779.6 8017.58,4060.8 7601.19,4060.8 8610.41,2473.44 9029.6,2473.44 8379.08,3496.15 8987.02,3496.15 8785.06,2951.93 9128.23,2731.95 9613.75,4060.8 "/>
    <polygon class="fil0" points="7813.72,2473.44 6501.43,3691.16 6451.93,4060.8 6046.62,4060.8 6259.16,2473.44 6664.47,2473.44 6571.25,3169.62 7316.8,2473.44 "/>
    <polygon class="fil0" points="6787.91,3666.23 6993.81,3310.2 7601.19,4060.8 7104.27,4060.8 "/>
    <path class="fil0" d="M5404.17 2473.44c94.39,0 181.24,14.73 260.57,44.22 79.33,29.49 147.08,69.56 203.21,120.18 56.14,50.65 97.71,110 124.69,178.02 26.96,68.04 35.3,140.59 24.98,217.69 -10.32,77.11 -38.1,149.67 -83.28,217.69 -45.21,68.03 -102.61,126.98 -172.21,176.87 -69.6,49.9 -148.03,89.56 -235.25,119.05 -87.23,29.5 -178.02,44.23 -272.41,44.23l-216.53 0 -168.47 -317.47 427.5 0c40.73,0 79.98,-6.43 117.8,-19.28 37.78,-12.86 71.23,-31 100.27,-54.43 29.04,-23.43 53.6,-51.39 73.69,-83.91 20.08,-32.5 32.76,-68.41 38.02,-107.7 4.46,-33.26 0.89,-65.4 -10.7,-96.4 -11.58,-30.99 -28.71,-58.58 -51.37,-82.76 -22.66,-24.18 -51.05,-43.85 -85.1,-58.97 -34.07,-15.11 -71.46,-22.66 -112.17,-22.66l-491.34 0 -175.8 1312.97 -385.88 0 212.54 -1587.36 877.22 0z"/>
    <path class="fil0" d="M3394.31 2453.04c136.95,0 261.77,21.53 374.46,64.62 112.65,43.1 207.58,101.29 284.75,174.61 77.13,73.32 133.63,159.49 169.41,258.53 35.76,99.01 46.16,204.46 31.19,316.34 -12.75,95.24 -42.47,185.93 -89.15,272.11 -46.71,86.16 -107.11,164.02 -181.17,233.55 -74.1,69.56 -159.32,128.88 -255.64,178.02 -96.35,49.12 -199.58,84.26 -309.75,105.45l-158.2 -269.87c78.35,-4.53 151.41,-21.53 219.19,-51.02 67.78,-29.46 127.93,-67.28 180.36,-113.37 52.44,-46.11 95.72,-99.76 129.82,-160.99 34.09,-61.23 55.7,-125.85 64.81,-193.88 9.51,-71.06 4.2,-138.33 -15.99,-201.84 -20.19,-63.48 -52.11,-118.68 -95.81,-165.55 -43.7,-46.84 -98.44,-83.89 -164.2,-111.1 -65.74,-27.21 -140.27,-40.82 -223.55,-40.82 -83.29,0 -161.44,13.61 -234.49,40.82 -73.01,27.21 -138.14,64.25 -195.3,111.1 -57.16,46.87 -104.35,102.07 -141.54,165.55 -37.15,63.5 -60.52,130.78 -70.04,201.84 -9.51,71.03 -4.16,138.3 15.99,201.81 20.19,63.5 52.61,118.68 97.22,165.54 44.62,46.84 99.82,83.89 165.55,111.1 65.77,27.22 140.27,40.82 223.55,40.82l-39.47 294.8c-136.92,0 -261.79,-21.16 -374.58,-63.5 -112.75,-42.32 -207.69,-100.52 -284.75,-174.6 -77.06,-74.08 -133.48,-160.62 -169.27,-259.64 -35.75,-99.04 -46.16,-204.48 -31.19,-316.33 14.98,-111.87 53.62,-217.32 115.9,-316.34 62.3,-99.04 141.84,-185.21 238.65,-258.53 96.8,-73.31 207.31,-131.51 331.51,-174.61 124.24,-43.09 254.82,-64.62 391.74,-64.62z"/>
    <polygon class="fil0" points="1981.37,2473.44 2494.95,2473.44 2457.9,2750.08 2113.68,2750.08 "/>
    <polygon class="fil0" points="1923.07,2473.44 1923.07,2473.44 1923.07,2473.44 1710.54,4060.8 1310.8,4060.8 1486.3,2750.08 914.46,2750.08 951.5,2473.44 "/>
   </g>
  </g>
 </g>
</svg>
