<?xml version="1.0" encoding="UTF-8"?>
<!DOCTYPE svg PUBLIC "-//W3C//DTD SVG 1.1//EN" "http://www.w3.org/Graphics/SVG/1.1/DTD/svg11.dtd">
<!-- Creator: CorelDRAW 2019 (64 Bit) -->
<svg xmlns="http://www.w3.org/2000/svg" xml:space="preserve" width="185.733mm" height="48.3699mm" version="1.1" style="shape-rendering:geometricPrecision; text-rendering:geometricPrecision; image-rendering:optimizeQuality; fill-rule:evenodd; clip-rule:evenodd"
viewBox="0 0 18980.49 4943.03"
 xmlns:xlink="http://www.w3.org/1999/xlink">
 <defs>
  <style type="text/css">
   <![CDATA[
    .fil2 {fill:black}
    .fil3 {fill:#E6E6E6}
    .fil1 {fill:red}
    .fil0 {fill:white}
   ]]>
  </style>
     <mask id="id0">
  <linearGradient id="id1" gradientUnits="userSpaceOnUse" x1="19379.59" y1="5090.27" x2="15419.86" y2="-307.94">
   <stop offset="0" style="stop-opacity:1; stop-color:white"/>
   <stop offset="1" style="stop-opacity:0; stop-color:white"/>
  </linearGradient>
      <rect style="fill:url(#id1)" x="15599.67" y="341.85" width="2137.29" height="3018.73"/>
     </mask>
     <mask id="id2">
  <linearGradient id="id3" gradientUnits="userSpaceOnUse" x1="18684.3" y1="5788.17" x2="19372.38" y2="1311.87">
   <stop offset="0" style="stop-opacity:1; stop-color:white"/>
   <stop offset="1" style="stop-opacity:0; stop-color:white"/>
  </linearGradient>
      <rect style="fill:url(#id3)" x="17704.08" y="1449.27" width="1284.87" height="2728.56"/>
     </mask>
 </defs>
 <g id="Camada_x0020_1">
  <metadata id="CorelCorpID_0Corel-Layer"/>
  <g id="_2236304310768">
   <g>
    <path class="fil0" d="M5525.78 3308.83c0,210.49 -305.29,210.49 -305.29,210.49l-299.26 0 0 -420.96c150.72,0.82 299.26,0 299.26,0 0,0 305.29,0.06 305.29,210.48zm-103.74 1308.94l1238.93 1.91c0,0 -514.33,-609.79 -742.86,-887.57l0 0c826.31,0 866.15,-1172.81 42.9,-1172.81l-2104.24 0 0 2058.47 1064.45 0 0 -669.78 500.81 669.78z"/>
    <path class="fil0" d="M9828.37 1975.91l-3366.86 146.67c325.24,-447.09 826.13,-751.05 1375.19,-792.89 0,0 -1114.68,-85.88 -1810.08,1012.8l0 0c272.99,-23.15 3801.75,-366.57 3801.75,-366.57z"/>
    <path class="fil0" d="M8315.87 4045.52c-24.37,58.46 -87.49,137.98 -250.89,149.18 -350.69,22.71 -325.13,-486.71 -123.97,-541.57 151.49,-41.91 300.93,-6.69 372.86,138.67l2 253.71zm3.08 -668.25c-295.21,-306.71 -1015.13,-255.29 -1173.81,157.3 -116.24,330.02 -60.68,645.45 85.85,871.62 108.57,152.47 316.1,213 495.21,211.58 210.43,-1.69 415.19,-22.48 592.75,-131.32l0.77 131.32 704.24 0 -0.53 -1439.28 -704.47 0 0 198.77z"/>
    <path class="fil0" d="M11552.54 3178.5l-762.54 0 -224.63 715.4 -323.64 -715.4 -775.87 0 710.24 1317.53 -512.35 4.07 3.19 402.09c0,0 513.16,33.49 639.36,40.43 216.97,6.24 443.53,-56.32 557.11,-254.86 252.17,-440.55 471.39,-1042.25 689.14,-1509.26z"/>
    <polygon class="fil0" points="14886.85,2559.3 13751.8,2559.3 13456,3109.62 13182.86,2559.3 11994.96,2559.3 12734.52,3596.29 11994.96,4617.77 13182.86,4617.77 13456,4072.16 13751.8,4617.77 14886.85,4617.77 14166.64,3596.29 "/>
    <path class="fil0" d="M12117.21 1658.21c1595.17,464.23 2732.11,508.9 4108.93,246.25 232.12,-62.19 754.01,2.4 939.88,249.65l-526.95 1123.55 316.49 155.18c0,0 387.36,-854.43 572.87,-1313.1 -181.42,-322.76 -677.96,-555.04 -1029.8,-638.29l279.21 -585.52 1795.49 -219.1 -2543.4 0c0,0 -665.59,908.23 -790.38,1082.75 -541.56,104.24 -1493.82,-31.95 -2192.92,-187.52 -1437.64,-378.61 -2639.19,-727.85 -3800.49,-821.93 -1714.38,-164.14 -2679.57,319.56 -3622.83,1029.38 -1953.79,-82.52 -4433.9,456.31 -5623.3,2702.38l0 0c2122.25,-2760.08 5170.64,-2370.34 5782.7,-2410.65 1431.97,-1587.6 4512.22,-976.89 6334.51,-413.02z"/>
   </g>
   <g>
    <path class="fil1" d="M15609.89 818.25l212.5 -101.89 525.15 -530.99c0,0 621.21,-248.36 935.59,-170.13 314.37,78.23 671.27,220.31 785.11,257.73 113.84,37.43 516.8,171.63 637.6,504.15 120.81,332.51 284.47,499.7 274.19,615.23 -10.28,115.52 44.49,1185.36 -207.64,1610.05 -252.14,424.68 -751.18,1165.22 -751.18,1165.22l-137.84 -1.26c0,0 -124.39,-487.54 -159.63,-841.78 -35.24,-354.25 44.9,-356.89 -24.06,-815.97 0,0 -1822.93,58.65 -2089.78,-1690.35z"/>
    <path class="fil2" style="mask:url(#id0)" d="M15609.89 818.25l212.5 -101.89 360.28 -364.29c126,150.68 347.1,392.69 558.58,513.97 320.57,183.82 679.34,378.51 735.15,501.7 40.6,89.63 131.83,690.89 195.12,1141.07 -230.26,-1.29 -1814.27,-69.4 -2061.63,-1690.56zm2116.55 2532.11c-0.95,-8.67 -1.87,-17.27 -2.72,-25.78 -19.86,-199.59 -3.09,-287.57 3.01,-408.44z"/>
    <path class="fil2" style="mask:url(#id2)" d="M18978.51 1459.49c-0.59,268.13 19.26,1163.26 -206.13,1542.91 -252.14,424.68 -751.18,1165.22 -751.18,1165.22l-137.84 -1.26c0,0 -124.39,-487.54 -159.63,-841.78 -29.88,-300.37 23.18,-348 -2.03,-635.39 33.83,48.63 229.91,325.2 305.07,309.47 82.38,-17.23 438.74,-1038.83 624.46,-1209.61 75.31,-69.26 202.59,-199.36 327.29,-329.56z"/>
    <path class="fil3" d="M15371.37 765.37l73.37 -88.39 23.24 108.22 107.83 -53.18 92.88 108.95 0.77 124.71 101.5 85.36 -42.69 83.14 112.05 40.89 21.75 117.95 77.88 11.97 -55.59 102.34 81.16 -1.23 30.25 70.68 99.62 0.37 -9.81 136.77 75.54 2.89 -11.13 48.12 148.49 39.02 59.19 182.27 49.8 -64.61 5.25 111.7 86.03 -32.88 16.02 114.59c0,0 133.79,-19.31 133.88,-11.82 0.09,7.5 5.34,151.57 5.34,151.57l59.46 26.58 71.79 -86.14 48.22 83.41 126.38 -44.11 9.38 101.1c0,0 77.41,-9.28 76.39,5.52 -1.02,14.8 -21.33,106.35 -21.33,106.35l137.98 -54.79 40.37 37.35 61.03 -24.25 29.31 76.76 69 -3.1 28.46 74.14 101.76 -54.12 50.47 68.81 91.36 -27.07 4.97 24.43 84.35 -38.11 12.55 80.42 38.98 103.16 -9.36 93.24 37.84 110.47 -54.27 190.98 15.74 92.13 -111.21 107.49 -79.36 127.33 -98.13 -10.1 -31.83 -84.64 -35.21 34.46 -126.95 -114.2 -84.99 66.67 1.47 -139.3 -127.3 114.98 -73.03 -76.01 -40.07 33.71 -86.88 -83.13 -99.61 -0.36 24.7 -95.87 -93.62 25.48 4.49 -94 -187.23 50.95 -65.18 -159.51 -52.42 16.85 -68.92 -135.17 -107.48 18.36 -42.7 -111.22 -131.06 9.75 -12.75 -111.58 -111.22 42.7 -75.66 -220.92 -116.84 46.81 13.09 -117.58 -105.6 38.59 -29.61 -164.02 -72.64 18.73 29.56 -95.12 -156.14 75.66 -62.93 -109.34 -83.12 22.1 -19.87 -162.52 -122.84 -43.8 68.34 -104.11 -103.92 -20.95 13.08 -117.59 -101.11 -55.41 -15.75 -156.9 -63.68 -104.47 80.87 -137.06 -62.56 -144.17 107.47 -83.14 11.22 -137.81 73.39 41.18 35.2 -99.24 93.25 74.14 63.65 -89.89 46.16 80.6z"/>
    <polygon class="fil3" points="17777.48,4004.32 17714.59,4154.13 17759.16,4253.17 17746.26,4320.94 17791.95,4412.68 17791.96,4477.46 17949.23,4459.29 18056.34,4508.14 18124.67,4436.42 18299.93,4463.36 18332.67,4266.58 18260.01,4188.12 18321.03,4082.9 18235.28,4024.87 18176.07,3935.54 18050.19,3978.98 17974.06,3892.52 17942.43,3952.45 17802.56,3938.42 "/>
   </g>
  </g>
 </g>
</svg>
