<?xml version="1.0" encoding="UTF-8"?>
<!DOCTYPE svg PUBLIC "-//W3C//DTD SVG 1.1//EN" "http://www.w3.org/Graphics/SVG/1.1/DTD/svg11.dtd">
<!-- Creator: CorelDRAW 2017 -->
<svg xmlns="http://www.w3.org/2000/svg" xml:space="preserve" width="204.71mm" height="63.7158mm" version="1.1" style="shape-rendering:geometricPrecision; text-rendering:geometricPrecision; image-rendering:optimizeQuality; fill-rule:evenodd; clip-rule:evenodd"
viewBox="0 0 21190 6595"
 xmlns:xlink="http://www.w3.org/1999/xlink">
 <defs>
  <style type="text/css">
   <![CDATA[
    .fil1 {fill:#FEFEFE}
    .fil3 {fill:#2B2A29}
    .fil2 {fill:#E31E24}
    .fil0 {fill:#FEFEFE;fill-rule:nonzero}
   ]]>
  </style>
   <mask id="id0">
  <linearGradient id="id1" gradientUnits="userSpaceOnUse" x1="24523" y1="7459" x2="17056" y2="-251">
   <stop offset="0" style="stop-opacity:1; stop-color:white"/>
   <stop offset="0.419608" style="stop-opacity:0.501961; stop-color:white"/>
   <stop offset="1" style="stop-opacity:0; stop-color:white"/>
  </linearGradient>
    <rect style="fill:url(#id1)" x="17156" y="1039" width="4044" height="4491"/>
   </mask>
 </defs>
 <g id="Layer_x0020_1">
  <metadata id="CorelCorpID_0Corel-Layer"/>
  <g id="_755001592">
   <path class="fil0" d="M381 6591l-67 -90c-19,4 -38,6 -56,6 -48,0 -91,-11 -131,-34 -39,-22 -70,-54 -93,-94 -23,-40 -34,-85 -34,-135 0,-50 11,-95 34,-135 23,-40 54,-71 93,-93 39,-22 83,-34 131,-34 48,0 92,11 131,34 39,22 70,54 93,93 23,40 34,85 34,135 0,44 -9,85 -27,122 -18,37 -43,67 -75,90l114 135 -148 0zm-255 -347c0,45 12,81 36,107 24,27 56,40 97,40 40,0 72,-13 96,-40 24,-27 36,-62 36,-107 0,-45 -12,-81 -36,-107 -24,-27 -56,-40 -97,-40 -41,0 -73,13 -97,39 -24,26 -36,62 -36,107zm580 -254l0 295c0,34 8,60 23,77 15,18 37,27 66,27 29,0 51,-9 66,-27 15,-18 23,-44 23,-77l0 -295 124 0 0 295c0,48 -9,89 -28,122 -19,33 -44,58 -77,75 -33,17 -69,25 -110,25 -41,0 -77,-8 -109,-25 -31,-16 -56,-41 -74,-75 -18,-33 -27,-74 -27,-122l0 -295 123 0zm701 418l-192 0 -32 93 -130 0 187 -508 143 0 187 508 -132 0 -32 -93zm-32 -94l-64 -188 -64 188 128 0zm367 93l165 0 0 95 -289 0 0 -512 124 0 0 417zm346 -417l0 512 -124 0 0 -512 124 0zm546 255c0,50 -11,95 -32,133 -21,39 -52,69 -93,91 -40,22 -88,33 -142,33l-193 0 0 -512 193 0c55,0 102,11 143,32 40,21 71,51 92,90 21,39 32,83 32,133zm-278 146c48,0 86,-13 113,-38 27,-26 40,-61 40,-108 0,-46 -13,-82 -40,-108 -27,-26 -64,-38 -113,-38l-59 0 0 292 59 0zm665 17l-192 0 -32 93 -130 0 187 -508 143 0 187 508 -132 0 -32 -93zm-32 -94l-64 -188 -64 188 128 0zm703 -69c0,50 -11,95 -32,133 -21,39 -52,69 -93,91 -40,22 -88,33 -142,33l-193 0 0 -512 193 0c55,0 102,11 143,32 40,21 71,51 92,90 21,39 32,83 32,133zm-278 146c48,0 86,-13 113,-38 27,-26 40,-61 40,-108 0,-46 -13,-82 -40,-108 -27,-26 -64,-38 -113,-38l-59 0 0 292 59 0zm472 -302l0 107 173 0 0 93 -173 0 0 114 195 0 0 99 -318 0 0 -512 318 0 0 98 -195 0zm6894 -98l0 512 -124 0 0 -512 124 0zm546 255c0,50 -11,95 -32,133 -21,39 -52,69 -93,91 -40,22 -88,33 -142,33l-193 0 0 -512 193 0c55,0 102,11 143,32 40,21 71,51 92,90 21,39 32,83 32,133zm-278 146c48,0 86,-13 113,-38 27,-26 40,-61 40,-108 0,-46 -13,-82 -40,-108 -27,-26 -64,-38 -113,-38l-59 0 0 292 59 0zm472 -302l0 107 173 0 0 93 -173 0 0 114 195 0 0 99 -318 0 0 -512 318 0 0 98 -195 0zm582 320l-192 0 -32 93 -130 0 187 -508 143 0 187 508 -132 0 -32 -93zm-32 -94l-64 -188 -64 188 128 0zm367 93l165 0 0 95 -289 0 0 -512 124 0 0 417zm-8064 -111l0 205 -66 0 0 -510 162 0c58,0 102,14 131,41 29,27 43,65 43,112 0,48 -15,85 -45,112 -30,27 -73,40 -130,40l-96 0zm90 -55c40,0 69,-8 86,-25 18,-17 26,-41 26,-72 0,-32 -9,-56 -26,-73 -18,-17 -46,-25 -86,-25l-90 0 0 195 90 0zm556 143l-224 0 -43 118 -71 0 189 -501 75 0 188 501 -71 0 -43 -118zm-19 -51l-93 -258 -93 258 187 0zm470 169l-133 -208 -72 0 0 208 -66 0 0 -510 168 0c58,0 101,14 130,42 29,28 43,65 43,110 0,41 -12,75 -35,100 -23,25 -57,41 -101,47l139 211 -75 0zm-205 -256l96 0c75,0 112,-33 112,-98 0,-66 -37,-98 -112,-98l-96 0 0 197zm655 138l-224 0 -43 118 -71 0 189 -501 75 0 188 501 -71 0 -43 -118zm-19 -51l-93 -258 -93 258 187 0zm700 37c0,24 -6,47 -17,67 -12,21 -29,38 -53,51 -24,13 -53,20 -88,20 -34,0 -64,-6 -90,-18 -26,-12 -47,-29 -63,-51 -16,-21 -25,-46 -27,-73l70 0c1,14 6,29 15,42 8,14 20,25 36,34 16,9 35,13 57,13 29,0 51,-8 67,-23 15,-15 23,-35 23,-59 0,-21 -5,-38 -16,-51 -11,-13 -24,-23 -40,-31 -16,-7 -38,-16 -65,-24 -32,-11 -58,-21 -78,-30 -20,-9 -36,-24 -50,-42 -14,-19 -21,-44 -21,-75 0,-27 6,-50 19,-70 13,-20 31,-36 55,-47 24,-11 52,-17 84,-17 50,0 90,12 119,37 29,24 47,55 51,93l-71 0c-4,-20 -14,-38 -31,-54 -17,-15 -40,-23 -69,-23 -27,0 -48,7 -64,21 -16,14 -24,33 -24,58 0,20 5,36 16,48 10,12 23,22 39,29 15,7 37,15 64,24 33,11 59,21 79,30 20,10 37,24 51,44 14,20 21,45 21,78zm154 -324l0 174 194 0 0 51 -194 0 0 178 216 0 0 54 -281 0 0 -510 281 0 0 54 -216 0zm362 -54l0 306c0,50 11,87 33,111 22,24 53,36 92,36 39,0 69,-12 90,-36 22,-24 33,-61 33,-111l0 -306 66 0 0 306c0,69 -17,122 -52,157 -34,35 -81,52 -139,52 -57,0 -103,-17 -138,-52 -34,-35 -52,-87 -52,-157l0 -306 66 0zm820 -5c62,0 114,15 154,46 41,31 68,72 84,126l-69 0c-13,-34 -34,-61 -63,-81 -29,-20 -64,-30 -106,-30 -33,0 -63,8 -89,24 -26,16 -47,39 -62,69 -15,30 -23,65 -23,106 0,40 8,75 23,105 15,30 36,53 62,69 26,16 56,24 89,24 42,0 77,-10 106,-30 29,-20 50,-47 63,-81l69 0c-15,53 -43,95 -84,126 -41,31 -92,46 -154,46 -48,0 -90,-11 -127,-33 -37,-22 -65,-53 -86,-92 -21,-39 -31,-84 -31,-134 0,-51 10,-96 31,-135 20,-40 49,-70 86,-92 37,-22 79,-33 127,-33zm392 464l181 0 0 51 -247 0 0 -510 66 0 0 459zm314 -459l0 510 -66 0 0 -510 66 0zm171 54l0 174 194 0 0 51 -194 0 0 178 216 0 0 54 -281 0 0 -510 281 0 0 54 -216 0zm697 457l-66 0 -265 -403 0 403 -66 0 0 -510 66 0 265 404 0 -404 66 0 0 510zm418 -510l0 54 -144 0 0 457 -66 0 0 -457 -144 0 0 -54 354 0zm131 54l0 174 194 0 0 51 -194 0 0 178 216 0 0 54 -281 0 0 -510 281 0 0 54 -216 0zm339 408c7,21 10,41 10,59 0,25 -6,45 -19,60 -13,15 -31,23 -56,23l0 -28c12,0 21,-3 26,-10 6,-7 8,-17 8,-31l0 -7 -37 0 0 -67 67 0zm2514 -157l0 205 -66 0 0 -510 162 0c58,0 102,14 131,41 29,27 43,65 43,112 0,48 -15,85 -45,112 -30,27 -73,40 -130,40l-96 0zm90 -55c40,0 69,-8 86,-25 18,-17 26,-41 26,-72 0,-32 -9,-56 -26,-73 -18,-17 -46,-25 -86,-25l-90 0 0 195 90 0zm556 143l-224 0 -43 118 -71 0 189 -501 75 0 188 501 -71 0 -43 -118zm-19 -51l-93 -258 -93 258 187 0zm470 169l-133 -208 -72 0 0 208 -66 0 0 -510 168 0c58,0 101,14 130,42 29,28 43,65 43,110 0,41 -12,75 -35,100 -23,25 -57,41 -101,47l139 211 -75 0zm-205 -256l96 0c75,0 112,-33 112,-98 0,-66 -37,-98 -112,-98l-96 0 0 197zm655 138l-224 0 -43 118 -71 0 189 -501 75 0 188 501 -71 0 -43 -118zm-19 -51l-93 -258 -93 258 187 0zm700 37c0,24 -6,47 -17,67 -12,21 -29,38 -53,51 -24,13 -53,20 -88,20 -34,0 -64,-6 -90,-18 -26,-12 -47,-29 -63,-51 -16,-21 -25,-46 -27,-73l70 0c1,14 6,29 15,42 8,14 20,25 36,34 16,9 35,13 57,13 29,0 51,-8 67,-23 15,-15 23,-35 23,-59 0,-21 -5,-38 -16,-51 -11,-13 -24,-23 -40,-31 -16,-7 -38,-16 -65,-24 -32,-11 -58,-21 -78,-30 -20,-9 -36,-24 -50,-42 -14,-19 -21,-44 -21,-75 0,-27 6,-50 19,-70 13,-20 31,-36 55,-47 24,-11 52,-17 84,-17 50,0 90,12 119,37 29,24 47,55 51,93l-71 0c-4,-20 -14,-38 -31,-54 -17,-15 -40,-23 -69,-23 -27,0 -48,7 -64,21 -16,14 -24,33 -24,58 0,20 5,36 16,48 10,12 23,22 39,29 15,7 37,15 64,24 33,11 59,21 79,30 20,10 37,24 51,44 14,20 21,45 21,78zm154 -324l0 174 194 0 0 51 -194 0 0 178 216 0 0 54 -281 0 0 -510 281 0 0 54 -216 0zm362 -54l0 306c0,50 11,87 33,111 22,24 53,36 92,36 39,0 69,-12 90,-36 22,-24 33,-61 33,-111l0 -306 66 0 0 306c0,69 -17,122 -52,157 -34,35 -81,52 -139,52 -57,0 -103,-17 -138,-52 -34,-35 -52,-87 -52,-157l0 -306 66 0zm739 378c0,24 -6,47 -17,67 -12,21 -29,38 -53,51 -24,13 -53,20 -88,20 -34,0 -64,-6 -90,-18 -26,-12 -47,-29 -63,-51 -16,-21 -25,-46 -27,-73l70 0c1,14 6,29 15,42 8,14 20,25 36,34 16,9 35,13 57,13 29,0 51,-8 67,-23 15,-15 23,-35 23,-59 0,-21 -5,-38 -16,-51 -11,-13 -24,-23 -40,-31 -16,-7 -38,-16 -65,-24 -32,-11 -58,-21 -78,-30 -20,-9 -36,-24 -50,-42 -14,-19 -21,-44 -21,-75 0,-27 6,-50 19,-70 13,-20 31,-36 55,-47 24,-11 52,-17 84,-17 50,0 90,12 119,37 29,24 47,55 51,93l-71 0c-4,-20 -14,-38 -31,-54 -17,-15 -40,-23 -69,-23 -27,0 -48,7 -64,21 -16,14 -24,33 -24,58 0,20 5,36 16,48 10,12 23,22 39,29 15,7 37,15 64,24 33,11 59,21 79,30 20,10 37,24 51,44 14,20 21,45 21,78zm663 132l-66 0 -265 -403 0 403 -66 0 0 -510 66 0 265 404 0 -404 66 0 0 510zm171 -457l0 174 194 0 0 51 -194 0 0 178 216 0 0 54 -281 0 0 -510 281 0 0 54 -216 0zm532 -59c59,0 109,15 149,44 40,29 67,69 81,120l-69 0c-12,-31 -32,-56 -60,-75 -28,-19 -62,-28 -100,-28 -35,0 -66,8 -93,24 -27,16 -49,39 -65,69 -16,30 -24,65 -24,106 0,41 8,77 24,107 16,30 38,53 66,69 28,16 61,24 97,24 31,0 60,-7 86,-20 26,-14 47,-33 64,-59 17,-26 27,-56 30,-91l-200 0 0 -49 256 0 0 61c-4,41 -17,77 -38,110 -21,33 -49,59 -84,78 -35,19 -75,29 -120,29 -49,0 -93,-11 -130,-33 -38,-22 -67,-53 -88,-92 -21,-39 -31,-84 -31,-135 0,-51 10,-96 31,-135 21,-39 50,-70 88,-92 38,-22 81,-33 130,-33zm565 -1c47,0 90,11 128,33 38,22 68,53 89,93 22,40 33,85 33,135 0,50 -11,95 -33,135 -22,40 -51,71 -89,93 -38,22 -80,33 -128,33 -47,0 -90,-11 -128,-33 -38,-22 -68,-53 -90,-93 -22,-40 -33,-85 -33,-135 0,-50 11,-95 33,-135 22,-40 52,-71 90,-93 38,-22 81,-33 128,-33zm0 61c-35,0 -67,8 -94,24 -28,16 -49,39 -65,69 -16,30 -24,65 -24,106 0,40 8,75 24,106 16,30 37,54 65,70 28,16 59,24 94,24 35,0 66,-8 94,-25 28,-16 49,-40 65,-70 16,-30 24,-65 24,-105 0,-41 -8,-76 -24,-106 -16,-30 -37,-53 -65,-69 -28,-16 -59,-24 -94,-24zm119 -171l-154 85 0 -47 154 -91 0 54zm446 111c62,0 114,15 154,46 41,31 68,72 84,126l-69 0c-13,-34 -34,-61 -63,-81 -29,-20 -64,-30 -106,-30 -33,0 -63,8 -89,24 -26,16 -47,39 -62,69 -15,30 -23,65 -23,106 0,40 8,75 23,105 15,30 36,53 62,69 26,16 56,24 89,24 42,0 77,-10 106,-30 29,-20 50,-47 63,-81l69 0c-15,53 -43,95 -84,126 -41,31 -92,46 -154,46 -48,0 -90,-11 -127,-33 -37,-22 -65,-53 -86,-92 -21,-39 -31,-84 -31,-134 0,-51 10,-96 31,-135 20,-40 49,-70 86,-92 37,-22 79,-33 127,-33zm392 5l0 510 -66 0 0 -510 66 0zm339 -7c47,0 90,11 128,33 38,22 68,53 89,93 22,40 33,85 33,135 0,50 -11,95 -33,135 -22,40 -51,71 -89,93 -38,22 -80,33 -128,33 -47,0 -90,-11 -128,-33 -38,-22 -68,-53 -90,-93 -22,-40 -33,-85 -33,-135 0,-50 11,-95 33,-135 22,-40 52,-71 90,-93 38,-22 81,-33 128,-33zm0 61c-35,0 -67,8 -94,24 -28,16 -49,39 -65,69 -16,30 -24,65 -24,106 0,40 8,75 24,106 16,30 37,54 65,70 28,16 59,24 94,24 35,0 66,-8 94,-25 28,-16 49,-40 65,-70 16,-30 24,-65 24,-105 0,-41 -8,-76 -24,-106 -16,-30 -37,-53 -65,-69 -28,-16 -59,-24 -94,-24zm661 323c0,24 -6,47 -17,67 -12,21 -29,38 -53,51 -24,13 -53,20 -88,20 -34,0 -64,-6 -90,-18 -26,-12 -47,-29 -63,-51 -16,-21 -25,-46 -27,-73l70 0c1,14 6,29 15,42 8,14 20,25 36,34 16,9 35,13 57,13 29,0 51,-8 67,-23 15,-15 23,-35 23,-59 0,-21 -5,-38 -16,-51 -11,-13 -24,-23 -40,-31 -16,-7 -38,-16 -65,-24 -32,-11 -58,-21 -78,-30 -20,-9 -36,-24 -50,-42 -14,-19 -21,-44 -21,-75 0,-27 6,-50 19,-70 13,-20 31,-36 55,-47 24,-11 52,-17 84,-17 50,0 90,12 119,37 29,24 47,55 51,93l-71 0c-4,-20 -14,-38 -31,-54 -17,-15 -40,-23 -69,-23 -27,0 -48,7 -64,21 -16,14 -24,33 -24,58 0,20 5,36 16,48 10,12 23,22 39,29 15,7 37,15 64,24 33,11 59,21 79,30 20,10 37,24 51,44 14,20 21,45 21,78zm182 -390l-9 373 -54 0 -9 -373 73 0zm4 445l0 77 -80 0 0 -77 80 0z"/>
   <path class="fil1" d="M6441 2608c931,-1032 2211,-1145 3800,-1055l0 0c1589,90 2308,375 3062,608l0 0c754,233 2053,411 2497,424l0 0c444,13 1314,-165 2064,-238l0 0c750,-75 908,351 908,351l0 0 -570 1217 343 168c0,0 419,-925 620,-1422l0 0c-277,-493 -1116,-691 -1116,-691l0 0 302 -635 1945 -237 -2783 39c0,0 -692,945 -828,1133l0 0c-648,124 -1895,-36 -2376,-203l0 0c-479,-167 -2430,-715 -4156,-855l0 0c-2307,-220 -3324,812 -3884,1175l0 0c-4765,-201 -6090,2831 -6090,2831l0 0c2299,-2989 5955,-2762 6263,-2610l0 0 0 0zm9702 384l-1272 10 -336 626 -304 -613 -1272 19 794 1121 -819 1133 1230 -9 388 -610 347 603 1186 -9 -777 -1079 835 -1193 1 0zm-3485 864l0 0 -828 6 -267 719 -313 -706 -845 -10 736 1368 -555 4 3 436c0,0 556,36 692,43l9 0c285,-9 476,-69 594,-276l0 0c118,-206 772,-1584 773,-1586l-1 1zm-3575 227c-73,-68 -233,-191 -451,-234l0 0c-307,-60 -717,34 -810,393l0 0c-71,268 -68,695 93,944l0 0c92,130 285,231 536,229l0 0c186,-1 406,-60 642,-204l1 108 763 -6 -11 -1435 -763 6 2 199 -1 0zm5 712c-27,63 -95,149 -272,161l0 0c-157,10 -276,-79 -283,-243 1,-78 -33,-304 148,-344l0 0c58,-9 79,-11 137,-8 99,4 148,11 267,159l2 274 1 0zm1735 -2291l-3767 212c0,0 608,-835 1610,-912l0 0c0,0 -1207,-93 -1960,1097l0 0c296,-25 4118,-397 4118,-397l0 0zm-4952 2874l1332 -10c0,0 -574,-622 -804,-962l0 0c602,-153 746,-576 710,-825l0 0c-118,-568 -665,-496 -665,-496l0 0 -2288 19 18 2271 1144 -9 -23 -722 574 736 1 -1zm102 -1447c-22,194 -248,241 -248,241l0 0 -410 3 -3 -455c0,0 114,-12 330,-14l0 0c216,-2 353,31 332,226l0 0 -1 0z"/>
  </g>
 </g>
 <g id="Camada_x0020_1">
  <metadata id="CorelCorpID_1Corel-Layer"/>
  <path class="fil2" d="M16275 1415c0,0 545,-447 848,-1022 303,-576 2204,-348 2204,-348 0,0 894,129 1182,492 288,364 613,848 613,932 0,83 121,1947 38,2287 -83,341 -659,1666 -659,1666l-386 98c0,0 -295,-674 -318,-985 -23,-311 -151,-947 -197,-947 -45,0 -1341,-121 -1341,-121 0,0 -1295,-659 -1333,-704 -38,-45 -629,-795 -629,-848 0,-53 -23,-500 -23,-500z"/>
  <path class="fil3" style="mask:url(#id0)" d="M21152 2045c29,602 63,1486 8,1710 -83,341 -659,1666 -659,1666l-386 98c0,0 -295,-674 -318,-985 -23,-311 -151,-947 -197,-947 -45,0 -1341,-121 -1341,-121 0,0 -710,-361 -1094,-567l406 -1851c0,0 394,432 1000,553 606,121 523,447 636,826 114,379 454,1250 470,1333 15,83 106,704 220,750 114,45 273,76 280,-136 7,-206 376,-2020 975,-2330z"/>
  <polygon class="fil1" points="16556,1476 16389,1430 16313,1279 16196,1332 15938,1252 15957,1332 15586,1476 15586,1582 15510,1601 15503,1828 15446,1832 15492,2013 15439,2188 15681,2248 15537,2419 15738,2544 15749,2737 15931,2744 15999,2805 15954,2949 16105,3044 16105,3161 16328,3229 16525,3407 16594,3384 16798,3649 17040,3577 17120,3949 17427,3843 17597,4058 17752,4036 17760,4142 17885,4134 17995,4327 18252,4286 18256,4350 18347,4320 18472,4600 18548,4558 18934,4721 19021,4577 19324,4714 19551,4657 19752,4687 19862,4562 19972,4573 19919,4282 20028,4316 19907,3835 19998,3706 19865,3627 19896,3384 19680,3373 19536,3262 19487,3316 19343,3202 19082,3354 18809,3187 18650,3331 18506,3036 18161,3161 18158,3059 18048,3108 18063,2945 17680,2794 17646,2646 17499,2608 17472,2430 17169,2457 17135,2301 16938,2195 16961,2082 16798,1998 16753,1786 16563,1786 16590,1657 16518,1616 "/>
  <polygon class="fil1" points="20574,5248 20574,5141 20411,5198 20240,5111 20225,5229 20081,5183 20081,5229 19949,5327 19972,5463 19865,5566 20047,5770 19937,5967 20203,5914 20293,6066 20384,5982 20630,6054 20630,5922 20790,5880 20835,5755 20941,5626 20812,5547 20835,5463 20699,5418 20718,5301 "/>
 </g>
</svg>
