<?xml version="1.0" encoding="UTF-8"?>
<!DOCTYPE svg PUBLIC "-//W3C//DTD SVG 1.1//EN" "http://www.w3.org/Graphics/SVG/1.1/DTD/svg11.dtd">
<!-- Creator: CorelDRAW 2018 -->
<svg xmlns="http://www.w3.org/2000/svg" xml:space="preserve" width="150.824mm" height="46.4596mm" version="1.1" style="shape-rendering:geometricPrecision; text-rendering:geometricPrecision; image-rendering:optimizeQuality; fill-rule:evenodd; clip-rule:evenodd"
viewBox="0 0 15082.38 4645.96"
 xmlns:xlink="http://www.w3.org/1999/xlink">
 <defs>
  <style type="text/css">
   <![CDATA[
    .fil0 {fill:white}
   ]]>
  </style>
 </defs>
 <g id="Camada_x0020_1">
  <metadata id="CorelCorpID_0Corel-Layer"/>
  <g id="_662945648">
   <path class="fil0" d="M14714.78 360.16l54.4 0c26.04,0 43.78,-3.84 53.24,-11.55 9.46,-7.7 14.24,-17.98 14.24,-30.59 0,-8.17 -2.34,-15.53 -6.89,-21.95 -4.55,-6.53 -10.85,-11.32 -18.91,-14.47 -8.17,-3.16 -23.11,-4.79 -45.06,-4.79l-51.02 0 0 83.35zm-44.82 156.21l0 -277.38 95.49 0c32.69,0 56.27,2.57 70.86,7.7 14.71,5.14 26.27,14.01 35.02,26.86 8.64,12.72 12.96,26.26 12.96,40.62 0,20.2 -7.24,37.95 -21.83,52.89 -14.48,15.05 -33.74,23.46 -57.79,25.33 9.81,4.09 17.75,8.98 23.58,14.71 11.21,10.85 24.87,29.18 41.1,54.98l33.85 54.29 -54.4 0 -24.75 -43.67c-19.38,-34.43 -35.14,-56.03 -47.04,-64.67 -8.18,-6.3 -20.08,-9.45 -35.84,-9.34l-26.39 0 0 117.68 -44.82 0zm113.35 -357.93c-36.31,0 -71.68,9.34 -106,27.9 -34.32,18.56 -61.18,45.18 -80.55,79.74 -19.38,34.55 -29.07,70.51 -29.07,107.86 0,37.24 9.57,72.85 28.6,106.94 19.03,34.09 45.65,60.7 79.85,79.73 34.2,19.03 69.93,28.6 107.17,28.6 37.12,0 72.85,-9.57 107.06,-28.6 34.2,-19.03 60.82,-45.64 79.73,-79.73 18.91,-34.09 28.37,-69.7 28.37,-106.94 0,-37.35 -9.7,-73.31 -28.96,-107.86 -19.26,-34.56 -46.11,-61.18 -80.55,-79.74 -34.44,-18.56 -69.69,-27.9 -105.65,-27.9zm0 -42.73c43.31,0 85.57,11.09 126.9,33.39 41.21,22.18 73.42,54.05 96.42,95.38 23,41.44 34.56,84.64 34.56,129.46 0,44.48 -11.33,87.32 -34.08,128.3 -22.66,41.1 -54.41,72.96 -95.38,95.62 -40.98,22.75 -83.83,34.08 -128.42,34.08 -44.71,0 -87.56,-11.33 -128.53,-34.08 -40.98,-22.66 -72.85,-54.52 -95.62,-95.62 -22.75,-40.98 -34.2,-83.82 -34.2,-128.3 0,-44.82 11.56,-88.02 34.68,-129.46 23.23,-41.33 55.44,-73.2 96.66,-95.38 41.32,-22.3 83.58,-33.39 127.01,-33.39z"/>
   <path class="fil0" d="M4503.87 2100.94c0,194.68 -185.3,194.68 -185.3,194.68l-302.94 0 0 -339.97c121.72,0.66 241.68,0 241.68,0 0,0 246.56,0 246.56,145.29zm-83.78 1081.8l1000.57 1.55c0,0 -428.18,-463.51 -599.94,-716.81l0 0c448.9,-113.9 556.72,-428.8 529.85,-615.37l0 0c-71.24,-331.81 -423.1,-331.81 -495.2,-331.81l-1699.41 0 0 1662.44 859.67 0 0 -540.92 404.46 540.92z"/>
   <path class="fil0" d="M7978.68 1049.15l-2719.11 118.45c262.67,-361.08 667.2,-606.56 1110.62,-640.35 0,0 -900.23,-69.36 -1461.84,817.95l0 0c220.47,-18.7 3070.33,-296.05 3070.33,-296.05z"/>
   <path class="fil0" d="M6757.17 2720.58c-19.68,47.22 -70.65,111.44 -202.62,120.48 -283.22,18.34 -260.92,-402.99 -100.12,-437.37 114.08,-30.33 243.03,-5.41 301.13,111.99l1.61 204.9zm2.49 -539.68c-238.42,-247.7 -867.79,-214.44 -947.98,127.04 -55.01,205.35 -49.01,521.27 69.33,703.93 87.68,123.14 255.29,172.02 399.94,170.87 169.95,-1.36 335.31,-18.15 478.71,-106.05l0.62 106.05 568.75 0 -0.43 -1162.37 -568.94 0 0 160.53z"/>
   <path class="fil0" d="M9371.14 2020.37l-615.84 0 -181.41 577.76 -261.38 -577.76 -626.6 0 573.59 1064.05 -413.78 3.29 2.58 324.73c0,0 414.43,27.04 516.35,32.65 175.23,5.04 358.2,-45.49 449.93,-205.83 203.65,-355.79 380.7,-841.73 556.56,-1218.89z"/>
   <polygon class="fil0" points="12063.96,1520.3 11147.28,1520.3 10908.39,1964.74 10687.8,1520.3 9728.44,1520.3 10325.72,2357.78 9728.44,3182.74 10639.45,3182.74 10908.39,2742.1 11173.9,3182.74 12063.96,3182.74 11482.31,2357.78 "/>
   <path class="fil0" d="M9827.17 792.57c1288.28,374.92 2206.48,410.99 3318.41,198.88 212.87,-21.06 670.13,-39.4 759.06,201.62l-425.57 907.39 255.6 125.32c0,0 312.83,-690.04 462.65,-1060.47 -146.52,-260.67 -547.53,-448.25 -831.68,-515.49l225.5 -472.87 1450.05 -176.95 -2054.08 0c0,0 -537.53,733.5 -638.31,874.44 -437.37,84.18 -1206.42,-25.8 -1771.03,-151.45 -1161.05,-305.77 -2131.43,-587.82 -3069.31,-663.8 -1384.55,-132.56 -2164.05,258.08 -2925.83,831.34 -1577.91,-66.64 -3580.86,368.52 -4541.44,2182.47l0 0c1713.95,-2229.07 4175.86,-1914.31 4670.17,-1946.87 1156.47,-1282.16 3644.11,-788.94 5115.81,-333.56z"/>
  </g>
  <path class="fil0" d="M515.25 4645.96l-72.09 -118.74c-16.26,2.83 -34.99,4.24 -56.19,4.24 -70.68,0 -135.53,-16.61 -194.55,-49.83 -59.02,-33.22 -105.84,-79.16 -140.47,-137.82 -34.64,-58.67 -51.95,-124.75 -51.95,-198.26 0,-73.51 17.31,-139.59 51.95,-198.26 34.63,-58.66 81.45,-104.43 140.47,-137.29 59.02,-32.87 123.87,-49.3 194.55,-49.3 70.68,0 135.35,16.43 194.02,49.3 58.66,32.86 105.13,78.63 139.41,137.29 34.28,58.67 51.42,124.75 51.42,198.26 0,60.08 -11.66,115.38 -34.98,165.92 -23.33,50.54 -55.49,93.47 -96.48,128.81l152.67 205.68 -277.78 0zm-275.65 -500.41c0,50.89 12.72,91.35 38.17,121.39 25.44,30.04 61.84,45.06 109.2,45.06 46.65,0 82.69,-15.02 108.14,-45.06 25.44,-30.04 38.17,-70.5 38.17,-121.39 0,-51.6 -12.73,-92.42 -38.17,-122.45 -25.45,-30.04 -61.49,-45.06 -108.14,-45.06 -47.36,0 -83.76,15.02 -109.2,45.06 -25.45,30.03 -38.17,70.85 -38.17,122.45zm847.1 -372.13l0 423.02c0,34.63 7.6,62.02 22.8,82.16 15.19,20.15 39.76,30.22 73.68,30.22 33.93,0 59.02,-10.07 75.28,-30.22 16.25,-20.14 24.38,-47.53 24.38,-82.16l0 -423.02 234.3 0 0 423.02c0,71.38 -14.84,132.35 -44.52,182.88 -29.69,50.54 -70.33,88.53 -121.93,113.97 -51.59,25.45 -109.2,38.17 -172.81,38.17 -63.61,0 -119.98,-12.72 -169.1,-38.17 -49.12,-25.44 -87.47,-63.25 -115.03,-113.44 -27.57,-50.18 -41.35,-111.32 -41.35,-183.41l0 -423.02 234.3 0zm1013.55 637.18l-250.21 0 -37.1 113.44 -247.03 0 274.59 -750.62 271.41 0 273.53 750.62 -248.08 0 -37.11 -113.44zm-57.25 -177.05l-67.85 -208.86 -67.86 208.86 135.71 0zm630.81 112.38l226.89 0 0 178.11 -462.25 0 0 -750.62 235.36 0 0 572.51zm536.46 -572.51l0 750.62 -235.36 0 0 -750.62 235.36 0zm808.93 373.19c0,71.39 -15.9,135.7 -47.71,192.96 -31.8,57.25 -77.21,102.3 -136.23,135.17 -59.02,32.87 -127.76,49.3 -206.21,49.3l-312.76 0 0 -750.62 312.76 0c78.45,0 147.19,15.9 206.21,47.71 59.02,31.8 104.43,75.98 136.23,132.52 31.81,56.55 47.71,120.87 47.71,192.96zm-411.35 167.51c53.01,0 95.06,-14.49 126.16,-43.47 31.1,-28.98 46.65,-70.32 46.65,-124.04 0,-53.72 -15.55,-95.07 -46.65,-124.04 -31.1,-28.98 -73.15,-43.47 -126.16,-43.47l-56.2 0 0 335.02 56.2 0zm977.5 96.48l-250.21 0 -37.1 113.44 -247.03 0 274.59 -750.62 271.41 0 273.53 750.62 -248.08 0 -37.11 -113.44zm-57.25 -177.05l-67.85 -208.86 -67.86 208.86 135.71 0zm1098.36 -86.94c0,71.39 -15.9,135.7 -47.71,192.96 -31.8,57.25 -77.21,102.3 -136.23,135.17 -59.02,32.87 -127.76,49.3 -206.21,49.3l-312.76 0 0 -750.62 312.76 0c78.45,0 147.19,15.9 206.21,47.71 59.02,31.8 104.43,75.98 136.23,132.52 31.81,56.55 47.71,120.87 47.71,192.96zm-411.35 167.51c53.01,0 95.06,-14.49 126.16,-43.47 31.1,-28.98 46.65,-70.32 46.65,-124.04 0,-53.72 -15.55,-95.07 -46.65,-124.04 -31.1,-28.98 -73.15,-43.47 -126.16,-43.47l-56.2 0 0 335.02 56.2 0zm731.53 -354.11l0 93.3 233.25 0 0 177.05 -233.25 0 0 106.02 265.05 0 0 187.66 -500.41 0 0 -750.62 500.41 0 0 186.59 -265.05 0zm1046.42 364.71c0,36.76 -8.84,70.86 -26.51,102.31 -17.67,31.45 -44.53,56.72 -80.57,75.81 -36.05,19.08 -80.23,28.62 -132.53,28.62 -50.89,0 -96.48,-9.01 -136.76,-27.03 -40.29,-18.03 -72.45,-43.3 -96.48,-75.81 -24.03,-32.51 -37.82,-69.97 -41.35,-112.38l129.34 0c3.54,32.51 17.5,60.43 41.88,83.76 24.39,23.32 57.08,34.98 98.07,34.98 36.75,0 65.2,-9.89 85.35,-29.68 20.14,-19.79 30.21,-45.24 30.21,-76.34 0,-26.86 -7.42,-48.94 -22.26,-66.26 -14.84,-17.32 -33.22,-30.92 -55.13,-40.82 -21.91,-9.89 -51.95,-21.2 -90.12,-33.92 -46.65,-14.85 -84.64,-29.69 -113.97,-44.53 -29.33,-14.84 -54.25,-36.4 -74.74,-64.67 -20.5,-28.28 -30.75,-65.38 -30.75,-111.33 0,-40.28 9.89,-75.62 29.68,-106.02 19.8,-30.39 48.07,-53.89 84.82,-70.5 36.75,-16.61 79.16,-24.91 127.22,-24.91 76.34,0 136.95,18.37 181.83,55.13 44.88,36.75 70.5,84.81 76.86,144.18l-130.4 0c-4.95,-28.27 -18.2,-52.48 -39.76,-72.62 -21.56,-20.14 -51.06,-30.21 -88.53,-30.21 -33.92,0 -61.13,8.65 -81.63,25.97 -20.5,17.32 -30.75,42.23 -30.75,74.74 0,25.45 7.07,46.48 21.21,63.09 14.13,16.61 31.98,29.68 53.54,39.22 21.56,9.55 51.06,20.68 88.52,33.4 47.36,14.84 86.06,29.86 116.1,45.06 30.04,15.19 55.48,37.28 76.33,66.26 20.85,28.98 31.28,67.15 31.28,114.5zm241.73 -451.64l0 226.88 275.65 0 0 93.3 -275.65 0 0 232.18 307.45 0 0 98.6 -428.32 0 0 -748.5 428.32 0 0 97.54 -307.45 0zm1201.2 -85.88l0 736.84 -121.92 0 0 -552.36 -213.1 552.36 -106.02 0 -214.16 -552.36 0 552.36 -120.87 0 0 -736.84 146.31 0 243.85 588.41 239.6 -588.41 146.31 0zm266.11 446.35l0 290.49 -120.87 0 0 -748.5 254.45 0c86.23,0 151.08,20.5 194.55,61.49 43.47,40.99 65.2,97.19 65.2,168.57 0,70.68 -22.26,126.34 -66.79,166.98 -44.53,40.64 -108.85,60.97 -192.96,60.97l-133.58 0zm120.86 -98.6c99.66,0 149.49,-43.12 149.49,-129.35 0,-42.41 -11.84,-74.74 -35.52,-97.01 -23.68,-22.26 -61.67,-33.39 -113.97,-33.39l-120.86 0 0 259.75 120.86 0zm771.83 389.09l-186.6 -298.98 -85.87 0 0 298.98 -120.87 0 0 -748.5 263.99 0c85.53,0 150.38,20.85 194.55,62.55 44.18,41.7 66.26,96.83 66.26,165.39 0,58.67 -16.43,106.73 -49.3,144.19 -32.86,37.46 -80.39,61.49 -142.59,72.09l196.13 304.28 -135.7 0zm-272.47 -384.85l133.58 0c97.54,0 146.31,-43.12 146.31,-129.35 0,-40.99 -11.84,-72.97 -35.52,-95.95 -23.68,-22.97 -60.61,-34.45 -110.79,-34.45l-133.58 0 0 259.75zm634 -266.11l0 226.88 275.65 0 0 93.3 -275.65 0 0 232.18 307.45 0 0 98.6 -428.32 0 0 -748.5 428.32 0 0 97.54 -307.45 0zm1119.57 488.75l-315.94 0 -57.25 162.21 -129.35 0 275.66 -736.84 138.88 0 274.59 736.84 -129.34 0 -57.25 -162.21zm-33.93 -93.3l-124.04 -349.86 -124.05 349.86 248.09 0zm-62.55 -623.4l0 84.82 -234.3 -119.8 0 -94.36 234.3 129.34zm1063.39 130.41l0 97.54 -321.24 0 0 232.18 265.05 0 0 93.3 -265.05 0 0 325.48 -120.87 0 0 -748.5 442.11 0zm501.47 748.5l-186.6 -298.98 -85.87 0 0 298.98 -120.87 0 0 -748.5 263.99 0c85.53,0 150.38,20.85 194.55,62.55 44.18,41.7 66.26,96.83 66.26,165.39 0,58.67 -16.43,106.73 -49.3,144.19 -32.86,37.46 -80.39,61.49 -142.59,72.09l196.13 304.28 -135.7 0zm-272.47 -384.85l133.58 0c97.54,0 146.31,-43.12 146.31,-129.35 0,-40.99 -11.84,-72.97 -35.52,-95.95 -23.68,-22.97 -60.61,-34.45 -110.79,-34.45l-133.58 0 0 259.75zm634 -266.11l0 226.88 275.65 0 0 93.3 -275.65 0 0 232.18 307.45 0 0 98.6 -428.32 0 0 -748.5 428.32 0 0 97.54 -307.45 0zm1030.51 650.96l-120.86 0 -363.65 -552.36 0 552.36 -120.87 0 0 -747.44 120.87 0 363.65 554.48 0 -554.48 120.86 0 0 747.44zm627.63 -748.5l0 97.54 -208.85 0 0 650.96 -121.93 0 0 -650.96 -207.8 0 0 -97.54 538.58 0zm210.99 97.54l0 226.88 275.65 0 0 93.3 -275.65 0 0 232.18 307.45 0 0 98.6 -428.32 0 0 -748.5 428.32 0 0 97.54 -307.45 0z"/>
 </g>
</svg>
