<?xml version="1.0" encoding="iso-8859-1"?>
<!-- Generator: Adobe Illustrator 19.0.0, SVG Export Plug-In . SVG Version: 6.00 Build 0)  -->
<svg xmlns="http://www.w3.org/2000/svg" xmlns:xlink="http://www.w3.org/1999/xlink" version="1.1" id="Capa_1" x="0px" y="0px" viewBox="0 0 512 512" style="enable-background:new 0 0 512 512;" xml:space="preserve" width="512" height="512">
<g>
	<g>
		<g>
			<path style="fill:#CC3A60;" d="M387.393,267.226v-46.852V34.113c0-14.514-11.615-26.319-26.07-26.608     c-14.927-0.298-27.145,12.266-27.145,27.196v228.567c0,14.692,11.91,26.602,26.602,26.602h26.613h14.298     c2.124,0,2.93-2.793,1.121-3.905C396.185,281.89,387.393,275.016,387.393,267.226z"/>
		</g>
		<g>
			<path style="fill:#F9C295;" d="M317.783,69.244v37.745v139.993H211.624c-13.369,0-24.203-10.834-24.203-24.203v-12.815h-64.598     V89.861h64.598V83.22c0-5.103,1.398-9.891,3.835-13.976c4.767-8.017,13.51-13.379,23.509-13.379h103.018V69.244z"/>
			<path style="fill:#E59F6A;" d="M187.422,197.218v-12.815h-64.598v25.562h64.598v12.815c0,13.369,10.834,24.203,24.202,24.203     h106.159V221.42H211.624C198.255,221.42,187.422,210.586,187.422,197.218z"/>
			<path style="fill:#EBEEF2;" d="M155.757,82.805v134.211c0,5.397-4.38,9.778-9.787,9.778h-31.059V73.028h31.059     C151.377,73.028,155.757,77.408,155.757,82.805z"/>
			<path style="fill:#D1D6DE;" d="M145.97,203.398h-31.059v23.396h31.059c5.407,0,9.787-4.38,9.787-9.777v-23.396     C155.757,199.018,151.377,203.398,145.97,203.398z"/>
			<polygon style="fill:#656D88;" points="76.17,239.993 114.911,239.993 114.911,59.828 48.235,59.828    "/>
			<polygon style="fill:#444966;" points="72.497,216.302 76.17,239.993 114.911,239.993 114.911,216.302    "/>
		</g>
		<g>
			<path style="fill:#F2DF33;" d="M120.661,289.506c-4.007,12.516-8.747,17.257-21.264,21.264c-2.102,0.673-2.102,3.653,0,4.326     c12.516,4.007,17.257,8.747,21.264,21.264c0.673,2.102,3.653,2.102,4.326,0c4.007-12.516,8.747-17.257,21.264-21.264     c2.102-0.673,2.102-3.653,0-4.326c-12.516-4.007-17.257-8.747-21.264-21.264C124.314,287.405,121.333,287.405,120.661,289.506z"/>
		</g>
		<g>
			<path style="fill:#5C9CEE;" d="M436.6,417.827c-4.007,12.516-8.747,17.257-21.264,21.264c-2.102,0.673-2.102,3.653,0,4.326     c12.516,4.007,17.257,8.747,21.264,21.264c0.673,2.102,3.653,2.102,4.326,0c4.007-12.516,8.747-17.257,21.264-21.264     c2.102-0.673,2.102-3.653,0-4.326c-12.516-4.007-17.257-8.747-21.264-21.264C440.253,415.726,437.272,415.726,436.6,417.827z"/>
		</g>
		<g>
			<path style="fill:#EBEEF2;" d="M436.6,159.691c-4.007,12.516-8.747,17.257-21.264,21.264c-2.102,0.673-2.102,3.653,0,4.326     c12.516,4.007,17.257,8.747,21.264,21.264c0.673,2.102,3.653,2.102,4.326,0c4.007-12.516,8.747-17.257,21.264-21.264     c2.102-0.673,2.102-3.653,0-4.326c-12.516-4.007-17.257-8.747-21.264-21.264C440.253,157.59,437.272,157.59,436.6,159.691z"/>
		</g>
		<path style="fill:#5C9CEE;" d="M360.779,7.5c-14.695,0-26.602,11.918-26.602,26.613v321.936h-99.056V34.113    c0-14.695,11.907-26.613,26.602-26.613H360.779z"/>
		<path style="fill:#ED5575;" d="M360.779,7.5c-11.266,0-20.891,7.005-24.758,16.899c-1.192,3.013-1.844,6.286-1.844,9.715v321.936    h-49.528V34.113c0-14.695,11.907-26.613,26.602-26.613H360.779z"/>
		<g>
			<circle style="fill:#FCAB29;" cx="284.649" cy="398.818" r="105.682"/>
			<path style="fill:#DD8D19;" d="M336.817,306.894c19.84,19.211,32.178,46.125,32.178,75.924     c0,58.367-47.315,105.682-105.682,105.682c-18.973,0-36.775-5.004-52.167-13.757c19.021,18.417,44.936,29.757,73.504,29.757     c58.366,0,105.682-47.315,105.682-105.682C390.331,359.425,368.775,325.069,336.817,306.894z"/>
			<path style="fill:#F2DF33;" d="M281.443,447.494l-23.306,7.297c-6.866,2.15-13.861-2.933-13.938-10.127l-0.263-24.42     c-0.024-2.188-0.715-4.316-1.982-6.099l-14.141-19.911c-4.166-5.866-1.494-14.089,5.324-16.386l23.144-7.796     c2.073-0.698,3.883-2.014,5.188-3.77l14.566-19.602c4.291-5.775,12.938-5.775,17.229,0l14.566,19.602     c1.305,1.756,3.115,3.071,5.188,3.77l23.144,7.796c6.818,2.297,9.49,10.52,5.324,16.386l-14.141,19.911     c-1.267,1.784-1.958,3.912-1.982,6.099l-0.263,24.42c-0.077,7.194-7.072,12.276-13.938,10.127l-23.306-7.297     C285.768,446.84,283.531,446.84,281.443,447.494z"/>
		</g>
		<g>
			<g>
				<path style="fill:#F4B07D;" d="M366.123,224.765c0,12.27-9.947,22.217-22.217,22.217h-47.013      c-12.27,0-22.217-9.947-22.217-22.217s9.947-22.217,22.217-22.217h47.013C356.176,202.548,366.123,212.495,366.123,224.765z"/>
				<path style="fill:#FCD0AE;" d="M366.123,180.332c0,12.27-9.947,22.217-22.217,22.217h-47.013      c-12.27,0-22.217-9.947-22.217-22.217s9.947-22.217,22.217-22.217h47.013C356.176,158.115,366.123,168.062,366.123,180.332z"/>
				<path style="fill:#EF9E67;" d="M366.123,135.898c0,12.27-9.947,22.217-22.217,22.217h-47.013      c-12.27,0-22.217-9.947-22.217-22.217s9.947-22.217,22.217-22.217h47.013C356.176,113.682,366.123,123.628,366.123,135.898z"/>
				<path style="fill:#FCD0AE;" d="M366.123,91.465c0,12.27-9.947,22.217-22.217,22.217h-47.013      c-12.27,0-22.217-9.947-22.217-22.217s9.947-22.217,22.217-22.217h47.013C356.176,69.248,366.123,79.195,366.123,91.465z"/>
			</g>
			<path style="fill:#F9C295;" d="M306.592,55.87h11.682c9.936,0,17.99,8.055,17.99,17.99v75.956c0,4.583-3.715,8.299-8.298,8.299     h-10.754c-14.541,0-26.329-11.788-26.329-26.329v-29.434h-21.404c-4.548,0-8.235,3.687-8.235,8.235v4.429     c0,21.426-17.37,38.796-38.796,38.796h-6.369c-11.25,0-28.657-12.738-28.657-38.796V89.861V83.22     c0-5.103,1.398-9.891,3.835-13.976c4.767-8.017,13.51-13.379,23.509-13.379h91.826V55.87z"/>
		</g>
	</g>
	<g>
		<path d="M361.495,289.87c0,4.143,3.357,7.5,7.5,7.5h32.696c4.351,0,8.069-2.814,9.255-7.004c1.182-4.18-0.508-8.516-4.206-10.791    c-8.745-5.375-11.848-10.012-11.848-12.35V34.113c0-18.438-14.992-33.738-33.42-34.105c-0.175-0.004-0.348,0.002-0.522,0.001    C360.893,0.007,360.838,0,360.78,0h-49.53h-49.53c-18.803,0-34.1,15.302-34.1,34.11v14.25H214.77    c-11.545,0-22.415,5.826-28.849,15.316c-0.382,0.563-0.754,1.135-1.104,1.724c-1.528,2.561-2.713,5.304-3.534,8.156    c-0.821,2.851-1.279,5.81-1.352,8.804h-16.696c-0.24-9.32-7.883-16.833-17.265-16.833h-23.559v-5.699c0-4.143-3.357-7.5-7.5-7.5    H48.234c-4.143,0-7.5,3.357-7.5,7.5s3.357,7.5,7.5,7.5h59.177v5.699v153.767v5.699H76.17c-4.143,0-7.5,3.357-7.5,7.5    s3.357,7.5,7.5,7.5h38.741c4.143,0,7.5-3.357,7.5-7.5v-5.699h23.559c9.383,0,17.026-7.514,17.265-16.834h16.686v5.32    c0,17.479,14.221,31.7,31.7,31.7h16v46.609c-33.561,19.66-56.152,56.104-56.152,97.729c0,62.408,50.773,113.182,113.182,113.182    c30.262,0,58.704-11.793,80.087-33.205c2.927-2.931,2.924-7.68-0.007-10.606c-2.932-2.928-7.679-2.925-10.606,0.007    C335.573,486.771,310.9,497,284.649,497c-54.138,0-98.182-44.044-98.182-98.182s44.044-98.182,98.182-98.182    s98.182,44.044,98.182,98.182c0,16.403-4.122,32.632-11.921,46.932c-1.982,3.637-0.643,8.192,2.994,10.176    c3.638,1.982,8.193,0.642,10.176-2.994c8.996-16.496,13.751-35.208,13.751-54.113c0-41.625-22.591-78.067-56.151-97.728v-46.609    h2.227c16.386,0,29.717-13.331,29.717-29.717c0-8.831-3.876-16.769-10.011-22.217c6.135-5.448,10.011-13.386,10.011-22.217    c0-8.832-3.877-16.771-10.013-22.218c6.134-5.447,10.01-13.384,10.01-22.213c0-8.832-3.875-16.772-10.01-22.221    c6.134-5.448,10.01-13.388,10.01-22.22c0-16.382-13.328-29.71-29.71-29.71h-2.23V34.644c0.016-5.284,2.204-10.452,6.015-14.186    c3.212-3.149,7.278-5.001,11.554-5.38c0.144-0.011,0.29-0.014,0.435-0.022c0.495-0.032,0.99-0.06,1.489-0.052    c10.322,0.206,18.72,8.778,18.72,19.109v233.112c0,5.226,2.189,10.29,6.533,15.145h-17.431    C364.853,282.37,361.495,285.728,361.495,289.87z M261.72,15h21.294c-1.767,2.618-3.212,5.499-4.223,8.623    c-1.088,3.382-1.64,6.91-1.64,10.487c0,4.143,3.357,7.5,7.5,7.5s7.5-3.357,7.5-7.5c0-2.016,0.31-3.998,0.915-5.881    C295.627,20.316,302.935,15,311.25,15h21.262c-0.861,1.285-1.631,2.646-2.321,4.062c-0.07,0.142-0.141,0.284-0.209,0.428    c-0.24,0.511-0.467,1.03-0.684,1.557c-0.126,0.303-0.251,0.606-0.369,0.914c-0.206,0.538-0.397,1.08-0.575,1.626    c-0.073,0.226-0.145,0.451-0.214,0.678c-0.204,0.673-0.392,1.351-0.553,2.034c-0.027,0.114-0.048,0.23-0.074,0.345    c-0.149,0.661-0.276,1.327-0.384,1.996c-0.022,0.138-0.048,0.274-0.068,0.412c-0.111,0.743-0.196,1.492-0.258,2.244    c-0.012,0.15-0.021,0.3-0.031,0.45c-0.054,0.785-0.09,1.572-0.09,2.365v0.477c0,0.038-0.003,0.076-0.003,0.114    c0,0.02,0.003,0.039,0.003,0.058v15.042c-2.634-0.923-5.461-1.431-8.406-1.431h-11.383c-0.1-0.004-0.199-0.006-0.299-0.006H242.62    V34.11C242.62,23.573,251.188,15,261.72,15z M148.257,217.017c0,1.256-1.026,2.277-2.287,2.277h-23.559V80.527h23.559    c1.261,0,2.287,1.022,2.287,2.278V217.017z M211.62,239.48c-9.209,0-16.7-7.491-16.7-16.7v-12.82c0-4.143-3.357-7.5-7.5-7.5    h-24.163V97.36h24.163h0.002c4.143,0,7.5-3.357,7.5-7.5V83.22c0-1.761,0.234-3.501,0.686-5.179c0.469-1.739,1.171-3.412,2.1-4.97    c3.282-5.523,9.097-9.108,15.443-9.636c0.535-0.042,1.072-0.071,1.616-0.071h91.527c0.1,0.004,0.199,0.006,0.299,0.006h11.682    c5.785,0,10.491,4.706,10.491,10.49v39.723c0,0.033-0.005,0.064-0.005,0.097s0.004,0.064,0.005,0.097v36.04    c0,0.432-0.346,0.78-0.775,0.794h-10.875c-10.338-0.053-18.733-8.474-18.733-18.824v-29.435c0-4.143-3.357-7.5-7.5-7.5h-13.379    c-0.045,0-0.09-0.001-0.136,0h-7.889c-8.677,0-15.735,7.059-15.735,15.735v4.429c0,17.257-14.039,31.296-31.296,31.296    c-4.143,0-7.5,3.357-7.5,7.5s3.357,7.5,7.5,7.5c1.749,0,3.473-0.106,5.172-0.296v78.465H211.62z M283.383,130.09v1.696    c0,5.297,1.227,10.312,3.406,14.78c-2.831-2.683-4.609-6.466-4.609-10.666C282.18,133.858,282.607,131.889,283.383,130.09z     M326.68,293.733c-10.794-4.333-22.404-7.044-34.529-7.842V273c0-4.143-3.357-7.5-7.5-7.5s-7.5,3.357-7.5,7.5v12.891    c-12.126,0.797-23.736,3.509-34.53,7.842V156.678c15.449-7.51,26.124-23.362,26.124-41.663v-4.429c0-0.405,0.33-0.735,0.735-0.735    h4.086c1.098,1.388,2.317,2.673,3.638,3.842c-6.201,5.521-10.024,13.535-10.024,22.207c0,8.829,3.875,16.766,10.01,22.213    c-6.136,5.447-10.013,13.386-10.013,22.218c0,8.831,3.876,16.769,10.011,22.217c-6.135,5.448-10.011,13.386-10.011,22.217    c0,16.386,13.331,29.717,29.717,29.717h29.786V293.733z M358.623,224.765c0,8.115-6.602,14.717-14.717,14.717h-9.707    c-0.007,0-0.013-0.001-0.019-0.001s-0.013,0.001-0.019,0.001h-37.267c-8.115,0-14.717-6.602-14.717-14.717    s6.602-14.717,14.717-14.717h47.013C352.021,210.048,358.623,216.649,358.623,224.765z M296.894,195.048    c-8.115,0-14.717-6.602-14.717-14.717c0-8.114,6.602-14.716,14.717-14.716h20.318h10.754h15.94    c8.115,0,14.717,6.602,14.717,14.716c0,8.115-6.602,14.717-14.717,14.717H296.894z M358.62,135.9c0,8.111-6.599,14.71-14.71,14.71    h-0.186c0.013-0.265,0.04-0.526,0.04-0.794V121.18h0.146C352.021,121.18,358.62,127.783,358.62,135.9z M358.62,91.46    c0,8.116-6.599,14.72-14.71,14.72h-0.146V76.75h0.146C352.021,76.75,358.62,83.349,358.62,91.46z"/>
		<path d="M148.536,303.628c-10.221-3.272-13.135-6.187-16.407-16.409c-1.3-4.062-5.039-6.789-9.306-6.789c0,0-0.001,0-0.002,0    c-4.266,0.001-8.004,2.729-9.303,6.79c-3.272,10.222-6.187,13.136-16.409,16.408c-4.061,1.3-6.789,5.039-6.789,9.306    c0,4.266,2.729,8.005,6.79,9.305c10.222,3.272,13.136,6.187,16.407,16.405c1.298,4.062,5.037,6.791,9.304,6.792    c0.001,0,0.001,0,0.002,0c4.266,0,8.006-2.729,9.306-6.789c3.272-10.223,6.187-13.136,16.408-16.408    c4.061-1.3,6.789-5.039,6.789-9.305C155.326,308.667,152.598,304.928,148.536,303.628z M127.804,291.792    C127.805,291.792,127.805,291.791,127.804,291.792c0,0,0,0.003-0.001,0.005C127.804,291.795,127.804,291.794,127.804,291.792z     M122.823,322.728c-2.544-4.115-5.679-7.25-9.795-9.795c4.116-2.544,7.251-5.679,9.795-9.795c2.545,4.116,5.679,7.251,9.795,9.795    C128.502,315.478,125.368,318.612,122.823,322.728z"/>
		<path d="M464.476,431.948c-10.222-3.272-13.135-6.186-16.407-16.408c-1.3-4.061-5.04-6.789-9.306-6.789s-8.006,2.729-9.306,6.789    v0.001c-3.272,10.222-6.186,13.135-16.408,16.407c-4.061,1.3-6.789,5.04-6.789,9.306s2.729,8.006,6.79,9.306    c10.222,3.272,13.135,6.186,16.407,16.408c1.3,4.061,5.04,6.789,9.306,6.789s8.006-2.729,9.306-6.79    c3.272-10.222,6.186-13.135,16.408-16.407c4.061-1.3,6.789-5.04,6.789-9.306S468.537,433.248,464.476,431.948z M438.763,451.05    c-2.545-4.116-5.68-7.251-9.796-9.796c4.116-2.545,7.251-5.68,9.796-9.796c2.545,4.116,5.68,7.251,9.796,9.796    C444.442,443.799,441.308,446.934,438.763,451.05z"/>
		<path d="M413.05,192.423c10.221,3.272,13.135,6.187,16.407,16.409c1.3,4.061,5.04,6.789,9.306,6.789s8.006-2.729,9.306-6.79    c3.272-10.222,6.187-13.136,16.408-16.408c4.061-1.3,6.789-5.039,6.789-9.306c0-4.266-2.729-8.005-6.79-9.305    c-10.221-3.272-13.135-6.186-16.407-16.408c-1.3-4.061-5.04-6.789-9.306-6.789s-8.006,2.729-9.306,6.789    c-3.272,10.223-6.187,13.136-16.408,16.408c-4.061,1.3-6.789,5.039-6.789,9.305C406.26,187.384,408.988,191.123,413.05,192.423z     M438.763,173.322c2.545,4.116,5.679,7.251,9.795,9.796c-4.116,2.544-7.25,5.68-9.795,9.795c-2.545-4.116-5.679-7.251-9.795-9.795    C433.084,180.573,436.218,177.438,438.763,173.322z"/>
		<path d="M235.53,384.955l18.069-6.087c3.925-1.322,6.035-5.576,4.713-9.502c-1.322-3.927-5.579-6.035-9.502-4.713l-18.069,6.087    c-5.521,1.859-9.719,6.104-11.519,11.644c-1.801,5.541-0.898,11.442,2.476,16.192l14.142,19.911    c0.383,0.54,0.589,1.175,0.596,1.837l0.263,24.42c0.063,5.825,2.802,11.131,7.516,14.555c3.175,2.307,6.883,3.497,10.665,3.497    c1.833,0,3.684-0.28,5.498-0.849l23.305-7.295c0.635-0.199,1.301-0.198,1.934-0.001l23.306,7.296    c5.558,1.739,11.451,0.775,16.164-2.648c4.714-3.424,7.453-8.729,7.516-14.554l0.263-24.422c0.007-0.661,0.213-1.296,0.596-1.836    l14.143-19.911c3.373-4.75,4.275-10.651,2.475-16.192c-1.8-5.54-5.999-9.784-11.52-11.644l-23.145-7.796    c-0.627-0.212-1.167-0.604-1.563-1.136l-14.566-19.603c-3.475-4.676-8.809-7.357-14.634-7.357s-11.159,2.682-14.634,7.357    l-3.604,4.85c-2.47,3.325-1.777,8.023,1.547,10.494c3.324,2.467,8.023,1.778,10.493-1.547l3.604-4.85    c0.844-1.135,1.987-1.305,2.595-1.305s1.751,0.17,2.595,1.305l14.565,19.603c2.228,2.997,5.276,5.212,8.814,6.403l23.144,7.796    c1.341,0.451,1.855,1.487,2.043,2.064s0.38,1.718-0.438,2.871l-14.142,19.911c-2.163,3.044-3.327,6.627-3.367,10.36l-0.263,24.422    c-0.015,1.413-0.841,2.223-1.332,2.579c-0.49,0.356-1.512,0.895-2.866,0.47l-23.307-7.296c-3.561-1.114-7.329-1.115-10.894,0    l-23.307,7.296c-1.353,0.424-2.375-0.113-2.865-0.47c-0.491-0.356-1.317-1.166-1.332-2.58l-0.263-24.42    c-0.04-3.734-1.204-7.317-3.367-10.361l-14.141-19.911c-0.819-1.153-0.627-2.294-0.439-2.871S234.19,385.406,235.53,384.955z"/>
	</g>
</g>















</svg>
