<svg id="Capa_1" enable-background="new 0 0 512 512" height="512" viewBox="0 0 512 512" width="512" xmlns="http://www.w3.org/2000/svg"><path d="m391.234 99.864h29.068c3.613-16.707 5.497-34.357 5.498-52.422 0-3.742-1.492-7.33-4.149-9.976-2.655-2.646-6.259-4.132-10.016-4.132h-46.187c-.323 9.52-.876 18.934-1.648 28.213h33.24c-.81 13.283-2.783 26.143-5.806 38.317z" fill="#fac600"/><path d="m167.213 194.166c-1.9-4.369-3.722-8.872-5.467-13.49-11.829-6.378-22.837-17.175-32.244-31.876-15.071-23.552-24.207-54.125-26.23-87.252h33.241c-.772-9.279-1.325-18.694-1.648-28.213h-46.186c-3.758 0-7.36 1.486-10.017 4.132-2.656 2.646-4.148 6.234-4.148 9.976 0 43.805 11.044 85.186 31.097 116.521 19.065 29.795 44.284 47.602 71.828 51.029-3.568-6.436-6.985-13.376-10.226-20.827z" fill="#ffdc48"/><path d="m232.645 323.246-28.778 66.852h92.581l-28.779-66.855c-1.823-4.238-1.823-9.1 0-13.339l23.494-54.573c-12.872 10.691-26.703 16.286-41.005 16.286s-28.134-5.596-41.006-16.288l23.493 54.579c1.824 4.238 1.824 9.099 0 13.338z" fill="#fea613"/><path d="m232.645 323.246-28.778 66.852h20l28.778-66.852c1.824-4.239 1.824-9.1 0-13.338l-17.364-40.34c-9.025-2.505-17.778-7.303-26.129-14.239l23.493 54.579c1.824 4.238 1.824 9.099 0 13.338z" fill="#fb8801"/><path d="m350.445 473.75v-78.653c0-2.75-2.25-5-5-5h-190.576c-2.75 0-5 2.25-5 5v78.653z" fill="#d78878"/><path d="m184.869 473.75v-78.653c0-2.75 2.25-5 5-5h-35c-2.75 0-5 2.25-5 5v78.653z" fill="#ca6e59"/><path d="m378.652 499.5c0 2.75-2.25 5-5 5h-246.99c-2.75 0-5-2.25-5-5v-20.75c0-2.75 2.25-5 5-5h246.99c2.75 0 5 2.25 5 5z" fill="#d78878"/><path d="m156.662 499.5v-20.75c0-2.75 2.25-5 5-5h-35c-2.75 0-5 2.25-5 5v20.75c0 2.75 2.25 5 5 5h35c-2.75 0-5-2.25-5-5z" fill="#ca6e59"/><path d="m321.45 213.13c-1.315-.921-2.394-2.988-2.394-4.592v-103.674c0-2.75 2.25-5 5-5h35.184c4.31-27.491 6.558-56.762 6.558-86.811 0-3.067-2.496-5.553-5.577-5.553h-220.129c-3.08 0-5.576 2.486-5.576 5.553 0 68.325 11.612 132.644 32.697 181.113 21.727 49.944 51.184 77.45 82.944 77.45 27.175 0 52.658-20.152 73.062-57.25z" fill="#ffdc48"/><path d="m202.213 194.166c-21.085-48.469-32.697-112.788-32.697-181.113 0-3.067 2.496-5.553 5.576-5.553h-35c-3.08 0-5.576 2.486-5.576 5.553 0 68.325 11.612 132.644 32.697 181.113 21.727 49.944 51.184 77.45 82.944 77.45 5.925 0 11.771-.96 17.5-2.841-24.982-8.205-47.771-33.983-65.444-74.609z" fill="#fac600"/><path d="m360.221 7.5h-220.129c-3.08 0-5.576 2.486-5.576 5.553 0 12.902.415 25.66 1.23 38.197h228.823c.815-12.537 1.23-25.295 1.23-38.197-.001-3.067-2.497-5.553-5.578-5.553z" fill="#fea613"/><path d="m175.092 7.5h-35c-3.08 0-5.576 2.486-5.576 5.553 0 12.902.415 25.66 1.23 38.197h35c-.814-12.537-1.23-25.295-1.23-38.197 0-3.067 2.496-5.553 5.576-5.553z" fill="#fb8801"/><path d="m388.303 241.384-13.222 9.243-13.221-9.243c-28.111 6.041-49.183 30.932-49.183 60.735 0 34.323 27.939 62.146 62.403 62.146s62.405-27.824 62.405-62.146c.001-29.803-21.071-54.693-49.182-60.735z" fill="#fea613"/><path d="m332.678 302.119c0-24.81 14.607-46.205 35.717-56.167l-6.534-4.568c-28.111 6.041-49.183 30.932-49.183 60.735 0 34.323 27.939 62.146 62.403 62.146 3.405 0 6.743-.282 10-.805-29.708-4.766-52.403-30.409-52.403-61.341z" fill="#fe9901"/><path d="m392.44 331.332c-.417 0-.836-.099-1.219-.299l-16.14-8.45-16.139 8.45c-.383.201-.802.299-1.22.299-.543 0-1.084-.168-1.541-.499-.808-.585-1.212-1.574-1.043-2.554l3.084-17.896-13.056-12.674c-.715-.694-.973-1.732-.665-2.676.308-.946 1.131-1.635 2.118-1.778l18.043-2.611 8.067-16.283c.442-.891 1.353-1.455 2.351-1.455.997 0 1.909.564 2.351 1.455l8.07 16.283 18.043 2.611c.987.143 1.807.832 2.116 1.777.308.945.051 1.983-.665 2.677l-13.055 12.674 3.083 17.896c.168.98-.236 1.969-1.044 2.554-.454.331-.996.499-1.539.499z" fill="#fb8801"/><path d="m426.107 99.864h-102.05c-2.75 0-5 2.25-5 5v28.244h112.051v-28.244c-.001-2.75-2.251-5-5.001-5z" fill="#08a9f1"/><path d="m349.057 104.864c0-2.75 2.25-5 5-5h-30c-2.75 0-5 2.25-5 5v28.244h30z" fill="#0290cf"/><path d="m319.057 133.107v75.431c0 1.604 1.078 3.67 2.394 4.592l53.631 37.497 53.63-37.497c1.317-.921 2.396-2.988 2.396-4.592v-75.431z" fill="#fb2b3a"/><path d="m352.241 234.659 22.84 15.968 22.842-15.968v-101.552h-45.682z" fill="#fff"/><path d="m350.16 313.009-2.412 13.996c-.65 3.771.934 7.659 4.042 9.909 1.738 1.255 3.789 1.918 5.933 1.918 1.633 0 3.259-.4 4.698-1.155l12.66-6.628 12.657 6.626c1.443.757 3.069 1.157 4.701 1.157 2.148 0 4.202-.665 5.94-1.924 3.145-2.279 4.692-6.07 4.036-9.902l-2.412-13.997 10.212-9.915c2.751-2.665 3.762-6.741 2.572-10.397-1.205-3.679-4.335-6.309-8.169-6.865l-14.146-2.047-6.322-12.754c-1.719-3.469-5.194-5.624-9.07-5.624-3.872 0-7.347 2.153-9.071 5.625l-6.318 12.753-14.147 2.047c-3.84.556-6.971 3.19-8.174 6.878-1.186 3.639-.176 7.713 2.572 10.38zm15.577-14.942c2.44-.354 4.552-1.884 5.646-4.093l3.698-7.464 3.7 7.465c1.095 2.209 3.205 3.739 5.646 4.092l8.209 1.188-5.92 5.747c-1.776 1.725-2.587 4.215-2.167 6.655l1.405 8.153-7.396-3.872c-1.089-.57-2.284-.855-3.479-.855-1.194 0-2.39.285-3.479.855l-7.393 3.871 1.404-8.152c.421-2.44-.39-4.93-2.166-6.655l-5.921-5.747z"/><path d="m214 428.5h69c4.143 0 7.5-3.358 7.5-7.5s-3.357-7.5-7.5-7.5h-69c-4.143 0-7.5 3.358-7.5 7.5s3.357 7.5 7.5 7.5z"/><path d="m273.143 437.5h-49.285c-4.143 0-7.5 3.358-7.5 7.5s3.357 7.5 7.5 7.5h49.285c4.143 0 7.5-3.358 7.5-7.5s-3.358-7.5-7.5-7.5z"/><path d="m305.178 302.119c0 38.403 31.358 69.646 69.903 69.646 38.546 0 69.905-31.243 69.905-69.646 0-27.854-16.507-51.925-40.279-63.054l28.303-19.79c3.348-2.342 5.598-6.657 5.598-10.738v-103.673c0-5.779-3.947-10.641-9.284-12.065 2.614-14.626 3.977-29.847 3.978-45.357 0-5.778-2.258-11.209-6.355-15.289-4.09-4.075-9.527-6.319-15.31-6.319h-38.487c.09-4.245.147-8.503.147-12.781.001-7.198-5.865-13.053-13.076-13.053h-220.129c-7.21 0-13.076 5.855-13.076 13.053 0 4.276.046 8.538.136 12.781h-38.473c-5.781 0-11.219 2.244-15.31 6.318-4.099 4.082-6.355 9.511-6.355 15.289 0 45.219 11.464 88.036 32.279 120.563 19.456 30.404 45.141 49.105 73.442 53.875 9.161 15.841 19.315 28.585 30.204 37.987l22.816 53.005c1.013 2.354 1.013 5.054 0 7.408l-26.826 62.317h-44.061c-6.893 0-12.5 5.607-12.5 12.5v71.153h-15.707c-6.893 0-12.5 5.607-12.5 12.5v20.75c0 6.893 5.607 12.5 12.5 12.5h246.99c6.893 0 12.5-5.607 12.5-12.5v-20.75c0-6.893-5.607-12.5-12.5-12.5h-15.707v-71.153c0-6.893-5.607-12.5-12.5-12.5h-44.061l-26.827-62.319c-1.013-2.354-1.013-5.057-.001-7.409l22.82-53.009c10.115-8.738 19.598-20.358 28.238-34.667l19.84 13.872c-23.769 11.131-40.275 35.201-40.275 63.055zm118.429-94.572-18.185 12.714v-25.144c0-4.142-3.358-7.5-7.5-7.5s-7.5 3.358-7.5 7.5v35.631l-15.342 10.727-15.34-10.725v-90.144h30.682v19.51c0 4.142 3.358 7.5 7.5 7.5s7.5-3.358 7.5-7.5v-19.51h18.185zm-50.975-166.713h39.004c1.761 0 3.481.709 4.724 1.947 1.252 1.246 1.941 2.901 1.941 4.66-.001 15.419-1.424 30.505-4.143 44.923h-13.531c1.944-9.759 3.263-19.905 3.9-30.359.126-2.064-.606-4.09-2.023-5.596-1.418-1.506-3.395-2.361-5.463-2.361h-25.167c.302-4.379.553-8.785.758-13.214zm-1.979 28.213h18.267c-.787 7.962-2.016 15.763-3.658 23.316h-17.358c1.069-7.659 1.994-15.43 2.749-23.316zm-224.106 89.868c-3.752-4.148-7.344-8.87-10.728-14.158-13.027-20.358-21.589-46.998-24.426-75.71h18.262c3.073 32.121 8.786 62.531 16.892 89.868zm-34.619 1.005c-19.29-30.144-29.914-70.09-29.914-112.479 0-1.759.689-3.415 1.941-4.662 1.26-1.255 2.938-1.946 4.724-1.946h38.983c.205 4.43.46 8.834.762 13.213h-25.152c-2.068 0-4.045.855-5.463 2.361-1.417 1.507-2.149 3.532-2.023 5.597 2.122 34.73 11.596 66.141 27.399 90.837 9.46 14.783 20.53 25.921 32.521 33.016 1.491 3.848 3.03 7.624 4.63 11.3 1.021 2.348 2.066 4.632 3.123 6.886-19.496-6.767-37.279-21.851-51.531-44.123zm231.017 237.677v68.653h-18.112c-4.142 0-7.5 3.358-7.5 7.5s3.358 7.5 7.5 7.5h46.319v15.75h-241.99v-15.75h160.671c4.142 0 7.5-3.358 7.5-7.5s-3.358-7.5-7.5-7.5h-132.464v-68.653zm-82.167-90.657c-2.633 6.123-2.633 13.145.001 19.268l24.275 56.39h-69.794l24.273-56.387c2.636-6.123 2.636-13.146 0-19.269l-14.16-32.896c8.028 3.345 16.316 5.07 24.784 5.07 8.466 0 16.752-1.715 24.776-5.06zm63.279-214.576c-6.893 0-12.5 5.607-12.5 12.5v103.674c0 2.487.844 5.057 2.255 7.219-18.432 31.385-40.523 48.359-63.654 48.359-28.591 0-55.604-25.905-76.067-72.942-15.922-36.602-26.334-82.517-30.285-132.424h49.362c4.142 0 7.5-3.358 7.5-7.5s-3.358-7.5-7.5-7.5h-50.344c-.497-9.475-.771-19.067-.804-28.75h216.276c-.031 9.686-.322 19.272-.82 28.75h-129.309c-4.142 0-7.5 3.358-7.5 7.5s3.358 7.5 7.5 7.5h128.341c-.906 11.44-2.168 22.657-3.742 33.614zm20.684 127.899-18.185-12.714v-66.941h18.185zm-18.184-94.656v-18.244h97.051v18.244zm33.806 123.882 10.42 7.285c1.291.902 2.794 1.354 4.298 1.354s3.007-.451 4.298-1.354l10.42-7.286c23.148 6.417 40.188 27.573 40.188 52.631 0 30.132-24.631 54.646-54.905 54.646-30.273 0-54.903-24.514-54.903-54.646-.001-25.057 17.037-46.213 40.184-52.63z"/></svg>