<?xml version="1.0" encoding="iso-8859-1"?>
<!-- Generator: Adobe Illustrator 19.0.0, SVG Export Plug-In . SVG Version: 6.00 Build 0)  -->
<svg xmlns="http://www.w3.org/2000/svg" xmlns:xlink="http://www.w3.org/1999/xlink" version="1.1" id="Layer_1" x="0px" y="0px" viewBox="0 0 512 512" style="enable-background:new 0 0 512 512;" xml:space="preserve" width="512" height="512">
<g id="XMLID_1056_">
	<path id="XMLID_1845_" style="fill:#4DBAF6;" d="M502,256c0,2.899-110.153,154.928-246,154.928S10,257.928,10,256   c0-2.896,110.153-154.928,246-154.928S502,254.072,502,256z"/>
	<g id="XMLID_1805_">
		<g id="XMLID_1816_">
			<circle id="XMLID_1821_" style="fill:#FFFFFF;" cx="256.127" cy="256" r="104"/>
			<path id="XMLID_1818_" style="fill:#ADE5FF;" d="M276.483,295.097h-39.755c-23.936,0-44.438,14.666-53.033,35.498     C202.423,348.783,227.959,360,256.127,360c28.51,0,54.333-11.481,73.12-30.061C320.495,309.454,300.168,295.097,276.483,295.097z     "/>
		</g>
		<path id="XMLID_1808_" style="fill:#FCCD9D;" d="M290.932,252.189v8.582c0,18.958-15.368,34.326-34.326,34.326h0h0    c-18.958,0-34.326-15.368-34.326-34.326v-8.582c0-18.958,15.368-34.326,34.326-34.326h0    C275.564,217.863,290.932,233.232,290.932,252.189z"/>
	</g>
	<g id="XMLID_802_">
		<path id="XMLID_1159_" d="M490.278,224.495c-11.407-13.392-29.999-33.673-53.796-54.246c-41.776-36.12-107-79.177-180.482-79.177    c-73.592,0-138.76,42.854-180.471,78.803c-23.959,20.649-42.49,40.884-53.817,54.223c-7.038,8.288-11.909,14.619-14.755,18.47    C1.105,250.484,0,252.619,0,256c0,3.548,1.236,5.531,7,13.212c2.901,3.868,7.812,10.182,14.722,18.293    c11.407,13.392,29.999,33.673,53.796,54.246c41.776,36.12,107,79.177,180.482,79.177c73.592,0,138.761-42.853,180.471-78.802    c23.959-20.649,42.49-40.885,53.817-54.223c7.039-8.288,11.909-14.619,14.756-18.471C510.895,261.516,512,259.382,512,256    c0-3.548-1.236-5.531-7-13.212C502.099,238.92,497.188,232.606,490.278,224.495z M419.563,330.258    c-38.285,32.239-97.738,70.67-163.563,70.67c-65.843,0-125.454-38.764-163.867-71.281c-36.078-30.541-61.41-61.939-70.139-73.761    c8.447-11.628,33.622-43.135,70.443-74.143c38.284-32.239,97.738-70.671,163.563-70.671c65.843,0,125.454,38.764,163.867,71.281    c36.078,30.541,61.41,61.939,70.139,73.762C481.56,267.742,456.386,299.248,419.563,330.258z"/>
		<path id="XMLID_1545_" d="M256.127,142c-62.859,0-114,51.141-114,114c0,31.755,13.056,60.514,34.076,81.206    c0.351,0.398,0.729,0.776,1.145,1.118C197.833,357.935,225.597,370,256.127,370c30.854,0,58.878-12.327,79.424-32.306    c0.486-0.395,0.927-0.831,1.325-1.302c20.538-20.628,33.251-49.053,33.251-80.392C370.127,193.141,318.986,142,256.127,142z     M256.127,162c51.832,0,94,42.168,94,94c0,21.333-7.148,41.026-19.169,56.819c-9.403-12.936-23.111-22.089-38.638-25.833    c5.408-7.348,8.612-16.413,8.612-26.215v-8.581c0-24.441-19.884-44.326-44.325-44.326s-44.326,19.885-44.326,44.326v8.581    c0,9.798,3.201,18.86,8.605,26.206c-15.811,3.798-29.696,13.188-39.1,26.481c-12.316-15.899-19.659-35.835-19.659-57.458    C162.127,204.168,204.295,162,256.127,162z M232.28,260.771v-8.581c0-13.413,10.913-24.326,24.326-24.326    s24.325,10.913,24.325,24.326v8.581c0,13.413-10.912,24.326-24.325,24.326S232.28,274.184,232.28,260.771z M196.033,328.225    c8.452-14.24,23.775-23.128,40.695-23.128h39.755c16.653,0,31.847,8.677,40.374,22.589C300.464,341.595,279.26,350,256.127,350    C233.293,350,212.337,341.813,196.033,328.225z"/>
		<path id="XMLID_1581_" d="M108.123,492H20v-88.123c0-5.522-4.478-10-10-10s-10,4.478-10,10V502c0,5.522,4.478,10,10,10h98.123    c5.522,0,10-4.478,10-10S113.646,492,108.123,492z"/>
		<path id="XMLID_1592_" d="M403.88,492c-2.64,0-5.21,1.069-7.07,2.93c-1.87,1.86-2.93,4.44-2.93,7.07s1.06,5.21,2.93,7.069    c1.851,1.86,4.431,2.931,7.07,2.931c2.63,0,5.21-1.07,7.07-2.931c1.859-1.859,2.93-4.439,2.93-7.069c0-2.641-1.07-5.21-2.93-7.07    C409.08,493.069,406.51,492,403.88,492z"/>
		<path id="XMLID_1596_" d="M502,393.877c-5.522,0-10,4.478-10,10V492h-48.123c-5.522,0-10,4.478-10,10s4.478,10,10,10H502    c5.522,0,10-4.478,10-10v-98.123C512,398.354,507.522,393.877,502,393.877z"/>
		<path id="XMLID_1610_" d="M108.12,20c2.63,0,5.21-1.07,7.069-2.931c1.87-1.859,2.931-4.439,2.931-7.069    c0-2.641-1.061-5.21-2.931-7.07C113.33,1.069,110.75,0,108.12,0s-5.21,1.069-7.07,2.93s-2.93,4.43-2.93,7.07    c0,2.63,1.069,5.21,2.93,7.069C102.91,18.93,105.49,20,108.12,20z"/>
		<path id="XMLID_1611_" d="M10,118.123c5.522,0,10-4.478,10-10V20h48.123c5.522,0,10-4.478,10-10s-4.478-10-10-10H10    C4.478,0,0,4.478,0,10v98.123C0,113.646,4.478,118.123,10,118.123z"/>
		<path id="XMLID_1659_" d="M502,0h-98.123c-5.522,0-10,4.478-10,10s4.478,10,10,10H492v88.123c0,5.522,4.478,10,10,10    s10-4.478,10-10V10C512,4.478,507.522,0,502,0z"/>
	</g>
</g>















</svg>
