<?xml version="1.0" encoding="iso-8859-1"?>
<!-- Generator: Adobe Illustrator 19.0.0, SVG Export Plug-In . SVG Version: 6.00 Build 0)  -->
<svg xmlns="http://www.w3.org/2000/svg" xmlns:xlink="http://www.w3.org/1999/xlink" version="1.1" id="Layer_1" x="0px" y="0px" viewBox="0 0 512.006 512.006" style="enable-background:new 0 0 512.006 512.006;" xml:space="preserve" width="512" height="512">
<g id="XMLID_1218_">
	<path id="XMLID_2209_" style="fill:#FCCD9D;" d="M489.578,293.714L489.578,293.714c-9.999-5.948-22.76-4.349-30.982,3.882   l-74.135,74.212c-9.079,9.088-21.398,14.195-34.244,14.195h-14.619l-6.683-1.816l-0.069-0.268   c3.966-8.51,2.498-19.505-6.658-26.196l-75.775-55.377c-23.436-17.127-53.775-21.688-81.211-12.207l-80.278,27.741l74.921,134.061   h172.772c39.723,0,77.413-17.569,102.954-47.993l60.479-72.04C506.13,319.903,503.049,301.727,489.578,293.714z"/>
	<path id="XMLID_2208_" style="fill:#72D8FF;" d="M148.823,475.365l-46.138,26.638L10.002,341.471l46.138-26.638   c10.542-6.086,24.022-2.474,30.108,8.067l70.643,122.357C162.976,455.799,159.365,469.279,148.823,475.365z"/>
	<g id="XMLID_1226_">
		<circle id="XMLID_2097_" style="fill:#FFB954;" cx="247.002" cy="142.003" r="92"/>
		<g id="XMLID_1181_">
			<path id="XMLID_1182_" d="M114.332,458.003c2.64,0,5.21-1.07,7.069-2.931c1.87-1.859,2.931-4.439,2.931-7.069     s-1.061-5.21-2.931-7.07c-1.859-1.86-4.43-2.93-7.069-2.93c-2.63,0-5.21,1.069-7.07,2.93s-2.93,4.44-2.93,7.07     s1.069,5.21,2.93,7.069C109.122,456.932,111.702,458.003,114.332,458.003z"/>
			<path id="XMLID_1191_" d="M199.842,441.942c-2.63,0-5.21,1.07-7.07,2.931c-1.859,1.859-2.92,4.439-2.92,7.069     s1.061,5.21,2.92,7.07c1.86,1.86,4.44,2.93,7.07,2.93c2.64,0,5.21-1.069,7.08-2.93c1.86-1.86,2.92-4.44,2.92-7.07     s-1.06-5.21-2.92-7.069C205.061,443.013,202.481,441.942,199.842,441.942z"/>
			<path id="XMLID_1195_" d="M511.505,309.641c-1.739-10.263-7.868-19.201-16.814-24.522c-13.949-8.297-31.701-6.072-43.169,5.409     l-74.135,74.212c-7.255,7.263-16.904,11.263-27.17,11.263h-9.32c0.462-10.221-4.11-19.998-12.807-26.354l-75.774-55.379     c-26.071-19.052-59.857-24.13-90.377-13.584l-76.981,26.602c-9.826-6.543-22.918-7.407-33.817-1.116L5.002,332.81     c-4.783,2.762-6.422,8.877-3.66,13.66l92.684,160.532c1.326,2.297,3.51,3.973,6.072,4.659c0.852,0.229,1.721,0.341,2.588,0.341     c1.74,0,3.467-0.454,5-1.34l46.138-26.638c7.411-4.279,12.713-11.188,14.928-19.455c2.216-8.267,1.079-16.901-3.2-24.313     L98.329,323.827l70.141-24.238c24.33-8.406,51.262-4.358,72.045,10.829l75.774,55.379c6.099,4.457,4.64,10.727,4.047,12.542     c-0.593,1.816-3.114,7.74-10.669,7.74c-1.728,0-3.458-0.407-5.004-1.177l-69.276-34.506c-3.966-1.976-8.404-3.02-12.834-3.02     h-18.441c-5.522,0-10,4.478-10,10s4.478,10,10,10h18.441c1.352,0,2.706,0.318,3.917,0.922l69.277,34.506     c4.301,2.143,9.114,3.274,13.92,3.274c9.302,0,17.631-3.873,23.377-10.418c0.817,0.216,1.67,0.342,2.555,0.342h14.618     c15.612,0,30.287-6.083,41.32-17.128l74.135-74.212c4.993-5,12.721-5.968,18.794-2.354c3.896,2.316,6.563,6.208,7.32,10.676     c0.758,4.469-0.479,9.022-3.394,12.494l-60.479,72.04c-23.7,28.23-58.435,44.422-95.295,44.422h-92.771c-5.522,0-10,4.478-10,10     s4.478,10,10,10h92.771c42.786,0,83.103-18.794,110.613-51.563l60.479-72.04C510.404,330.364,513.245,319.905,511.505,309.641z      M149.432,459.393c-0.832,3.107-2.824,5.703-5.609,7.312l-37.478,21.638L23.662,345.131l37.478-21.638     c5.748-3.318,13.127-1.344,16.447,4.407l70.644,122.357C149.838,453.043,150.265,456.287,149.432,459.393z"/>
			<path id="XMLID_1198_" d="M408.002,34.417c5.522,0,10-4.477,10-10V10.003c0-5.523-4.478-10-10-10s-10,4.477-10,10v14.415     C398.002,29.94,402.479,34.417,408.002,34.417z"/>
			<path id="XMLID_1199_" d="M408.002,100.003c5.522,0,10-4.477,10-10V75.588c0-5.523-4.478-10-10-10s-10,4.477-10,10v14.415     C398.002,95.526,402.479,100.003,408.002,100.003z"/>
			<path id="XMLID_1200_" d="M433.588,60.003h14.414c5.522,0,10-4.477,10-10s-4.478-10-10-10h-14.414c-5.522,0-10,4.477-10,10     S428.065,60.003,433.588,60.003z"/>
			<path id="XMLID_1202_" d="M368.002,60.003h14.414c5.522,0,10-4.477,10-10s-4.478-10-10-10h-14.414c-5.522,0-10,4.477-10,10     S362.479,60.003,368.002,60.003z"/>
			<path id="XMLID_1203_" d="M79.502,186.625c5.522,0,10-4.477,10-10V162.21c0-5.523-4.478-10-10-10s-10,4.477-10,10v14.415     C69.502,182.148,73.979,186.625,79.502,186.625z"/>
			<path id="XMLID_1209_" d="M79.502,252.21c5.522,0,10-4.477,10-10v-14.415c0-5.523-4.478-10-10-10s-10,4.477-10,10v14.415     C69.502,247.733,73.979,252.21,79.502,252.21z"/>
			<path id="XMLID_1210_" d="M105.088,212.21h14.414c5.522,0,10-4.477,10-10s-4.478-10-10-10h-14.414c-5.522,0-10,4.477-10,10     S99.565,212.21,105.088,212.21z"/>
			<path id="XMLID_1211_" d="M39.502,212.21h14.414c5.522,0,10-4.477,10-10s-4.478-10-10-10H39.502c-5.522,0-10,4.477-10,10     S33.979,212.21,39.502,212.21z"/>
			<path id="XMLID_1217_" d="M247.002,172.038c-6.533,0-11.848-4.409-11.848-9.828c0-5.523-4.478-10-10-10s-10,4.477-10,10     c0,13.18,9.178,24.383,21.86,28.317c0.129,5.411,4.547,9.759,9.988,9.759s9.859-4.349,9.988-9.759     c12.682-3.934,21.86-15.137,21.86-28.317c0-16.447-14.287-29.828-31.848-29.828c-6.533,0-11.848-4.409-11.848-9.828     c0-5.419,5.314-9.828,11.848-9.828s11.848,4.409,11.848,9.828c0,5.523,4.478,10,10,10s10-4.477,10-10     c0-13.176-9.172-24.376-21.848-28.313v-0.522c0-5.523-4.478-10-10-10s-10,4.477-10,10v0.522     c-12.675,3.937-21.848,15.138-21.848,28.313c0,16.447,14.287,29.828,31.848,29.828c6.533,0,11.848,4.409,11.848,9.828     S253.535,172.038,247.002,172.038z"/>
			<path id="XMLID_1229_" d="M247.002,244.003c56.243,0,102-45.757,102-102s-45.757-102-102-102s-102,45.757-102,102     S190.759,244.003,247.002,244.003z M247.002,60.003c45.215,0,82,36.785,82,82s-36.785,82-82,82s-82-36.785-82-82     S201.787,60.003,247.002,60.003z"/>
		</g>
	</g>
</g>















</svg>
