<?xml version="1.0" encoding="UTF-8"?>
<!DOCTYPE svg PUBLIC "-//W3C//DTD SVG 1.1//EN" "http://www.w3.org/Graphics/SVG/1.1/DTD/svg11.dtd">
<!-- Creator: CorelDRAW 2019 (64 Bit) -->
<svg xmlns="http://www.w3.org/2000/svg" xml:space="preserve" width="75.7728mm" height="56.3276mm" version="1.1" style="shape-rendering:geometricPrecision; text-rendering:geometricPrecision; image-rendering:optimizeQuality; fill-rule:evenodd; clip-rule:evenodd"
viewBox="0 0 10603.26 7882.2"
 xmlns:xlink="http://www.w3.org/1999/xlink">
 <defs>
  <style type="text/css">
   <![CDATA[
    .fil5 {fill:black}
    .fil1 {fill:#2E344C}
    .fil0 {fill:#444966}
    .fil2 {fill:#5C9CEE}
    .fil6 {fill:#74E2CD}
    .fil4 {fill:#D1D6DE}
    .fil9 {fill:#D3D8DF}
    .fil7 {fill:#EB5777}
    .fil3 {fill:#EBEEF2}
    .fil8 {fill:#F8C298}
   ]]>
  </style>
 </defs>
 <g id="Camada_x0020_1">
  <metadata id="CorelCorpID_0Corel-Layer"/>
  <g id="_2649951276768">
   <path class="fil0" d="M714.97 916.11l0 5894.8c0,311.54 309.28,620.86 690.83,620.86l7791.69 0c381.5,0 669.18,-291.62 669.18,-603.2l0 -5894.8c0,-451.49 -287.68,-778.43 -669.18,-778.43l-7791.69 0c-381.55,-0.03 -690.83,309.27 -690.83,760.77z"/>
   <path class="fil1" d="M9197.46 155.33l-524.63 0c381.5,0 690.8,309.28 690.8,760.77l0 5894.84c0,311.55 -309.28,620.85 -690.8,620.85l524.63 0c381.53,0 690.8,-309.3 690.8,-620.85l0 -5894.84c0,-451.49 -309.27,-760.77 -690.8,-760.77z"/>
   <path class="fil2" d="M1405.77 5752.57c-39,0 -71.13,-24.47 -84.44,-40.48l0 -4796.02c0,-15.8 2.36,-154.39 84.44,-154.39l7791.69 0c82.09,0 84.45,138.59 84.45,154.39l0 4796.02c-13.29,16.01 -45.44,40.48 -84.45,40.48l-7791.69 0z"/>
   <path class="fil3" d="M6234.51 6849.44l0 158.85c0,77.29 -62.65,139.93 -139.93,139.93l-1585.88 0c-77.29,0 -139.93,-62.65 -139.93,-139.93l0 -158.85c0,-77.29 -62.65,-139.93 -139.93,-139.93l-3933.57 0c-77.29,0 -139.93,62.65 -139.93,139.93l0 364.84c0,283.1 229.51,512.61 512.61,512.61l9267.41 -0.01c283.1,0 512.61,-229.51 512.61,-512.61l0 -364.84c0,-77.29 -62.65,-139.93 -139.93,-139.93l-3933.57 0.01c-77.29,0.01 -139.93,62.66 -139.93,139.93z"/>
   <path class="fil4" d="M10308.01 6709.52l-514.85 0c77.29,0 139.93,62.65 139.93,139.93l0 364.85c0,283.1 -229.51,512.6 -512.61,512.6l514.85 0c283.1,0 512.61,-229.51 512.61,-512.61l0 -364.84c0,-77.29 -62.65,-139.93 -139.93,-139.93z"/>
   <path class="fil5" d="M714.97 2325.4c85.78,0 155.31,-69.53 155.31,-155.34l0 -1253.98c0,-350.82 225.21,-605.41 535.49,-605.41l5462.78 0c85.78,0 155.34,-69.55 155.34,-155.34 0,-85.81 -69.56,-155.31 -155.34,-155.31l-5462.78 0c-482.36,0 -846.13,393.82 -846.13,916.07l0 1253.98c0,85.81 69.53,155.34 155.33,155.34z"/>
   <path class="fil5" d="M1405.77 606.37c-143.41,0 -239.75,124.46 -239.75,309.7l0 4796.03c0,36.23 12.71,71.37 35.88,99.26 38.79,46.68 112.7,96.54 203.87,96.54l7791.67 0c91.14,0 165.08,-49.83 203.89,-96.5 23.2,-27.9 35.89,-63.04 35.89,-99.3l0 -803.53c0,-85.77 -69.51,-155.31 -155.3,-155.31 -85.81,0 -155.34,69.55 -155.34,155.31l0 688.69 -7649.91 0 0 -4680.25 5390.91 0c204.36,0 204.32,-310.64 0,-310.64l-5461.81 0z"/>
   <path class="fil5" d="M9281.91 4445.07c85.81,0 155.33,-69.52 155.33,-155.33l-0.01 -3373.68c0,-185.25 -96.36,-309.7 -239.76,-309.7l-1838.65 0c-85.81,0 -155.33,69.52 -155.33,155.33 0,85.79 69.52,155.33 155.33,155.33l1767.78 -0.01 0 3372.73c0,85.81 69.53,155.34 155.31,155.34z"/>
   <path class="fil5" d="M10308.01 6554.2l-264.32 0 0 -5638.15c0,-522.2 -363.79,-915.97 -846.19,-915.97l-1815.19 0.01c-85.79,0 -155.31,69.52 -155.31,155.33 0,85.79 69.52,155.31 155.31,155.31l1815.19 0c310.31,0 535.54,254.57 535.54,605.32l0 5638.13 -3358.61 0.01c-162.8,0 -295.26,132.46 -295.26,295.25l0 143.48 -1555.11 0 0 -143.48c0,-162.79 -132.46,-295.25 -295.25,-295.25l-3358.61 0 0 -3762.92c0,-85.81 -69.55,-155.33 -155.33,-155.33 -85.78,0 -155.31,69.52 -155.31,155.33l0 3762.89 -264.32 0c-162.8,0.03 -295.25,132.46 -295.25,295.26l0 364.84c0,368.29 299.63,667.92 667.92,667.92l9267.41 0c368.31,0 667.92,-299.63 667.92,-667.92l0 -364.84c0,-162.8 -132.45,-295.23 -295.25,-295.23zm-15.39 660.09c0,197.01 -160.27,357.28 -357.28,357.28l-9267.41 0c-197.01,0 -357.28,-160.27 -357.28,-357.28l0 -349.45 403.85 0c0.13,0 0.27,0.01 0.39,0.01 0.13,0 0.27,-0.01 0.39,-0.01l3498.15 0 0 143.46c0,162.8 132.46,295.26 295.26,295.26l1585.88 0c162.8,0 295.26,-132.46 295.26,-295.26l0 -143.46 3498.14 0c0.13,0 0.27,0.01 0.39,0.01 0.13,0 0.27,-0.01 0.39,-0.01l403.87 0 0 349.45z"/>
   <g>
    <g>
     <path class="fil6" d="M4098.86 3390.82c0,114.98 -20.54,225.18 -58.03,327.29 -133.32,362.84 -481.99,621.86 -891.11,621.86 -409.11,0 -757.8,-259.02 -891.11,-621.86 -37.5,-102.11 -58.05,-212.31 -58.05,-327.29 0,-524.35 425.05,-949.14 949.15,-949.14 524.08,0 949.14,424.79 949.14,949.14zm0 0z"/>
     <path class="fil7" d="M4040.83 3718.11c-133.32,362.84 -481.99,621.86 -891.11,621.86 -409.11,0 -757.8,-259.02 -891.11,-621.86 133.3,-363.09 481.99,-621.86 891.11,-621.86 409.11,0 757.79,258.77 891.11,621.86zm0 0z"/>
     <path class="fil8" d="M3673.39 2698.06c0,289.19 -234.47,523.66 -523.66,523.66 -289.2,0 -523.68,-234.47 -523.68,-523.66 0,-289.19 234.47,-523.66 523.68,-523.66 289.19,0 523.66,234.47 523.66,523.66zm0 0z"/>
     <path class="fil5" d="M3149.73 4503.53c476.37,0 883.59,-300.96 1042.04,-722.6 1.62,-3.92 3.16,-7.92 4.52,-11.92 42.79,-118.13 66.23,-245.47 66.23,-378.19 0,-357.11 -170.05,-689.1 -457.01,-898.61 -87.71,-278.79 -348.52,-481.47 -655.78,-481.47 -307.35,0 -568.16,202.78 -655.86,481.56 -286.64,209.51 -456.94,542.08 -456.94,898.44 0,132.8 23.45,260.14 66.32,378.26 1.29,4.02 2.81,7.93 4.44,11.77 158.36,421.81 565.6,722.76 1042.05,722.76zm-566.02 -1416.21c-74.67,43.98 -143.53,96.22 -205.41,155.72 20.88,-109.44 64.78,-212.66 128.18,-303.09 19.77,52.42 45.86,101.86 77.23,147.37zm566.02 1088.92c-316.39,0 -589.56,-188.1 -713.91,-458.29 83.19,-181.72 231.58,-324.31 417.22,-399.99 89.91,43.21 190.49,67.41 296.69,67.41 106.11,0 206.68,-24.19 296.52,-67.34 183.59,75.17 334.19,219.66 417.3,400 -124.36,270.1 -397.44,458.2 -713.82,458.2l0 0zm643.25 -1236.37c63.84,90.94 107.9,194.75 128.7,304.96 -62.31,-60 -131.61,-112.86 -206.18,-157.17 31.53,-45.6 57.61,-95.21 77.47,-147.79l0.01 0zm-643.25 -601.83c198.5,0 360.01,161.53 360.01,360.02 0,198.5 -161.51,360.01 -360.01,360.01 -198.51,0 -360.02,-161.51 -360.02,-360.01 0,-198.5 161.51,-360.02 360.02,-360.02zm0 0z"/>
    </g>
    <g>
     <path class="fil9" d="M8201.99 3029.91l-2872.92 0c-131.48,0 -238.11,-106.63 -238.11,-238.11l0 -382.11c0,-131.48 106.63,-238.11 238.11,-238.11l2872.92 0c131.5,0 238.13,106.64 238.13,238.13l0 382.09c0,131.48 -106.63,238.11 -238.13,238.11l0 0zm0 0z"/>
     <path class="fil9" d="M8201.99 4342.66l-2872.92 0c-131.48,0 -238.11,-106.64 -238.11,-238.13l0 -382.09c0,-131.48 106.63,-238.11 238.11,-238.11l2872.92 0c131.5,0 238.13,106.63 238.13,238.11l0 382.09c0,131.5 -106.63,238.13 -238.13,238.13l0 0zm0 0z"/>
     <path class="fil5" d="M4964.74 2409.71l0 382.09c0,200.9 163.43,364.33 364.33,364.33l2872.92 0c200.92,0 364.35,-163.43 364.35,-364.33l0 -382.11c0,-200.9 -163.43,-364.33 -364.35,-364.33l-2872.92 0c-200.9,0 -364.33,163.43 -364.33,364.35zm3349.16 0l0 382.09c0,61.67 -50.17,111.89 -111.89,111.89l-2872.93 0c-61.73,0 -111.89,-50.22 -111.89,-111.89l0 -382.09c0,-61.74 50.17,-111.89 111.89,-111.89l2872.92 0c61.74,0 111.89,50.15 111.89,111.89l0.01 0zm0 0z"/>
     <path class="fil5" d="M4964.74 4104.53c0,200.9 163.43,364.35 364.33,364.35l2872.92 0c200.92,0 364.35,-163.44 364.35,-364.35l0 -382.09c0,-200.9 -163.43,-364.35 -364.35,-364.35l-2872.92 0.01c-200.9,0 -364.33,163.43 -364.33,364.33l0 382.09zm252.44 -382.09c0,-61.73 50.17,-111.89 111.89,-111.89l2872.92 0c61.67,0 111.89,50.15 111.89,111.89l0 382.09c0,61.67 -50.22,111.89 -111.89,111.89l-2872.92 0c-61.73,0 -111.89,-50.22 -111.89,-111.89l0 -382.09zm0 0z"/>
    </g>
   </g>
  </g>
 </g>
</svg>
