<?xml version="1.0" encoding="iso-8859-1"?>
<!-- Generator: Adobe Illustrator 19.0.0, SVG Export Plug-In . SVG Version: 6.00 Build 0)  -->
<svg xmlns="http://www.w3.org/2000/svg" xmlns:xlink="http://www.w3.org/1999/xlink" version="1.1" id="Capa_1" x="0px" y="0px" viewBox="0 0 512 512" style="enable-background:new 0 0 512 512;" xml:space="preserve" width="512" height="512">
<g>
	<g>
		<rect x="106.005" y="70.795" style="fill:#EBEEF2;" width="376.29" height="267.685"/>
		<rect x="458" y="70.795" style="fill:#D1D6DE;" width="24.295" height="267.685"/>
		<rect x="106.005" y="70.795" style="fill:#D1D6DE;" width="376.29" height="23.034"/>
		<g>
			<path style="fill:#F9C295;" d="M204.791,330.441h-82.59c-20.289,0-36.736,16.447-36.736,36.736v13.436H61.467v97.953h23.998     h117.181V376.51c0-6.392-5.182-11.574-11.574-11.574h-6.804c15.193,0,27.509-12.316,27.509-27.509v0     C211.777,333.569,208.649,330.441,204.791,330.441z"/>
			<path style="fill:#F9C295;" d="M212.831,364.936h-31.217c-7.629,0-13.813,6.184-13.813,13.813v3.728     c0,7.629,6.184,13.813,13.813,13.813h31.217c7.629,0,13.813-6.184,13.813-13.813v-3.728     C226.644,371.121,220.46,364.936,212.831,364.936z"/>
			<path style="fill:#F9C295;" d="M206.743,396.291h-31.217c-7.629,0-13.813,6.185-13.813,13.813v3.728     c0,7.629,6.184,13.813,13.813,13.813h31.217c7.629,0,13.813-6.185,13.813-13.813v-3.728     C220.557,402.476,214.372,396.291,206.743,396.291z"/>
			<path style="fill:#F9C295;" d="M203.7,427.646h-31.217c-7.629,0-13.813,6.184-13.813,13.813v3.728     c0,7.629,6.184,13.813,13.813,13.813H203.7c7.629,0,13.813-6.184,13.813-13.813v-3.728     C217.513,433.831,211.329,427.646,203.7,427.646z"/>
			<path style="fill:#F9C295;" d="M193.671,459.001H165.01c-7.004,0-12.682,5.678-12.682,12.682v3.423     c0,7.004,5.678,12.682,12.682,12.682h28.661c7.004,0,12.682-5.678,12.682-12.682v-3.423     C206.353,464.679,200.675,459.001,193.671,459.001z"/>
			<path style="fill:#F9C295;" d="M204.791,330.441h-82.59c-14.083,0-26.315,7.925-32.481,19.558l29.225,60.084     c38.046,0,34.495-45.148,34.495-45.148h30.828c15.193,0,27.509-12.316,27.509-27.509     C211.777,333.569,208.649,330.441,204.791,330.441z"/>
			<polygon style="fill:#ED5575;" points="7.5,370.263 21.694,488.918 61.467,488.918 61.467,370.263    "/>
			<polygon style="fill:#CC3A60;" points="18.115,459.001 21.694,488.917 61.467,488.917 61.467,459.001    "/>
		</g>
		<rect x="83.8" y="23.082" style="fill:#5C9CEE;" width="420.7" height="47.712"/>
		<rect x="476.333" y="23.082" style="fill:#3580D3;" width="28.167" height="47.712"/>
		<g>
			<circle style="fill:#F2DF33;" cx="156.693" cy="248.031" r="16.024"/>
			<circle style="fill:#5C9CEE;" cx="248.331" cy="164.15" r="16.024"/>
			<circle style="fill:#ED5575;" cx="339.969" cy="220.661" r="16.024"/>
			<circle style="fill:#9FD479;" cx="431.607" cy="142.414" r="16.024"/>
		</g>
	</g>
	<g>
		<path d="M482.295,155.136c-4.143,0-7.5,3.358-7.5,7.5V330.98h-222.66c-4.142,0-7.5,3.358-7.5,7.5s3.358,7.5,7.5,7.5h34.514v18.407    c-9.681,3.165-16.696,12.277-16.696,23.001c0,13.342,10.854,24.197,24.196,24.197c13.343,0,24.197-10.854,24.197-24.197    c0-10.725-7.016-19.837-16.697-23.001V345.98h180.646c4.143,0,7.5-3.358,7.5-7.5V162.636    C489.795,158.494,486.438,155.136,482.295,155.136z M294.149,396.585c-5.071,0-9.196-4.125-9.196-9.197s4.125-9.197,9.196-9.197    s9.197,4.125,9.197,9.197S299.221,396.585,294.149,396.585z"/>
		<path d="M212.97,357.443c0.018-0.026,0.034-0.054,0.052-0.08c0.409-0.588,0.806-1.184,1.179-1.797    c0.085-0.14,0.162-0.285,0.245-0.426c0.311-0.527,0.607-1.064,0.89-1.609c0.112-0.215,0.224-0.429,0.332-0.647    c0.32-0.646,0.623-1.302,0.903-1.97c0.079-0.189,0.15-0.382,0.226-0.573c0.223-0.559,0.431-1.126,0.626-1.699    c0.064-0.188,0.133-0.373,0.194-0.562l88.165-101.504c2.717-3.127,2.383-7.864-0.744-10.58s-7.865-2.384-10.58,0.744l-78.98,90.93    c-0.142-0.154-0.274-0.315-0.423-0.463c-2.73-2.752-6.375-4.269-10.265-4.269H122.2c-24.394,0-44.24,19.846-44.24,44.24v5.93    h-8.993v-2.847c0-4.142-3.358-7.5-7.5-7.5H7.5c-4.142,0-7.5,3.358-7.5,7.5s3.358,7.5,7.5,7.5h46.467v103.655H21.694    c-4.142,0-7.5,3.358-7.5,7.5s3.358,7.5,7.5,7.5h39.773c4.142,0,7.5-3.358,7.5-7.5v-2.848h79.123    c3.602,5.54,9.835,9.218,16.921,9.218h28.661c11.128,0,20.182-9.054,20.182-20.182v-3.423c0-2.509-0.481-4.903-1.322-7.122    c7.352-3.365,12.482-10.774,12.482-19.374v-3.728c0-4.475-1.393-8.628-3.759-12.06c4.174-3.893,6.803-9.422,6.803-15.567v-3.728    c0-3.777-0.998-7.321-2.728-10.4c5.33-3.878,8.815-10.146,8.815-17.227v-3.728C234.144,367.044,224.658,357.519,212.97,357.443z     M219.144,378.75v3.728c0,3.481-2.832,6.313-6.313,6.313h-6.087h-25.13c-3.481,0-6.313-2.832-6.313-6.313v-3.728    c0-3.481,2.832-6.313,6.313-6.313h2.579c0.026,0,0.051,0.004,0.077,0.004h6.8c0.026,0,0.052-0.004,0.079-0.004h1.798    c0.03,0,0.06,0.004,0.09,0.004c0.025,0,0.05-0.004,0.075-0.004h19.719C216.312,372.436,219.144,375.268,219.144,378.75z     M213.057,410.104v3.728c0,3.481-2.832,6.313-6.313,6.313H203.7h-28.174c-3.481,0-6.313-2.832-6.313-6.313v-3.728    c0-3.481,2.832-6.313,6.313-6.313h6.087h25.13C210.225,403.791,213.057,406.623,213.057,410.104z M210.013,445.188    c0,3.481-2.832,6.313-6.313,6.313h-1.031c-0.006,0-0.013-0.001-0.019-0.001s-0.013,0.001-0.019,0.001h-8.96h-21.188    c-3.481,0-6.313-2.832-6.313-6.313v-3.728c0-3.481,2.832-6.313,6.313-6.313h3.043H203.7c3.481,0,6.313,2.832,6.313,6.313V445.188z     M161.591,389.711l-8.465,9.742c4.327-7.094,6.326-15.053,7.22-21.602c-0.013,0.3-0.046,0.595-0.046,0.899v3.728    C160.3,385.02,160.77,387.448,161.591,389.711z M160.712,374.599c0.068-0.747,0.128-1.476,0.171-2.163h0.372    C161.036,373.142,160.858,373.864,160.712,374.599z M68.97,388.11h16.49c4.142,0,7.5-3.358,7.5-7.5v-13.336    c0-0.033,0.005-0.064,0.005-0.097c0-16.121,13.115-29.236,29.236-29.236h82.07c-0.273,10.796-9.142,19.495-20.003,19.495h-2.655    H153.44c-2.084,0-4.075,0.877-5.494,2.405c-1.419,1.527-2.138,3.585-1.985,5.665c0.014,0.193,1.305,19.409-8.55,30.015    c-4.417,4.753-10.457,7.064-18.466,7.064c-4.142,0-7.5,3.358-7.5,7.5s3.358,7.5,7.5,7.5c10.232,0,18.829-2.798,25.646-8.309    L119.718,437.9c-2.717,3.127-2.384,7.864,0.742,10.581c1.42,1.234,3.172,1.838,4.916,1.838c2.097,0,4.182-0.874,5.665-2.581    l24.092-27.727c0.643,2.119,1.608,4.096,2.838,5.881c-4.174,3.893-6.802,9.422-6.802,15.566v3.728    c0,3.558,0.888,6.909,2.436,9.861c-5.136,3.532-8.545,9.378-8.746,16.021H68.97V388.11z M198.853,475.106    c0,2.857-2.325,5.182-5.182,5.182H165.01c-2.857,0-5.182-2.325-5.182-5.182v-3.423c0-2.857,2.325-5.182,5.182-5.182h7.472h21.188    c2.857,0,5.182,2.325,5.182,5.182V475.106z"/>
		<path d="M47.31,468.109v-0.937c0-4.142-3.358-7.5-7.5-7.5s-7.5,3.358-7.5,7.5v0.937c0,4.142,3.358,7.5,7.5,7.5    S47.31,472.251,47.31,468.109z"/>
		<path d="M504.5,15.583H206c-4.142,0-7.5,3.358-7.5,7.5s3.358,7.5,7.5,7.5h291v32.712h-14.705h-376.29H91.3V30.583h84.705    c4.142,0,7.5-3.358,7.5-7.5s-3.358-7.5-7.5-7.5H83.8c-4.142,0-7.5,3.358-7.5,7.5v47.712c0,4.142,3.358,7.5,7.5,7.5h14.705v225.69    c0,4.142,3.358,7.5,7.5,7.5s7.5-3.358,7.5-7.5V78.295h361.29v54.343c0,4.142,3.357,7.5,7.5,7.5s7.5-3.358,7.5-7.5V78.295H504.5    c4.143,0,7.5-3.358,7.5-7.5V23.083C512,18.94,508.643,15.583,504.5,15.583z"/>
		<path d="M156.692,224.507c-12.971,0-23.524,10.553-23.524,23.524s10.553,23.524,23.524,23.524s23.524-10.553,23.524-23.524    c0-3.408-0.734-6.646-2.044-9.573l58.54-53.866c3.43,1.958,7.395,3.083,11.619,3.083c5.635,0,10.812-1.994,14.867-5.31    l53.848,33.034c-0.389,1.693-0.601,3.453-0.601,5.263c0,12.971,10.553,23.524,23.523,23.524c12.972,0,23.524-10.553,23.524-23.524    c0-3.099-0.608-6.058-1.702-8.77l57.737-49.3c3.533,2.123,7.666,3.347,12.08,3.347c12.971,0,23.523-10.553,23.523-23.524    s-10.553-23.524-23.523-23.524c-12.972,0-23.524,10.553-23.524,23.524c0,3.1,0.608,6.058,1.703,8.771l-57.737,49.3    c-3.533-2.123-7.666-3.348-12.08-3.348c-5.73,0-10.986,2.062-15.071,5.48l-53.704-32.945c0.428-1.772,0.661-3.62,0.661-5.521    c0-12.971-10.553-23.524-23.523-23.524c-12.971,0-23.524,10.553-23.524,23.524c0,3.287,0.68,6.417,1.903,9.261l-58.694,54.008    C164.654,225.565,160.795,224.507,156.692,224.507z M156.692,256.555c-4.7,0-8.524-3.824-8.524-8.524s3.824-8.524,8.524-8.524    s8.524,3.824,8.524,8.524S161.393,256.555,156.692,256.555z M431.607,133.89c4.7,0,8.523,3.824,8.523,8.524    s-3.823,8.524-8.523,8.524s-8.524-3.824-8.524-8.524S426.907,133.89,431.607,133.89z M339.969,212.137    c4.7,0,8.524,3.824,8.524,8.524s-3.824,8.524-8.524,8.524s-8.523-3.824-8.523-8.524S335.269,212.137,339.969,212.137z     M248.331,155.626c4.7,0,8.523,3.824,8.523,8.524s-3.824,8.524-8.523,8.524c-4.7,0-8.524-3.824-8.524-8.524    S243.631,155.626,248.331,155.626z"/>
	</g>
</g>















</svg>
